<?xml version="1.0" encoding="utf-8"?>
<!-- Generator: Adobe Illustrator 22.1.0, SVG Export Plug-In . SVG Version: 6.00 Build 0)  -->
<svg version="1.1" id="Layer_1" xmlns="http://www.w3.org/2000/svg" xmlns:xlink="http://www.w3.org/1999/xlink" x="0px" y="0px"
	 viewBox="0 0 603.8 462" style="enable-background:new 0 0 603.8 462;" xml:space="preserve">
<style type="text/css">
	.st0{fill:none;}
	.st1{fill:#777777;}
	.st2{fill:#777777;stroke:#777777;stroke-width:0.7087;stroke-linecap:round;}
	.st3{font-family:'ArialMT';}
	.st4{font-size:12px;}
</style>
<image style="overflow:visible;" width="626" height="626" xlink:href="../t1TwA.jpg"  transform="matrix(6.561415e-09 -0.1115 0.1157 6.805826e-09 60.1 175.1)">
</image>
<g id="svgGroup">
	<path id="front_outsideCutPath" vector-effect="non-scaling-stroke" class="st0" d="M-3.9,235.3V462h201.3V235.3H-3.9z"/>
	<path id="left_outsideCutPath" vector-effect="non-scaling-stroke" class="st0" d="M205.9,235.3V462h184.2V235.3H205.9z"/>
	<path id="top_outsideCutPath" vector-effect="non-scaling-stroke" class="st0" d="M398.6,260.8V462h201.3V260.8H398.6z"/>
	<path id="top_labelLayer" vector-effect="non-scaling-stroke" class="st1" d="M513.7,367.1h-0.2c0.1,0.8,0.2,1.5,0.2,2.3
		c0,0.4,0,0.9,0,1.3v8.9h-3.3v-31.2h2.7l0.5,2.9h0.2c0.4-0.5,0.8-1,1.3-1.4c0.5-0.5,1.1-0.8,1.7-1.1c0.7-0.3,1.5-0.6,2.3-0.7
		c0.5-0.1,1-0.1,1.5-0.1c2.9,0,5.1,1,6.6,2.9c1.6,2,2.3,4.7,2.3,8.2c0,1.1-0.1,2.2-0.3,3.2c-0.2,1.1-0.5,2.2-0.9,3.1
		c-0.3,0.7-0.7,1.3-1.2,1.9c-1.3,1.7-3.3,2.7-5.5,2.9c-0.4,0-0.7,0.1-1.1,0.1c-1.4,0-2.7-0.3-3.8-0.8
		C515.5,368.9,514.5,368.2,513.7,367.1z M481.8,367.2v2.5c-0.1,0.1-0.3,0.1-0.4,0.2c-0.3,0.1-0.7,0.2-1.2,0.3
		c-0.3,0.1-0.6,0.1-0.9,0.1s-0.6,0-0.8,0h-0.1c-4.2,0-6.3-2.2-6.3-6.6v-12.8h-3v-1.6l3.1-1.4l1.4-4.6h1.9v5h6.3v2.5h-6.3v12.7
		c0,0.4,0,0.8,0.1,1.2c0.1,0.4,0.2,0.8,0.4,1.1c0.1,0.3,0.3,0.5,0.5,0.7c0.5,0.5,1.1,0.9,1.9,1c0.2,0,0.4,0,0.7,0c0.5,0,1,0,1.6-0.1
		h0.1c0.2,0,0.3-0.1,0.5-0.1C481.3,367.3,481.6,367.2,481.8,367.2z M504.4,362.3c0.2-1.1,0.3-2.2,0.3-3.3c0-0.2,0-0.3,0-0.5
		c0-1.2-0.2-2.3-0.4-3.3c-0.4-1.6-1.1-3.1-2.2-4.3c-1.1-1.2-2.4-2.1-4-2.6c-1-0.3-2.1-0.5-3.2-0.4c-0.8,0-1.5,0.1-2.3,0.2
		c-1.9,0.3-3.7,1.3-5,2.7c-1.8,2-2.6,4.7-2.6,8.2c0,2.3,0.4,4.2,1.2,5.9c0.1,0.2,0.2,0.3,0.2,0.5c0.7,1.4,1.9,2.6,3.2,3.4
		c0.7,0.4,1.4,0.7,2.1,0.9c1,0.3,2,0.4,3,0.4c0.7,0,1.5-0.1,2.2-0.2c2-0.3,3.8-1.3,5.1-2.8C503.3,366,504,364.3,504.4,362.3z
		 M488.3,359.1c0,0.8,0,1.6,0.2,2.4c0.2,1.6,0.7,2.9,1.5,3.9c0.8,1.1,2.1,1.8,3.5,2c0.5,0.1,0.9,0.1,1.4,0.1c0.7,0,1.3-0.1,2-0.2
		c1.1-0.3,2.2-1,2.9-1.9c0.8-1.1,1.3-2.5,1.6-4.3c0.1-0.7,0.1-1.3,0.1-2c0-1.8-0.2-3.2-0.7-4.5c-0.2-0.6-0.6-1.2-1-1.8
		c-0.8-1.1-2-1.8-3.3-2c-0.5-0.1-1-0.1-1.6-0.1c-0.7,0-1.3,0.1-1.9,0.2c-1.2,0.3-2.2,0.9-2.9,1.9c-0.8,1-1.3,2.4-1.5,4.1
		C488.4,357.6,488.3,358.3,488.3,359.1z M513.7,358.3v0.7c0,0.7,0,1.5,0.1,2.2c0.2,1.9,0.7,3.3,1.4,4.3c0.6,0.8,1.5,1.3,2.4,1.6
		c0.5,0.2,1.1,0.3,1.8,0.3c0.2,0,0.4,0,0.7,0c0.7,0,1.5-0.1,2.1-0.4c0.8-0.3,1.5-0.9,2.1-1.7c0-0.1,0.1-0.1,0.1-0.2
		c0.5-0.7,0.8-1.5,1.1-2.3c0.2-0.7,0.4-1.5,0.4-2.3c0-0.5,0.1-1.1,0.1-1.6c0-0.8,0-1.6-0.2-2.3c-0.1-0.8-0.3-1.5-0.5-2.1
		s-0.5-1.2-0.9-1.7c-1.1-1.4-2.5-2.2-4.5-2.2c-0.6,0-1.2,0-1.8,0.2c-1.3,0.3-2.3,0.8-3,1.7c-0.4,0.5-0.7,1-0.9,1.6
		C513.9,355.2,513.7,356.6,513.7,358.3z"/>
	<path id="back_outsideCutPath" vector-effect="non-scaling-stroke" class="st0" d="M-3.9,0v226.8h201.3V0H-3.9z"/>
	<path id="right_outsideCutPath" vector-effect="non-scaling-stroke" class="st0" d="M205.9,0v226.8h184.2V0H205.9z"/>
	<path id="bottom_outsideCutPath" vector-effect="non-scaling-stroke" class="st0" d="M398.6,51v201.3h201.3V51H398.6z"/>
	<path id="bottom_labelLayer" vector-effect="non-scaling-stroke" class="st1" d="M565.5,166.7h-3.3v-14c0-0.5,0-0.9-0.1-1.4
		s-0.2-0.9-0.3-1.3c-0.2-0.4-0.4-0.8-0.7-1.1c-0.4-0.5-1-0.8-1.6-1c-0.5-0.2-1.1-0.3-1.8-0.3c-2,0-3.5,0.6-4.5,1.7
		c-0.4,0.5-0.7,1.1-0.9,1.7c-0.4,1-0.5,2.2-0.5,3.7l0,0v12h-3.3v-14c0-0.5,0-0.9-0.1-1.4s-0.2-0.9-0.3-1.3c-0.2-0.4-0.4-0.8-0.7-1.1
		c-0.7-0.9-1.9-1.3-3.4-1.3c-2,0-3.5,0.6-4.5,1.8c-0.9,1.1-1.3,2.9-1.4,5.3c0,0.3,0,0.5,0,0.8v11.3h-3.3v-21.5h2.7l0.5,2.9h0.2
		c0.6-1,1.5-1.9,2.6-2.5c1-0.5,2-0.8,3.1-0.9c0.2,0,0.5,0,0.7,0c0.8,0,1.6,0.1,2.4,0.2c1,0.2,1.8,0.6,2.5,1.2
		c0.7,0.6,1.3,1.4,1.7,2.3h0.2c0.6-1.1,1.5-1.9,2.6-2.5c0.1,0,0.1-0.1,0.2-0.1c0.9-0.5,2-0.8,3-0.9c0.4,0,0.8-0.1,1.1-0.1
		c0.7,0,1.4,0.1,2.1,0.2c0.8,0.1,1.4,0.4,2,0.7c0.5,0.3,1,0.6,1.4,1c0.5,0.6,0.9,1.2,1.2,2c0.2,0.6,0.4,1.2,0.5,2
		c0.1,0.7,0.1,1.4,0.1,2.1v13.8L565.5,166.7L565.5,166.7z M436.3,164h-0.2l-0.7,2.8h-2.3v-30.6h3.3v7.4c0,0.8,0,1.5,0,2.3
		c0,0.7-0.1,1.4-0.1,2.1v0.1h0.2c1.3-1.8,3.2-2.9,5.4-3.1c0.4-0.1,0.9-0.1,1.3-0.1c0.9,0,1.9,0.1,2.8,0.4c1.5,0.4,2.8,1.3,3.8,2.5
		c0.8,1,1.3,2.1,1.7,3.2c0.4,1.4,0.7,3.1,0.7,5c0,1.1-0.1,2.2-0.3,3.2c-0.2,1.1-0.5,2.2-0.9,3.1c-0.3,0.7-0.7,1.3-1.2,1.9
		c-1.3,1.7-3.3,2.7-5.5,2.9c-0.4,0-0.7,0.1-1.1,0.1c-1.4,0-2.7-0.3-3.8-0.8C438.1,165.8,437.1,165.1,436.3,164z M491.9,164.1v2.5
		c-0.1,0.1-0.3,0.1-0.4,0.2c-0.3,0.1-0.7,0.2-1.2,0.3c-0.3,0-0.6,0.1-0.9,0.1s-0.6,0-0.8,0h-0.1c-4.2,0-6.3-2.2-6.3-6.6v-12.8h-3.1
		v-1.6l3.1-1.4l1.4-4.6h1.9v5h6.3v2.5h-6.3v12.7c0,0.4,0,0.8,0.1,1.2s0.2,0.8,0.4,1.1c0.1,0.3,0.3,0.5,0.5,0.7
		c0.5,0.5,1.1,0.9,1.9,1c0.2,0,0.4,0.1,0.7,0.1c0.5,0,1,0,1.6-0.1h0.1c0.2,0,0.3-0.1,0.5-0.1C491.4,164.2,491.7,164.1,491.9,164.1z
		 M506.1,164.1v2.5c-0.1,0.1-0.3,0.1-0.4,0.2c-0.3,0.1-0.7,0.2-1.2,0.3c-0.3,0-0.6,0.1-0.9,0.1s-0.6,0-0.8,0h-0.1
		c-4.2,0-6.3-2.2-6.3-6.6v-12.8h-3.1v-1.6l3.1-1.4l1.4-4.6h1.9v5h6.3v2.5h-6.3v12.7c0,0.4,0,0.8,0.1,1.2s0.2,0.8,0.4,1.1
		c0.1,0.3,0.3,0.5,0.5,0.7c0.5,0.5,1.1,0.9,1.9,1c0.2,0,0.4,0.1,0.7,0.1c0.5,0,1,0,1.6-0.1h0.1c0.2,0,0.3-0.1,0.5-0.1
		C505.6,164.2,505.9,164.1,506.1,164.1z M476,159.2c0.2-1.1,0.3-2.2,0.3-3.3c0-0.2,0-0.3,0-0.5c0-1.2-0.2-2.3-0.4-3.3
		c-0.4-1.6-1.1-3.1-2.2-4.3s-2.4-2.1-4-2.6c-1-0.3-2.1-0.5-3.2-0.5c-0.8,0-1.5,0.1-2.3,0.2c-1.9,0.3-3.7,1.3-5,2.7
		c-1.8,2-2.6,4.7-2.6,8.2c0,2.3,0.4,4.2,1.2,5.9c0.1,0.2,0.2,0.3,0.2,0.5c0.7,1.4,1.9,2.6,3.2,3.4c0.7,0.4,1.4,0.7,2.1,0.9
		c1,0.3,2,0.4,3,0.4c0.7,0,1.5-0.1,2.2-0.2c2-0.3,3.8-1.3,5.1-2.8C474.8,162.9,475.6,161.2,476,159.2z M528.7,159.2
		c0.2-1.1,0.3-2.2,0.3-3.3c0-0.2,0-0.3,0-0.5c0-1.2-0.2-2.3-0.4-3.3c-0.4-1.6-1.1-3.1-2.2-4.3c-1.1-1.2-2.4-2.1-4-2.6
		c-1-0.3-2.1-0.5-3.2-0.5c-0.8,0-1.5,0.1-2.3,0.2c-1.9,0.3-3.7,1.3-5,2.7c-1.8,2-2.6,4.7-2.6,8.2c0,2.3,0.4,4.2,1.2,5.9
		c0.1,0.2,0.2,0.3,0.2,0.5c0.7,1.4,1.9,2.6,3.2,3.4c0.7,0.4,1.4,0.7,2.1,0.9c1,0.3,2,0.4,3,0.4c0.7,0,1.5-0.1,2.2-0.2
		c2-0.3,3.8-1.3,5.1-2.8C527.5,162.9,528.3,161.2,528.7,159.2z M459.9,156c0,0.8,0,1.6,0.2,2.4c0.2,1.6,0.7,2.9,1.5,3.9
		c0.8,1.1,2.1,1.9,3.5,2.1c0.5,0.1,0.9,0.1,1.4,0.1c0.7,0,1.3-0.1,2-0.2c1.1-0.3,2.2-1,2.9-1.9c0.8-1.1,1.3-2.5,1.6-4.3
		c0.1-0.7,0.1-1.3,0.1-2c0-1.8-0.2-3.2-0.7-4.5c-0.2-0.6-0.6-1.2-1-1.8c-0.8-1.1-2-1.8-3.3-2c-0.5-0.1-1-0.1-1.6-0.1
		c-0.7,0-1.3,0.1-1.9,0.2c-1.2,0.3-2.2,0.9-2.9,1.9c-0.8,1-1.3,2.4-1.5,4.1C459.9,154.5,459.9,155.2,459.9,156z M512.6,156
		c0,0.8,0,1.6,0.2,2.4c0.2,1.6,0.7,2.9,1.5,3.9c0.8,1.1,2.1,1.9,3.5,2.1c0.5,0.1,0.9,0.1,1.4,0.1c0.7,0,1.3-0.1,2-0.2
		c1.1-0.3,2.2-1,2.9-1.9c0.8-1.1,1.3-2.5,1.6-4.3c0.1-0.7,0.1-1.3,0.1-2c0-1.8-0.2-3.2-0.7-4.5c-0.2-0.6-0.6-1.2-1-1.8
		c-0.8-1.1-2-1.8-3.3-2c-0.5-0.1-1-0.1-1.6-0.1c-0.7,0-1.3,0.1-1.9,0.2c-1.2,0.3-2.2,0.9-2.9,1.9c-0.8,1-1.3,2.4-1.5,4.1
		C512.7,154.5,512.6,155.2,512.6,156z M442.6,147.6c-0.6,0-1.2,0-1.8,0.2c-0.7,0.1-1.3,0.4-1.8,0.6c-0.5,0.3-0.9,0.7-1.3,1.1
		c-0.3,0.5-0.6,1-0.8,1.5c-0.4,1-0.6,2.3-0.6,3.9c0,0.4,0,0.7,0,1.1c0,0.7,0,1.5,0.1,2.2c0.2,1.9,0.7,3.3,1.4,4.3
		c0.6,0.8,1.5,1.3,2.4,1.6c0.5,0.2,1.1,0.3,1.8,0.3c0.2,0,0.4,0,0.7,0c0.6,0,1.2-0.1,1.8-0.2c1.1-0.3,2-1,2.6-1.9
		c0.4-0.6,0.7-1.3,0.9-2c0.2-0.6,0.3-1.3,0.4-2.1c0.1-0.7,0.1-1.5,0.1-2.2c0-2.8-0.5-4.9-1.5-6.3
		C446.2,148.3,444.6,147.6,442.6,147.6z"/>
</g>
<ellipse transform="matrix(0.4473 -0.8944 0.8944 0.4473 101.0602 265.96)" class="st2" cx="265.7" cy="51.2" rx="11.3" ry="11.3"/>
<circle class="st2" cx="333.1" cy="51" r="11.3"/>
<ellipse transform="matrix(0.3162 -0.9487 0.9487 0.3162 46.4271 346.8135)" class="st2" cx="263.8" cy="141.2" rx="11.3" ry="11.3"/>
<circle class="st2" cx="336" cy="141.2" r="11.3"/>
<circle class="st2" cx="263.8" cy="276.6" r="18.4"/>
<circle class="st2" cx="339" cy="276.6" r="18.4"/>
<circle class="st2" cx="263.8" cy="379.5" r="18.4"/>
<circle class="st2" cx="339" cy="379.5" r="18.4"/>
<image style="overflow:visible;enable-background:new    ;" width="959" height="959" xlink:href="Box/Images/battery.jpg"  transform="matrix(6.045340e-02 0 0 5.598316e-02 272.9024 71.0534)">
</image>
<image style="overflow:visible;" width="1600" height="1600" xlink:href="Box/Images/engine.jpg"  transform="matrix(3.849540e-02 0 0 3.562780e-02 271.0934 160.2323)">
</image>
<image style="overflow:visible;enable-background:new    ;" width="150" height="151" xlink:href="Box/Images/arduino.jpg"  transform="matrix(0.2834 0 0 0.2752 242.5175 303.1404)">
</image>
<image style="overflow:visible;" width="1600" height="1600" xlink:href="Box/Images/engine.jpg"  transform="matrix(3.412803e-02 0 0 3.004271e-02 309.3597 299.8866)">
</image>
<image style="overflow:visible;enable-background:new    ;" width="530" height="530" xlink:href="Box/Images/brain.jpg"  transform="matrix(8.869101e-02 0 0 8.304498e-02 315.4621 405.5045)">
</image>
<circle class="st2" cx="71.2" cy="44.2" r="7.1"/>
<circle class="st2" cx="120.3" cy="44.2" r="7.1"/>
<image style="overflow:visible;enable-background:new    ;" width="1667" height="1786" xlink:href="Box/Images/info.jpg"  transform="matrix(1.211721e-02 0 0 1.169880e-02 61.1179 63.5583)">
</image>
<image style="overflow:visible;" width="1600" height="1600" xlink:href="Box/Images/engine.jpg"  transform="matrix(1.644337e-02 0 0 1.460217e-02 107.1675 62.3236)">
</image>
<circle class="st2" cx="96.3" cy="136.2" r="9.9"/>
<rect x="28.6" y="180.3" class="st2" width="29" height="23"/>
<rect x="49.2" y="187.7" class="st2" width="1.1" height="1.1"/>
<rect x="128.2" y="175.4" class="st2" width="60" height="26.6"/>
<text transform="matrix(1 0 0 1 140.1933 191.796)" class="st3 st4">sensors</text>
<image style="overflow:visible;enable-background:new    ;" width="257" height="257" xlink:href="Box/Images/icon.jpg"  transform="matrix(0.605 0 0 0.6725 18.6094 261.4954)">
</image>
<image style="overflow:visible;" width="421" height="402" xlink:href="../analog-png-7.png"  transform="matrix(0.1537 0 0 0.111 233.3463 405.5045)">
</image>
</svg>
