0
SECTION
2
HEADER
9
$ANGDIR
70
1
9
$AUNITS
70
0
9
$PROJECTNAME
1
new_board
9
$TDCREATE
40
2458856.33893419
9
$INSUNITS
70
4
0
ENDSEC
0
SECTION
2
ENTITIES
0
POLYLINE
66
1
8
outline
10
0.0
20
0.0
30
0.0
70
1
0
VERTEX
8
0
10
0
20
0
30
0
0
VERTEX
8
0
10
48.24
20
0
30
0
0
VERTEX
8
0
10
48.24
20
56.82
30
0
0
VERTEX
8
0
10
0
20
56.82
30
0
0
VERTEX
8
0
10
0
20
0
30
0
0
SEQEND
0
POLYLINE
66
1
8
1_copper
10
0.0
20
0.0
30
0.0
70
1
0
VERTEX
8
0
10
38.196078125
20
31.718296875
30
0
42
0.3578058919557322
0
VERTEX
8
0
10
38.754000000000005
20
32.333871875
30
0
0
VERTEX
8
0
10
38.754000000000005
20
33.706128125
30
0
42
0.9520803604479573
0
VERTEX
8
0
10
37.446000000000005
20
33.706128125
30
0
0
VERTEX
8
0
10
37.446000000000005
20
32.333871875
30
0
0
VERTEX
8
0
10
37.452296875
20
32.269921875
30
0
0
VERTEX
8
0
10
37.464834375
20
32.206900000000005
30
0
0
VERTEX
8
0
10
37.4834875
20
32.145409375
30
0
0
VERTEX
8
0
10
37.508078125000004
20
32.086040625
30
0
0
VERTEX
8
0
10
37.538368750000004
20
32.029371875
30
0
0
VERTEX
8
0
10
37.57406875
20
31.975943750000003
30
0
0
VERTEX
8
0
10
37.614834375
20
31.926271875
30
0
0
VERTEX
8
0
10
37.660271875
20
31.880834375000003
30
0
0
VERTEX
8
0
10
37.70994375
20
31.84006875
30
0
0
VERTEX
8
0
10
37.763371875000004
20
31.804368750000002
30
0
0
VERTEX
8
0
10
37.820040625000004
20
31.774078125000003
30
0
0
VERTEX
8
0
10
37.879409375
20
31.7494875
30
0
0
VERTEX
8
0
10
37.9409
20
31.730834375
30
0
0
VERTEX
8
0
10
38.003921875
20
31.718296875
30
0
0
VERTEX
8
0
10
38.067871875
20
31.712
30
0
0
VERTEX
8
0
10
38.132128125
20
31.712
30
0
0
SEQEND
0
POLYLINE
66
1
8
1_copper
10
0.0
20
0.0
30
0.0
70
1
0
VERTEX
8
0
10
35.656078125
20
31.718296875
30
0
42
0.3578058919557322
0
VERTEX
8
0
10
36.214
20
32.333871875
30
0
0
VERTEX
8
0
10
36.214
20
33.706128125
30
0
42
0.9520803604479573
0
VERTEX
8
0
10
34.906
20
33.706128125
30
0
0
VERTEX
8
0
10
34.906
20
32.333871875
30
0
0
VERTEX
8
0
10
34.912296875
20
32.269921875
30
0
0
VERTEX
8
0
10
34.924834375
20
32.206900000000005
30
0
0
VERTEX
8
0
10
34.9434875
20
32.145409375
30
0
0
VERTEX
8
0
10
34.968078125
20
32.086040625
30
0
0
VERTEX
8
0
10
34.998368750000004
20
32.029371875
30
0
0
VERTEX
8
0
10
35.03406875
20
31.975943750000003
30
0
0
VERTEX
8
0
10
35.074834375
20
31.926271875
30
0
0
VERTEX
8
0
10
35.120271875
20
31.880834375000003
30
0
0
VERTEX
8
0
10
35.16994375
20
31.84006875
30
0
0
VERTEX
8
0
10
35.223371875000005
20
31.804368750000002
30
0
0
VERTEX
8
0
10
35.280040625000005
20
31.774078125000003
30
0
0
VERTEX
8
0
10
35.339409375
20
31.7494875
30
0
0
VERTEX
8
0
10
35.4009
20
31.730834375
30
0
0
VERTEX
8
0
10
35.463921875000004
20
31.718296875
30
0
0
VERTEX
8
0
10
35.527871875
20
31.712
30
0
0
VERTEX
8
0
10
35.592128125
20
31.712
30
0
0
SEQEND
0
POLYLINE
66
1
8
1_copper
10
0.0
20
0.0
30
0.0
70
1
0
VERTEX
8
0
10
33.116078125
20
31.718296875
30
0
42
0.3578058919557322
0
VERTEX
8
0
10
33.674
20
32.333871875
30
0
0
VERTEX
8
0
10
33.674
20
33.706128125
30
0
42
0.9520803604479573
0
VERTEX
8
0
10
32.366
20
33.706128125
30
0
0
VERTEX
8
0
10
32.366
20
32.333871875
30
0
0
VERTEX
8
0
10
32.372296875
20
32.269921875
30
0
0
VERTEX
8
0
10
32.384834375000004
20
32.206900000000005
30
0
0
VERTEX
8
0
10
32.403487500000004
20
32.145409375
30
0
0
VERTEX
8
0
10
32.428078125
20
32.086040625
30
0
0
VERTEX
8
0
10
32.45836875
20
32.029371875
30
0
0
VERTEX
8
0
10
32.494068750000004
20
31.975943750000003
30
0
0
VERTEX
8
0
10
32.534834375
20
31.926271875
30
0
0
VERTEX
8
0
10
32.580271875
20
31.880834375000003
30
0
0
VERTEX
8
0
10
32.62994375
20
31.84006875
30
0
0
VERTEX
8
0
10
32.683371875
20
31.804368750000002
30
0
0
VERTEX
8
0
10
32.740040625
20
31.774078125000003
30
0
0
VERTEX
8
0
10
32.799409375
20
31.7494875
30
0
0
VERTEX
8
0
10
32.8609
20
31.730834375
30
0
0
VERTEX
8
0
10
32.923921875000005
20
31.718296875
30
0
0
VERTEX
8
0
10
32.987871875
20
31.712
30
0
0
VERTEX
8
0
10
33.052128125
20
31.712
30
0
0
SEQEND
0
POLYLINE
66
1
8
1_copper
10
0.0
20
0.0
30
0.0
70
1
0
VERTEX
8
0
10
12.796078125000001
20
31.718296875
30
0
42
0.3578058919557322
0
VERTEX
8
0
10
13.354000000000001
20
32.333871875
30
0
0
VERTEX
8
0
10
13.354000000000001
20
33.706128125
30
0
42
0.9520803604479573
0
VERTEX
8
0
10
12.046000000000001
20
33.706128125
30
0
0
VERTEX
8
0
10
12.046000000000001
20
32.333871875
30
0
0
VERTEX
8
0
10
12.052296875000001
20
32.269921875
30
0
0
VERTEX
8
0
10
12.064834375
20
32.206900000000005
30
0
0
VERTEX
8
0
10
12.0834875
20
32.145409375
30
0
0
VERTEX
8
0
10
12.108078125
20
32.086040625
30
0
0
VERTEX
8
0
10
12.13836875
20
32.029371875
30
0
0
VERTEX
8
0
10
12.17406875
20
31.975943750000003
30
0
0
VERTEX
8
0
10
12.214834375
20
31.926271875
30
0
0
VERTEX
8
0
10
12.260271875
20
31.880834375000003
30
0
0
VERTEX
8
0
10
12.30994375
20
31.84006875
30
0
0
VERTEX
8
0
10
12.363371875
20
31.804368750000002
30
0
0
VERTEX
8
0
10
12.420040625
20
31.774078125000003
30
0
0
VERTEX
8
0
10
12.479409375000001
20
31.7494875
30
0
0
VERTEX
8
0
10
12.5409
20
31.730834375
30
0
0
VERTEX
8
0
10
12.603921875000001
20
31.718296875
30
0
0
VERTEX
8
0
10
12.667871875000001
20
31.712
30
0
0
VERTEX
8
0
10
12.732128125000001
20
31.712
30
0
0
SEQEND
0
POLYLINE
66
1
8
1_copper
10
0.0
20
0.0
30
0.0
70
1
0
VERTEX
8
0
10
10.256078125
20
31.718296875
30
0
42
0.3578058919557322
0
VERTEX
8
0
10
10.814
20
32.333871875
30
0
0
VERTEX
8
0
10
10.814
20
33.706128125
30
0
42
0.9520803604479573
0
VERTEX
8
0
10
9.506
20
33.706128125
30
0
0
VERTEX
8
0
10
9.506
20
32.333871875
30
0
0
VERTEX
8
0
10
9.512296875
20
32.269921875
30
0
0
VERTEX
8
0
10
9.524834375000001
20
32.206900000000005
30
0
0
VERTEX
8
0
10
9.543487500000001
20
32.145409375
30
0
0
VERTEX
8
0
10
9.568078125000001
20
32.086040625
30
0
0
VERTEX
8
0
10
9.59836875
20
32.029371875
30
0
0
VERTEX
8
0
10
9.63406875
20
31.975943750000003
30
0
0
VERTEX
8
0
10
9.674834375
20
31.926271875
30
0
0
VERTEX
8
0
10
9.720271875
20
31.880834375000003
30
0
0
VERTEX
8
0
10
9.769943750000001
20
31.84006875
30
0
0
VERTEX
8
0
10
9.823371875000001
20
31.804368750000002
30
0
0
VERTEX
8
0
10
9.880040625000001
20
31.774078125000003
30
0
0
VERTEX
8
0
10
9.939409375
20
31.7494875
30
0
0
VERTEX
8
0
10
10.0009
20
31.730834375
30
0
0
VERTEX
8
0
10
10.063921875
20
31.718296875
30
0
0
VERTEX
8
0
10
10.127871875
20
31.712
30
0
0
VERTEX
8
0
10
10.192128125
20
31.712
30
0
0
SEQEND
0
POLYLINE
66
1
8
1_copper
10
0.0
20
0.0
30
0.0
70
1
0
VERTEX
8
0
10
2.636078125
20
31.718296875
30
0
42
0.3578058919557322
0
VERTEX
8
0
10
3.194
20
32.333871875
30
0
0
VERTEX
8
0
10
3.194
20
33.706128125
30
0
42
0.9520803604479573
0
VERTEX
8
0
10
1.8860000000000001
20
33.706128125
30
0
0
VERTEX
8
0
10
1.8860000000000001
20
32.333871875
30
0
0
VERTEX
8
0
10
1.892296875
20
32.269921875
30
0
0
VERTEX
8
0
10
1.904834375
20
32.206900000000005
30
0
0
VERTEX
8
0
10
1.9234875
20
32.145409375
30
0
0
VERTEX
8
0
10
1.948078125
20
32.086040625
30
0
0
VERTEX
8
0
10
1.97836875
20
32.029371875
30
0
0
VERTEX
8
0
10
2.0140687500000003
20
31.975943750000003
30
0
0
VERTEX
8
0
10
2.054834375
20
31.926271875
30
0
0
VERTEX
8
0
10
2.1002718750000002
20
31.880834375000003
30
0
0
VERTEX
8
0
10
2.1499437500000003
20
31.84006875
30
0
0
VERTEX
8
0
10
2.203371875
20
31.804368750000002
30
0
0
VERTEX
8
0
10
2.2600406250000002
20
31.774078125000003
30
0
0
VERTEX
8
0
10
2.319409375
20
31.7494875
30
0
0
VERTEX
8
0
10
2.3809
20
31.730834375
30
0
0
VERTEX
8
0
10
2.443921875
20
31.718296875
30
0
0
VERTEX
8
0
10
2.507871875
20
31.712
30
0
0
VERTEX
8
0
10
2.5721281250000003
20
31.712
30
0
0
SEQEND
0
POLYLINE
66
1
8
1_copper
10
0.0
20
0.0
30
0.0
70
1
0
VERTEX
8
0
10
5.176078125
20
31.718296875
30
0
42
0.3578058919557322
0
VERTEX
8
0
10
5.734
20
32.333871875
30
0
0
VERTEX
8
0
10
5.734
20
33.706128125
30
0
42
0.9520803604479573
0
VERTEX
8
0
10
4.426
20
33.706128125
30
0
0
VERTEX
8
0
10
4.426
20
32.333871875
30
0
0
VERTEX
8
0
10
4.4322968750000005
20
32.269921875
30
0
0
VERTEX
8
0
10
4.444834375
20
32.206900000000005
30
0
0
VERTEX
8
0
10
4.4634875
20
32.145409375
30
0
0
VERTEX
8
0
10
4.488078125
20
32.086040625
30
0
0
VERTEX
8
0
10
4.5183687500000005
20
32.029371875
30
0
0
VERTEX
8
0
10
4.55406875
20
31.975943750000003
30
0
0
VERTEX
8
0
10
4.5948343750000005
20
31.926271875
30
0
0
VERTEX
8
0
10
4.640271875
20
31.880834375000003
30
0
0
VERTEX
8
0
10
4.68994375
20
31.84006875
30
0
0
VERTEX
8
0
10
4.743371875
20
31.804368750000002
30
0
0
VERTEX
8
0
10
4.800040625
20
31.774078125000003
30
0
0
VERTEX
8
0
10
4.859409375
20
31.7494875
30
0
0
VERTEX
8
0
10
4.9209000000000005
20
31.730834375
30
0
0
VERTEX
8
0
10
4.983921875
20
31.718296875
30
0
0
VERTEX
8
0
10
5.047871875
20
31.712
30
0
0
VERTEX
8
0
10
5.112128125
20
31.712
30
0
0
SEQEND
0
POLYLINE
66
1
8
1_copper
10
0.0
20
0.0
30
0.0
70
1
0
VERTEX
8
0
10
7.716078125
20
31.718296875
30
0
42
0.3578058919557322
0
VERTEX
8
0
10
8.274000000000001
20
32.333871875
30
0
0
VERTEX
8
0
10
8.274000000000001
20
33.706128125
30
0
42
0.9520803604479573
0
VERTEX
8
0
10
6.966
20
33.706128125
30
0
0
VERTEX
8
0
10
6.966
20
32.333871875
30
0
0
VERTEX
8
0
10
6.9722968750000005
20
32.269921875
30
0
0
VERTEX
8
0
10
6.984834375
20
32.206900000000005
30
0
0
VERTEX
8
0
10
7.0034875
20
32.145409375
30
0
0
VERTEX
8
0
10
7.028078125
20
32.086040625
30
0
0
VERTEX
8
0
10
7.0583687500000005
20
32.029371875
30
0
0
VERTEX
8
0
10
7.09406875
20
31.975943750000003
30
0
0
VERTEX
8
0
10
7.1348343750000005
20
31.926271875
30
0
0
VERTEX
8
0
10
7.180271875000001
20
31.880834375000003
30
0
0
VERTEX
8
0
10
7.22994375
20
31.84006875
30
0
0
VERTEX
8
0
10
7.283371875
20
31.804368750000002
30
0
0
VERTEX
8
0
10
7.340040625
20
31.774078125000003
30
0
0
VERTEX
8
0
10
7.399409375
20
31.7494875
30
0
0
VERTEX
8
0
10
7.4609000000000005
20
31.730834375
30
0
0
VERTEX
8
0
10
7.523921875
20
31.718296875
30
0
0
VERTEX
8
0
10
7.587871875
20
31.712
30
0
0
VERTEX
8
0
10
7.652128125
20
31.712
30
0
0
SEQEND
0
POLYLINE
66
1
8
1_copper
10
0.0
20
0.0
30
0.0
70
1
0
VERTEX
8
0
10
33.116078125
20
16.478296875
30
0
42
0.3578058919557322
0
VERTEX
8
0
10
33.674
20
17.093871875
30
0
0
VERTEX
8
0
10
33.674
20
18.466128125
30
0
42
0.9520803604479573
0
VERTEX
8
0
10
32.366
20
18.466128125
30
0
0
VERTEX
8
0
10
32.366
20
17.093871875
30
0
0
VERTEX
8
0
10
32.372296875
20
17.029921875
30
0
0
VERTEX
8
0
10
32.384834375000004
20
16.966900000000003
30
0
0
VERTEX
8
0
10
32.403487500000004
20
16.905409375
30
0
0
VERTEX
8
0
10
32.428078125
20
16.846040625
30
0
0
VERTEX
8
0
10
32.45836875
20
16.789371875
30
0
0
VERTEX
8
0
10
32.494068750000004
20
16.73594375
30
0
0
VERTEX
8
0
10
32.534834375
20
16.686271875
30
0
0
VERTEX
8
0
10
32.580271875
20
16.640834375
30
0
0
VERTEX
8
0
10
32.62994375
20
16.600068750000002
30
0
0
VERTEX
8
0
10
32.683371875
20
16.56436875
30
0
0
VERTEX
8
0
10
32.740040625
20
16.534078125
30
0
0
VERTEX
8
0
10
32.799409375
20
16.509487500000002
30
0
0
VERTEX
8
0
10
32.8609
20
16.490834375000002
30
0
0
VERTEX
8
0
10
32.923921875000005
20
16.478296875
30
0
0
VERTEX
8
0
10
32.987871875
20
16.472
30
0
0
VERTEX
8
0
10
33.052128125
20
16.472
30
0
0
SEQEND
0
POLYLINE
66
1
8
1_copper
10
0.0
20
0.0
30
0.0
70
1
0
VERTEX
8
0
10
17.876078125
20
16.478296875
30
0
42
0.3578058919557322
0
VERTEX
8
0
10
18.434
20
17.093871875
30
0
0
VERTEX
8
0
10
18.434
20
18.466128125
30
0
42
0.9520803604479573
0
VERTEX
8
0
10
17.126
20
18.466128125
30
0
0
VERTEX
8
0
10
17.126
20
17.093871875
30
0
0
VERTEX
8
0
10
17.132296875
20
17.029921875
30
0
0
VERTEX
8
0
10
17.144834375000002
20
16.966900000000003
30
0
0
VERTEX
8
0
10
17.163487500000002
20
16.905409375
30
0
0
VERTEX
8
0
10
17.188078125
20
16.846040625
30
0
0
VERTEX
8
0
10
17.21836875
20
16.789371875
30
0
0
VERTEX
8
0
10
17.254068750000002
20
16.73594375
30
0
0
VERTEX
8
0
10
17.294834375
20
16.686271875
30
0
0
VERTEX
8
0
10
17.340271875
20
16.640834375
30
0
0
VERTEX
8
0
10
17.38994375
20
16.600068750000002
30
0
0
VERTEX
8
0
10
17.443371875
20
16.56436875
30
0
0
VERTEX
8
0
10
17.500040625
20
16.534078125
30
0
0
VERTEX
8
0
10
17.559409375
20
16.509487500000002
30
0
0
VERTEX
8
0
10
17.620900000000002
20
16.490834375000002
30
0
0
VERTEX
8
0
10
17.683921875
20
16.478296875
30
0
0
VERTEX
8
0
10
17.747871875
20
16.472
30
0
0
VERTEX
8
0
10
17.812128125
20
16.472
30
0
0
SEQEND
0
POLYLINE
66
1
8
1_copper
10
0.0
20
0.0
30
0.0
70
1
0
VERTEX
8
0
10
15.336078125
20
16.478296875
30
0
42
0.3578058919557322
0
VERTEX
8
0
10
15.894
20
17.093871875
30
0
0
VERTEX
8
0
10
15.894
20
18.466128125
30
0
42
0.9520803604479573
0
VERTEX
8
0
10
14.586
20
18.466128125
30
0
0
VERTEX
8
0
10
14.586
20
17.093871875
30
0
0
VERTEX
8
0
10
14.592296875
20
17.029921875
30
0
0
VERTEX
8
0
10
14.604834375000001
20
16.966900000000003
30
0
0
VERTEX
8
0
10
14.623487500000001
20
16.905409375
30
0
0
VERTEX
8
0
10
14.648078125000001
20
16.846040625
30
0
0
VERTEX
8
0
10
14.67836875
20
16.789371875
30
0
0
VERTEX
8
0
10
14.714068750000001
20
16.73594375
30
0
0
VERTEX
8
0
10
14.754834375000002
20
16.686271875
30
0
0
VERTEX
8
0
10
14.800271875
20
16.640834375
30
0
0
VERTEX
8
0
10
14.849943750000001
20
16.600068750000002
30
0
0
VERTEX
8
0
10
14.903371875000001
20
16.56436875
30
0
0
VERTEX
8
0
10
14.960040625000001
20
16.534078125
30
0
0
VERTEX
8
0
10
15.019409375
20
16.509487500000002
30
0
0
VERTEX
8
0
10
15.080900000000002
20
16.490834375000002
30
0
0
VERTEX
8
0
10
15.143921875
20
16.478296875
30
0
0
VERTEX
8
0
10
15.207871875
20
16.472
30
0
0
VERTEX
8
0
10
15.272128125
20
16.472
30
0
0
SEQEND
0
POLYLINE
66
1
8
1_copper
10
0.0
20
0.0
30
0.0
70
1
0
VERTEX
8
0
10
12.796078125000001
20
16.478296875
30
0
42
0.3578058919557322
0
VERTEX
8
0
10
13.354000000000001
20
17.093871875
30
0
0
VERTEX
8
0
10
13.354000000000001
20
18.466128125
30
0
42
0.9520803604479573
0
VERTEX
8
0
10
12.046000000000001
20
18.466128125
30
0
0
VERTEX
8
0
10
12.046000000000001
20
17.093871875
30
0
0
VERTEX
8
0
10
12.052296875000001
20
17.029921875
30
0
0
VERTEX
8
0
10
12.064834375
20
16.966900000000003
30
0
0
VERTEX
8
0
10
12.0834875
20
16.905409375
30
0
0
VERTEX
8
0
10
12.108078125
20
16.846040625
30
0
0
VERTEX
8
0
10
12.13836875
20
16.789371875
30
0
0
VERTEX
8
0
10
12.17406875
20
16.73594375
30
0
0
VERTEX
8
0
10
12.214834375
20
16.686271875
30
0
0
VERTEX
8
0
10
12.260271875
20
16.640834375
30
0
0
VERTEX
8
0
10
12.30994375
20
16.600068750000002
30
0
0
VERTEX
8
0
10
12.363371875
20
16.56436875
30
0
0
VERTEX
8
0
10
12.420040625
20
16.534078125
30
0
0
VERTEX
8
0
10
12.479409375000001
20
16.509487500000002
30
0
0
VERTEX
8
0
10
12.5409
20
16.490834375000002
30
0
0
VERTEX
8
0
10
12.603921875000001
20
16.478296875
30
0
0
VERTEX
8
0
10
12.667871875000001
20
16.472
30
0
0
VERTEX
8
0
10
12.732128125000001
20
16.472
30
0
0
SEQEND
0
POLYLINE
66
1
8
1_copper
10
0.0
20
0.0
30
0.0
70
1
0
VERTEX
8
0
10
10.256078125
20
16.478296875
30
0
42
0.3578058919557322
0
VERTEX
8
0
10
10.814
20
17.093871875
30
0
0
VERTEX
8
0
10
10.814
20
18.466128125
30
0
42
0.9520803604479573
0
VERTEX
8
0
10
9.506
20
18.466128125
30
0
0
VERTEX
8
0
10
9.506
20
17.093871875
30
0
0
VERTEX
8
0
10
9.512296875
20
17.029921875
30
0
0
VERTEX
8
0
10
9.524834375000001
20
16.966900000000003
30
0
0
VERTEX
8
0
10
9.543487500000001
20
16.905409375
30
0
0
VERTEX
8
0
10
9.568078125000001
20
16.846040625
30
0
0
VERTEX
8
0
10
9.59836875
20
16.789371875
30
0
0
VERTEX
8
0
10
9.63406875
20
16.73594375
30
0
0
VERTEX
8
0
10
9.674834375
20
16.686271875
30
0
0
VERTEX
8
0
10
9.720271875
20
16.640834375
30
0
0
VERTEX
8
0
10
9.769943750000001
20
16.600068750000002
30
0
0
VERTEX
8
0
10
9.823371875000001
20
16.56436875
30
0
0
VERTEX
8
0
10
9.880040625000001
20
16.534078125
30
0
0
VERTEX
8
0
10
9.939409375
20
16.509487500000002
30
0
0
VERTEX
8
0
10
10.0009
20
16.490834375000002
30
0
0
VERTEX
8
0
10
10.063921875
20
16.478296875
30
0
0
VERTEX
8
0
10
10.127871875
20
16.472
30
0
0
VERTEX
8
0
10
10.192128125
20
16.472
30
0
0
SEQEND
0
POLYLINE
66
1
8
1_copper
10
0.0
20
0.0
30
0.0
70
1
0
VERTEX
8
0
10
2.636078125
20
16.478296875
30
0
42
0.3578058919557322
0
VERTEX
8
0
10
3.194
20
17.093871875
30
0
0
VERTEX
8
0
10
3.194
20
18.466128125
30
0
42
0.9520803604479573
0
VERTEX
8
0
10
1.8860000000000001
20
18.466128125
30
0
0
VERTEX
8
0
10
1.8860000000000001
20
17.093871875
30
0
0
VERTEX
8
0
10
1.892296875
20
17.029921875
30
0
0
VERTEX
8
0
10
1.904834375
20
16.966900000000003
30
0
0
VERTEX
8
0
10
1.9234875
20
16.905409375
30
0
0
VERTEX
8
0
10
1.948078125
20
16.846040625
30
0
0
VERTEX
8
0
10
1.97836875
20
16.789371875
30
0
0
VERTEX
8
0
10
2.0140687500000003
20
16.73594375
30
0
0
VERTEX
8
0
10
2.054834375
20
16.686271875
30
0
0
VERTEX
8
0
10
2.1002718750000002
20
16.640834375
30
0
0
VERTEX
8
0
10
2.1499437500000003
20
16.600068750000002
30
0
0
VERTEX
8
0
10
2.203371875
20
16.56436875
30
0
0
VERTEX
8
0
10
2.2600406250000002
20
16.534078125
30
0
0
VERTEX
8
0
10
2.319409375
20
16.509487500000002
30
0
0
VERTEX
8
0
10
2.3809
20
16.490834375000002
30
0
0
VERTEX
8
0
10
2.443921875
20
16.478296875
30
0
0
VERTEX
8
0
10
2.507871875
20
16.472
30
0
0
VERTEX
8
0
10
2.5721281250000003
20
16.472
30
0
0
SEQEND
0
POLYLINE
66
1
8
1_copper
10
0.0
20
0.0
30
0.0
70
1
0
VERTEX
8
0
10
5.176078125
20
16.478296875
30
0
42
0.3578058919557322
0
VERTEX
8
0
10
5.734
20
17.093871875
30
0
0
VERTEX
8
0
10
5.734
20
18.466128125
30
0
42
0.9520803604479573
0
VERTEX
8
0
10
4.426
20
18.466128125
30
0
0
VERTEX
8
0
10
4.426
20
17.093871875
30
0
0
VERTEX
8
0
10
4.4322968750000005
20
17.029921875
30
0
0
VERTEX
8
0
10
4.444834375
20
16.966900000000003
30
0
0
VERTEX
8
0
10
4.4634875
20
16.905409375
30
0
0
VERTEX
8
0
10
4.488078125
20
16.846040625
30
0
0
VERTEX
8
0
10
4.5183687500000005
20
16.789371875
30
0
0
VERTEX
8
0
10
4.55406875
20
16.73594375
30
0
0
VERTEX
8
0
10
4.5948343750000005
20
16.686271875
30
0
0
VERTEX
8
0
10
4.640271875
20
16.640834375
30
0
0
VERTEX
8
0
10
4.68994375
20
16.600068750000002
30
0
0
VERTEX
8
0
10
4.743371875
20
16.56436875
30
0
0
VERTEX
8
0
10
4.800040625
20
16.534078125
30
0
0
VERTEX
8
0
10
4.859409375
20
16.509487500000002
30
0
0
VERTEX
8
0
10
4.9209000000000005
20
16.490834375000002
30
0
0
VERTEX
8
0
10
4.983921875
20
16.478296875
30
0
0
VERTEX
8
0
10
5.047871875
20
16.472
30
0
0
VERTEX
8
0
10
5.112128125
20
16.472
30
0
0
SEQEND
0
POLYLINE
66
1
8
1_copper
10
0.0
20
0.0
30
0.0
70
1
0
VERTEX
8
0
10
7.716078125
20
16.478296875
30
0
42
0.3578058919557322
0
VERTEX
8
0
10
8.274000000000001
20
17.093871875
30
0
0
VERTEX
8
0
10
8.274000000000001
20
18.466128125
30
0
42
0.9520803604479573
0
VERTEX
8
0
10
6.966
20
18.466128125
30
0
0
VERTEX
8
0
10
6.966
20
17.093871875
30
0
0
VERTEX
8
0
10
6.9722968750000005
20
17.029921875
30
0
0
VERTEX
8
0
10
6.984834375
20
16.966900000000003
30
0
0
VERTEX
8
0
10
7.0034875
20
16.905409375
30
0
0
VERTEX
8
0
10
7.028078125
20
16.846040625
30
0
0
VERTEX
8
0
10
7.0583687500000005
20
16.789371875
30
0
0
VERTEX
8
0
10
7.09406875
20
16.73594375
30
0
0
VERTEX
8
0
10
7.1348343750000005
20
16.686271875
30
0
0
VERTEX
8
0
10
7.180271875000001
20
16.640834375
30
0
0
VERTEX
8
0
10
7.22994375
20
16.600068750000002
30
0
0
VERTEX
8
0
10
7.283371875
20
16.56436875
30
0
0
VERTEX
8
0
10
7.340040625
20
16.534078125
30
0
0
VERTEX
8
0
10
7.399409375
20
16.509487500000002
30
0
0
VERTEX
8
0
10
7.4609000000000005
20
16.490834375000002
30
0
0
VERTEX
8
0
10
7.523921875
20
16.478296875
30
0
0
VERTEX
8
0
10
7.587871875
20
16.472
30
0
0
VERTEX
8
0
10
7.652128125
20
16.472
30
0
0
SEQEND
0
POLYLINE
66
1
8
1_copper
10
0.0
20
0.0
30
0.0
70
1
0
VERTEX
8
0
10
20.416078125000002
20
16.478296875
30
0
42
0.3578058919557322
0
VERTEX
8
0
10
20.974
20
17.093871875
30
0
0
VERTEX
8
0
10
20.974
20
18.466128125
30
0
42
0.9520803604479573
0
VERTEX
8
0
10
19.666
20
18.466128125
30
0
0
VERTEX
8
0
10
19.666
20
17.093871875
30
0
0
VERTEX
8
0
10
19.672296875
20
17.029921875
30
0
0
VERTEX
8
0
10
19.684834375
20
16.966900000000003
30
0
0
VERTEX
8
0
10
19.7034875
20
16.905409375
30
0
0
VERTEX
8
0
10
19.728078125
20
16.846040625
30
0
0
VERTEX
8
0
10
19.758368750000002
20
16.789371875
30
0
0
VERTEX
8
0
10
19.79406875
20
16.73594375
30
0
0
VERTEX
8
0
10
19.834834375
20
16.686271875
30
0
0
VERTEX
8
0
10
19.880271875000002
20
16.640834375
30
0
0
VERTEX
8
0
10
19.92994375
20
16.600068750000002
30
0
0
VERTEX
8
0
10
19.983371875
20
16.56436875
30
0
0
VERTEX
8
0
10
20.040040625
20
16.534078125
30
0
0
VERTEX
8
0
10
20.099409375
20
16.509487500000002
30
0
0
VERTEX
8
0
10
20.1609
20
16.490834375000002
30
0
0
VERTEX
8
0
10
20.223921875000002
20
16.478296875
30
0
0
VERTEX
8
0
10
20.287871875
20
16.472
30
0
0
VERTEX
8
0
10
20.352128125
20
16.472
30
0
0
SEQEND
0
POLYLINE
66
1
8
1_copper
10
0.0
20
0.0
30
0.0
70
1
0
VERTEX
8
0
10
22.956078125
20
16.478296875
30
0
42
0.3578058919557322
0
VERTEX
8
0
10
23.514000000000003
20
17.093871875
30
0
0
VERTEX
8
0
10
23.514000000000003
20
18.466128125
30
0
42
0.9520803604479573
0
VERTEX
8
0
10
22.206
20
18.466128125
30
0
0
VERTEX
8
0
10
22.206
20
17.093871875
30
0
0
VERTEX
8
0
10
22.212296875
20
17.029921875
30
0
0
VERTEX
8
0
10
22.224834375
20
16.966900000000003
30
0
0
VERTEX
8
0
10
22.2434875
20
16.905409375
30
0
0
VERTEX
8
0
10
22.268078125000002
20
16.846040625
30
0
0
VERTEX
8
0
10
22.29836875
20
16.789371875
30
0
0
VERTEX
8
0
10
22.33406875
20
16.73594375
30
0
0
VERTEX
8
0
10
22.374834375000002
20
16.686271875
30
0
0
VERTEX
8
0
10
22.420271875
20
16.640834375
30
0
0
VERTEX
8
0
10
22.469943750000002
20
16.600068750000002
30
0
0
VERTEX
8
0
10
22.523371875000002
20
16.56436875
30
0
0
VERTEX
8
0
10
22.580040625000002
20
16.534078125
30
0
0
VERTEX
8
0
10
22.639409375
20
16.509487500000002
30
0
0
VERTEX
8
0
10
22.7009
20
16.490834375000002
30
0
0
VERTEX
8
0
10
22.763921875
20
16.478296875
30
0
0
VERTEX
8
0
10
22.827871875
20
16.472
30
0
0
VERTEX
8
0
10
22.892128125000003
20
16.472
30
0
0
SEQEND
0
POLYLINE
66
1
8
1_copper
10
0.0
20
0.0
30
0.0
70
1
0
VERTEX
8
0
10
25.496078125
20
16.478296875
30
0
42
0.3578058919557322
0
VERTEX
8
0
10
26.054000000000002
20
17.093871875
30
0
0
VERTEX
8
0
10
26.054000000000002
20
18.466128125
30
0
42
0.9520803604479573
0
VERTEX
8
0
10
24.746000000000002
20
18.466128125
30
0
0
VERTEX
8
0
10
24.746000000000002
20
17.093871875
30
0
0
VERTEX
8
0
10
24.752296875000003
20
17.029921875
30
0
0
VERTEX
8
0
10
24.764834375
20
16.966900000000003
30
0
0
VERTEX
8
0
10
24.7834875
20
16.905409375
30
0
0
VERTEX
8
0
10
24.808078125
20
16.846040625
30
0
0
VERTEX
8
0
10
24.83836875
20
16.789371875
30
0
0
VERTEX
8
0
10
24.874068750000003
20
16.73594375
30
0
0
VERTEX
8
0
10
24.914834375
20
16.686271875
30
0
0
VERTEX
8
0
10
24.960271875
20
16.640834375
30
0
0
VERTEX
8
0
10
25.00994375
20
16.600068750000002
30
0
0
VERTEX
8
0
10
25.063371875
20
16.56436875
30
0
0
VERTEX
8
0
10
25.120040625
20
16.534078125
30
0
0
VERTEX
8
0
10
25.179409375000002
20
16.509487500000002
30
0
0
VERTEX
8
0
10
25.2409
20
16.490834375000002
30
0
0
VERTEX
8
0
10
25.303921875
20
16.478296875
30
0
0
VERTEX
8
0
10
25.367871875000002
20
16.472
30
0
0
VERTEX
8
0
10
25.432128125000002
20
16.472
30
0
0
SEQEND
0
POLYLINE
66
1
8
1_copper
10
0.0
20
0.0
30
0.0
70
1
0
VERTEX
8
0
10
28.036078125000003
20
16.478296875
30
0
42
0.3578058919557322
0
VERTEX
8
0
10
28.594
20
17.093871875
30
0
0
VERTEX
8
0
10
28.594
20
18.466128125
30
0
42
0.9520803604479573
0
VERTEX
8
0
10
27.286
20
18.466128125
30
0
0
VERTEX
8
0
10
27.286
20
17.093871875
30
0
0
VERTEX
8
0
10
27.292296875
20
17.029921875
30
0
0
VERTEX
8
0
10
27.304834375000002
20
16.966900000000003
30
0
0
VERTEX
8
0
10
27.323487500000002
20
16.905409375
30
0
0
VERTEX
8
0
10
27.348078125
20
16.846040625
30
0
0
VERTEX
8
0
10
27.37836875
20
16.789371875
30
0
0
VERTEX
8
0
10
27.414068750000002
20
16.73594375
30
0
0
VERTEX
8
0
10
27.454834375
20
16.686271875
30
0
0
VERTEX
8
0
10
27.500271875000003
20
16.640834375
30
0
0
VERTEX
8
0
10
27.54994375
20
16.600068750000002
30
0
0
VERTEX
8
0
10
27.603371875
20
16.56436875
30
0
0
VERTEX
8
0
10
27.660040625
20
16.534078125
30
0
0
VERTEX
8
0
10
27.719409375
20
16.509487500000002
30
0
0
VERTEX
8
0
10
27.780900000000003
20
16.490834375000002
30
0
0
VERTEX
8
0
10
27.843921875000003
20
16.478296875
30
0
0
VERTEX
8
0
10
27.907871875
20
16.472
30
0
0
VERTEX
8
0
10
27.972128125
20
16.472
30
0
0
SEQEND
0
POLYLINE
66
1
8
16_copper
10
0.0
20
0.0
30
0.0
70
1
0
VERTEX
8
0
10
38.196078125
20
31.718296875
30
0
42
0.3578058919557322
0
VERTEX
8
0
10
38.754000000000005
20
32.333871875
30
0
0
VERTEX
8
0
10
38.754000000000005
20
33.706128125
30
0
42
0.9520803604479573
0
VERTEX
8
0
10
37.446000000000005
20
33.706128125
30
0
0
VERTEX
8
0
10
37.446000000000005
20
32.333871875
30
0
0
VERTEX
8
0
10
37.452296875
20
32.269921875
30
0
0
VERTEX
8
0
10
37.464834375
20
32.206900000000005
30
0
0
VERTEX
8
0
10
37.4834875
20
32.145409375
30
0
0
VERTEX
8
0
10
37.508078125000004
20
32.086040625
30
0
0
VERTEX
8
0
10
37.538368750000004
20
32.029371875
30
0
0
VERTEX
8
0
10
37.57406875
20
31.975943750000003
30
0
0
VERTEX
8
0
10
37.614834375
20
31.926271875
30
0
0
VERTEX
8
0
10
37.660271875
20
31.880834375000003
30
0
0
VERTEX
8
0
10
37.70994375
20
31.84006875
30
0
0
VERTEX
8
0
10
37.763371875000004
20
31.804368750000002
30
0
0
VERTEX
8
0
10
37.820040625000004
20
31.774078125000003
30
0
0
VERTEX
8
0
10
37.879409375
20
31.7494875
30
0
0
VERTEX
8
0
10
37.9409
20
31.730834375
30
0
0
VERTEX
8
0
10
38.003921875
20
31.718296875
30
0
0
VERTEX
8
0
10
38.067871875
20
31.712
30
0
0
VERTEX
8
0
10
38.132128125
20
31.712
30
0
0
SEQEND
0
POLYLINE
66
1
8
16_copper
10
0.0
20
0.0
30
0.0
70
1
0
VERTEX
8
0
10
35.656078125
20
31.718296875
30
0
42
0.3578058919557322
0
VERTEX
8
0
10
36.214
20
32.333871875
30
0
0
VERTEX
8
0
10
36.214
20
33.706128125
30
0
42
0.9520803604479573
0
VERTEX
8
0
10
34.906
20
33.706128125
30
0
0
VERTEX
8
0
10
34.906
20
32.333871875
30
0
0
VERTEX
8
0
10
34.912296875
20
32.269921875
30
0
0
VERTEX
8
0
10
34.924834375
20
32.206900000000005
30
0
0
VERTEX
8
0
10
34.9434875
20
32.145409375
30
0
0
VERTEX
8
0
10
34.968078125
20
32.086040625
30
0
0
VERTEX
8
0
10
34.998368750000004
20
32.029371875
30
0
0
VERTEX
8
0
10
35.03406875
20
31.975943750000003
30
0
0
VERTEX
8
0
10
35.074834375
20
31.926271875
30
0
0
VERTEX
8
0
10
35.120271875
20
31.880834375000003
30
0
0
VERTEX
8
0
10
35.16994375
20
31.84006875
30
0
0
VERTEX
8
0
10
35.223371875000005
20
31.804368750000002
30
0
0
VERTEX
8
0
10
35.280040625000005
20
31.774078125000003
30
0
0
VERTEX
8
0
10
35.339409375
20
31.7494875
30
0
0
VERTEX
8
0
10
35.4009
20
31.730834375
30
0
0
VERTEX
8
0
10
35.463921875000004
20
31.718296875
30
0
0
VERTEX
8
0
10
35.527871875
20
31.712
30
0
0
VERTEX
8
0
10
35.592128125
20
31.712
30
0
0
SEQEND
0
POLYLINE
66
1
8
16_copper
10
0.0
20
0.0
30
0.0
70
1
0
VERTEX
8
0
10
33.116078125
20
31.718296875
30
0
42
0.3578058919557322
0
VERTEX
8
0
10
33.674
20
32.333871875
30
0
0
VERTEX
8
0
10
33.674
20
33.706128125
30
0
42
0.9520803604479573
0
VERTEX
8
0
10
32.366
20
33.706128125
30
0
0
VERTEX
8
0
10
32.366
20
32.333871875
30
0
0
VERTEX
8
0
10
32.372296875
20
32.269921875
30
0
0
VERTEX
8
0
10
32.384834375000004
20
32.206900000000005
30
0
0
VERTEX
8
0
10
32.403487500000004
20
32.145409375
30
0
0
VERTEX
8
0
10
32.428078125
20
32.086040625
30
0
0
VERTEX
8
0
10
32.45836875
20
32.029371875
30
0
0
VERTEX
8
0
10
32.494068750000004
20
31.975943750000003
30
0
0
VERTEX
8
0
10
32.534834375
20
31.926271875
30
0
0
VERTEX
8
0
10
32.580271875
20
31.880834375000003
30
0
0
VERTEX
8
0
10
32.62994375
20
31.84006875
30
0
0
VERTEX
8
0
10
32.683371875
20
31.804368750000002
30
0
0
VERTEX
8
0
10
32.740040625
20
31.774078125000003
30
0
0
VERTEX
8
0
10
32.799409375
20
31.7494875
30
0
0
VERTEX
8
0
10
32.8609
20
31.730834375
30
0
0
VERTEX
8
0
10
32.923921875000005
20
31.718296875
30
0
0
VERTEX
8
0
10
32.987871875
20
31.712
30
0
0
VERTEX
8
0
10
33.052128125
20
31.712
30
0
0
SEQEND
0
POLYLINE
66
1
8
16_copper
10
0.0
20
0.0
30
0.0
70
1
0
VERTEX
8
0
10
12.796078125000001
20
31.718296875
30
0
42
0.3578058919557322
0
VERTEX
8
0
10
13.354000000000001
20
32.333871875
30
0
0
VERTEX
8
0
10
13.354000000000001
20
33.706128125
30
0
42
0.9520803604479573
0
VERTEX
8
0
10
12.046000000000001
20
33.706128125
30
0
0
VERTEX
8
0
10
12.046000000000001
20
32.333871875
30
0
0
VERTEX
8
0
10
12.052296875000001
20
32.269921875
30
0
0
VERTEX
8
0
10
12.064834375
20
32.206900000000005
30
0
0
VERTEX
8
0
10
12.0834875
20
32.145409375
30
0
0
VERTEX
8
0
10
12.108078125
20
32.086040625
30
0
0
VERTEX
8
0
10
12.13836875
20
32.029371875
30
0
0
VERTEX
8
0
10
12.17406875
20
31.975943750000003
30
0
0
VERTEX
8
0
10
12.214834375
20
31.926271875
30
0
0
VERTEX
8
0
10
12.260271875
20
31.880834375000003
30
0
0
VERTEX
8
0
10
12.30994375
20
31.84006875
30
0
0
VERTEX
8
0
10
12.363371875
20
31.804368750000002
30
0
0
VERTEX
8
0
10
12.420040625
20
31.774078125000003
30
0
0
VERTEX
8
0
10
12.479409375000001
20
31.7494875
30
0
0
VERTEX
8
0
10
12.5409
20
31.730834375
30
0
0
VERTEX
8
0
10
12.603921875000001
20
31.718296875
30
0
0
VERTEX
8
0
10
12.667871875000001
20
31.712
30
0
0
VERTEX
8
0
10
12.732128125000001
20
31.712
30
0
0
SEQEND
0
POLYLINE
66
1
8
16_copper
10
0.0
20
0.0
30
0.0
70
1
0
VERTEX
8
0
10
10.256078125
20
31.718296875
30
0
42
0.3578058919557322
0
VERTEX
8
0
10
10.814
20
32.333871875
30
0
0
VERTEX
8
0
10
10.814
20
33.706128125
30
0
42
0.9520803604479573
0
VERTEX
8
0
10
9.506
20
33.706128125
30
0
0
VERTEX
8
0
10
9.506
20
32.333871875
30
0
0
VERTEX
8
0
10
9.512296875
20
32.269921875
30
0
0
VERTEX
8
0
10
9.524834375000001
20
32.206900000000005
30
0
0
VERTEX
8
0
10
9.543487500000001
20
32.145409375
30
0
0
VERTEX
8
0
10
9.568078125000001
20
32.086040625
30
0
0
VERTEX
8
0
10
9.59836875
20
32.029371875
30
0
0
VERTEX
8
0
10
9.63406875
20
31.975943750000003
30
0
0
VERTEX
8
0
10
9.674834375
20
31.926271875
30
0
0
VERTEX
8
0
10
9.720271875
20
31.880834375000003
30
0
0
VERTEX
8
0
10
9.769943750000001
20
31.84006875
30
0
0
VERTEX
8
0
10
9.823371875000001
20
31.804368750000002
30
0
0
VERTEX
8
0
10
9.880040625000001
20
31.774078125000003
30
0
0
VERTEX
8
0
10
9.939409375
20
31.7494875
30
0
0
VERTEX
8
0
10
10.0009
20
31.730834375
30
0
0
VERTEX
8
0
10
10.063921875
20
31.718296875
30
0
0
VERTEX
8
0
10
10.127871875
20
31.712
30
0
0
VERTEX
8
0
10
10.192128125
20
31.712
30
0
0
SEQEND
0
POLYLINE
66
1
8
16_copper
10
0.0
20
0.0
30
0.0
70
1
0
VERTEX
8
0
10
2.636078125
20
31.718296875
30
0
42
0.3578058919557322
0
VERTEX
8
0
10
3.194
20
32.333871875
30
0
0
VERTEX
8
0
10
3.194
20
33.706128125
30
0
42
0.9520803604479573
0
VERTEX
8
0
10
1.8860000000000001
20
33.706128125
30
0
0
VERTEX
8
0
10
1.8860000000000001
20
32.333871875
30
0
0
VERTEX
8
0
10
1.892296875
20
32.269921875
30
0
0
VERTEX
8
0
10
1.904834375
20
32.206900000000005
30
0
0
VERTEX
8
0
10
1.9234875
20
32.145409375
30
0
0
VERTEX
8
0
10
1.948078125
20
32.086040625
30
0
0
VERTEX
8
0
10
1.97836875
20
32.029371875
30
0
0
VERTEX
8
0
10
2.0140687500000003
20
31.975943750000003
30
0
0
VERTEX
8
0
10
2.054834375
20
31.926271875
30
0
0
VERTEX
8
0
10
2.1002718750000002
20
31.880834375000003
30
0
0
VERTEX
8
0
10
2.1499437500000003
20
31.84006875
30
0
0
VERTEX
8
0
10
2.203371875
20
31.804368750000002
30
0
0
VERTEX
8
0
10
2.2600406250000002
20
31.774078125000003
30
0
0
VERTEX
8
0
10
2.319409375
20
31.7494875
30
0
0
VERTEX
8
0
10
2.3809
20
31.730834375
30
0
0
VERTEX
8
0
10
2.443921875
20
31.718296875
30
0
0
VERTEX
8
0
10
2.507871875
20
31.712
30
0
0
VERTEX
8
0
10
2.5721281250000003
20
31.712
30
0
0
SEQEND
0
POLYLINE
66
1
8
16_copper
10
0.0
20
0.0
30
0.0
70
1
0
VERTEX
8
0
10
5.176078125
20
31.718296875
30
0
42
0.3578058919557322
0
VERTEX
8
0
10
5.734
20
32.333871875
30
0
0
VERTEX
8
0
10
5.734
20
33.706128125
30
0
42
0.9520803604479573
0
VERTEX
8
0
10
4.426
20
33.706128125
30
0
0
VERTEX
8
0
10
4.426
20
32.333871875
30
0
0
VERTEX
8
0
10
4.4322968750000005
20
32.269921875
30
0
0
VERTEX
8
0
10
4.444834375
20
32.206900000000005
30
0
0
VERTEX
8
0
10
4.4634875
20
32.145409375
30
0
0
VERTEX
8
0
10
4.488078125
20
32.086040625
30
0
0
VERTEX
8
0
10
4.5183687500000005
20
32.029371875
30
0
0
VERTEX
8
0
10
4.55406875
20
31.975943750000003
30
0
0
VERTEX
8
0
10
4.5948343750000005
20
31.926271875
30
0
0
VERTEX
8
0
10
4.640271875
20
31.880834375000003
30
0
0
VERTEX
8
0
10
4.68994375
20
31.84006875
30
0
0
VERTEX
8
0
10
4.743371875
20
31.804368750000002
30
0
0
VERTEX
8
0
10
4.800040625
20
31.774078125000003
30
0
0
VERTEX
8
0
10
4.859409375
20
31.7494875
30
0
0
VERTEX
8
0
10
4.9209000000000005
20
31.730834375
30
0
0
VERTEX
8
0
10
4.983921875
20
31.718296875
30
0
0
VERTEX
8
0
10
5.047871875
20
31.712
30
0
0
VERTEX
8
0
10
5.112128125
20
31.712
30
0
0
SEQEND
0
POLYLINE
66
1
8
16_copper
10
0.0
20
0.0
30
0.0
70
1
0
VERTEX
8
0
10
7.716078125
20
31.718296875
30
0
42
0.3578058919557322
0
VERTEX
8
0
10
8.274000000000001
20
32.333871875
30
0
0
VERTEX
8
0
10
8.274000000000001
20
33.706128125
30
0
42
0.9520803604479573
0
VERTEX
8
0
10
6.966
20
33.706128125
30
0
0
VERTEX
8
0
10
6.966
20
32.333871875
30
0
0
VERTEX
8
0
10
6.9722968750000005
20
32.269921875
30
0
0
VERTEX
8
0
10
6.984834375
20
32.206900000000005
30
0
0
VERTEX
8
0
10
7.0034875
20
32.145409375
30
0
0
VERTEX
8
0
10
7.028078125
20
32.086040625
30
0
0
VERTEX
8
0
10
7.0583687500000005
20
32.029371875
30
0
0
VERTEX
8
0
10
7.09406875
20
31.975943750000003
30
0
0
VERTEX
8
0
10
7.1348343750000005
20
31.926271875
30
0
0
VERTEX
8
0
10
7.180271875000001
20
31.880834375000003
30
0
0
VERTEX
8
0
10
7.22994375
20
31.84006875
30
0
0
VERTEX
8
0
10
7.283371875
20
31.804368750000002
30
0
0
VERTEX
8
0
10
7.340040625
20
31.774078125000003
30
0
0
VERTEX
8
0
10
7.399409375
20
31.7494875
30
0
0
VERTEX
8
0
10
7.4609000000000005
20
31.730834375
30
0
0
VERTEX
8
0
10
7.523921875
20
31.718296875
30
0
0
VERTEX
8
0
10
7.587871875
20
31.712
30
0
0
VERTEX
8
0
10
7.652128125
20
31.712
30
0
0
SEQEND
0
POLYLINE
66
1
8
16_copper
10
0.0
20
0.0
30
0.0
70
1
0
VERTEX
8
0
10
33.116078125
20
16.478296875
30
0
42
0.3578058919557322
0
VERTEX
8
0
10
33.674
20
17.093871875
30
0
0
VERTEX
8
0
10
33.674
20
18.466128125
30
0
42
0.9520803604479573
0
VERTEX
8
0
10
32.366
20
18.466128125
30
0
0
VERTEX
8
0
10
32.366
20
17.093871875
30
0
0
VERTEX
8
0
10
32.372296875
20
17.029921875
30
0
0
VERTEX
8
0
10
32.384834375000004
20
16.966900000000003
30
0
0
VERTEX
8
0
10
32.403487500000004
20
16.905409375
30
0
0
VERTEX
8
0
10
32.428078125
20
16.846040625
30
0
0
VERTEX
8
0
10
32.45836875
20
16.789371875
30
0
0
VERTEX
8
0
10
32.494068750000004
20
16.73594375
30
0
0
VERTEX
8
0
10
32.534834375
20
16.686271875
30
0
0
VERTEX
8
0
10
32.580271875
20
16.640834375
30
0
0
VERTEX
8
0
10
32.62994375
20
16.600068750000002
30
0
0
VERTEX
8
0
10
32.683371875
20
16.56436875
30
0
0
VERTEX
8
0
10
32.740040625
20
16.534078125
30
0
0
VERTEX
8
0
10
32.799409375
20
16.509487500000002
30
0
0
VERTEX
8
0
10
32.8609
20
16.490834375000002
30
0
0
VERTEX
8
0
10
32.923921875000005
20
16.478296875
30
0
0
VERTEX
8
0
10
32.987871875
20
16.472
30
0
0
VERTEX
8
0
10
33.052128125
20
16.472
30
0
0
SEQEND
0
POLYLINE
66
1
8
16_copper
10
0.0
20
0.0
30
0.0
70
1
0
VERTEX
8
0
10
17.876078125
20
16.478296875
30
0
42
0.3578058919557322
0
VERTEX
8
0
10
18.434
20
17.093871875
30
0
0
VERTEX
8
0
10
18.434
20
18.466128125
30
0
42
0.9520803604479573
0
VERTEX
8
0
10
17.126
20
18.466128125
30
0
0
VERTEX
8
0
10
17.126
20
17.093871875
30
0
0
VERTEX
8
0
10
17.132296875
20
17.029921875
30
0
0
VERTEX
8
0
10
17.144834375000002
20
16.966900000000003
30
0
0
VERTEX
8
0
10
17.163487500000002
20
16.905409375
30
0
0
VERTEX
8
0
10
17.188078125
20
16.846040625
30
0
0
VERTEX
8
0
10
17.21836875
20
16.789371875
30
0
0
VERTEX
8
0
10
17.254068750000002
20
16.73594375
30
0
0
VERTEX
8
0
10
17.294834375
20
16.686271875
30
0
0
VERTEX
8
0
10
17.340271875
20
16.640834375
30
0
0
VERTEX
8
0
10
17.38994375
20
16.600068750000002
30
0
0
VERTEX
8
0
10
17.443371875
20
16.56436875
30
0
0
VERTEX
8
0
10
17.500040625
20
16.534078125
30
0
0
VERTEX
8
0
10
17.559409375
20
16.509487500000002
30
0
0
VERTEX
8
0
10
17.620900000000002
20
16.490834375000002
30
0
0
VERTEX
8
0
10
17.683921875
20
16.478296875
30
0
0
VERTEX
8
0
10
17.747871875
20
16.472
30
0
0
VERTEX
8
0
10
17.812128125
20
16.472
30
0
0
SEQEND
0
POLYLINE
66
1
8
16_copper
10
0.0
20
0.0
30
0.0
70
1
0
VERTEX
8
0
10
15.336078125
20
16.478296875
30
0
42
0.3578058919557322
0
VERTEX
8
0
10
15.894
20
17.093871875
30
0
0
VERTEX
8
0
10
15.894
20
18.466128125
30
0
42
0.9520803604479573
0
VERTEX
8
0
10
14.586
20
18.466128125
30
0
0
VERTEX
8
0
10
14.586
20
17.093871875
30
0
0
VERTEX
8
0
10
14.592296875
20
17.029921875
30
0
0
VERTEX
8
0
10
14.604834375000001
20
16.966900000000003
30
0
0
VERTEX
8
0
10
14.623487500000001
20
16.905409375
30
0
0
VERTEX
8
0
10
14.648078125000001
20
16.846040625
30
0
0
VERTEX
8
0
10
14.67836875
20
16.789371875
30
0
0
VERTEX
8
0
10
14.714068750000001
20
16.73594375
30
0
0
VERTEX
8
0
10
14.754834375000002
20
16.686271875
30
0
0
VERTEX
8
0
10
14.800271875
20
16.640834375
30
0
0
VERTEX
8
0
10
14.849943750000001
20
16.600068750000002
30
0
0
VERTEX
8
0
10
14.903371875000001
20
16.56436875
30
0
0
VERTEX
8
0
10
14.960040625000001
20
16.534078125
30
0
0
VERTEX
8
0
10
15.019409375
20
16.509487500000002
30
0
0
VERTEX
8
0
10
15.080900000000002
20
16.490834375000002
30
0
0
VERTEX
8
0
10
15.143921875
20
16.478296875
30
0
0
VERTEX
8
0
10
15.207871875
20
16.472
30
0
0
VERTEX
8
0
10
15.272128125
20
16.472
30
0
0
SEQEND
0
POLYLINE
66
1
8
16_copper
10
0.0
20
0.0
30
0.0
70
1
0
VERTEX
8
0
10
12.796078125000001
20
16.478296875
30
0
42
0.3578058919557322
0
VERTEX
8
0
10
13.354000000000001
20
17.093871875
30
0
0
VERTEX
8
0
10
13.354000000000001
20
18.466128125
30
0
42
0.9520803604479573
0
VERTEX
8
0
10
12.046000000000001
20
18.466128125
30
0
0
VERTEX
8
0
10
12.046000000000001
20
17.093871875
30
0
0
VERTEX
8
0
10
12.052296875000001
20
17.029921875
30
0
0
VERTEX
8
0
10
12.064834375
20
16.966900000000003
30
0
0
VERTEX
8
0
10
12.0834875
20
16.905409375
30
0
0
VERTEX
8
0
10
12.108078125
20
16.846040625
30
0
0
VERTEX
8
0
10
12.13836875
20
16.789371875
30
0
0
VERTEX
8
0
10
12.17406875
20
16.73594375
30
0
0
VERTEX
8
0
10
12.214834375
20
16.686271875
30
0
0
VERTEX
8
0
10
12.260271875
20
16.640834375
30
0
0
VERTEX
8
0
10
12.30994375
20
16.600068750000002
30
0
0
VERTEX
8
0
10
12.363371875
20
16.56436875
30
0
0
VERTEX
8
0
10
12.420040625
20
16.534078125
30
0
0
VERTEX
8
0
10
12.479409375000001
20
16.509487500000002
30
0
0
VERTEX
8
0
10
12.5409
20
16.490834375000002
30
0
0
VERTEX
8
0
10
12.603921875000001
20
16.478296875
30
0
0
VERTEX
8
0
10
12.667871875000001
20
16.472
30
0
0
VERTEX
8
0
10
12.732128125000001
20
16.472
30
0
0
SEQEND
0
POLYLINE
66
1
8
16_copper
10
0.0
20
0.0
30
0.0
70
1
0
VERTEX
8
0
10
10.256078125
20
16.478296875
30
0
42
0.3578058919557322
0
VERTEX
8
0
10
10.814
20
17.093871875
30
0
0
VERTEX
8
0
10
10.814
20
18.466128125
30
0
42
0.9520803604479573
0
VERTEX
8
0
10
9.506
20
18.466128125
30
0
0
VERTEX
8
0
10
9.506
20
17.093871875
30
0
0
VERTEX
8
0
10
9.512296875
20
17.029921875
30
0
0
VERTEX
8
0
10
9.524834375000001
20
16.966900000000003
30
0
0
VERTEX
8
0
10
9.543487500000001
20
16.905409375
30
0
0
VERTEX
8
0
10
9.568078125000001
20
16.846040625
30
0
0
VERTEX
8
0
10
9.59836875
20
16.789371875
30
0
0
VERTEX
8
0
10
9.63406875
20
16.73594375
30
0
0
VERTEX
8
0
10
9.674834375
20
16.686271875
30
0
0
VERTEX
8
0
10
9.720271875
20
16.640834375
30
0
0
VERTEX
8
0
10
9.769943750000001
20
16.600068750000002
30
0
0
VERTEX
8
0
10
9.823371875000001
20
16.56436875
30
0
0
VERTEX
8
0
10
9.880040625000001
20
16.534078125
30
0
0
VERTEX
8
0
10
9.939409375
20
16.509487500000002
30
0
0
VERTEX
8
0
10
10.0009
20
16.490834375000002
30
0
0
VERTEX
8
0
10
10.063921875
20
16.478296875
30
0
0
VERTEX
8
0
10
10.127871875
20
16.472
30
0
0
VERTEX
8
0
10
10.192128125
20
16.472
30
0
0
SEQEND
0
POLYLINE
66
1
8
16_copper
10
0.0
20
0.0
30
0.0
70
1
0
VERTEX
8
0
10
2.636078125
20
16.478296875
30
0
42
0.3578058919557322
0
VERTEX
8
0
10
3.194
20
17.093871875
30
0
0
VERTEX
8
0
10
3.194
20
18.466128125
30
0
42
0.9520803604479573
0
VERTEX
8
0
10
1.8860000000000001
20
18.466128125
30
0
0
VERTEX
8
0
10
1.8860000000000001
20
17.093871875
30
0
0
VERTEX
8
0
10
1.892296875
20
17.029921875
30
0
0
VERTEX
8
0
10
1.904834375
20
16.966900000000003
30
0
0
VERTEX
8
0
10
1.9234875
20
16.905409375
30
0
0
VERTEX
8
0
10
1.948078125
20
16.846040625
30
0
0
VERTEX
8
0
10
1.97836875
20
16.789371875
30
0
0
VERTEX
8
0
10
2.0140687500000003
20
16.73594375
30
0
0
VERTEX
8
0
10
2.054834375
20
16.686271875
30
0
0
VERTEX
8
0
10
2.1002718750000002
20
16.640834375
30
0
0
VERTEX
8
0
10
2.1499437500000003
20
16.600068750000002
30
0
0
VERTEX
8
0
10
2.203371875
20
16.56436875
30
0
0
VERTEX
8
0
10
2.2600406250000002
20
16.534078125
30
0
0
VERTEX
8
0
10
2.319409375
20
16.509487500000002
30
0
0
VERTEX
8
0
10
2.3809
20
16.490834375000002
30
0
0
VERTEX
8
0
10
2.443921875
20
16.478296875
30
0
0
VERTEX
8
0
10
2.507871875
20
16.472
30
0
0
VERTEX
8
0
10
2.5721281250000003
20
16.472
30
0
0
SEQEND
0
POLYLINE
66
1
8
16_copper
10
0.0
20
0.0
30
0.0
70
1
0
VERTEX
8
0
10
5.176078125
20
16.478296875
30
0
42
0.3578058919557322
0
VERTEX
8
0
10
5.734
20
17.093871875
30
0
0
VERTEX
8
0
10
5.734
20
18.466128125
30
0
42
0.9520803604479573
0
VERTEX
8
0
10
4.426
20
18.466128125
30
0
0
VERTEX
8
0
10
4.426
20
17.093871875
30
0
0
VERTEX
8
0
10
4.4322968750000005
20
17.029921875
30
0
0
VERTEX
8
0
10
4.444834375
20
16.966900000000003
30
0
0
VERTEX
8
0
10
4.4634875
20
16.905409375
30
0
0
VERTEX
8
0
10
4.488078125
20
16.846040625
30
0
0
VERTEX
8
0
10
4.5183687500000005
20
16.789371875
30
0
0
VERTEX
8
0
10
4.55406875
20
16.73594375
30
0
0
VERTEX
8
0
10
4.5948343750000005
20
16.686271875
30
0
0
VERTEX
8
0
10
4.640271875
20
16.640834375
30
0
0
VERTEX
8
0
10
4.68994375
20
16.600068750000002
30
0
0
VERTEX
8
0
10
4.743371875
20
16.56436875
30
0
0
VERTEX
8
0
10
4.800040625
20
16.534078125
30
0
0
VERTEX
8
0
10
4.859409375
20
16.509487500000002
30
0
0
VERTEX
8
0
10
4.9209000000000005
20
16.490834375000002
30
0
0
VERTEX
8
0
10
4.983921875
20
16.478296875
30
0
0
VERTEX
8
0
10
5.047871875
20
16.472
30
0
0
VERTEX
8
0
10
5.112128125
20
16.472
30
0
0
SEQEND
0
POLYLINE
66
1
8
16_copper
10
0.0
20
0.0
30
0.0
70
1
0
VERTEX
8
0
10
7.716078125
20
16.478296875
30
0
42
0.3578058919557322
0
VERTEX
8
0
10
8.274000000000001
20
17.093871875
30
0
0
VERTEX
8
0
10
8.274000000000001
20
18.466128125
30
0
42
0.9520803604479573
0
VERTEX
8
0
10
6.966
20
18.466128125
30
0
0
VERTEX
8
0
10
6.966
20
17.093871875
30
0
0
VERTEX
8
0
10
6.9722968750000005
20
17.029921875
30
0
0
VERTEX
8
0
10
6.984834375
20
16.966900000000003
30
0
0
VERTEX
8
0
10
7.0034875
20
16.905409375
30
0
0
VERTEX
8
0
10
7.028078125
20
16.846040625
30
0
0
VERTEX
8
0
10
7.0583687500000005
20
16.789371875
30
0
0
VERTEX
8
0
10
7.09406875
20
16.73594375
30
0
0
VERTEX
8
0
10
7.1348343750000005
20
16.686271875
30
0
0
VERTEX
8
0
10
7.180271875000001
20
16.640834375
30
0
0
VERTEX
8
0
10
7.22994375
20
16.600068750000002
30
0
0
VERTEX
8
0
10
7.283371875
20
16.56436875
30
0
0
VERTEX
8
0
10
7.340040625
20
16.534078125
30
0
0
VERTEX
8
0
10
7.399409375
20
16.509487500000002
30
0
0
VERTEX
8
0
10
7.4609000000000005
20
16.490834375000002
30
0
0
VERTEX
8
0
10
7.523921875
20
16.478296875
30
0
0
VERTEX
8
0
10
7.587871875
20
16.472
30
0
0
VERTEX
8
0
10
7.652128125
20
16.472
30
0
0
SEQEND
0
POLYLINE
66
1
8
16_copper
10
0.0
20
0.0
30
0.0
70
1
0
VERTEX
8
0
10
20.416078125000002
20
16.478296875
30
0
42
0.3578058919557322
0
VERTEX
8
0
10
20.974
20
17.093871875
30
0
0
VERTEX
8
0
10
20.974
20
18.466128125
30
0
42
0.9520803604479573
0
VERTEX
8
0
10
19.666
20
18.466128125
30
0
0
VERTEX
8
0
10
19.666
20
17.093871875
30
0
0
VERTEX
8
0
10
19.672296875
20
17.029921875
30
0
0
VERTEX
8
0
10
19.684834375
20
16.966900000000003
30
0
0
VERTEX
8
0
10
19.7034875
20
16.905409375
30
0
0
VERTEX
8
0
10
19.728078125
20
16.846040625
30
0
0
VERTEX
8
0
10
19.758368750000002
20
16.789371875
30
0
0
VERTEX
8
0
10
19.79406875
20
16.73594375
30
0
0
VERTEX
8
0
10
19.834834375
20
16.686271875
30
0
0
VERTEX
8
0
10
19.880271875000002
20
16.640834375
30
0
0
VERTEX
8
0
10
19.92994375
20
16.600068750000002
30
0
0
VERTEX
8
0
10
19.983371875
20
16.56436875
30
0
0
VERTEX
8
0
10
20.040040625
20
16.534078125
30
0
0
VERTEX
8
0
10
20.099409375
20
16.509487500000002
30
0
0
VERTEX
8
0
10
20.1609
20
16.490834375000002
30
0
0
VERTEX
8
0
10
20.223921875000002
20
16.478296875
30
0
0
VERTEX
8
0
10
20.287871875
20
16.472
30
0
0
VERTEX
8
0
10
20.352128125
20
16.472
30
0
0
SEQEND
0
POLYLINE
66
1
8
16_copper
10
0.0
20
0.0
30
0.0
70
1
0
VERTEX
8
0
10
22.956078125
20
16.478296875
30
0
42
0.3578058919557322
0
VERTEX
8
0
10
23.514000000000003
20
17.093871875
30
0
0
VERTEX
8
0
10
23.514000000000003
20
18.466128125
30
0
42
0.9520803604479573
0
VERTEX
8
0
10
22.206
20
18.466128125
30
0
0
VERTEX
8
0
10
22.206
20
17.093871875
30
0
0
VERTEX
8
0
10
22.212296875
20
17.029921875
30
0
0
VERTEX
8
0
10
22.224834375
20
16.966900000000003
30
0
0
VERTEX
8
0
10
22.2434875
20
16.905409375
30
0
0
VERTEX
8
0
10
22.268078125000002
20
16.846040625
30
0
0
VERTEX
8
0
10
22.29836875
20
16.789371875
30
0
0
VERTEX
8
0
10
22.33406875
20
16.73594375
30
0
0
VERTEX
8
0
10
22.374834375000002
20
16.686271875
30
0
0
VERTEX
8
0
10
22.420271875
20
16.640834375
30
0
0
VERTEX
8
0
10
22.469943750000002
20
16.600068750000002
30
0
0
VERTEX
8
0
10
22.523371875000002
20
16.56436875
30
0
0
VERTEX
8
0
10
22.580040625000002
20
16.534078125
30
0
0
VERTEX
8
0
10
22.639409375
20
16.509487500000002
30
0
0
VERTEX
8
0
10
22.7009
20
16.490834375000002
30
0
0
VERTEX
8
0
10
22.763921875
20
16.478296875
30
0
0
VERTEX
8
0
10
22.827871875
20
16.472
30
0
0
VERTEX
8
0
10
22.892128125000003
20
16.472
30
0
0
SEQEND
0
POLYLINE
66
1
8
16_copper
10
0.0
20
0.0
30
0.0
70
1
0
VERTEX
8
0
10
25.496078125
20
16.478296875
30
0
42
0.3578058919557322
0
VERTEX
8
0
10
26.054000000000002
20
17.093871875
30
0
0
VERTEX
8
0
10
26.054000000000002
20
18.466128125
30
0
42
0.9520803604479573
0
VERTEX
8
0
10
24.746000000000002
20
18.466128125
30
0
0
VERTEX
8
0
10
24.746000000000002
20
17.093871875
30
0
0
VERTEX
8
0
10
24.752296875000003
20
17.029921875
30
0
0
VERTEX
8
0
10
24.764834375
20
16.966900000000003
30
0
0
VERTEX
8
0
10
24.7834875
20
16.905409375
30
0
0
VERTEX
8
0
10
24.808078125
20
16.846040625
30
0
0
VERTEX
8
0
10
24.83836875
20
16.789371875
30
0
0
VERTEX
8
0
10
24.874068750000003
20
16.73594375
30
0
0
VERTEX
8
0
10
24.914834375
20
16.686271875
30
0
0
VERTEX
8
0
10
24.960271875
20
16.640834375
30
0
0
VERTEX
8
0
10
25.00994375
20
16.600068750000002
30
0
0
VERTEX
8
0
10
25.063371875
20
16.56436875
30
0
0
VERTEX
8
0
10
25.120040625
20
16.534078125
30
0
0
VERTEX
8
0
10
25.179409375000002
20
16.509487500000002
30
0
0
VERTEX
8
0
10
25.2409
20
16.490834375000002
30
0
0
VERTEX
8
0
10
25.303921875
20
16.478296875
30
0
0
VERTEX
8
0
10
25.367871875000002
20
16.472
30
0
0
VERTEX
8
0
10
25.432128125000002
20
16.472
30
0
0
SEQEND
0
POLYLINE
66
1
8
16_copper
10
0.0
20
0.0
30
0.0
70
1
0
VERTEX
8
0
10
28.036078125000003
20
16.478296875
30
0
42
0.3578058919557322
0
VERTEX
8
0
10
28.594
20
17.093871875
30
0
0
VERTEX
8
0
10
28.594
20
18.466128125
30
0
42
0.9520803604479573
0
VERTEX
8
0
10
27.286
20
18.466128125
30
0
0
VERTEX
8
0
10
27.286
20
17.093871875
30
0
0
VERTEX
8
0
10
27.292296875
20
17.029921875
30
0
0
VERTEX
8
0
10
27.304834375000002
20
16.966900000000003
30
0
0
VERTEX
8
0
10
27.323487500000002
20
16.905409375
30
0
0
VERTEX
8
0
10
27.348078125
20
16.846040625
30
0
0
VERTEX
8
0
10
27.37836875
20
16.789371875
30
0
0
VERTEX
8
0
10
27.414068750000002
20
16.73594375
30
0
0
VERTEX
8
0
10
27.454834375
20
16.686271875
30
0
0
VERTEX
8
0
10
27.500271875000003
20
16.640834375
30
0
0
VERTEX
8
0
10
27.54994375
20
16.600068750000002
30
0
0
VERTEX
8
0
10
27.603371875
20
16.56436875
30
0
0
VERTEX
8
0
10
27.660040625
20
16.534078125
30
0
0
VERTEX
8
0
10
27.719409375
20
16.509487500000002
30
0
0
VERTEX
8
0
10
27.780900000000003
20
16.490834375000002
30
0
0
VERTEX
8
0
10
27.843921875000003
20
16.478296875
30
0
0
VERTEX
8
0
10
27.907871875
20
16.472
30
0
0
VERTEX
8
0
10
27.972128125
20
16.472
30
0
0
SEQEND
0
POLYLINE
66
1
8
1_copper
10
0.0
20
0.0
30
0.0
70
1
0
VERTEX
8
0
10
17.876078125
20
31.718296875
30
0
42
0.3578058919557322
0
VERTEX
8
0
10
18.434
20
32.333871875
30
0
0
VERTEX
8
0
10
18.434
20
33.706128125
30
0
42
0.9520803604479573
0
VERTEX
8
0
10
17.126
20
33.706128125
30
0
0
VERTEX
8
0
10
17.126
20
32.333871875
30
0
0
VERTEX
8
0
10
17.132296875
20
32.269921875
30
0
0
VERTEX
8
0
10
17.144834375000002
20
32.206900000000005
30
0
0
VERTEX
8
0
10
17.163487500000002
20
32.145409375
30
0
0
VERTEX
8
0
10
17.188078125
20
32.086040625
30
0
0
VERTEX
8
0
10
17.21836875
20
32.029371875
30
0
0
VERTEX
8
0
10
17.254068750000002
20
31.975943750000003
30
0
0
VERTEX
8
0
10
17.294834375
20
31.926271875
30
0
0
VERTEX
8
0
10
17.340271875
20
31.880834375000003
30
0
0
VERTEX
8
0
10
17.38994375
20
31.84006875
30
0
0
VERTEX
8
0
10
17.443371875
20
31.804368750000002
30
0
0
VERTEX
8
0
10
17.500040625
20
31.774078125000003
30
0
0
VERTEX
8
0
10
17.559409375
20
31.7494875
30
0
0
VERTEX
8
0
10
17.620900000000002
20
31.730834375
30
0
0
VERTEX
8
0
10
17.683921875
20
31.718296875
30
0
0
VERTEX
8
0
10
17.747871875
20
31.712
30
0
0
VERTEX
8
0
10
17.812128125
20
31.712
30
0
0
SEQEND
0
POLYLINE
66
1
8
1_copper
10
0.0
20
0.0
30
0.0
70
1
0
VERTEX
8
0
10
21.70194375
20
4.8333375
30
0
42
0.3578057741447831
0
VERTEX
8
0
10
22.352
20
5.550565625
30
0
0
VERTEX
8
0
10
22.352
20
7.149434375
30
0
42
0.9520795017710559
0
VERTEX
8
0
10
20.828
20
7.149434375
30
0
0
VERTEX
8
0
10
20.828
20
5.550565625
30
0
0
VERTEX
8
0
10
20.8353375
20
5.47605625
30
0
0
VERTEX
8
0
10
20.84994375
20
5.4026250000000005
30
0
0
VERTEX
8
0
10
20.871678125000003
20
5.330981250000001
30
0
0
VERTEX
8
0
10
20.900328125
20
5.261809375
30
0
0
VERTEX
8
0
10
20.935621875000002
20
5.1957812500000005
30
0
0
VERTEX
8
0
10
20.977218750000002
20
5.13353125
30
0
0
VERTEX
8
0
10
21.024715625000002
20
5.075656250000001
30
0
0
VERTEX
8
0
10
21.07765625
20
5.022715625
30
0
0
VERTEX
8
0
10
21.13553125
20
4.97521875
30
0
0
VERTEX
8
0
10
21.197781250000002
20
4.933621875
30
0
0
VERTEX
8
0
10
21.263809375
20
4.898328125
30
0
0
VERTEX
8
0
10
21.33298125
20
4.869678125
30
0
0
VERTEX
8
0
10
21.404625
20
4.847943750000001
30
0
0
VERTEX
8
0
10
21.47805625
20
4.8333375
30
0
0
VERTEX
8
0
10
21.552565625
20
4.8260000000000005
30
0
0
VERTEX
8
0
10
21.627434375
20
4.8260000000000005
30
0
0
SEQEND
0
POLYLINE
66
1
8
16_copper
10
0.0
20
0.0
30
0.0
70
1
0
VERTEX
8
0
10
21.70194375
20
4.8333375
30
0
42
0.33418744585882787
0
VERTEX
8
0
10
22.345693750000002
20
5.48654375
30
0
0
VERTEX
8
0
10
22.704518750000002
20
5.1277187500000005
30
0
42
0.19891236737965798
0
VERTEX
8
0
10
22.7584
20
5.1054
30
0
0
VERTEX
8
0
10
31.8516
20
5.1054
30
0
42
0.19891236737965798
0
VERTEX
8
0
10
31.90548125
20
5.1277187500000005
30
0
0
VERTEX
8
0
10
33.07388125
20
6.296118750000001
30
0
42
0.19891236737965798
0
VERTEX
8
0
10
33.0962
20
6.3500000000000005
30
0
0
VERTEX
8
0
10
33.0962
20
15.24
30
0
42
0.19891236737965798
0
VERTEX
8
0
10
33.07388125
20
15.29388125
30
0
0
VERTEX
8
0
10
31.8262
20
16.5415625
30
0
0
VERTEX
8
0
10
31.8262
20
18.412203125
30
0
42
0.19891236737965798
0
VERTEX
8
0
10
31.80388125
20
18.466084375
30
0
0
VERTEX
8
0
10
18.3005625
20
31.969403125000003
30
0
42
0.15163738364508184
0
VERTEX
8
0
10
18.434
20
32.333871875
30
0
0
VERTEX
8
0
10
18.434
20
33.706128125
30
0
42
0.9520803604479573
0
VERTEX
8
0
10
17.126
20
33.706128125
30
0
0
VERTEX
8
0
10
17.126
20
32.333871875
30
0
42
0.6158437562479726
0
VERTEX
8
0
10
18.194396875000002
20
31.860043750000003
30
0
0
VERTEX
8
0
10
31.6738
20
18.380640625
30
0
0
VERTEX
8
0
10
31.6738
20
16.51
30
0
42
0.19891236737965798
0
VERTEX
8
0
10
31.69611875
20
16.45611875
30
0
0
VERTEX
8
0
10
32.9438
20
15.2084375
30
0
0
VERTEX
8
0
10
32.9438
20
6.3815625
30
0
0
VERTEX
8
0
10
31.8200375
20
5.2578000000000005
30
0
0
VERTEX
8
0
10
22.7899625
20
5.2578000000000005
30
0
0
VERTEX
8
0
10
22.352
20
5.6957625
30
0
0
VERTEX
8
0
10
22.352
20
7.149434375
30
0
42
0.9520795017710559
0
VERTEX
8
0
10
20.828
20
7.149434375
30
0
0
VERTEX
8
0
10
20.828
20
5.550565625
30
0
0
VERTEX
8
0
10
20.8353375
20
5.47605625
30
0
0
VERTEX
8
0
10
20.84994375
20
5.4026250000000005
30
0
0
VERTEX
8
0
10
20.871678125000003
20
5.330981250000001
30
0
0
VERTEX
8
0
10
20.900328125
20
5.261809375
30
0
0
VERTEX
8
0
10
20.935621875000002
20
5.1957812500000005
30
0
0
VERTEX
8
0
10
20.977218750000002
20
5.13353125
30
0
0
VERTEX
8
0
10
21.024715625000002
20
5.075656250000001
30
0
0
VERTEX
8
0
10
21.07765625
20
5.022715625
30
0
0
VERTEX
8
0
10
21.13553125
20
4.97521875
30
0
0
VERTEX
8
0
10
21.197781250000002
20
4.933621875
30
0
0
VERTEX
8
0
10
21.263809375
20
4.898328125
30
0
0
VERTEX
8
0
10
21.33298125
20
4.869678125
30
0
0
VERTEX
8
0
10
21.404625
20
4.847943750000001
30
0
0
VERTEX
8
0
10
21.47805625
20
4.8333375
30
0
0
VERTEX
8
0
10
21.552565625
20
4.8260000000000005
30
0
0
VERTEX
8
0
10
21.627434375
20
4.8260000000000005
30
0
0
SEQEND
0
POLYLINE
66
1
8
1_copper
10
0.0
20
0.0
30
0.0
70
1
0
VERTEX
8
0
10
24.925828125000002
20
4.522415625
30
0
42
0.16997656369761124
0
VERTEX
8
0
10
24.97128125
20
4.5435187500000005
30
0
0
VERTEX
8
0
10
26.72388125
20
6.296118750000001
30
0
42
0.19891236737965798
0
VERTEX
8
0
10
26.7462
20
6.3500000000000005
30
0
0
VERTEX
8
0
10
26.7462
20
7.5884375
30
0
0
VERTEX
8
0
10
31.80388125
20
12.646118750000001
30
0
42
0.6681786379192989
0
VERTEX
8
0
10
31.75
20
12.776200000000001
30
0
0
VERTEX
8
0
10
27.94
20
12.776200000000001
30
0
42
0.8710665068920352
0
VERTEX
8
0
10
27.91929375
20
12.62666875
30
0
0
VERTEX
8
0
10
27.94
20
12.623800000000001
30
0
0
VERTEX
8
0
10
31.5660375
20
12.623800000000001
30
0
0
VERTEX
8
0
10
26.616118750000002
20
7.67388125
30
0
42
0.19891236737965798
0
VERTEX
8
0
10
26.5938
20
7.62
30
0
0
VERTEX
8
0
10
26.5938
20
6.3815625
30
0
0
VERTEX
8
0
10
24.8858375
20
4.6736
30
0
0
VERTEX
8
0
10
20.8341625
20
4.6736
30
0
0
VERTEX
8
0
10
19.812
20
5.6957625
30
0
0
VERTEX
8
0
10
19.812
20
7.149434375
30
0
42
0.9520795017710559
0
VERTEX
8
0
10
18.288
20
7.149434375
30
0
0
VERTEX
8
0
10
18.288
20
5.550565625
30
0
42
0.9126531490154169
0
VERTEX
8
0
10
19.80569375
20
5.48654375
30
0
0
VERTEX
8
0
10
20.748718750000002
20
4.5435187500000005
30
0
42
0.19891236737965798
0
VERTEX
8
0
10
20.8026
20
4.5212
30
0
0
VERTEX
8
0
10
24.9174
20
4.5212
30
0
0
SEQEND
0
POLYLINE
66
1
8
16_copper
10
0.0
20
0.0
30
0.0
70
1
0
VERTEX
8
0
10
19.161943750000002
20
4.8333375
30
0
42
0.3578057741447831
0
VERTEX
8
0
10
19.812
20
5.550565625
30
0
0
VERTEX
8
0
10
19.812
20
7.149434375
30
0
42
0.9520795017710559
0
VERTEX
8
0
10
18.288
20
7.149434375
30
0
0
VERTEX
8
0
10
18.288
20
5.550565625
30
0
0
VERTEX
8
0
10
18.295337500000002
20
5.47605625
30
0
0
VERTEX
8
0
10
18.309943750000002
20
5.4026250000000005
30
0
0
VERTEX
8
0
10
18.331678125
20
5.330981250000001
30
0
0
VERTEX
8
0
10
18.360328125000002
20
5.261809375
30
0
0
VERTEX
8
0
10
18.395621875
20
5.1957812500000005
30
0
0
VERTEX
8
0
10
18.43721875
20
5.13353125
30
0
0
VERTEX
8
0
10
18.484715625
20
5.075656250000001
30
0
0
VERTEX
8
0
10
18.53765625
20
5.022715625
30
0
0
VERTEX
8
0
10
18.59553125
20
4.97521875
30
0
0
VERTEX
8
0
10
18.65778125
20
4.933621875
30
0
0
VERTEX
8
0
10
18.723809375000002
20
4.898328125
30
0
0
VERTEX
8
0
10
18.79298125
20
4.869678125
30
0
0
VERTEX
8
0
10
18.864625
20
4.847943750000001
30
0
0
VERTEX
8
0
10
18.938056250000002
20
4.8333375
30
0
0
VERTEX
8
0
10
19.012565625
20
4.8260000000000005
30
0
0
VERTEX
8
0
10
19.087434375
20
4.8260000000000005
30
0
0
SEQEND
0
POLYLINE
66
1
8
1_copper
10
0.0
20
0.0
30
0.0
70
1
0
VERTEX
8
0
10
3.82689375
20
38.025696875
30
0
42
0.14139007296259895
0
VERTEX
8
0
10
3.8638812500000004
20
38.046118750000005
30
0
0
VERTEX
8
0
10
10.21388125
20
44.39611875
30
0
42
0.19891236737965798
0
VERTEX
8
0
10
10.2362
20
44.45
30
0
0
VERTEX
8
0
10
10.2362
20
45.72
30
0
42
0.9999999999999999
0
VERTEX
8
0
10
10.0838
20
45.72
30
0
0
VERTEX
8
0
10
10.0838
20
44.4815625
30
0
0
VERTEX
8
0
10
3.75611875
20
38.153881250000005
30
0
0
VERTEX
8
0
10
3.743084375
20
38.13645
30
0
0
VERTEX
8
0
10
3.7355093750000004
20
38.11604375
30
0
0
VERTEX
8
0
10
3.7340125000000004
20
38.094328125000004
30
0
0
VERTEX
8
0
10
3.738715625
20
38.073075
30
0
0
VERTEX
8
0
10
3.7492375
20
38.054018750000004
30
0
0
VERTEX
8
0
10
3.764715625
20
38.038715625
30
0
0
VERTEX
8
0
10
3.783890625
20
38.0284125
30
0
0
VERTEX
8
0
10
3.805196875
20
38.023953125
30
0
0
SEQEND
0
POLYLINE
66
1
8
1_copper
10
0.0
20
0.0
30
0.0
70
1
0
VERTEX
8
0
10
16.62194375
20
4.8333375
30
0
42
0.3578057741447831
0
VERTEX
8
0
10
17.272000000000002
20
5.550565625
30
0
0
VERTEX
8
0
10
17.272000000000002
20
7.149434375
30
0
42
0.3711436710623373
0
VERTEX
8
0
10
16.5862
20
7.870181250000001
30
0
0
VERTEX
8
0
10
16.5862
20
12.623800000000001
30
0
0
VERTEX
8
0
10
20.32
20
12.623800000000001
30
0
42
0.9999999999999999
0
VERTEX
8
0
10
20.32
20
12.776200000000001
30
0
0
VERTEX
8
0
10
16.51
20
12.776200000000001
30
0
42
0.4142135623730951
0
VERTEX
8
0
10
16.4338
20
12.700000000000001
30
0
0
VERTEX
8
0
10
16.4338
20
7.870181250000001
30
0
42
0.3711436710623373
0
VERTEX
8
0
10
15.748000000000001
20
7.149434375
30
0
0
VERTEX
8
0
10
15.748000000000001
20
6.426200000000001
30
0
0
VERTEX
8
0
10
11.43
20
6.426200000000001
30
0
42
0.8710665068920352
0
VERTEX
8
0
10
11.40929375
20
6.276668750000001
30
0
0
VERTEX
8
0
10
11.43
20
6.2738000000000005
30
0
0
VERTEX
8
0
10
15.748000000000001
20
6.2738000000000005
30
0
0
VERTEX
8
0
10
15.748000000000001
20
5.550565625
30
0
0
VERTEX
8
0
10
15.755337500000001
20
5.47605625
30
0
0
VERTEX
8
0
10
15.769943750000001
20
5.4026250000000005
30
0
0
VERTEX
8
0
10
15.791678125
20
5.330981250000001
30
0
0
VERTEX
8
0
10
15.820328125000001
20
5.261809375
30
0
0
VERTEX
8
0
10
15.855621875
20
5.1957812500000005
30
0
0
VERTEX
8
0
10
15.89721875
20
5.13353125
30
0
0
VERTEX
8
0
10
15.944715625
20
5.075656250000001
30
0
0
VERTEX
8
0
10
15.99765625
20
5.022715625
30
0
0
VERTEX
8
0
10
16.05553125
20
4.97521875
30
0
0
VERTEX
8
0
10
16.11778125
20
4.933621875
30
0
0
VERTEX
8
0
10
16.183809375
20
4.898328125
30
0
0
VERTEX
8
0
10
16.25298125
20
4.869678125
30
0
0
VERTEX
8
0
10
16.324625
20
4.847943750000001
30
0
0
VERTEX
8
0
10
16.39805625
20
4.8333375
30
0
0
VERTEX
8
0
10
16.472565625
20
4.8260000000000005
30
0
0
VERTEX
8
0
10
16.547434375
20
4.8260000000000005
30
0
0
SEQEND
0
POLYLINE
66
1
8
16_copper
10
0.0
20
0.0
30
0.0
70
1
0
VERTEX
8
0
10
10.17689375
20
45.645696875
30
0
42
0.14139007296259895
0
VERTEX
8
0
10
10.21388125
20
45.66611875
30
0
0
VERTEX
8
0
10
11.359965625000001
20
46.812203125
30
0
0
VERTEX
8
0
10
20.390034375000003
20
46.812203125
30
0
0
VERTEX
8
0
10
21.53611875
20
45.66611875
30
0
42
0.9999999999999999
0
VERTEX
8
0
10
21.64388125
20
45.77388125
30
0
0
VERTEX
8
0
10
20.475478125000002
20
46.942284375
30
0
42
0.19891236737965798
0
VERTEX
8
0
10
20.421596875000002
20
46.964603125000004
30
0
0
VERTEX
8
0
10
11.328403125000001
20
46.964603125000004
30
0
42
0.19891236737965798
0
VERTEX
8
0
10
11.274521875000001
20
46.942284375
30
0
0
VERTEX
8
0
10
10.10611875
20
45.77388125
30
0
0
VERTEX
8
0
10
10.093084375
20
45.75645
30
0
0
VERTEX
8
0
10
10.085509375
20
45.73604375
30
0
0
VERTEX
8
0
10
10.0840125
20
45.714328125
30
0
0
VERTEX
8
0
10
10.088715625
20
45.693075
30
0
0
VERTEX
8
0
10
10.099237500000001
20
45.67401875
30
0
0
VERTEX
8
0
10
10.114715625
20
45.658715625
30
0
0
VERTEX
8
0
10
10.133890625000001
20
45.6484125
30
0
0
VERTEX
8
0
10
10.155196875
20
45.643953125
30
0
0
SEQEND
0
POLYLINE
66
1
8
16_copper
10
0.0
20
0.0
30
0.0
70
1
0
VERTEX
8
0
10
16.53154375
20
12.626909375
30
0
42
0.8660508493283853
0
VERTEX
8
0
10
16.51
20
12.776200000000001
30
0
0
VERTEX
8
0
10
10.829359375000001
20
12.776200000000001
30
0
0
VERTEX
8
0
10
6.426200000000001
20
17.179359375
30
0
0
VERTEX
8
0
10
6.426200000000001
20
35.56
30
0
42
0.19891236737965798
0
VERTEX
8
0
10
6.40388125
20
35.61388125
30
0
0
VERTEX
8
0
10
3.8638812500000004
20
38.153881250000005
30
0
42
0.9999999999999999
0
VERTEX
8
0
10
3.75611875
20
38.046118750000005
30
0
0
VERTEX
8
0
10
6.2738000000000005
20
35.5284375
30
0
0
VERTEX
8
0
10
6.2738000000000005
20
17.147796875
30
0
42
0.19891236737965798
0
VERTEX
8
0
10
6.296118750000001
20
17.093915625
30
0
0
VERTEX
8
0
10
10.743915625
20
12.646118750000001
30
0
42
0.19891236737965798
0
VERTEX
8
0
10
10.797796875000001
20
12.623800000000001
30
0
0
VERTEX
8
0
10
16.51
20
12.623800000000001
30
0
0
SEQEND
0
POLYLINE
66
1
8
16_copper
10
0.0
20
0.0
30
0.0
70
1
0
VERTEX
8
0
10
16.62194375
20
4.8333375
30
0
42
0.3578057741447831
0
VERTEX
8
0
10
17.272000000000002
20
5.550565625
30
0
0
VERTEX
8
0
10
17.272000000000002
20
7.149434375
30
0
42
0.9520795017710559
0
VERTEX
8
0
10
15.748000000000001
20
7.149434375
30
0
0
VERTEX
8
0
10
15.748000000000001
20
5.550565625
30
0
0
VERTEX
8
0
10
15.755337500000001
20
5.47605625
30
0
0
VERTEX
8
0
10
15.769943750000001
20
5.4026250000000005
30
0
0
VERTEX
8
0
10
15.791678125
20
5.330981250000001
30
0
0
VERTEX
8
0
10
15.820328125000001
20
5.261809375
30
0
0
VERTEX
8
0
10
15.855621875
20
5.1957812500000005
30
0
0
VERTEX
8
0
10
15.89721875
20
5.13353125
30
0
0
VERTEX
8
0
10
15.944715625
20
5.075656250000001
30
0
0
VERTEX
8
0
10
15.99765625
20
5.022715625
30
0
0
VERTEX
8
0
10
16.05553125
20
4.97521875
30
0
0
VERTEX
8
0
10
16.11778125
20
4.933621875
30
0
0
VERTEX
8
0
10
16.183809375
20
4.898328125
30
0
0
VERTEX
8
0
10
16.25298125
20
4.869678125
30
0
0
VERTEX
8
0
10
16.324625
20
4.847943750000001
30
0
0
VERTEX
8
0
10
16.39805625
20
4.8333375
30
0
0
VERTEX
8
0
10
16.472565625
20
4.8260000000000005
30
0
0
VERTEX
8
0
10
16.547434375
20
4.8260000000000005
30
0
0
SEQEND
0
POLYLINE
66
1
8
1_copper
10
0.0
20
0.0
30
0.0
70
1
0
VERTEX
8
0
10
3.82689375
20
11.355696875000001
30
0
42
0.14139007296259895
0
VERTEX
8
0
10
3.8638812500000004
20
11.37611875
30
0
0
VERTEX
8
0
10
5.111562500000001
20
12.623800000000001
30
0
0
VERTEX
8
0
10
8.89
20
12.623800000000001
30
0
42
0.4142135623730951
0
VERTEX
8
0
10
8.9662
20
12.700000000000001
30
0
0
VERTEX
8
0
10
8.9662
20
20.9044375
30
0
0
VERTEX
8
0
10
19.914503125
20
31.852740625000003
30
0
42
0.6097908023190604
0
VERTEX
8
0
10
20.974
20
32.333871875
30
0
0
VERTEX
8
0
10
20.974
20
33.706128125
30
0
42
0.9520803604479573
0
VERTEX
8
0
10
19.666
20
33.706128125
30
0
0
VERTEX
8
0
10
19.666
20
32.333871875
30
0
42
0.1561390686739677
0
VERTEX
8
0
10
19.806740625
20
31.960503125000002
30
0
0
VERTEX
8
0
10
8.83611875
20
20.98988125
30
0
42
0.19891236737965798
0
VERTEX
8
0
10
8.8138
20
20.936
30
0
0
VERTEX
8
0
10
8.8138
20
12.776200000000001
30
0
0
VERTEX
8
0
10
5.08
20
12.776200000000001
30
0
42
0.19891236737965798
0
VERTEX
8
0
10
5.02611875
20
12.753881250000001
30
0
0
VERTEX
8
0
10
3.75611875
20
11.483881250000001
30
0
0
VERTEX
8
0
10
3.743084375
20
11.46645
30
0
0
VERTEX
8
0
10
3.7355093750000004
20
11.446043750000001
30
0
0
VERTEX
8
0
10
3.7340125000000004
20
11.424328125
30
0
0
VERTEX
8
0
10
3.738715625
20
11.403075000000001
30
0
0
VERTEX
8
0
10
3.7492375
20
11.384018750000001
30
0
0
VERTEX
8
0
10
3.764715625
20
11.368715625
30
0
0
VERTEX
8
0
10
3.783890625
20
11.3584125
30
0
0
VERTEX
8
0
10
3.805196875
20
11.353953125
30
0
0
SEQEND
0
POLYLINE
66
1
8
16_copper
10
0.0
20
0.0
30
0.0
70
1
0
VERTEX
8
0
10
20.416078125000002
20
31.718296875
30
0
42
0.3578058919557322
0
VERTEX
8
0
10
20.974
20
32.333871875
30
0
0
VERTEX
8
0
10
20.974
20
33.706128125
30
0
42
0.9520803604479573
0
VERTEX
8
0
10
19.666
20
33.706128125
30
0
0
VERTEX
8
0
10
19.666
20
32.333871875
30
0
0
VERTEX
8
0
10
19.672296875
20
32.269921875
30
0
0
VERTEX
8
0
10
19.684834375
20
32.206900000000005
30
0
0
VERTEX
8
0
10
19.7034875
20
32.145409375
30
0
0
VERTEX
8
0
10
19.728078125
20
32.086040625
30
0
0
VERTEX
8
0
10
19.758368750000002
20
32.029371875
30
0
0
VERTEX
8
0
10
19.79406875
20
31.975943750000003
30
0
0
VERTEX
8
0
10
19.834834375
20
31.926271875
30
0
0
VERTEX
8
0
10
19.880271875000002
20
31.880834375000003
30
0
0
VERTEX
8
0
10
19.92994375
20
31.84006875
30
0
0
VERTEX
8
0
10
19.983371875
20
31.804368750000002
30
0
0
VERTEX
8
0
10
20.040040625
20
31.774078125000003
30
0
0
VERTEX
8
0
10
20.099409375
20
31.7494875
30
0
0
VERTEX
8
0
10
20.1609
20
31.730834375
30
0
0
VERTEX
8
0
10
20.223921875000002
20
31.718296875
30
0
0
VERTEX
8
0
10
20.287871875
20
31.712
30
0
0
VERTEX
8
0
10
20.352128125
20
31.712
30
0
0
SEQEND
0
POLYLINE
66
1
8
1_copper
10
0.0
20
0.0
30
0.0
70
1
0
VERTEX
8
0
10
25.774015625
20
31.408415625
30
0
42
0.16997656369761124
0
VERTEX
8
0
10
25.819468750000002
20
31.429518750000003
30
0
0
VERTEX
8
0
10
26.72388125
20
32.33393125
30
0
42
0.19891236737965798
0
VERTEX
8
0
10
26.7462
20
32.3878125
30
0
0
VERTEX
8
0
10
26.7462
20
33.620628125
30
0
0
VERTEX
8
0
10
29.4670875
20
36.341515625
30
0
42
0.19891236737965798
0
VERTEX
8
0
10
29.489406250000002
20
36.395396875
30
0
0
VERTEX
8
0
10
29.489406250000002
20
45.8991625
30
0
42
0.19891236737965798
0
VERTEX
8
0
10
29.4670875
20
45.95304375
30
0
0
VERTEX
8
0
10
24.56625
20
50.85388125
30
0
42
0.19891236737965798
0
VERTEX
8
0
10
24.51236875
20
50.876200000000004
30
0
0
VERTEX
8
0
10
21.59
20
50.876200000000004
30
0
42
0.8710665068920352
0
VERTEX
8
0
10
21.56929375
20
50.72666875
30
0
0
VERTEX
8
0
10
21.59
20
50.723800000000004
30
0
0
VERTEX
8
0
10
24.48080625
20
50.723800000000004
30
0
0
VERTEX
8
0
10
29.33700625
20
45.8676
30
0
0
VERTEX
8
0
10
29.33700625
20
36.426959375
30
0
0
VERTEX
8
0
10
26.616118750000002
20
33.706071875
30
0
42
0.19891236737965798
0
VERTEX
8
0
10
26.5938
20
33.652190625
30
0
0
VERTEX
8
0
10
26.5938
20
32.419375
30
0
0
VERTEX
8
0
10
25.734025000000003
20
31.559600000000003
30
0
0
VERTEX
8
0
10
24.428162500000003
20
31.559600000000003
30
0
0
VERTEX
8
0
10
23.514000000000003
20
32.4737625
30
0
0
VERTEX
8
0
10
23.514000000000003
20
33.706128125
30
0
42
0.9520803604479573
0
VERTEX
8
0
10
22.206
20
33.706128125
30
0
0
VERTEX
8
0
10
22.206
20
32.333871875
30
0
42
0.9031689333988902
0
VERTEX
8
0
10
23.506809375
20
32.265428125
30
0
0
VERTEX
8
0
10
24.34271875
20
31.429518750000003
30
0
42
0.19891236737965798
0
VERTEX
8
0
10
24.3966
20
31.407200000000003
30
0
0
VERTEX
8
0
10
25.765587500000002
20
31.407200000000003
30
0
0
SEQEND
0
POLYLINE
66
1
8
16_copper
10
0.0
20
0.0
30
0.0
70
1
0
VERTEX
8
0
10
22.956078125
20
31.718296875
30
0
42
0.3578058919557322
0
VERTEX
8
0
10
23.514000000000003
20
32.333871875
30
0
0
VERTEX
8
0
10
23.514000000000003
20
33.706128125
30
0
42
0.6097908023190604
0
VERTEX
8
0
10
22.454503125000002
20
34.187259375000004
30
0
0
VERTEX
8
0
10
21.05700625
20
35.584756250000005
30
0
42
0.19891236737965798
0
VERTEX
8
0
10
21.003125
20
35.607075
30
0
0
VERTEX
8
0
10
12.760687500000001
20
35.607075
30
0
0
VERTEX
8
0
10
10.21388125
20
38.153881250000005
30
0
42
0.9999999999999999
0
VERTEX
8
0
10
10.10611875
20
38.046118750000005
30
0
0
VERTEX
8
0
10
12.67524375
20
35.47699375
30
0
42
0.19891236737965798
0
VERTEX
8
0
10
12.729125
20
35.454675
30
0
0
VERTEX
8
0
10
20.9715625
20
35.454675
30
0
0
VERTEX
8
0
10
22.346740625000002
20
34.079496875000004
30
0
42
0.1561390686739677
0
VERTEX
8
0
10
22.206
20
33.706128125
30
0
0
VERTEX
8
0
10
22.206
20
32.333871875
30
0
0
VERTEX
8
0
10
22.212296875
20
32.269921875
30
0
0
VERTEX
8
0
10
22.224834375
20
32.206900000000005
30
0
0
VERTEX
8
0
10
22.2434875
20
32.145409375
30
0
0
VERTEX
8
0
10
22.268078125000002
20
32.086040625
30
0
0
VERTEX
8
0
10
22.29836875
20
32.029371875
30
0
0
VERTEX
8
0
10
22.33406875
20
31.975943750000003
30
0
0
VERTEX
8
0
10
22.374834375000002
20
31.926271875
30
0
0
VERTEX
8
0
10
22.420271875
20
31.880834375000003
30
0
0
VERTEX
8
0
10
22.469943750000002
20
31.84006875
30
0
0
VERTEX
8
0
10
22.523371875000002
20
31.804368750000002
30
0
0
VERTEX
8
0
10
22.580040625000002
20
31.774078125000003
30
0
0
VERTEX
8
0
10
22.639409375
20
31.7494875
30
0
0
VERTEX
8
0
10
22.7009
20
31.730834375
30
0
0
VERTEX
8
0
10
22.763921875
20
31.718296875
30
0
0
VERTEX
8
0
10
22.827871875
20
31.712
30
0
0
VERTEX
8
0
10
22.892128125000003
20
31.712
30
0
0
SEQEND
0
POLYLINE
66
1
8
1_copper
10
0.0
20
0.0
30
0.0
70
1
0
VERTEX
8
0
10
25.496078125
20
31.718296875
30
0
42
0.3578058919557322
0
VERTEX
8
0
10
26.054000000000002
20
32.333871875
30
0
0
VERTEX
8
0
10
26.054000000000002
20
33.706128125
30
0
42
0.36643193633390486
0
VERTEX
8
0
10
25.476200000000002
20
34.323659375
30
0
0
VERTEX
8
0
10
25.476200000000002
20
35.94236875
30
0
42
0.19891236737965798
0
VERTEX
8
0
10
25.453881250000002
20
35.99625
30
0
0
VERTEX
8
0
10
19.486250000000002
20
41.96388125
30
0
42
0.19891236737965798
0
VERTEX
8
0
10
19.432368750000002
20
41.986200000000004
30
0
0
VERTEX
8
0
10
18.69919375
20
41.986200000000004
30
0
0
VERTEX
8
0
10
12.776200000000001
20
47.90919375
30
0
0
VERTEX
8
0
10
12.776200000000001
20
50.800000000000004
30
0
42
0.6681786379192989
0
VERTEX
8
0
10
12.646118750000001
20
50.85388125
30
0
0
VERTEX
8
0
10
7.5884375
20
45.7962
30
0
0
VERTEX
8
0
10
3.81
20
45.7962
30
0
42
0.8710665068920352
0
VERTEX
8
0
10
3.78929375
20
45.64666875
30
0
0
VERTEX
8
0
10
3.81
20
45.6438
30
0
0
VERTEX
8
0
10
7.62
20
45.6438
30
0
42
0.19891236737965798
0
VERTEX
8
0
10
7.67388125
20
45.66611875
30
0
0
VERTEX
8
0
10
12.623800000000001
20
50.616037500000004
30
0
0
VERTEX
8
0
10
12.623800000000001
20
47.87763125
30
0
42
0.19891236737965798
0
VERTEX
8
0
10
12.646118750000001
20
47.823750000000004
30
0
0
VERTEX
8
0
10
18.61375
20
41.85611875
30
0
42
0.19891236737965798
0
VERTEX
8
0
10
18.66763125
20
41.833800000000004
30
0
0
VERTEX
8
0
10
19.400806250000002
20
41.833800000000004
30
0
0
VERTEX
8
0
10
25.323800000000002
20
35.91080625
30
0
0
VERTEX
8
0
10
25.323800000000002
20
34.323659375
30
0
42
0.36643193633390486
0
VERTEX
8
0
10
24.746000000000002
20
33.706128125
30
0
0
VERTEX
8
0
10
24.746000000000002
20
32.333871875
30
0
0
VERTEX
8
0
10
24.752296875000003
20
32.269921875
30
0
0
VERTEX
8
0
10
24.764834375
20
32.206900000000005
30
0
0
VERTEX
8
0
10
24.7834875
20
32.145409375
30
0
0
VERTEX
8
0
10
24.808078125
20
32.086040625
30
0
0
VERTEX
8
0
10
24.83836875
20
32.029371875
30
0
0
VERTEX
8
0
10
24.874068750000003
20
31.975943750000003
30
0
0
VERTEX
8
0
10
24.914834375
20
31.926271875
30
0
0
VERTEX
8
0
10
24.960271875
20
31.880834375000003
30
0
0
VERTEX
8
0
10
25.00994375
20
31.84006875
30
0
0
VERTEX
8
0
10
25.063371875
20
31.804368750000002
30
0
0
VERTEX
8
0
10
25.120040625
20
31.774078125000003
30
0
0
VERTEX
8
0
10
25.179409375000002
20
31.7494875
30
0
0
VERTEX
8
0
10
25.2409
20
31.730834375
30
0
0
VERTEX
8
0
10
25.303921875
20
31.718296875
30
0
0
VERTEX
8
0
10
25.367871875000002
20
31.712
30
0
0
VERTEX
8
0
10
25.432128125000002
20
31.712
30
0
0
SEQEND
0
POLYLINE
66
1
8
16_copper
10
0.0
20
0.0
30
0.0
70
1
0
VERTEX
8
0
10
25.496078125
20
31.718296875
30
0
42
0.3578058919557322
0
VERTEX
8
0
10
26.054000000000002
20
32.333871875
30
0
0
VERTEX
8
0
10
26.054000000000002
20
33.706128125
30
0
42
0.9520803604479573
0
VERTEX
8
0
10
24.746000000000002
20
33.706128125
30
0
0
VERTEX
8
0
10
24.746000000000002
20
32.333871875
30
0
0
VERTEX
8
0
10
24.752296875000003
20
32.269921875
30
0
0
VERTEX
8
0
10
24.764834375
20
32.206900000000005
30
0
0
VERTEX
8
0
10
24.7834875
20
32.145409375
30
0
0
VERTEX
8
0
10
24.808078125
20
32.086040625
30
0
0
VERTEX
8
0
10
24.83836875
20
32.029371875
30
0
0
VERTEX
8
0
10
24.874068750000003
20
31.975943750000003
30
0
0
VERTEX
8
0
10
24.914834375
20
31.926271875
30
0
0
VERTEX
8
0
10
24.960271875
20
31.880834375000003
30
0
0
VERTEX
8
0
10
25.00994375
20
31.84006875
30
0
0
VERTEX
8
0
10
25.063371875
20
31.804368750000002
30
0
0
VERTEX
8
0
10
25.120040625
20
31.774078125000003
30
0
0
VERTEX
8
0
10
25.179409375000002
20
31.7494875
30
0
0
VERTEX
8
0
10
25.2409
20
31.730834375
30
0
0
VERTEX
8
0
10
25.303921875
20
31.718296875
30
0
0
VERTEX
8
0
10
25.367871875000002
20
31.712
30
0
0
VERTEX
8
0
10
25.432128125000002
20
31.712
30
0
0
SEQEND
0
POLYLINE
66
1
8
1_copper
10
0.0
20
0.0
30
0.0
70
1
0
VERTEX
8
0
10
28.036078125000003
20
31.718296875
30
0
42
0.3578058919557322
0
VERTEX
8
0
10
28.594
20
32.333871875
30
0
0
VERTEX
8
0
10
28.594
20
33.5662375
30
0
0
VERTEX
8
0
10
34.3215625
20
39.293800000000005
30
0
0
VERTEX
8
0
10
39.370000000000005
20
39.293800000000005
30
0
42
0.9999999999999999
0
VERTEX
8
0
10
39.370000000000005
20
39.446200000000005
30
0
0
VERTEX
8
0
10
34.29
20
39.446200000000005
30
0
42
0.19891236737965798
0
VERTEX
8
0
10
34.23611875
20
39.42388125
30
0
0
VERTEX
8
0
10
28.586809375
20
33.774571875
30
0
42
0.9031689333988902
0
VERTEX
8
0
10
27.286
20
33.706128125
30
0
0
VERTEX
8
0
10
27.286
20
32.333871875
30
0
0
VERTEX
8
0
10
27.292296875
20
32.269921875
30
0
0
VERTEX
8
0
10
27.304834375000002
20
32.206900000000005
30
0
0
VERTEX
8
0
10
27.323487500000002
20
32.145409375
30
0
0
VERTEX
8
0
10
27.348078125
20
32.086040625
30
0
0
VERTEX
8
0
10
27.37836875
20
32.029371875
30
0
0
VERTEX
8
0
10
27.414068750000002
20
31.975943750000003
30
0
0
VERTEX
8
0
10
27.454834375
20
31.926271875
30
0
0
VERTEX
8
0
10
27.500271875000003
20
31.880834375000003
30
0
0
VERTEX
8
0
10
27.54994375
20
31.84006875
30
0
0
VERTEX
8
0
10
27.603371875
20
31.804368750000002
30
0
0
VERTEX
8
0
10
27.660040625
20
31.774078125000003
30
0
0
VERTEX
8
0
10
27.719409375
20
31.7494875
30
0
0
VERTEX
8
0
10
27.780900000000003
20
31.730834375
30
0
0
VERTEX
8
0
10
27.843921875000003
20
31.718296875
30
0
0
VERTEX
8
0
10
27.907871875
20
31.712
30
0
0
VERTEX
8
0
10
27.972128125
20
31.712
30
0
0
SEQEND
0
POLYLINE
66
1
8
16_copper
10
0.0
20
0.0
30
0.0
70
1
0
VERTEX
8
0
10
28.036078125000003
20
31.718296875
30
0
42
0.3578058919557322
0
VERTEX
8
0
10
28.594
20
32.333871875
30
0
0
VERTEX
8
0
10
28.594
20
33.706128125
30
0
42
0.6097908023190604
0
VERTEX
8
0
10
27.534503125
20
34.187259375000004
30
0
0
VERTEX
8
0
10
23.567881250000003
20
38.153881250000005
30
0
42
0.19891236737965798
0
VERTEX
8
0
10
23.514000000000003
20
38.1762
30
0
0
VERTEX
8
0
10
21.59
20
38.1762
30
0
42
0.8710665068920352
0
VERTEX
8
0
10
21.56929375
20
38.02666875
30
0
0
VERTEX
8
0
10
21.59
20
38.0238
30
0
0
VERTEX
8
0
10
23.4824375
20
38.0238
30
0
0
VERTEX
8
0
10
27.426740625
20
34.079496875000004
30
0
42
0.1561390686739677
0
VERTEX
8
0
10
27.286
20
33.706128125
30
0
0
VERTEX
8
0
10
27.286
20
32.333871875
30
0
0
VERTEX
8
0
10
27.292296875
20
32.269921875
30
0
0
VERTEX
8
0
10
27.304834375000002
20
32.206900000000005
30
0
0
VERTEX
8
0
10
27.323487500000002
20
32.145409375
30
0
0
VERTEX
8
0
10
27.348078125
20
32.086040625
30
0
0
VERTEX
8
0
10
27.37836875
20
32.029371875
30
0
0
VERTEX
8
0
10
27.414068750000002
20
31.975943750000003
30
0
0
VERTEX
8
0
10
27.454834375
20
31.926271875
30
0
0
VERTEX
8
0
10
27.500271875000003
20
31.880834375000003
30
0
0
VERTEX
8
0
10
27.54994375
20
31.84006875
30
0
0
VERTEX
8
0
10
27.603371875
20
31.804368750000002
30
0
0
VERTEX
8
0
10
27.660040625
20
31.774078125000003
30
0
0
VERTEX
8
0
10
27.719409375
20
31.7494875
30
0
0
VERTEX
8
0
10
27.780900000000003
20
31.730834375
30
0
0
VERTEX
8
0
10
27.843921875000003
20
31.718296875
30
0
0
VERTEX
8
0
10
27.907871875
20
31.712
30
0
0
VERTEX
8
0
10
27.972128125
20
31.712
30
0
0
SEQEND
0
POLYLINE
66
1
8
1_copper
10
0.0
20
0.0
30
0.0
70
1
0
VERTEX
8
0
10
15.336078125
20
31.718296875
30
0
42
0.3578058919557322
0
VERTEX
8
0
10
15.894
20
32.333871875
30
0
0
VERTEX
8
0
10
15.894
20
33.706128125
30
0
42
0.1561390686739677
0
VERTEX
8
0
10
15.753259375
20
34.079496875000004
30
0
0
VERTEX
8
0
10
16.56388125
20
34.89011875
30
0
42
0.19891236737965798
0
VERTEX
8
0
10
16.5862
20
34.944
30
0
0
VERTEX
8
0
10
16.5862
20
38.1
30
0
42
0.9999999999999999
0
VERTEX
8
0
10
16.4338
20
38.1
30
0
0
VERTEX
8
0
10
16.4338
20
34.9755625
30
0
0
VERTEX
8
0
10
15.645496875000001
20
34.187259375000004
30
0
42
0.6097908023190604
0
VERTEX
8
0
10
14.586
20
33.706128125
30
0
0
VERTEX
8
0
10
14.586
20
32.333871875
30
0
0
VERTEX
8
0
10
14.592296875
20
32.269921875
30
0
0
VERTEX
8
0
10
14.604834375000001
20
32.206900000000005
30
0
0
VERTEX
8
0
10
14.623487500000001
20
32.145409375
30
0
0
VERTEX
8
0
10
14.648078125000001
20
32.086040625
30
0
0
VERTEX
8
0
10
14.67836875
20
32.029371875
30
0
0
VERTEX
8
0
10
14.714068750000001
20
31.975943750000003
30
0
0
VERTEX
8
0
10
14.754834375000002
20
31.926271875
30
0
0
VERTEX
8
0
10
14.800271875
20
31.880834375000003
30
0
0
VERTEX
8
0
10
14.849943750000001
20
31.84006875
30
0
0
VERTEX
8
0
10
14.903371875000001
20
31.804368750000002
30
0
0
VERTEX
8
0
10
14.960040625000001
20
31.774078125000003
30
0
0
VERTEX
8
0
10
15.019409375
20
31.7494875
30
0
0
VERTEX
8
0
10
15.080900000000002
20
31.730834375
30
0
0
VERTEX
8
0
10
15.143921875
20
31.718296875
30
0
0
VERTEX
8
0
10
15.207871875
20
31.712
30
0
0
VERTEX
8
0
10
15.272128125
20
31.712
30
0
0
SEQEND
0
POLYLINE
66
1
8
16_copper
10
0.0
20
0.0
30
0.0
70
1
0
VERTEX
8
0
10
15.336078125
20
31.718296875
30
0
42
0.3578058919557322
0
VERTEX
8
0
10
15.894
20
32.333871875
30
0
0
VERTEX
8
0
10
15.894
20
33.706128125
30
0
42
0.9520803604479573
0
VERTEX
8
0
10
14.586
20
33.706128125
30
0
0
VERTEX
8
0
10
14.586
20
32.333871875
30
0
0
VERTEX
8
0
10
14.592296875
20
32.269921875
30
0
0
VERTEX
8
0
10
14.604834375000001
20
32.206900000000005
30
0
0
VERTEX
8
0
10
14.623487500000001
20
32.145409375
30
0
0
VERTEX
8
0
10
14.648078125000001
20
32.086040625
30
0
0
VERTEX
8
0
10
14.67836875
20
32.029371875
30
0
0
VERTEX
8
0
10
14.714068750000001
20
31.975943750000003
30
0
0
VERTEX
8
0
10
14.754834375000002
20
31.926271875
30
0
0
VERTEX
8
0
10
14.800271875
20
31.880834375000003
30
0
0
VERTEX
8
0
10
14.849943750000001
20
31.84006875
30
0
0
VERTEX
8
0
10
14.903371875000001
20
31.804368750000002
30
0
0
VERTEX
8
0
10
14.960040625000001
20
31.774078125000003
30
0
0
VERTEX
8
0
10
15.019409375
20
31.7494875
30
0
0
VERTEX
8
0
10
15.080900000000002
20
31.730834375
30
0
0
VERTEX
8
0
10
15.143921875
20
31.718296875
30
0
0
VERTEX
8
0
10
15.207871875
20
31.712
30
0
0
VERTEX
8
0
10
15.272128125
20
31.712
30
0
0
SEQEND
0
POLYLINE
66
1
8
1_copper
10
0.0
20
0.0
30
0.0
70
1
0
VERTEX
8
0
10
16.52689375
20
45.645696875
30
0
42
0.14139007296259895
0
VERTEX
8
0
10
16.56388125
20
45.66611875
30
0
0
VERTEX
8
0
10
17.709965625000002
20
46.812203125
30
0
0
VERTEX
8
0
10
26.740034375
20
46.812203125
30
0
0
VERTEX
8
0
10
27.88611875
20
45.66611875
30
0
42
0.9999999999999999
0
VERTEX
8
0
10
27.99388125
20
45.77388125
30
0
0
VERTEX
8
0
10
26.825478125
20
46.942284375
30
0
42
0.19891236737965798
0
VERTEX
8
0
10
26.771596875
20
46.964603125000004
30
0
0
VERTEX
8
0
10
17.678403125
20
46.964603125000004
30
0
42
0.19891236737965798
0
VERTEX
8
0
10
17.624521875
20
46.942284375
30
0
0
VERTEX
8
0
10
16.45611875
20
45.77388125
30
0
0
VERTEX
8
0
10
16.443084375
20
45.75645
30
0
0
VERTEX
8
0
10
16.435509375000002
20
45.73604375
30
0
0
VERTEX
8
0
10
16.4340125
20
45.714328125
30
0
0
VERTEX
8
0
10
16.438715625
20
45.693075
30
0
0
VERTEX
8
0
10
16.449237500000002
20
45.67401875
30
0
0
VERTEX
8
0
10
16.464715625
20
45.658715625
30
0
0
VERTEX
8
0
10
16.483890625
20
45.6484125
30
0
0
VERTEX
8
0
10
16.505196875
20
45.643953125
30
0
0
SEQEND
0
POLYLINE
66
1
8
1_copper
10
0.0
20
0.0
30
0.0
70
1
0
VERTEX
8
0
10
27.956893750000003
20
36.755696875000005
30
0
42
0.14139007296259895
0
VERTEX
8
0
10
27.99388125
20
36.77611875
30
0
0
VERTEX
8
0
10
29.162284375000002
20
37.944521875
30
0
42
0.19891236737965798
0
VERTEX
8
0
10
29.184603125000002
20
37.998403125
30
0
0
VERTEX
8
0
10
29.184603125000002
20
42.011596875
30
0
42
0.19891236737965798
0
VERTEX
8
0
10
29.162284375000002
20
42.065478125
30
0
0
VERTEX
8
0
10
27.99388125
20
43.23388125
30
0
42
0.9999999999999999
0
VERTEX
8
0
10
27.88611875
20
43.12611875
30
0
0
VERTEX
8
0
10
29.032203125000002
20
41.980034375
30
0
0
VERTEX
8
0
10
29.032203125000002
20
38.029965625
30
0
0
VERTEX
8
0
10
27.88611875
20
36.88388125
30
0
0
VERTEX
8
0
10
27.873084375
20
36.86645
30
0
0
VERTEX
8
0
10
27.865509375000002
20
36.84604375
30
0
0
VERTEX
8
0
10
27.8640125
20
36.824328125
30
0
0
VERTEX
8
0
10
27.868715625
20
36.803075
30
0
0
VERTEX
8
0
10
27.879237500000002
20
36.78401875
30
0
0
VERTEX
8
0
10
27.894715625
20
36.768715625
30
0
0
VERTEX
8
0
10
27.913890625
20
36.7584125
30
0
0
VERTEX
8
0
10
27.935196875000003
20
36.753953125
30
0
0
SEQEND
0
POLYLINE
66
1
8
1_copper
10
0.0
20
0.0
30
0.0
70
1
0
VERTEX
8
0
10
30.576078125000002
20
31.718296875
30
0
42
0.3578058919557322
0
VERTEX
8
0
10
31.134
20
32.333871875
30
0
0
VERTEX
8
0
10
31.134
20
33.706128125
30
0
42
0.9520803604479573
0
VERTEX
8
0
10
29.826
20
33.706128125
30
0
0
VERTEX
8
0
10
29.826
20
32.333871875
30
0
0
VERTEX
8
0
10
29.832296875
20
32.269921875
30
0
0
VERTEX
8
0
10
29.844834375
20
32.206900000000005
30
0
0
VERTEX
8
0
10
29.8634875
20
32.145409375
30
0
0
VERTEX
8
0
10
29.888078125
20
32.086040625
30
0
0
VERTEX
8
0
10
29.918368750000003
20
32.029371875
30
0
0
VERTEX
8
0
10
29.95406875
20
31.975943750000003
30
0
0
VERTEX
8
0
10
29.994834375
20
31.926271875
30
0
0
VERTEX
8
0
10
30.040271875000002
20
31.880834375000003
30
0
0
VERTEX
8
0
10
30.08994375
20
31.84006875
30
0
0
VERTEX
8
0
10
30.143371875
20
31.804368750000002
30
0
0
VERTEX
8
0
10
30.200040625
20
31.774078125000003
30
0
0
VERTEX
8
0
10
30.259409375
20
31.7494875
30
0
0
VERTEX
8
0
10
30.3209
20
31.730834375
30
0
0
VERTEX
8
0
10
30.383921875000002
20
31.718296875
30
0
0
VERTEX
8
0
10
30.447871875
20
31.712
30
0
0
VERTEX
8
0
10
30.512128125
20
31.712
30
0
0
SEQEND
0
POLYLINE
66
1
8
1_copper
10
0.0
20
0.0
30
0.0
70
1
0
VERTEX
8
0
10
9.382409375
20
5.106615625
30
0
42
0.16997656369761124
0
VERTEX
8
0
10
9.4278625
20
5.1277187500000005
30
0
0
VERTEX
8
0
10
10.21388125
20
5.9137375
30
0
42
0.19891236737965798
0
VERTEX
8
0
10
10.2362
20
5.967618750000001
30
0
0
VERTEX
8
0
10
10.2362
20
7.970815625
30
0
0
VERTEX
8
0
10
18.045184375
20
15.779800000000002
30
0
0
VERTEX
8
0
10
34.29
20
15.779800000000002
30
0
42
0.19891236737965798
0
VERTEX
8
0
10
34.34388125
20
15.80211875
30
0
0
VERTEX
8
0
10
35.154503125000005
20
16.612740625
30
0
42
0.6097908023190604
0
VERTEX
8
0
10
36.214
20
17.093871875
30
0
0
VERTEX
8
0
10
36.214
20
18.466128125
30
0
42
0.9520803604479573
0
VERTEX
8
0
10
34.906
20
18.466128125
30
0
0
VERTEX
8
0
10
34.906
20
17.093871875
30
0
42
0.1561390686739677
0
VERTEX
8
0
10
35.046740625
20
16.720503125
30
0
0
VERTEX
8
0
10
34.2584375
20
15.9322
30
0
0
VERTEX
8
0
10
18.013621875000002
20
15.9322
30
0
42
0.19891236737965798
0
VERTEX
8
0
10
17.959740625000002
20
15.909881250000002
30
0
0
VERTEX
8
0
10
10.10611875
20
8.056259375
30
0
42
0.19891236737965798
0
VERTEX
8
0
10
10.0838
20
8.002378125
30
0
0
VERTEX
8
0
10
10.0838
20
5.99918125
30
0
0
VERTEX
8
0
10
9.34241875
20
5.2578000000000005
30
0
0
VERTEX
8
0
10
7.5499625
20
5.2578000000000005
30
0
0
VERTEX
8
0
10
3.8638812500000004
20
8.94388125
30
0
42
0.9999999999999999
0
VERTEX
8
0
10
3.75611875
20
8.83611875
30
0
0
VERTEX
8
0
10
7.464518750000001
20
5.1277187500000005
30
0
42
0.19891236737965798
0
VERTEX
8
0
10
7.518400000000001
20
5.1054
30
0
0
VERTEX
8
0
10
9.37398125
20
5.1054
30
0
0
SEQEND
0
POLYLINE
66
1
8
16_copper
10
0.0
20
0.0
30
0.0
70
1
0
VERTEX
8
0
10
31.758428125000002
20
43.105015625
30
0
42
0.16997656369761124
0
VERTEX
8
0
10
31.80388125
20
43.12611875
30
0
0
VERTEX
8
0
10
36.88388125
20
48.20611875
30
0
42
0.9999999999999999
0
VERTEX
8
0
10
36.77611875
20
48.31388125
30
0
0
VERTEX
8
0
10
31.7184375
20
43.2562
30
0
0
VERTEX
8
0
10
27.94
20
43.2562
30
0
42
0.8710665068920352
0
VERTEX
8
0
10
27.91929375
20
43.106668750000004
30
0
0
VERTEX
8
0
10
27.94
20
43.1038
30
0
0
VERTEX
8
0
10
31.75
20
43.1038
30
0
0
SEQEND
0
POLYLINE
66
1
8
16_copper
10
0.0
20
0.0
30
0.0
70
1
0
VERTEX
8
0
10
35.656078125
20
16.478296875
30
0
42
0.3578058919557322
0
VERTEX
8
0
10
36.214
20
17.093871875
30
0
0
VERTEX
8
0
10
36.214
20
18.466128125
30
0
42
0.1561390686739677
0
VERTEX
8
0
10
36.073259375
20
18.839496875000002
30
0
0
VERTEX
8
0
10
36.4741625
20
19.2404
30
0
0
VERTEX
8
0
10
42.8818375
20
19.2404
30
0
0
VERTEX
8
0
10
44.39611875
20
17.72611875
30
0
42
0.9999999999999999
0
VERTEX
8
0
10
44.50388125
20
17.83388125
30
0
0
VERTEX
8
0
10
42.96728125
20
19.37048125
30
0
42
0.19891236737965798
0
VERTEX
8
0
10
42.9134
20
19.3928
30
0
0
VERTEX
8
0
10
36.4426
20
19.3928
30
0
42
0.19891236737965798
0
VERTEX
8
0
10
36.38871875
20
19.37048125
30
0
0
VERTEX
8
0
10
35.965496875
20
18.947259375
30
0
42
0.34735884338440326
0
VERTEX
8
0
10
35.154503125000005
20
18.947259375
30
0
0
VERTEX
8
0
10
30.5562
20
23.545562500000003
30
0
0
VERTEX
8
0
10
30.5562
20
31.716340625
30
0
42
0.36643193633390486
0
VERTEX
8
0
10
31.134
20
32.333871875
30
0
0
VERTEX
8
0
10
31.134
20
33.706128125
30
0
42
0.3303560206771434
0
VERTEX
8
0
10
30.639100000000003
20
34.309165625
30
0
0
VERTEX
8
0
10
30.576078125000002
20
34.321703125
30
0
42
0.11720113298712839
0
VERTEX
8
0
10
30.53388125
20
34.34388125
30
0
0
VERTEX
8
0
10
27.99388125
20
36.88388125
30
0
42
0.9999999999999999
0
VERTEX
8
0
10
27.88611875
20
36.77611875
30
0
0
VERTEX
8
0
10
30.347734375
20
34.314503125
30
0
42
0.3419858337859913
0
VERTEX
8
0
10
29.826
20
33.706128125
30
0
0
VERTEX
8
0
10
29.826
20
32.333871875
30
0
42
0.36643193633390486
0
VERTEX
8
0
10
30.4038
20
31.716340625
30
0
0
VERTEX
8
0
10
30.4038
20
23.514000000000003
30
0
42
0.19891236737965798
0
VERTEX
8
0
10
30.42611875
20
23.46011875
30
0
0
VERTEX
8
0
10
35.046740625
20
18.839496875000002
30
0
42
0.1561390686739677
0
VERTEX
8
0
10
34.906
20
18.466128125
30
0
0
VERTEX
8
0
10
34.906
20
17.093871875
30
0
0
VERTEX
8
0
10
34.912296875
20
17.029921875
30
0
0
VERTEX
8
0
10
34.924834375
20
16.966900000000003
30
0
0
VERTEX
8
0
10
34.9434875
20
16.905409375
30
0
0
VERTEX
8
0
10
34.968078125
20
16.846040625
30
0
0
VERTEX
8
0
10
34.998368750000004
20
16.789371875
30
0
0
VERTEX
8
0
10
35.03406875
20
16.73594375
30
0
0
VERTEX
8
0
10
35.074834375
20
16.686271875
30
0
0
VERTEX
8
0
10
35.120271875
20
16.640834375
30
0
0
VERTEX
8
0
10
35.16994375
20
16.600068750000002
30
0
0
VERTEX
8
0
10
35.223371875000005
20
16.56436875
30
0
0
VERTEX
8
0
10
35.280040625000005
20
16.534078125
30
0
0
VERTEX
8
0
10
35.339409375
20
16.509487500000002
30
0
0
VERTEX
8
0
10
35.4009
20
16.490834375000002
30
0
0
VERTEX
8
0
10
35.463921875000004
20
16.478296875
30
0
0
VERTEX
8
0
10
35.527871875
20
16.472
30
0
0
VERTEX
8
0
10
35.592128125
20
16.472
30
0
0
SEQEND
0
POLYLINE
66
1
8
1_copper
10
0.0
20
0.0
30
0.0
70
1
0
VERTEX
8
0
10
40.651315625
20
6.27464375
30
0
42
0.3712023256762845
0
VERTEX
8
0
10
40.7162
20
6.3500000000000005
30
0
0
VERTEX
8
0
10
40.7162
20
11.3984375
30
0
0
VERTEX
8
0
10
44.50388125
20
15.18611875
30
0
42
0.9999999999999999
0
VERTEX
8
0
10
44.39611875
20
15.29388125
30
0
0
VERTEX
8
0
10
40.586118750000004
20
11.483881250000001
30
0
42
0.19891236737965798
0
VERTEX
8
0
10
40.5638
20
11.43
30
0
0
VERTEX
8
0
10
40.5638
20
6.3500000000000005
30
0
0
VERTEX
8
0
10
40.566909375
20
6.32845625
30
0
0
VERTEX
8
0
10
40.575981250000005
20
6.308668750000001
30
0
0
VERTEX
8
0
10
40.590278125000005
20
6.29225625
30
0
0
VERTEX
8
0
10
40.608634375
20
6.28055625
30
0
0
VERTEX
8
0
10
40.629546875
20
6.27451875
30
0
0
SEQEND
0
POLYLINE
66
1
8
1_copper
10
0.0
20
0.0
30
0.0
70
1
0
VERTEX
8
0
10
29.226893750000002
20
6.275696875
30
0
42
0.14139007296259895
0
VERTEX
8
0
10
29.26388125
20
6.296118750000001
30
0
0
VERTEX
8
0
10
35.5915625
20
12.623800000000001
30
0
0
VERTEX
8
0
10
39.370000000000005
20
12.623800000000001
30
0
42
0.4142135623730951
0
VERTEX
8
0
10
39.446200000000005
20
12.700000000000001
30
0
0
VERTEX
8
0
10
39.446200000000005
20
14.830678125
30
0
0
VERTEX
8
0
10
43.64568125
20
19.030159375
30
0
42
0.19891236737965798
0
VERTEX
8
0
10
43.668
20
19.084040625
30
0
0
VERTEX
8
0
10
43.668
20
43.150568750000005
30
0
42
0.19891236737965798
0
VERTEX
8
0
10
43.64568125
20
43.20445
30
0
0
VERTEX
8
0
10
34.523050000000005
20
52.32708125
30
0
42
0.19891236737965798
0
VERTEX
8
0
10
34.46916875
20
52.3494
30
0
0
VERTEX
8
0
10
9.093200000000001
20
52.3494
30
0
42
0.19891236737965798
0
VERTEX
8
0
10
9.03931875
20
52.32708125
30
0
0
VERTEX
8
0
10
7.56611875
20
50.85388125
30
0
42
0.9999999999999999
0
VERTEX
8
0
10
7.67388125
20
50.74611875
30
0
0
VERTEX
8
0
10
9.124762500000001
20
52.197
30
0
0
VERTEX
8
0
10
34.43760625
20
52.197
30
0
0
VERTEX
8
0
10
43.5156
20
43.119006250000005
30
0
0
VERTEX
8
0
10
43.5156
20
19.115603125
30
0
0
VERTEX
8
0
10
39.31611875
20
14.916121875
30
0
42
0.19891236737965798
0
VERTEX
8
0
10
39.293800000000005
20
14.862240625
30
0
0
VERTEX
8
0
10
39.293800000000005
20
12.776200000000001
30
0
0
VERTEX
8
0
10
35.56
20
12.776200000000001
30
0
42
0.19891236737965798
0
VERTEX
8
0
10
35.50611875
20
12.753881250000001
30
0
0
VERTEX
8
0
10
29.15611875
20
6.40388125
30
0
0
VERTEX
8
0
10
29.143084375
20
6.38645
30
0
0
VERTEX
8
0
10
29.135509375
20
6.36604375
30
0
0
VERTEX
8
0
10
29.1340125
20
6.3443281250000005
30
0
0
VERTEX
8
0
10
29.138715625
20
6.323075
30
0
0
VERTEX
8
0
10
29.1492375
20
6.30401875
30
0
0
VERTEX
8
0
10
29.164715625000003
20
6.288715625
30
0
0
VERTEX
8
0
10
29.183890625
20
6.2784125
30
0
0
VERTEX
8
0
10
29.205196875000002
20
6.273953125
30
0
0
SEQEND
0
POLYLINE
66
1
8
1_copper
10
0.0
20
0.0
30
0.0
70
1
0
VERTEX
8
0
10
34.316925000000005
20
48.188715625
30
0
42
0.5446960517370821
0
VERTEX
8
0
10
34.34388125
20
48.31388125
30
0
0
VERTEX
8
0
10
31.80388125
20
50.85388125
30
0
42
0.19891236737965798
0
VERTEX
8
0
10
31.75
20
50.876200000000004
30
0
0
VERTEX
8
0
10
29.21
20
50.876200000000004
30
0
42
0.8710665068920352
0
VERTEX
8
0
10
29.18929375
20
50.72666875
30
0
0
VERTEX
8
0
10
29.21
20
50.723800000000004
30
0
0
VERTEX
8
0
10
31.7184375
20
50.723800000000004
30
0
0
VERTEX
8
0
10
34.23611875
20
48.20611875
30
0
0
VERTEX
8
0
10
34.253550000000004
20
48.193084375000005
30
0
0
VERTEX
8
0
10
34.273956250000005
20
48.185509375
30
0
0
VERTEX
8
0
10
34.295671875000004
20
48.1840125
30
0
0
SEQEND
0
POLYLINE
66
1
8
1_copper
10
0.0
20
0.0
30
0.0
70
1
0
VERTEX
8
0
10
38.196078125
20
16.478296875
30
0
42
0.3578058919557322
0
VERTEX
8
0
10
38.754000000000005
20
17.093871875
30
0
0
VERTEX
8
0
10
38.754000000000005
20
18.466128125
30
0
42
0.1561390686739677
0
VERTEX
8
0
10
38.613259375
20
18.839496875000002
30
0
0
VERTEX
8
0
10
43.34088125
20
23.567118750000002
30
0
42
0.19891236737965798
0
VERTEX
8
0
10
43.3632
20
23.621000000000002
30
0
0
VERTEX
8
0
10
43.3632
20
41.8162875
30
0
42
0.19891236737965798
0
VERTEX
8
0
10
43.34088125
20
41.870168750000005
30
0
0
VERTEX
8
0
10
38.80216875
20
46.40888125
30
0
42
0.19891236737965798
0
VERTEX
8
0
10
38.7482875
20
46.431200000000004
30
0
0
VERTEX
8
0
10
30.74698125
20
46.431200000000004
30
0
0
VERTEX
8
0
10
27.320590625
20
49.857590625
30
0
0
VERTEX
8
0
10
26.73545
20
50.839021875
30
0
42
0.9999999999999999
0
VERTEX
8
0
10
26.60455
20
50.760978125
30
0
0
VERTEX
8
0
10
27.19455
20
49.771396875
30
0
42
0.062022062311074926
0
VERTEX
8
0
10
27.20611875
20
49.7565375
30
0
0
VERTEX
8
0
10
30.6615375
20
46.30111875
30
0
42
0.19891236737965798
0
VERTEX
8
0
10
30.71541875
20
46.278800000000004
30
0
0
VERTEX
8
0
10
38.716725000000004
20
46.278800000000004
30
0
0
VERTEX
8
0
10
43.2108
20
41.784725
30
0
0
VERTEX
8
0
10
43.2108
20
23.652562500000002
30
0
0
VERTEX
8
0
10
38.505496875
20
18.947259375
30
0
42
0.6097908023190604
0
VERTEX
8
0
10
37.446000000000005
20
18.466128125
30
0
0
VERTEX
8
0
10
37.446000000000005
20
17.093871875
30
0
0
VERTEX
8
0
10
37.452296875
20
17.029921875
30
0
0
VERTEX
8
0
10
37.464834375
20
16.966900000000003
30
0
0
VERTEX
8
0
10
37.4834875
20
16.905409375
30
0
0
VERTEX
8
0
10
37.508078125000004
20
16.846040625
30
0
0
VERTEX
8
0
10
37.538368750000004
20
16.789371875
30
0
0
VERTEX
8
0
10
37.57406875
20
16.73594375
30
0
0
VERTEX
8
0
10
37.614834375
20
16.686271875
30
0
0
VERTEX
8
0
10
37.660271875
20
16.640834375
30
0
0
VERTEX
8
0
10
37.70994375
20
16.600068750000002
30
0
0
VERTEX
8
0
10
37.763371875000004
20
16.56436875
30
0
0
VERTEX
8
0
10
37.820040625000004
20
16.534078125
30
0
0
VERTEX
8
0
10
37.879409375
20
16.509487500000002
30
0
0
VERTEX
8
0
10
37.9409
20
16.490834375000002
30
0
0
VERTEX
8
0
10
38.003921875
20
16.478296875
30
0
0
VERTEX
8
0
10
38.067871875
20
16.472
30
0
0
VERTEX
8
0
10
38.132128125
20
16.472
30
0
0
SEQEND
0
POLYLINE
66
1
8
16_copper
10
0.0
20
0.0
30
0.0
70
1
0
VERTEX
8
0
10
38.196078125
20
16.478296875
30
0
42
0.3578058919557322
0
VERTEX
8
0
10
38.754000000000005
20
17.093871875
30
0
0
VERTEX
8
0
10
38.754000000000005
20
18.466128125
30
0
42
0.9520803604479573
0
VERTEX
8
0
10
37.446000000000005
20
18.466128125
30
0
0
VERTEX
8
0
10
37.446000000000005
20
17.093871875
30
0
0
VERTEX
8
0
10
37.452296875
20
17.029921875
30
0
0
VERTEX
8
0
10
37.464834375
20
16.966900000000003
30
0
0
VERTEX
8
0
10
37.4834875
20
16.905409375
30
0
0
VERTEX
8
0
10
37.508078125000004
20
16.846040625
30
0
0
VERTEX
8
0
10
37.538368750000004
20
16.789371875
30
0
0
VERTEX
8
0
10
37.57406875
20
16.73594375
30
0
0
VERTEX
8
0
10
37.614834375
20
16.686271875
30
0
0
VERTEX
8
0
10
37.660271875
20
16.640834375
30
0
0
VERTEX
8
0
10
37.70994375
20
16.600068750000002
30
0
0
VERTEX
8
0
10
37.763371875000004
20
16.56436875
30
0
0
VERTEX
8
0
10
37.820040625000004
20
16.534078125
30
0
0
VERTEX
8
0
10
37.879409375
20
16.509487500000002
30
0
0
VERTEX
8
0
10
37.9409
20
16.490834375000002
30
0
0
VERTEX
8
0
10
38.003921875
20
16.478296875
30
0
0
VERTEX
8
0
10
38.067871875
20
16.472
30
0
0
VERTEX
8
0
10
38.132128125
20
16.472
30
0
0
SEQEND
0
POLYLINE
66
1
8
1_copper
10
0.0
20
0.0
30
0.0
70
1
0
VERTEX
8
0
10
8.916925
20
6.278715625
30
0
42
0.5446960517370821
0
VERTEX
8
0
10
8.94388125
20
6.40388125
30
0
0
VERTEX
8
0
10
5.0322812500000005
20
10.315481250000001
30
0
42
0.19891236737965798
0
VERTEX
8
0
10
4.978400000000001
20
10.3378
30
0
0
VERTEX
8
0
10
3.3575937500000004
20
10.3378
30
0
0
VERTEX
8
0
10
1.7336
20
11.96179375
30
0
0
VERTEX
8
0
10
1.7336
20
47.3458375
30
0
0
VERTEX
8
0
10
5.13388125
20
50.74611875
30
0
42
0.9999999999999999
0
VERTEX
8
0
10
5.02611875
20
50.85388125
30
0
0
VERTEX
8
0
10
1.60351875
20
47.431281250000005
30
0
42
0.19891236737965798
0
VERTEX
8
0
10
1.5812000000000002
20
47.3774
30
0
0
VERTEX
8
0
10
1.5812000000000002
20
11.93023125
30
0
42
0.19891236737965798
0
VERTEX
8
0
10
1.60351875
20
11.87635
30
0
0
VERTEX
8
0
10
3.2721500000000003
20
10.20771875
30
0
42
0.19891236737965798
0
VERTEX
8
0
10
3.32603125
20
10.185400000000001
30
0
0
VERTEX
8
0
10
4.9468375
20
10.185400000000001
30
0
0
VERTEX
8
0
10
8.83611875
20
6.296118750000001
30
0
0
VERTEX
8
0
10
8.85355
20
6.2830843750000005
30
0
0
VERTEX
8
0
10
8.87395625
20
6.275509375
30
0
0
VERTEX
8
0
10
8.895671875
20
6.2740125
30
0
0
SEQEND
0
POLYLINE
66
1
8
1_copper
10
0.0
20
0.0
30
0.0
70
1
0
VERTEX
8
0
10
30.576078125000002
20
16.478296875
30
0
42
0.3578058919557322
0
VERTEX
8
0
10
31.134
20
17.093871875
30
0
0
VERTEX
8
0
10
31.134
20
18.466128125
30
0
42
0.36643193633390486
0
VERTEX
8
0
10
30.5562
20
19.083659375
30
0
0
VERTEX
8
0
10
30.5562
20
20.31025
30
0
0
VERTEX
8
0
10
40.59228125
20
30.346331250000002
30
0
42
0.19891236737965798
0
VERTEX
8
0
10
40.6146
20
30.400212500000002
30
0
0
VERTEX
8
0
10
40.6146
20
40.741600000000005
30
0
42
0.19891236737965798
0
VERTEX
8
0
10
40.59228125
20
40.79548125
30
0
0
VERTEX
8
0
10
39.42388125
20
41.96388125
30
0
42
0.19891236737965798
0
VERTEX
8
0
10
39.370000000000005
20
41.986200000000004
30
0
0
VERTEX
8
0
10
38.1315625
20
41.986200000000004
30
0
0
VERTEX
8
0
10
35.61388125
20
44.50388125
30
0
42
0.19891236737965798
0
VERTEX
8
0
10
35.56
20
44.5262
30
0
0
VERTEX
8
0
10
31.39918125
20
44.5262
30
0
0
VERTEX
8
0
10
23.903100000000002
20
52.022281250000006
30
0
42
0.19891236737965798
0
VERTEX
8
0
10
23.849218750000002
20
52.0446
30
0
0
VERTEX
8
0
10
20.218400000000003
20
52.0446
30
0
42
0.19891236737965798
0
VERTEX
8
0
10
20.164518750000003
20
52.022281250000006
30
0
0
VERTEX
8
0
10
19.0184375
20
50.876200000000004
30
0
0
VERTEX
8
0
10
15.24
20
50.876200000000004
30
0
42
0.8710665068920352
0
VERTEX
8
0
10
15.21929375
20
50.72666875
30
0
0
VERTEX
8
0
10
15.24
20
50.723800000000004
30
0
0
VERTEX
8
0
10
19.05
20
50.723800000000004
30
0
42
0.19891236737965798
0
VERTEX
8
0
10
19.10388125
20
50.74611875
30
0
0
VERTEX
8
0
10
20.249962500000002
20
51.8922
30
0
0
VERTEX
8
0
10
23.817656250000002
20
51.8922
30
0
0
VERTEX
8
0
10
31.313737500000002
20
44.39611875
30
0
42
0.19891236737965798
0
VERTEX
8
0
10
31.367618750000002
20
44.3738
30
0
0
VERTEX
8
0
10
35.5284375
20
44.3738
30
0
0
VERTEX
8
0
10
38.046118750000005
20
41.85611875
30
0
42
0.19891236737965798
0
VERTEX
8
0
10
38.1
20
41.833800000000004
30
0
0
VERTEX
8
0
10
39.338437500000005
20
41.833800000000004
30
0
0
VERTEX
8
0
10
40.4622
20
40.7100375
30
0
0
VERTEX
8
0
10
40.4622
20
30.431775000000002
30
0
0
VERTEX
8
0
10
30.42611875
20
20.39569375
30
0
42
0.19891236737965798
0
VERTEX
8
0
10
30.4038
20
20.3418125
30
0
0
VERTEX
8
0
10
30.4038
20
19.083659375
30
0
42
0.36643193633390486
0
VERTEX
8
0
10
29.826
20
18.466128125
30
0
0
VERTEX
8
0
10
29.826
20
17.093871875
30
0
0
VERTEX
8
0
10
29.832296875
20
17.029921875
30
0
0
VERTEX
8
0
10
29.844834375
20
16.966900000000003
30
0
0
VERTEX
8
0
10
29.8634875
20
16.905409375
30
0
0
VERTEX
8
0
10
29.888078125
20
16.846040625
30
0
0
VERTEX
8
0
10
29.918368750000003
20
16.789371875
30
0
0
VERTEX
8
0
10
29.95406875
20
16.73594375
30
0
0
VERTEX
8
0
10
29.994834375
20
16.686271875
30
0
0
VERTEX
8
0
10
30.040271875000002
20
16.640834375
30
0
0
VERTEX
8
0
10
30.08994375
20
16.600068750000002
30
0
0
VERTEX
8
0
10
30.143371875
20
16.56436875
30
0
0
VERTEX
8
0
10
30.200040625
20
16.534078125
30
0
0
VERTEX
8
0
10
30.259409375
20
16.509487500000002
30
0
0
VERTEX
8
0
10
30.3209
20
16.490834375000002
30
0
0
VERTEX
8
0
10
30.383921875000002
20
16.478296875
30
0
0
VERTEX
8
0
10
30.447871875
20
16.472
30
0
0
VERTEX
8
0
10
30.512128125
20
16.472
30
0
0
SEQEND
0
POLYLINE
66
1
8
16_copper
10
0.0
20
0.0
30
0.0
70
1
0
VERTEX
8
0
10
3.82689375
20
6.275696875
30
0
42
0.14139007296259895
0
VERTEX
8
0
10
3.8638812500000004
20
6.296118750000001
30
0
0
VERTEX
8
0
10
7.0165625
20
9.4488
30
0
0
VERTEX
8
0
10
22.225
20
9.4488
30
0
42
0.19891236737965798
0
VERTEX
8
0
10
22.27888125
20
9.47111875
30
0
0
VERTEX
8
0
10
29.833190625
20
17.025428125
30
0
42
0.9031689333988902
0
VERTEX
8
0
10
31.134
20
17.093871875
30
0
0
VERTEX
8
0
10
31.134
20
18.466128125
30
0
42
0.9520803604479573
0
VERTEX
8
0
10
29.826
20
18.466128125
30
0
0
VERTEX
8
0
10
29.826
20
17.2337625
30
0
0
VERTEX
8
0
10
22.1934375
20
9.6012
30
0
0
VERTEX
8
0
10
6.985
20
9.6012
30
0
42
0.19891236737965798
0
VERTEX
8
0
10
6.93111875
20
9.57888125
30
0
0
VERTEX
8
0
10
3.75611875
20
6.40388125
30
0
0
VERTEX
8
0
10
3.743084375
20
6.38645
30
0
0
VERTEX
8
0
10
3.7355093750000004
20
6.36604375
30
0
0
VERTEX
8
0
10
3.7340125000000004
20
6.3443281250000005
30
0
0
VERTEX
8
0
10
3.738715625
20
6.323075
30
0
0
VERTEX
8
0
10
3.7492375
20
6.30401875
30
0
0
VERTEX
8
0
10
3.764715625
20
6.288715625
30
0
0
VERTEX
8
0
10
3.783890625
20
6.2784125
30
0
0
VERTEX
8
0
10
3.805196875
20
6.273953125
30
0
0
SEQEND
0
POLYLINE
66
1
8
16_copper
10
0.0
20
0.0
30
0.0
70
1
0
VERTEX
8
0
10
35.586925
20
36.758715625
30
0
42
0.5446960517370821
0
VERTEX
8
0
10
35.61388125
20
36.88388125
30
0
0
VERTEX
8
0
10
33.07388125
20
39.42388125
30
0
42
0.19891236737965798
0
VERTEX
8
0
10
33.02
20
39.446200000000005
30
0
0
VERTEX
8
0
10
27.94
20
39.446200000000005
30
0
42
0.8710665068920352
0
VERTEX
8
0
10
27.91929375
20
39.29666875
30
0
0
VERTEX
8
0
10
27.94
20
39.293800000000005
30
0
0
VERTEX
8
0
10
32.9884375
20
39.293800000000005
30
0
0
VERTEX
8
0
10
35.50611875
20
36.77611875
30
0
0
VERTEX
8
0
10
35.52355
20
36.763084375
30
0
0
VERTEX
8
0
10
35.54395625
20
36.755509375
30
0
0
VERTEX
8
0
10
35.565671875
20
36.7540125
30
0
0
SEQEND
0
CIRCLE
8
drills_PTH
10
39.370000000000005
20
41.910000000000004
30
0
40
0.508
0
CIRCLE
8
drills_PTH
10
19.05
20
6.3500000000000005
30
0
40
0.508
0
CIRCLE
8
drills_PTH
10
21.59
20
6.3500000000000005
30
0
40
0.508
0
CIRCLE
8
drills_PTH
10
39.370000000000005
20
39.370000000000005
30
0
40
0.508
0
CIRCLE
8
drills_PTH
10
16.51
20
6.3500000000000005
30
0
40
0.508
0
CIRCLE
8
drills_PTH
10
12.700000000000001
20
50.800000000000004
30
0
40
0.508
0
CIRCLE
8
drills_PTH
10
15.24
20
50.800000000000004
30
0
40
0.508
0
CIRCLE
8
drills_PTH
10
5.08
20
50.800000000000004
30
0
40
0.508
0
CIRCLE
8
drills_PTH
10
7.62
20
50.800000000000004
30
0
40
0.508
0
CIRCLE
8
drills_PTH
10
21.59
20
50.800000000000004
30
0
40
0.508
0
CIRCLE
8
drills_PTH
10
29.21
20
6.3500000000000005
30
0
40
0.508
0
CIRCLE
8
drills_PTH
10
26.67
20
6.3500000000000005
30
0
40
0.508
0
CIRCLE
8
drills_PTH
10
34.29
20
48.260000000000005
30
0
40
0.508
0
CIRCLE
8
drills_PTH
10
36.83
20
48.260000000000005
30
0
40
0.508
0
CIRCLE
8
drills_PTH
10
8.89
20
6.3500000000000005
30
0
40
0.508
0
CIRCLE
8
drills_PTH
10
11.43
20
6.3500000000000005
30
0
40
0.508
0
CIRCLE
8
drills_PTH
10
3.81
20
11.43
30
0
40
0.508
0
CIRCLE
8
drills_PTH
10
3.81
20
8.89
30
0
40
0.508
0
CIRCLE
8
drills_PTH
10
3.81
20
6.3500000000000005
30
0
40
0.508
0
CIRCLE
8
drills_PTH
10
19.05
20
50.800000000000004
30
0
40
0.508
0
CIRCLE
8
drills_PTH
10
26.67
20
50.800000000000004
30
0
40
0.508
0
CIRCLE
8
drills_PTH
10
29.21
20
50.800000000000004
30
0
40
0.508
0
CIRCLE
8
drills_PTH
10
10.16
20
45.72
30
0
40
0.45
0
CIRCLE
8
drills_PTH
10
3.81
20
45.72
30
0
40
0.45
0
CIRCLE
8
drills_PTH
10
3.81
20
38.1
30
0
40
0.45
0
CIRCLE
8
drills_PTH
10
21.59
20
38.1
30
0
40
0.45
0
CIRCLE
8
drills_PTH
10
21.59
20
45.72
30
0
40
0.45
0
CIRCLE
8
drills_PTH
10
16.51
20
45.72
30
0
40
0.45
0
CIRCLE
8
drills_PTH
10
16.51
20
38.1
30
0
40
0.45
0
CIRCLE
8
drills_PTH
10
40.64
20
6.3500000000000005
30
0
40
0.45
0
CIRCLE
8
drills_PTH
10
33.02
20
6.3500000000000005
30
0
40
0.45
0
CIRCLE
8
drills_PTH
10
35.56
20
36.83
30
0
40
0.45
0
CIRCLE
8
drills_PTH
10
35.56
20
44.45
30
0
40
0.45
0
CIRCLE
8
drills_PTH
10
10.16
20
38.1
30
0
40
0.45
0
CIRCLE
8
drills_PTH
10
16.51
20
12.700000000000001
30
0
40
0.45
0
CIRCLE
8
drills_PTH
10
8.89
20
12.700000000000001
30
0
40
0.45
0
CIRCLE
8
drills_PTH
10
39.370000000000005
20
12.700000000000001
30
0
40
0.45
0
CIRCLE
8
drills_PTH
10
20.32
20
12.700000000000001
30
0
40
0.45
0
CIRCLE
8
drills_PTH
10
31.75
20
12.700000000000001
30
0
40
0.45
0
CIRCLE
8
drills_PTH
10
27.94
20
12.700000000000001
30
0
40
0.45
0
CIRCLE
8
drills_PTH
10
27.94
20
43.18
30
0
40
0.40640000000000004
0
CIRCLE
8
drills_PTH
10
27.94
20
45.72
30
0
40
0.40640000000000004
0
CIRCLE
8
drills_PTH
10
44.45
20
15.24
30
0
40
0.40640000000000004
0
CIRCLE
8
drills_PTH
10
27.94
20
36.83
30
0
40
0.40640000000000004
0
CIRCLE
8
drills_PTH
10
27.94
20
39.370000000000005
30
0
40
0.40640000000000004
0
CIRCLE
8
drills_PTH
10
44.45
20
17.78
30
0
40
0.40640000000000004
0
CIRCLE
8
drills_PTH
10
30.48
20
33.02
30
0
40
0.4
0
CIRCLE
8
drills_PTH
10
27.94
20
33.02
30
0
40
0.4
0
CIRCLE
8
drills_PTH
10
25.400000000000002
20
33.02
30
0
40
0.4
0
CIRCLE
8
drills_PTH
10
22.86
20
33.02
30
0
40
0.4
0
CIRCLE
8
drills_PTH
10
20.32
20
33.02
30
0
40
0.4
0
CIRCLE
8
drills_PTH
10
17.78
20
33.02
30
0
40
0.4
0
CIRCLE
8
drills_PTH
10
33.02
20
33.02
30
0
40
0.4
0
CIRCLE
8
drills_PTH
10
12.700000000000001
20
33.02
30
0
40
0.4
0
CIRCLE
8
drills_PTH
10
10.16
20
33.02
30
0
40
0.4
0
CIRCLE
8
drills_PTH
10
38.1
20
17.78
30
0
40
0.4
0
CIRCLE
8
drills_PTH
10
35.56
20
17.78
30
0
40
0.4
0
CIRCLE
8
drills_PTH
10
33.02
20
17.78
30
0
40
0.4
0
CIRCLE
8
drills_PTH
10
17.78
20
17.78
30
0
40
0.4
0
CIRCLE
8
drills_PTH
10
15.24
20
17.78
30
0
40
0.4
0
CIRCLE
8
drills_PTH
10
12.700000000000001
20
17.78
30
0
40
0.4
0
CIRCLE
8
drills_PTH
10
10.16
20
17.78
30
0
40
0.4
0
CIRCLE
8
drills_PTH
10
2.54
20
17.78
30
0
40
0.4
0
CIRCLE
8
drills_PTH
10
2.54
20
33.02
30
0
40
0.4
0
CIRCLE
8
drills_PTH
10
5.08
20
33.02
30
0
40
0.4
0
CIRCLE
8
drills_PTH
10
7.62
20
33.02
30
0
40
0.4
0
CIRCLE
8
drills_PTH
10
5.08
20
17.78
30
0
40
0.4
0
CIRCLE
8
drills_PTH
10
7.62
20
17.78
30
0
40
0.4
0
CIRCLE
8
drills_PTH
10
30.48
20
17.78
30
0
40
0.4
0
CIRCLE
8
drills_PTH
10
36.83
20
22.86
30
0
40
0.4
0
CIRCLE
8
drills_PTH
10
36.83
20
25.400000000000002
30
0
40
0.4
0
CIRCLE
8
drills_PTH
10
36.83
20
27.94
30
0
40
0.4
0
CIRCLE
8
drills_PTH
10
20.32
20
17.78
30
0
40
0.4
0
CIRCLE
8
drills_PTH
10
22.86
20
17.78
30
0
40
0.4
0
CIRCLE
8
drills_PTH
10
25.400000000000002
20
17.78
30
0
40
0.4
0
CIRCLE
8
drills_PTH
10
27.94
20
17.78
30
0
40
0.4
0
CIRCLE
8
drills_PTH
10
39.370000000000005
20
22.86
30
0
40
0.4
0
CIRCLE
8
drills_PTH
10
39.370000000000005
20
25.400000000000002
30
0
40
0.4
0
CIRCLE
8
drills_PTH
10
39.370000000000005
20
27.94
30
0
40
0.4
0
CIRCLE
8
drills_PTH
10
35.56
20
33.02
30
0
40
0.4
0
CIRCLE
8
drills_PTH
10
38.1
20
33.02
30
0
40
0.4
0
CIRCLE
8
drills_PTH
10
15.24
20
33.02
30
0
40
0.4
0
ENDSEC
0
EOF