<?xml version="1.0" encoding="utf-8"?>
<!-- Generator: Adobe Illustrator 23.0.6, SVG Export Plug-In . SVG Version: 6.00 Build 0)  -->
<svg version="1.1" id="Layer_1" xmlns="http://www.w3.org/2000/svg" xmlns:xlink="http://www.w3.org/1999/xlink" x="0px" y="0px"
	 viewBox="0 0 1101.2 742" style="enable-background:new 0 0 1101.2 742;" xml:space="preserve">
<style type="text/css">
	.st0{fill:none;stroke:#000000;stroke-miterlimit:10;}
	.st1{fill:#777777;stroke:#FF0000;stroke-width:0.5;stroke-linecap:round;}
	.st2{fill:#777777;stroke:#FF0000;stroke-width:0.5;stroke-linecap:round;stroke-miterlimit:3.9998;}
	.st3{fill:#777777;stroke:#E10000;stroke-width:0.5;stroke-linecap:round;}
	.st4{fill:none;stroke:#000000;}
	.st5{fill:none;stroke:#FF0000;stroke-width:0.5;stroke-linecap:round;}
	.st6{font-family:'ArialMT';}
	.st7{font-size:16.0236px;}
	.st8{fill:#FFFFFF;stroke:#FF0000;stroke-width:0.5;stroke-linecap:round;}
	.st9{fill:none;stroke:#FF0000;stroke-width:0.5;stroke-miterlimit:10;}
	.st10{fill:none;stroke:#FF0000;stroke-width:0.5;}
</style>
<path id="top_outsideCutPath_9_" vector-effect="non-scaling-stroke" class="st0" d="M711.4,21"/>
<path id="top_outsideCutPath_11_" vector-effect="non-scaling-stroke" class="st0" d="M881.5,21"/>
<g>
	<circle class="st1" cx="966.3" cy="300.2" r="18.4"/>
	<circle class="st1" cx="966.3" cy="229.5" r="18.4"/>
	<circle class="st1" cx="966.3" cy="88" r="18.4"/>
	<circle class="st1" cx="966.3" cy="158.7" r="18.4"/>
</g>
<image style="overflow:visible;enable-background:new    ;" width="150" height="151" xlink:href="Images/arduino.jpg"  transform="matrix(-5.205974e-17 -0.2834 0.2752 -5.055342e-17 887.485 321.4552)">
</image>
<image style="overflow:visible;enable-background:new    ;" width="1600" height="1600" xlink:href="Images/engine.jpg"  transform="matrix(-6.269217e-18 -3.412803e-02 3.004271e-02 -5.518756e-18 884.2284 115.3234)">
</image>
<image style="overflow:visible;enable-background:new    ;" width="530" height="530" xlink:href="Images/brain.jpg"  transform="matrix(-1.629228e-17 -8.869101e-02 8.304498e-02 -1.525512e-17 884.5973 182.2505)">
</image>
<image style="overflow:visible;enable-background:new    ;" width="421" height="402" xlink:href="Images/analog-png-7.png"  transform="matrix(-2.823423e-17 -0.1537 0.111 -2.039037e-17 884.2933 261.8276)">
</image>
<ellipse class="st2" cx="521.3" cy="98.3" rx="11.3" ry="11.3"/>
<circle class="st1" cx="521.3" cy="153.3" r="11.3"/>
<image style="overflow:visible;enable-background:new    ;" width="959" height="959" xlink:href="Images/battery.jpg"  transform="matrix(-2.467780e-08 6.045340e-02 -5.598316e-02 -2.285300e-08 592.2764 95.339)">
</image>
<image style="overflow:visible;enable-background:new    ;" width="1600" height="1600" xlink:href="Images/engine.jpg"  transform="matrix(-1.571428e-08 3.849540e-02 -3.562780e-02 -1.454370e-08 593.9346 236.5388)">
</image>
<rect x="516.8" y="258" class="st3" width="9.1" height="18.7"/>
<path id="back_outsideCutPath_9_" vector-effect="non-scaling-stroke" class="st4" d="M849.1,369.1"/>
<path id="back_outsideCutPath_8_" vector-effect="non-scaling-stroke" class="st4" d="M484.2,500.4"/>
<path id="back_outsideCutPath_6_" vector-effect="non-scaling-stroke" class="st4" d="M812,476.1"/>
<polygon class="st5" points="633.2,161.4 633.2,104.7 624.2,104.7 624.2,32.7 579.8,32.7 579.8,23.7 523.1,23.7 523.1,32.7 
	478.8,32.7 478.8,104.7 469.8,104.7 469.8,161.4 478.8,161.4 478.8,218.1 469.8,218.1 469.8,274.9 478.8,274.9 478.8,349.5 
	523.1,349.5 523.1,358.5 579.8,358.5 579.8,349.5 624.2,349.5 624.2,274.9 631.8,274.9 633.2,274.9 633.2,218.1 624.2,218.1 
	624.2,161.4 "/>
<polygon class="st5" points="1016.2,161.4 1016.2,104.7 1007.2,104.7 1007.2,32.7 962.8,32.7 962.8,23.7 906.1,23.7 906.1,32.7 
	861.8,32.7 861.8,104.7 852.8,104.7 852.8,161.4 861.8,161.4 861.8,218.1 852.8,218.1 852.8,274.9 861.8,274.9 861.8,349.5 
	906.1,349.5 906.1,358.5 962.8,358.5 962.8,349.5 1007.2,349.5 1007.2,274.9 1014.8,274.9 1016.2,274.9 1016.2,218.1 1007.2,218.1 
	1007.2,161.4 "/>
<g>
	<circle class="st1" cx="772.1" cy="480.4" r="7.1"/>
	<circle class="st1" cx="808.9" cy="480.4" r="7.1"/>
	
		<image style="overflow:visible;enable-background:new    ;" width="1667" height="1786" xlink:href="Images/info.jpg"  transform="matrix(1.211721e-02 0 0 1.169880e-02 798.8068 442.9165)">
	</image>
	
		<image style="overflow:visible;enable-background:new    ;" width="1600" height="1600" xlink:href="Images/engine.jpg"  transform="matrix(1.644337e-02 0 0 1.460217e-02 758.9518 441.6818)">
	</image>
</g>
<image style="overflow:visible;enable-background:new    ;" width="626" height="626" xlink:href="Images/t1TwA.jpg"  transform="matrix(4.543621e-09 -7.721105e-02 8.011945e-02 4.714771e-09 763.9016 430.2666)">
</image>
<circle class="st1" cx="789" cy="402.6" r="9.9"/>
<rect x="672.7" y="455.5" class="st1" width="60" height="26.6"/>
<text transform="matrix(0.7489 0 0 1 681.9446 472.231)" class="st6 st7">sensors</text>
<polygon class="st8" points="861.8,104.7 861.8,32.7 830.7,32.7 830.7,23.7 774,23.7 774,32.7 711.9,32.7 711.9,23.7 655.2,23.7 
	655.2,32.7 624.2,32.7 624.2,104.7 633.2,104.7 633.2,161.4 624.2,161.4 624.2,218.1 633.2,218.1 633.2,274.9 624.2,274.9 
	624.2,349.5 655.2,349.5 655.2,358.5 711.9,358.5 711.9,349.5 773.8,349.5 773.8,358.5 830.6,358.5 830.6,349.5 861.8,349.5 
	861.8,274.9 852.8,274.9 852.8,218.1 861.8,218.1 861.8,161.4 852.8,161.4 852.8,104.7 "/>
<path class="st9" d="M40.4,292.8v388.8H350V292.8H40.4z M107.4,319.8h56.7v9h-56.7V319.8z M58.4,670.2c-3.6,0-6.6-3-6.6-6.6
	s3-6.6,6.6-6.6c3.6,0,6.6,3,6.6,6.6S62,670.2,58.4,670.2z M59.2,318.2c-3.6,0-6.6-3-6.6-6.6s3-6.6,6.6-6.6s6.6,3,6.6,6.6
	S62.9,318.2,59.2,318.2z M85.4,571h-9v-56.7h9V571z M85.4,457.5h-9v-56.7h9V457.5z M164.2,654.6h-56.7v-9h56.7V654.6z M282.8,654.6
	h-56.6v-9h56.6V654.6z M283,328.8h-56.7v-9H283V328.8z M305,400.8h9v56.7h-9V400.8z M314.1,571h-9v-56.7h9V571z M332,670.2
	c-3.6,0-6.6-3-6.6-6.6s3-6.6,6.6-6.6s6.6,3,6.6,6.6S335.6,670.2,332,670.2z M332,318.2c-3.6,0-6.6-3-6.6-6.6s3-6.6,6.6-6.6
	s6.6,3,6.6,6.6S335.6,318.2,332,318.2z"/>
<polygon class="st10" points="861.8,402.2 861.8,349.6 830.7,349.6 830.7,358.6 774,358.6 774,349.6 711.9,349.6 711.9,358.6 
	655.2,358.6 655.2,349.6 624.2,349.6 624.2,402.2 633.2,402.2 633.2,458.9 624.2,458.9 624.2,502.4 655.2,502.4 655.2,511.4 
	711.9,511.4 711.9,502.4 774,502.4 774,511.4 830.7,511.4 830.7,502.4 861.8,502.4 861.8,458.9 852.8,458.9 852.8,402.2 "/>
<g>
	
		<image style="overflow:visible;enable-background:new    ;" width="215" height="49" xlink:href="149F47201194CA1A.jpg"  transform="matrix(0.7824 0 0 0.7824 118.3413 168.1938)">
	</image>
	<path class="st5" d="M83.6,78.3v27v9V158h9v56.7h-9v43.6h31v9h56.7v-9h62.1v9h56.7v-9h31v-42.3h-9v-56.7h9v-45v-9v-27H83.6z
		 M171.4,114.3h-56.7v-9h56.7V114.3z M290.2,114.3h-56.7v-9h56.7V114.3z"/>
</g>
</svg>
