<?xml version="1.0" encoding="utf-8"?>
<!-- Generator: Adobe Illustrator 24.0.2, SVG Export Plug-In . SVG Version: 6.00 Build 0)  -->
<svg version="1.1" id="Layer_1" xmlns="http://www.w3.org/2000/svg" xmlns:xlink="http://www.w3.org/1999/xlink" x="0px" y="0px"
	 viewBox="0 0 1101.2 742" style="enable-background:new 0 0 1101.2 742;" xml:space="preserve">
<style type="text/css">
	.st0{fill:none;stroke:#000000;}
	.st1{fill:none;stroke:#FF0000;stroke-width:7.200000e-02;stroke-miterlimit:10;}
	.st2{fill:none;stroke:#000000;stroke-miterlimit:10;}
	.st3{fill:#777777;stroke:#FF0000;stroke-width:7.200000e-02;stroke-linecap:round;}
	.st4{fill:#777777;stroke:#FF0000;stroke-width:7.200000e-02;stroke-linecap:round;stroke-miterlimit:3.9998;}
	.st5{fill:#777777;stroke:#E10000;stroke-width:7.200000e-02;stroke-linecap:round;}
	.st6{fill:none;stroke:#FF0000;stroke-width:7.200000e-02;stroke-linecap:round;}
	.st7{fill:none;stroke:#FF0000;stroke-width:7.200000e-02;}
	.st8{font-family:'ArialMT';}
	.st9{font-size:16.0236px;}
</style>
<path id="front_outsideCutPath_2_" vector-effect="non-scaling-stroke" class="st0" d="M118.5,452"/>
<path id="front_outsideCutPath_5_" vector-effect="non-scaling-stroke" class="st0" d="M44.7,593.5"/>
<path id="front_outsideCutPath_4_" vector-effect="non-scaling-stroke" class="st0" d="M44.7,584.5"/>
<path id="top_outsideCutPath_4_" vector-effect="non-scaling-stroke" class="st1" d="M720.4,65.8h-33.8v316.8h33.8"/>
<path id="top_outsideCutPath_9_" vector-effect="non-scaling-stroke" class="st2" d="M720.4,65.8"/>
<path id="top_outsideCutPath_10_" vector-effect="non-scaling-stroke" class="st2" d="M833.8,65.8h-56.7"/>
<path id="top_outsideCutPath_12_" vector-effect="non-scaling-stroke" class="st2" d="M833.8,65.8"/>
<path id="top_outsideCutPath_11_" vector-effect="non-scaling-stroke" class="st2" d="M890.5,65.8"/>
<path id="top_outsideCutPath_5_" vector-effect="non-scaling-stroke" class="st1" d="M890.5,382.6h33.8V65.8h-33.8"/>
<path id="top_outsideCutPath_7_" vector-effect="non-scaling-stroke" class="st2" d="M890.5,382.6"/>
<path id="top_outsideCutPath_6_" vector-effect="non-scaling-stroke" class="st2" d="M833.8,382.6"/>
<path id="top_outsideCutPath_1_" vector-effect="non-scaling-stroke" class="st2" d="M777.1,382.6h56.7"/>
<path id="top_outsideCutPath_3_" vector-effect="non-scaling-stroke" class="st2" d="M777.1,382.6"/>
<path id="top_outsideCutPath_2_" vector-effect="non-scaling-stroke" class="st2" d="M720.4,382.6"/>
<path id="bottom_outsideCutPath" vector-effect="non-scaling-stroke" class="st1" d="M336.7,34.2V423h309.6V34.2H336.7z"/>
<g>
	<circle class="st3" cx="741.8" cy="654.3" r="18.4"/>
	<circle class="st3" cx="812.5" cy="654.3" r="18.4"/>
	<circle class="st3" cx="954" cy="654.3" r="18.4"/>
	<circle class="st3" cx="883.3" cy="654.3" r="18.4"/>
</g>
<image style="overflow:visible;enable-background:new    ;" width="150" height="151" xlink:href="Images/arduino.jpg"  transform="matrix(0.2834 0 0 0.2752 720.5644 575.4654)">
</image>
<image style="overflow:visible;enable-background:new    ;" width="1600" height="1600" xlink:href="Images/engine.jpg"  transform="matrix(3.412803e-02 0 0 3.004271e-02 926.6962 572.2088)">
</image>
<image style="overflow:visible;enable-background:new    ;" width="530" height="530" xlink:href="Images/brain.jpg"  transform="matrix(8.869101e-02 0 0 8.304498e-02 859.7691 572.5777)">
</image>
<image style="overflow:visible;enable-background:new    ;" width="421" height="402" xlink:href="Images/analog-png-7.png"  transform="matrix(0.1537 0 0 0.111 780.192 572.2737)">
</image>
<ellipse class="st4" cx="146.5" cy="373.2" rx="11.3" ry="11.3"/>
<circle class="st3" cx="145" cy="315.2" r="11.3"/>
<image style="overflow:visible;enable-background:new    ;" width="959" height="959" xlink:href="Images/battery.jpg"  transform="matrix(2.714152e-12 -6.045340e-02 5.598316e-02 2.513453e-12 74.537 373.2009)">
</image>
<image style="overflow:visible;enable-background:new    ;" width="1600" height="1600" xlink:href="Images/engine.jpg"  transform="matrix(1.728312e-12 -3.849540e-02 3.562780e-02 1.599567e-12 72.8787 232.0011)">
</image>
<rect x="140.4" y="191.8" class="st5" width="9.1" height="18.7"/>
<g>
	<line class="st6" x1="924.2" y1="480.3" x2="924.2" y2="516.5"/>
	<polyline class="st6" points="924.2,419.7 915.2,419.7 915.2,480.3 924.2,480.3 	"/>
	<line class="st6" x1="924.2" y1="364.4" x2="924.2" y2="419.7"/>
</g>
<path id="front_outsideCutPath" vector-effect="non-scaling-stroke" class="st7" d="M274.2,564l0-36l-237.6,0l0,36"/>
<image style="overflow:visible;enable-background:new    ;" width="215" height="49" xlink:href="149F47201194CA1A.jpg"  transform="matrix(0.7824 0 0 0.7824 70.4188 614.0297)">
</image>
<polyline class="st6" points="274.4,573 240.6,573 240.6,564 "/>
<path class="st6" d="M109.9,440.6"/>
<line class="st6" x1="240.6" y1="564" x2="240.6" y2="573"/>
<path class="st6" d="M240.6,564"/>
<g>
	<polyline class="st6" points="36.6,564 70.3,564 70.3,573 	"/>
	<path class="st6" d="M36.6,564"/>
	<line class="st6" x1="70.3" y1="573" x2="70.3" y2="564"/>
	<path class="st6" d="M70.3,573"/>
	<line class="st6" x1="127" y1="564" x2="127" y2="573"/>
	<polyline class="st6" points="127,573 127,564 183.7,564 183.7,573 	"/>
	<line class="st6" x1="183.7" y1="573" x2="183.7" y2="564"/>
	<path class="st6" d="M183.7,573"/>
	<line class="st6" x1="240.4" y1="564" x2="240.4" y2="573"/>
	<polyline class="st6" points="240.4,573 240.4,564 274.2,564 	"/>
</g>
<path class="st6" d="M183.7,564"/>
<line class="st6" x1="183.7" y1="573" x2="183.7" y2="564"/>
<polyline class="st6" points="183.7,564 183.7,573 127,573 127,564 "/>
<line class="st6" x1="127" y1="564" x2="127" y2="573"/>
<path class="st6" d="M127,564"/>
<path class="st6" d="M70.3,564"/>
<line class="st6" x1="70.3" y1="573" x2="70.3" y2="564"/>
<polyline class="st6" points="70.3,564 70.3,573 36.6,573 "/>
<path id="back_outsideCutPath_4_" vector-effect="non-scaling-stroke" class="st0" d="M738.5,258.8"/>
<path id="back_outsideCutPath_9_" vector-effect="non-scaling-stroke" class="st0" d="M890.5,517.6"/>
<path id="back_outsideCutPath_8_" vector-effect="non-scaling-stroke" class="st0" d="M833.8,517.6"/>
<path id="back_outsideCutPath_6_" vector-effect="non-scaling-stroke" class="st0" d="M777.1,517.6"/>
<path id="back_outsideCutPath_5_" vector-effect="non-scaling-stroke" class="st0" d="M720.4,517.6"/>
<g>
	<circle class="st3" cx="856.9" cy="499.4" r="7.1"/>
	<circle class="st3" cx="893.7" cy="499.4" r="7.1"/>
	
		<image style="overflow:visible;enable-background:new    ;" width="1667" height="1786" xlink:href="Images/info.jpg"  transform="matrix(1.211721e-02 0 0 1.169880e-02 883.6142 461.8701)">
	</image>
	
		<image style="overflow:visible;enable-background:new    ;" width="1600" height="1600" xlink:href="Images/engine.jpg"  transform="matrix(1.644337e-02 0 0 1.460217e-02 843.7592 460.6354)">
	</image>
</g>
<image style="overflow:visible;enable-background:new    ;" width="626" height="626" xlink:href="Images/t1TwA.jpg"  transform="matrix(4.543621e-09 -7.721105e-02 8.011945e-02 4.714771e-09 848.709 449.2202)">
</image>
<circle class="st3" cx="873.8" cy="421.6" r="9.9"/>
<rect x="757.5" y="474.5" class="st3" width="60" height="26.6"/>
<text transform="matrix(0.7489 0 0 1 766.752 491.1846)" class="st8 st9">sensors</text>
<g>
	<polyline class="st6" points="720.5,372.7 720.5,381.7 686.6,381.7 	"/>
	<polyline class="st6" points="720.5,381.7 720.5,372.7 777.1,372.7 777.1,381.7 	"/>
	<polyline class="st6" points="833.8,372.7 833.8,381.7 777.1,381.7 777.1,372.7 	"/>
	<polyline class="st6" points="833.8,372.7 890.5,372.7 890.5,381.7 	"/>
	<line class="st6" x1="833.8" y1="381.7" x2="833.8" y2="372.7"/>
	<polyline class="st6" points="924.3,381.7 890.5,381.7 890.5,372.7 	"/>
</g>
<g>
	<polyline class="st6" points="890.5,525.5 890.5,516.5 924.2,516.5 	"/>
	<polyline class="st6" points="890.5,516.5 890.5,525.5 833.8,525.5 833.8,516.5 	"/>
	<polyline class="st6" points="777.1,525.5 777.1,516.5 833.8,516.5 833.8,525.5 	"/>
	<polyline class="st6" points="777.1,525.5 720.4,525.5 720.4,516.5 	"/>
	<line class="st6" x1="777.1" y1="516.5" x2="777.1" y2="525.5"/>
	<polyline class="st6" points="686.6,516.5 720.4,516.5 720.4,525.5 	"/>
</g>
<g>
	<polyline class="st6" points="890.5,74.5 890.5,65.5 924.3,65.5 	"/>
	<polyline class="st6" points="890.5,65.5 890.5,74.5 833.8,74.5 833.8,65.5 	"/>
	<line class="st6" x1="833.8" y1="65.5" x2="833.8" y2="74.5"/>
	<polyline class="st6" points="777.1,74.5 777.1,65.5 833.8,65.5 	"/>
	<polyline class="st6" points="777.1,74.5 720.5,74.5 720.5,65.5 	"/>
	<line class="st6" x1="777.1" y1="65.5" x2="777.1" y2="74.5"/>
	<polyline class="st6" points="686.6,65.5 720.5,65.5 720.5,74.5 	"/>
</g>
<circle class="st1" cx="357" cy="54.6" r="6.6"/>
<circle class="st1" cx="357" cy="404.4" r="6.6"/>
<circle class="st1" cx="626.5" cy="54.6" r="6.6"/>
<circle class="st1" cx="626.5" cy="403.3" r="6.6"/>
<g>
	<line class="st6" x1="685.5" y1="518.5" x2="685.5" y2="482.3"/>
	<polyline class="st6" points="685.5,482.3 694.5,482.3 694.5,421.8 685.5,421.8 	"/>
	<line class="st6" x1="685.5" y1="421.8" x2="685.5" y2="366.4"/>
</g>
<polyline class="st6" points="195.2,197.8 186.2,197.8 186.2,164.1 "/>
<polyline class="st6" points="186.2,197.8 195.2,197.8 195.2,254.5 186.2,254.5 "/>
<polyline class="st6" points="195.2,311.2 186.2,311.2 186.2,254.5 195.2,254.5 "/>
<polyline class="st6" points="195.2,311.2 195.2,367.9 186.2,367.9 "/>
<line class="st6" x1="186.2" y1="311.2" x2="195.2" y2="311.2"/>
<polyline class="st6" points="186.2,401.7 186.2,367.9 195.2,367.9 "/>
<line class="st7" x1="36.6" y1="708.1" x2="36.6" y2="573.1"/>
<line class="st7" x1="273.3" y1="708.1" x2="273.3" y2="573.1"/>
<g>
	<polyline class="st6" points="239.6,717 239.6,708 273.3,708 	"/>
	<polyline class="st6" points="239.6,708 239.6,717 182.9,717 182.9,708 	"/>
	<polyline class="st6" points="126.2,717 69.5,717 69.5,708 	"/>
	<line class="st6" x1="126.2" y1="708" x2="126.2" y2="717"/>
	<polyline class="st6" points="35.7,708 69.5,708 69.5,717 	"/>
	<line class="st6" x1="126.2" y1="708" x2="182.9" y2="708"/>
</g>
<rect x="406.1" y="382.9" class="st6" width="56.7" height="9"/>
<rect x="519.5" y="382.9" class="st6" width="56.7" height="9"/>
<rect x="519.5" y="61" class="st6" width="56.7" height="9"/>
<rect x="406.1" y="61.3" class="st6" width="56.7" height="9"/>
<line class="st7" x1="41.6" y1="127.6" x2="185.6" y2="127.6"/>
<line class="st7" x1="40.3" y1="442.6" x2="40.3" y2="125.8"/>
<line class="st7" x1="40.3" y1="442.5" x2="184.3" y2="442.5"/>
<line class="st6" x1="185.7" y1="164.1" x2="185.7" y2="125.4"/>
<line class="st6" x1="185.7" y1="442.5" x2="185.7" y2="396.8"/>
<polyline class="st6" points="935.9,704.1 935.9,695.1 969.6,695.1 "/>
<polyline class="st6" points="935.9,695.1 935.9,704.1 879.2,704.1 879.2,695.1 "/>
<polyline class="st6" points="822.5,704.1 822.5,695.1 879.2,695.1 879.2,704.1 "/>
<polyline class="st6" points="822.5,704.1 765.8,704.1 765.8,695.1 "/>
<line class="st6" x1="822.5" y1="695.1" x2="822.5" y2="704.1"/>
<polyline class="st6" points="732,695.1 765.8,695.1 765.8,704.1 "/>
<line class="st7" x1="1004.5" y1="550.5" x2="1004.5" y2="694.5"/>
<line class="st7" x1="691.3" y1="549.6" x2="1008.1" y2="550.8"/>
<line class="st7" x1="691.2" y1="550.5" x2="691.2" y2="694.5"/>
<line class="st6" x1="969.8" y1="694.5" x2="1008.4" y2="694.5"/>
<line class="st6" x1="691.2" y1="694.5" x2="729.8" y2="694.5"/>
<rect x="577.4" y="279.7" transform="matrix(6.123234e-17 -1 1 6.123234e-17 321.5196 889.8857)" class="st6" width="56.7" height="9"/>
<rect x="577.4" y="166.3" transform="matrix(6.123234e-17 -1 1 6.123234e-17 434.9196 776.4857)" class="st6" width="56.7" height="9"/>
<rect x="350.3" y="279.7" transform="matrix(6.123234e-17 -1 1 6.123234e-17 94.405 662.7711)" class="st6" width="56.7" height="9"/>
<rect x="350.3" y="166.3" transform="matrix(6.123234e-17 -1 1 6.123234e-17 207.805 549.3711)" class="st6" width="56.7" height="9"/>
</svg>
