<?xml version="1.0" encoding="utf-8"?>
<!-- Generator: Adobe Illustrator 24.0.2, SVG Export Plug-In . SVG Version: 6.00 Build 0)  -->
<svg version="1.1" id="Layer_1" xmlns="http://www.w3.org/2000/svg" xmlns:xlink="http://www.w3.org/1999/xlink" x="0px" y="0px"
	 viewBox="0 0 919.1 1054.7" style="enable-background:new 0 0 919.1 1054.7;" xml:space="preserve">
<style type="text/css">
	.st0{fill:none;stroke:#FF0000;stroke-width:7.200000e-02;stroke-miterlimit:10;}
	.st1{clip-path:url(#SVGID_2_);}
	.st2{clip-path:url(#SVGID_4_);}
	.st3{fill:none;stroke:#000000;stroke-miterlimit:10;}
	.st4{fill:none;stroke:#000000;}
	.st5{fill:#777777;stroke:#FF0000;stroke-width:7.199337e-02;stroke-miterlimit:9.999;}
	.st6{fill:#FFFFFF;}
	.st7{fill:#777777;stroke:#FF0000;stroke-width:7.200000e-02;stroke-miterlimit:10;}
	.st8{fill:#FFFFFF;stroke:#FF0000;stroke-width:7.200000e-02;stroke-miterlimit:10;}
	.st9{font-family:'ArialMT';}
	.st10{font-size:20px;}
	.st11{font-size:12px;}
</style>
<rect x="346.5" y="21.5" class="st0" width="369.2" height="441.2"/>
<rect x="562.1" y="400.5" class="st0" width="56.7" height="9"/>
<circle class="st0" cx="690.5" cy="46.1" r="6.6"/>
<circle class="st0" cx="690.5" cy="438.5" r="6.6"/>
<rect x="640.9" y="158.3" class="st0" width="9" height="56.7"/>
<rect x="640.9" y="271.7" class="st0" width="9" height="56.7"/>
<rect x="562.1" y="74.7" class="st0" width="56.7" height="9"/>
<polygon class="st0" points="443.5,74.7 500,74.7 500,83.7 443.4,83.7 443.4,74.7 "/>
<rect x="443.3" y="400.5" class="st0" width="56.7" height="9"/>
<rect x="412.3" y="271.8" class="st0" width="9" height="56.7"/>
<rect x="412.2" y="158.3" class="st0" width="9" height="56.7"/>
<circle class="st0" cx="371.2" cy="46.1" r="6.6"/>
<circle class="st0" cx="371.2" cy="438.5" r="6.6"/>
<path class="st0" d="M26.3,263.6h27h9h43.6v-9h56.7v9h43.6v-31h9v-56.7h-9v-62.2h9V57h-9V26h-42.3v9h-56.6v-9h-45h-9h-27
	C26.3,26,26.3,263.6,26.3,263.6z M62.3,175.8v56.7h-9v-56.7H62.3z M62.3,57v56.7h-9V57H62.3z"/>
<g>
	<g>
		<g>
			<g>
				<g>
					<defs>
						<polyline id="SVGID_1_" points="135.2,79.2 87.8,79.2 87.8,210.3 135.2,210.3 135.2,79.2 						"/>
					</defs>
					<clipPath id="SVGID_2_">
						<use xlink:href="#SVGID_1_"  style="overflow:visible;"/>
					</clipPath>
					<g transform="matrix(1 -6.617445e-24 6.617445e-24 1 0 0)" class="st1">
						
							<image style="overflow:visible;enable-background:new    ;" width="279" height="102" xlink:href="149F47201194CA0E.jpg"  transform="matrix(2.899351e-17 -0.4735 0.4735 2.899351e-17 87.2887 210.8008)">
						</image>
					</g>
				</g>
			</g>
		</g>
	</g>
</g>
<g>
	<g>
		<g>
			<g>
				<g>
					<defs>
						<polyline id="SVGID_3_" points="168.8,61.6 126.2,61.6 126.2,227.9 168.8,227.9 168.8,61.6 						"/>
					</defs>
					<clipPath id="SVGID_4_">
						<use xlink:href="#SVGID_3_"  style="overflow:visible;"/>
					</clipPath>
					<g transform="matrix(1 6.617445e-24 -6.617445e-24 1 0 0)" class="st2">
						
							<image style="overflow:visible;enable-background:new    ;" width="392" height="102" xlink:href="149F47201194CA0F.jpg"  transform="matrix(2.610947e-17 -0.4264 0.4264 2.610947e-17 125.6818 228.3273)">
						</image>
					</g>
				</g>
			</g>
		</g>
	</g>
</g>
<path id="top_outsideCutPath_9_" vector-effect="non-scaling-stroke" class="st3" d="M9.1,808.7"/>
<path id="top_outsideCutPath_11_" vector-effect="non-scaling-stroke" class="st3" d="M129.8,559.6"/>
<path id="back_outsideCutPath_9_" vector-effect="non-scaling-stroke" class="st4" d="M425.4,690.2"/>
<path id="back_outsideCutPath_6_" vector-effect="non-scaling-stroke" class="st4" d="M464.1,683.2"/>
<ellipse transform="matrix(3.328101e-02 -0.9994 0.9994 3.328101e-02 -645.5218 891.7781)" class="st5" cx="138.2" cy="779.6" rx="11.3" ry="11.3"/>
<ellipse transform="matrix(3.328101e-02 -0.9994 0.9994 3.328101e-02 -700.4938 944.9399)" class="st5" cx="138.2" cy="834.6" rx="11.3" ry="11.3"/>
<g>
	<path class="st6" d="M107.1,837.3c-17.9,0-35.8,0-53.7,0c0-19.3,0-38.7,0-58c17.9,0,35.8,0,53.7,0
		C107.1,798.7,107.1,818,107.1,837.3z M87.8,782.9c-0.2,0-0.4,0-0.5,0c-4.2,0-8.4,0-12.6,0c-3.2,0-6.3,0-9.5,0c-0.2,0-0.4,0-0.7,0.1
		c-0.6,0.1-0.9,0.8-0.9,1.5c0,15.8,0,31.5,0,47.3c0,0.1,0,0.2,0,0.3c0.1,0.5,0.3,1,0.8,1.2c0.3,0.1,0.5,0.2,0.8,0.2
		c7.3,0,14.6,0,21.9,0c0.6,0,0.6,0,0.6-0.6c0-16.5,0-33,0-49.6C87.8,783.2,87.8,783.1,87.8,782.9z M93.9,789.4c0-0.2,0-0.3,0-0.4
		c0-2.6,0-5.2,0-7.8c0-0.8-0.5-1.4-1.4-1.4c-0.6,0-1.3,0-1.9,0c-0.9,0-1.4,0.6-1.4,1.4c0,17.8,0,35.7,0,53.5c0,0.1,0,0.3,0,0.4
		c0,0.8,0.7,1.4,1.4,1.4c0.6,0,1.3,0,1.9,0c0.1,0,0.3,0,0.4-0.1c0.7-0.3,1-0.8,1-1.5c0-2.4,0-4.8,0-7.1c0-0.1,0-0.2,0-0.3
		c0.8,0,1.5,0,2.3,0c0.7,0,1.4-0.6,1.4-1.3c0-0.2,0-0.3,0-0.5c0-1.8,0-3.7,0-5.5c0-0.7-0.6-1.4-1.4-1.4c-0.6,0-1.1,0-1.7,0
		c-0.2,0-0.4,0-0.6,0c0-6.9,0-13.8,0-20.7c0.1,0,0.2,0,0.3,0c0.7,0,1.3,0,2,0c0.8,0,1.3-0.7,1.3-1.3c0-2,0-4.1,0-6.1
		c0-0.5-0.2-0.8-0.6-1.1c-0.3-0.2-0.5-0.2-0.8-0.2C95.3,789.4,94.6,789.4,93.9,789.4z"/>
	<path d="M87.8,782.9c0,0.2,0,0.3,0,0.4c0,16.5,0,33,0,49.6c0,0.6,0,0.6-0.6,0.6c-7.3,0-14.6,0-21.9,0c-0.3,0-0.6-0.1-0.8-0.2
		c-0.5-0.2-0.8-0.6-0.8-1.2c0-0.1,0-0.2,0-0.3c0-15.8,0-31.5,0-47.3c0-0.7,0.4-1.4,0.9-1.5c0.2-0.1,0.4-0.1,0.7-0.1
		c3.2,0,6.3,0,9.5,0c4.2,0,8.4,0,12.6,0C87.4,782.9,87.6,782.9,87.8,782.9z M77.9,795.1c0,0.1,0,0.2,0,0.3c0,0.6,0,1.2,0,1.8
		c0,0.4,0.3,0.7,0.6,0.7c0.5,0,1.1,0,1.6,0c0.1,0,0.2-0.1,0.3-0.1c0.2-0.2,0.3-0.4,0.3-0.7c0-0.7,0-1.4,0-2.1c0.1,0,0.2,0,0.3,0
		c0.5,0,1.1,0,1.6,0s0.7-0.2,0.7-0.6c0-0.6,0-1.2,0-1.8c0-0.4-0.2-0.6-0.7-0.6c-0.6,0-1.2,0-1.7,0c-0.1,0-0.2,0-0.3,0
		c0-0.5,0-0.9,0-1.4c0-0.3,0-0.6,0-0.9c0-0.4-0.3-0.5-0.6-0.5c-0.5,0-1,0-1.5,0s-0.7,0.2-0.7,0.7s0,1.1,0,1.6c0,0.2,0,0.4,0,0.6
		c-0.7,0-1.3,0-1.9,0c-0.5,0-0.7,0.2-0.7,0.7s0,1,0,1.6c0,0.4,0.2,0.8,0.8,0.8C76.6,795,77.2,795.1,77.9,795.1z M77.9,823.2
		c0,1.1,0,2.2,0,3.3c0,0.5,0.3,0.7,0.7,0.7c0.4,0,0.9,0,1.3,0c0.5,0,0.8-0.2,0.8-0.8c0-0.4,0-0.9,0-1.3c0-1.7,0-3.4,0-5.1
		c0-0.7-0.2-0.9-0.9-0.9c-0.4,0-0.7,0-1.1,0c-0.6,0-0.8,0.2-0.8,0.8C77.9,821,77.9,822.1,77.9,823.2z"/>
	<path d="M93.9,789.4c0.7,0,1.4,0,2.2,0c0.3,0,0.6,0,0.8,0.2c0.4,0.3,0.6,0.6,0.6,1.1c0,2,0,4.1,0,6.1c0,0.6-0.6,1.4-1.3,1.3
		c-0.7,0-1.3,0-2,0c-0.1,0-0.2,0-0.3,0c0,6.9,0,13.8,0,20.7c0.2,0,0.4,0,0.6,0c0.6,0,1.1,0,1.7,0c0.8-0.1,1.4,0.7,1.4,1.4
		c0,1.8,0,3.7,0,5.5c0,0.2,0,0.3,0,0.5c0,0.7-0.7,1.4-1.4,1.3c-0.7,0-1.5,0-2.3,0c0,0.1,0,0.2,0,0.3c0,2.4,0,4.8,0,7.1
		c0,0.7-0.3,1.2-1,1.5c-0.1,0-0.3,0-0.4,0.1c-0.6,0-1.3,0-1.9,0c-0.8,0-1.4-0.6-1.4-1.4c0-0.1,0-0.3,0-0.4c0-17.8,0-35.7,0-53.5
		c0-0.9,0.5-1.5,1.4-1.4c0.6,0,1.3,0,1.9,0c0.8,0,1.4,0.6,1.4,1.4c0,2.6,0,5.2,0,7.8C93.9,789.2,93.9,789.3,93.9,789.4z"/>
	<path class="st6" d="M77.9,795.1c-0.7,0-1.3,0-1.9,0c-0.5,0-0.8-0.3-0.8-0.8s0-1,0-1.6c0-0.5,0.2-0.7,0.7-0.7c0.6,0,1.3,0,1.9,0
		c0-0.2,0-0.4,0-0.6c0-0.5,0-1.1,0-1.6s0.2-0.7,0.7-0.7s1,0,1.5,0c0.4,0,0.6,0.2,0.6,0.5s0,0.6,0,0.9c0,0.5,0,0.9,0,1.4
		c0.1,0,0.2,0,0.3,0c0.6,0,1.2,0,1.7,0c0.4,0,0.7,0.2,0.7,0.6c0,0.6,0,1.2,0,1.8c0,0.5-0.3,0.6-0.7,0.6c-0.5,0-1.1,0-1.6,0
		c-0.1,0-0.2,0-0.3,0c0,0.7,0,1.4,0,2.1c0,0.3-0.1,0.5-0.3,0.7c-0.1,0.1-0.2,0.1-0.3,0.1c-0.5,0-1.1,0-1.6,0c-0.3,0-0.6-0.3-0.6-0.7
		c0-0.6,0-1.2,0-1.8C77.9,795.3,77.9,795.2,77.9,795.1z"/>
	<path class="st6" d="M77.9,823.2c0-1.1,0-2.2,0-3.2c0-0.6,0.2-0.8,0.8-0.8c0.4,0,0.7,0,1.1,0c0.7,0,0.9,0.2,0.9,0.9
		c0,1.7,0,3.4,0,5.1c0,0.4,0,0.9,0,1.3c0,0.5-0.2,0.8-0.8,0.8c-0.4,0-0.9,0-1.3,0c-0.5,0-0.7-0.3-0.7-0.7
		C77.9,825.4,77.9,824.3,77.9,823.2z"/>
	<path class="st6" d="M108.8,982.1c-19,0-38,0-57,0c0-20.5,0-41.1,0-61.6c19,0,38,0,57,0C108.8,941,108.8,961.6,108.8,982.1z
		 M74,929.8h-0.2c-1.4,0-2.7,0-4.1,0c-0.1,0-0.3,0-0.4,0.1c-0.5,0.2-0.9,0.4-1.2,0.8c-0.2,0.2-0.3,0.5-0.4,0.8s-0.1,0.7-0.1,1
		c0,1,0,2,0,3c0,0.3,0,0.5-0.2,0.7c-0.5,0.5-0.9,1-1.3,1.5c-0.3,0.4-0.6,0.7-0.9,1.1c-0.5,0.5-0.9,1.1-1.3,1.6
		c-0.3,0.3-0.5,0.6-0.8,0.9c-0.4,0.4-0.8,0.9-1.1,1.3c-0.3,0.4-0.6,0.8-0.6,1.4c0,5.1,0,10.2,0,15.4c0,0.4,0,0.8,0,1.2
		c0,0.2,0.1,0.5,0.2,0.6c0.2,0.3,0.5,0.6,0.7,0.9c0.3,0.3,0.6,0.6,0.9,0.9c0.6,0.7,1.2,1.3,1.8,2c0.3,0.3,0.6,0.6,0.9,0.9
		c0.5,0.5,0.9,1,1.4,1.5c0.3,0.3,0.5,0.6,0.8,0.9c0.5,0.5,1,1,1.4,1.5c0.5,0.5,1,1.1,1.5,1.6c0.3,0.3,0.7,0.4,1.1,0.4
		c0.6,0,1.2,0,1.8,0h0.2c0,0.8,0,1.5,0,2.3h-0.3c-1.2,0-2.5,0-3.7,0c-0.5,0-0.9,0.1-1.3,0.4c-0.1,0.1-0.3,0.2-0.4,0.3
		c-0.4,0.4-0.6,0.9-0.6,1.5c0,0.9,0,1.9,0,2.8c0,0.7,0.4,1.2,0.9,1.6c0.3,0.3,0.8,0.5,1.3,0.5c5,0,10,0,15,0c0.2,0,0.4,0,0.6-0.1
		c0.7-0.2,1.2-0.7,1.5-1.3c0.1-0.2,0.2-0.5,0.2-0.8c0-0.8,0-1.7,0-2.5c0-0.1,0-0.3-0.1-0.4c-0.1-0.4-0.3-0.7-0.5-1
		c-0.3-0.4-0.7-0.6-1.1-0.7c-0.2-0.1-0.5-0.1-0.7-0.1c-1.3,0-2.6,0-3.9,0h-0.2c0-0.8,0-1.5,0-2.3H81c3.4,0,6.9,0,10.3,0
		c0.2,0,0.4,0,0.6-0.1c0.6-0.1,1.1-0.5,1.4-1c0.2-0.4,0.4-0.8,0.4-1.2c0-8.7,0-17.3,0-26v-0.2c-0.1-0.3-0.2-0.5-0.4-0.7
		c-0.2-0.4-0.5-0.8-0.8-1.1c-0.4-0.5-0.9-1-1.3-1.4c-0.4-0.5-0.9-1-1.3-1.4c-0.4-0.5-0.9-1-1.3-1.4s-0.8-0.8-1.2-1.2
		c-0.1-0.1-0.1-0.2-0.1-0.4c0-1.3,0-2.5,0-3.8c0-0.4-0.1-0.7-0.3-1c-0.1-0.2-0.3-0.4-0.4-0.6c-0.3-0.5-0.7-0.7-1.2-0.7
		c-1.4,0-2.9,0-4.3,0h-0.2c0-0.8,0-1.5,0-2.3h0.2c1.3,0,2.6,0,3.9,0c0.5,0,1-0.1,1.3-0.5c0.3-0.2,0.5-0.5,0.6-0.8
		c0.2-0.4,0.2-0.8,0.2-1.3c0-0.7,0-1.4,0-2.1c0-0.2,0-0.4,0-0.6c-0.1-0.5-0.4-0.9-0.8-1.2s-0.8-0.5-1.4-0.5c-5.1,0-10.1,0-15.2,0
		c-0.5,0-1,0.2-1.4,0.5c-0.6,0.5-0.8,1.2-0.8,1.9c0,0.8,0,1.5,0,2.3c0,0.7,0.3,1.2,0.7,1.7c0.4,0.4,0.8,0.5,1.4,0.5
		c1.4,0,2.8,0,4.1,0h0.2C74,928.3,74,929,74,929.8z M98,957.9c0,0.1,0,0.2,0,0.2c0,1.5,0,2.9,0,4.4c0,0.2,0,0.3,0,0.5
		c0.1,0.7,0.4,1.2,0.9,1.5c0.3,0.2,0.7,0.3,1.1,0.3c0.7,0,1.4,0,2.2,0c0.5,0,1-0.1,1.4-0.5c0.5-0.5,0.8-1.1,0.8-1.8
		c0-5.4,0-10.8,0-16.1c0-0.7-0.2-1.3-0.7-1.8c-0.4-0.4-0.9-0.6-1.4-0.6c-0.8,0-1.5,0-2.3,0c-0.1,0-0.3,0-0.4,0.1
		c-0.5,0.1-0.9,0.4-1.2,0.7c-0.3,0.4-0.5,0.8-0.5,1.3c0,1.5,0,2.9,0,4.4v0.2c-0.7,0-1.5,0-2.2,0c0,2.3,0,4.7,0,7
		C96.5,957.9,97.2,957.9,98,957.9z"/>
	<path d="M74,929.8c0-0.8,0-1.5,0-2.3h-0.2c-1.4,0-2.8,0-4.1,0c-0.5,0-1-0.2-1.4-0.5c-0.5-0.5-0.7-1-0.7-1.7c0-0.8,0-1.5,0-2.3
		c0-0.7,0.2-1.4,0.8-1.9c0.4-0.3,0.8-0.5,1.4-0.5c5.1,0,10.1,0,15.2,0c0.5,0,1,0.1,1.4,0.5c0.4,0.3,0.7,0.7,0.8,1.2
		c0,0.2,0,0.4,0,0.6c0,0.7,0,1.4,0,2.1c0,0.4,0,0.9-0.2,1.3c-0.1,0.3-0.4,0.6-0.6,0.8c-0.4,0.3-0.8,0.5-1.3,0.5c-1.3,0-2.6,0-3.9,0
		H81c0,0.8,0,1.5,0,2.3h0.2c1.4,0,2.9,0,4.3,0c0.5,0,0.9,0.2,1.2,0.7c0.1,0.2,0.3,0.4,0.4,0.6c0.2,0.3,0.3,0.6,0.3,1
		c0,1.3,0,2.5,0,3.8c0,0.1,0,0.3,0.1,0.4c0.4,0.4,0.8,0.8,1.2,1.2c0.4,0.5,0.9,1,1.3,1.4c0.4,0.5,0.9,1,1.3,1.4
		c0.4,0.5,0.9,1,1.3,1.4c0.3,0.3,0.6,0.7,0.8,1.1c0.1,0.2,0.3,0.5,0.4,0.7v0.2c0,8.7,0,17.3,0,26c0,0.4-0.1,0.8-0.4,1.2
		c-0.3,0.5-0.8,0.9-1.4,1c-0.2,0-0.4,0.1-0.6,0.1c-3.4,0-6.9,0-10.3,0h-0.2c0,0.8,0,1.5,0,2.3h0.2c1.3,0,2.6,0,3.9,0
		c0.2,0,0.5,0,0.7,0.1c0.4,0.1,0.8,0.3,1.1,0.7c0.2,0.3,0.4,0.6,0.5,1c0,0.1,0.1,0.3,0.1,0.4c0,0.8,0,1.7,0,2.5
		c0,0.3-0.1,0.5-0.2,0.8c-0.3,0.6-0.8,1.1-1.5,1.3c-0.2,0.1-0.4,0.1-0.6,0.1c-5,0-10,0-15,0c-0.5,0-0.9-0.2-1.3-0.5
		c-0.5-0.4-0.8-0.9-0.9-1.6c0-0.9-0.1-1.9,0-2.8c0-0.6,0.2-1,0.6-1.5c0.1-0.1,0.3-0.2,0.4-0.3c0.4-0.3,0.8-0.4,1.3-0.4
		c1.2,0,2.5,0,3.7,0h0.2c0-0.8,0-1.5,0-2.3h-0.3c-0.6,0-1.2,0-1.8,0c-0.4,0-0.8-0.1-1.1-0.4c-0.5-0.5-1-1.1-1.5-1.6s-1-1-1.4-1.5
		c-0.3-0.3-0.5-0.6-0.8-0.9c-0.5-0.5-0.9-1-1.4-1.5c-0.3-0.3-0.6-0.6-0.9-0.9c-0.6-0.7-1.2-1.3-1.8-2c-0.3-0.3-0.6-0.6-0.9-0.9
		s-0.5-0.6-0.7-0.9c-0.1-0.2-0.2-0.4-0.2-0.6c0-0.4,0-0.8,0-1.2c0-5.1,0-10.2,0-15.4c0-0.5,0.2-1,0.6-1.4s0.8-0.9,1.1-1.3
		c0.3-0.3,0.5-0.6,0.8-0.9c0.5-0.5,0.9-1.1,1.3-1.6c0.3-0.4,0.6-0.7,0.9-1.1c0.4-0.5,0.8-1.1,1.3-1.5c0.2-0.2,0.2-0.5,0.2-0.7
		c0-1,0-2,0-3c0-0.3,0.1-0.7,0.1-1c0.1-0.3,0.2-0.5,0.4-0.8c0.3-0.4,0.7-0.6,1.2-0.8c0.1,0,0.3-0.1,0.4-0.1c1.4,0,2.7,0,4.1,0
		L74,929.8L74,929.8z M65.9,947.6L65.9,947.6c0.2,0.2,0.4,0.4,0.6,0.6c0.2,0.2,0.4,0.3,0.6,0.5c0.4,0.3,0.7,0.6,1.1,0.9
		s0.8,0.6,1.2,1c0.3,0.3,0.7,0.5,1,0.8c0.4,0.4,0.9,0.7,1.3,1.1c0.4,0.3,0.7,0.6,1.1,0.9c0.4,0.3,0.8,0.6,1.2,1
		c0.4,0.3,0.8,0.7,1.2,1c0.4,0.3,0.7,0.6,1.1,0.9c0.5,0.4,0.9,0.8,1.4,1.1c0.2,0.2,0.4,0.3,0.7,0.5c0-1.8,0-3.5,0-5.3l0.1,0.1
		c0.3,0.2,0.7,0.5,1,0.7c0.5,0.3,1,0.6,1.5,1c0.5,0.3,1,0.7,1.6,1c0.5,0.3,0.9,0.6,1.4,0.9c0.5,0.3,1,0.7,1.5,1
		c0.3,0.2,0.7,0.4,1,0.7c0.2,0.1,0.3,0.2,0.5,0.3v-0.1c0-1.8,0-3.5,0-5.3l-0.1-0.2c-0.4-0.3-0.9-0.5-1.4-0.8
		c-0.6-0.3-1.1-0.6-1.7-0.9c-0.6-0.3-1.1-0.6-1.7-1c-0.6-0.3-1.2-0.6-1.7-1c-0.6-0.3-1.1-0.6-1.7-1c-0.3-0.2-0.6-0.3-0.9-0.5
		c-0.5-0.2-0.9-0.5-1.4-0.7c-0.1-0.1-0.3-0.1-0.4-0.2c0,1.7,0,3.3,0,5c-0.1-0.1-0.2-0.1-0.4-0.2c-0.4-0.2-0.8-0.3-1.2-0.5
		c-0.4-0.2-0.8-0.3-1.2-0.5c-0.4-0.2-0.8-0.3-1.2-0.5c-0.4-0.2-0.8-0.3-1.3-0.5c-0.4-0.2-0.8-0.3-1.2-0.5c-0.4-0.2-0.8-0.3-1.1-0.5
		c-0.5-0.2-0.9-0.4-1.4-0.5c-0.2-0.1-0.4-0.1-0.6-0.2C66.3,947.8,66.1,947.7,65.9,947.6z"/>
	<path d="M98,957.9c-0.7,0-1.4,0-2.2,0c0-2.3,0-4.7,0-7c0.7,0,1.4,0,2.2,0v-0.2c0-1.5,0-2.9,0-4.4c0-0.5,0.2-0.9,0.5-1.3
		s0.7-0.6,1.2-0.7c0.1,0,0.3-0.1,0.4-0.1c0.8,0,1.5,0,2.3,0c0.5,0,1,0.2,1.4,0.6c0.5,0.5,0.7,1.1,0.7,1.8c0,5.4,0,10.8,0,16.1
		c0,0.7-0.3,1.3-0.8,1.8c-0.4,0.3-0.9,0.5-1.4,0.5c-0.7,0-1.4,0-2.2,0c-0.4,0-0.8-0.1-1.1-0.3c-0.5-0.4-0.9-0.9-0.9-1.5
		c0-0.2,0-0.3,0-0.5c0-1.5,0-2.9,0-4.4C98,958,98,957.9,98,957.9z"/>
	<path class="st6" d="M65.9,947.6c0.2,0.1,0.3,0.1,0.5,0.2c0.2,0.1,0.4,0.1,0.6,0.2c0.5,0.2,0.9,0.4,1.4,0.5
		c0.4,0.2,0.8,0.3,1.1,0.5c0.4,0.2,0.8,0.3,1.2,0.5c0.4,0.2,0.8,0.3,1.3,0.5c0.4,0.2,0.8,0.3,1.2,0.5c0.4,0.2,0.8,0.3,1.2,0.5
		c0.4,0.2,0.8,0.3,1.2,0.5c0.1,0,0.2,0.1,0.4,0.2c0-1.7,0-3.3,0-5c0.1,0.1,0.3,0.2,0.4,0.2c0.5,0.2,0.9,0.5,1.4,0.7
		c0.3,0.2,0.6,0.3,0.9,0.5c0.6,0.3,1.1,0.6,1.7,1c0.6,0.3,1.2,0.6,1.7,1c0.6,0.3,1.1,0.6,1.7,1c0.6,0.3,1.1,0.6,1.7,0.9
		c0.5,0.3,0.9,0.5,1.4,0.8L87,953c0,1.8,0,3.5,0,5.3v0.1c-0.2-0.1-0.3-0.2-0.5-0.3c-0.3-0.2-0.7-0.4-1-0.7c-0.5-0.3-1-0.7-1.5-1
		s-0.9-0.6-1.4-0.9c-0.5-0.3-1-0.7-1.6-1c-0.5-0.3-1-0.6-1.5-1c-0.3-0.2-0.7-0.5-1-0.7l-0.1-0.1c0,1.8,0,3.5,0,5.3
		c-0.2-0.2-0.4-0.4-0.7-0.5c-0.5-0.4-0.9-0.8-1.4-1.1c-0.4-0.3-0.7-0.6-1.1-0.9c-0.4-0.3-0.8-0.7-1.2-1c-0.4-0.3-0.8-0.6-1.2-1
		c-0.4-0.3-0.7-0.6-1.1-0.9c-0.4-0.4-0.9-0.7-1.3-1.1c-0.3-0.3-0.7-0.6-1-0.8c-0.4-0.3-0.8-0.6-1.2-1c-0.4-0.3-0.7-0.6-1.1-0.9
		c-0.2-0.2-0.4-0.3-0.6-0.5C66.3,948,66.1,947.8,65.9,947.6L65.9,947.6z"/>
</g>
<rect x="133.7" y="939.3" class="st7" width="9.1" height="18.7"/>
<polygon class="st0" points="175.9,850.6 175.9,793.9 166.9,793.8 166.9,721.8 122.6,721.8 122.6,712.8 65.9,712.8 65.9,721.8 
	21.5,721.8 21.5,793.8 12.5,793.8 12.5,850.6 21.5,850.6 21.5,907.3 12.6,907.3 12.6,964 21.5,964 21.5,1038.6 65.9,1038.6 
	65.9,1047.6 122.6,1047.6 122.6,1038.6 166.9,1038.6 166.9,964 174.4,964 175.9,964 175.9,907.3 166.9,907.3 166.9,850.6 "/>
<circle class="st7" cx="340.7" cy="952.9" r="7.1"/>
<circle class="st7" cx="340.7" cy="916.1" r="7.1"/>
<g>
	<g>
		<path class="st6" d="M328.8,969.8c0,7.4,0,14.8,0,22.2c-16.1,0-32.3,0-48.4,0c0-16.7,0-33.5,0-50.2c16.1,0,32.3,0,48.4,0
			c0,9.2,0,18.5,0,27.7c-0.2-0.3-0.4-0.5-0.6-0.8c-0.7-0.8-1.3-1.7-2-2.5c-1.3-1.6-2.5-3.2-3.8-4.8c-0.4-0.5-0.9-0.5-1.3,0
			c-0.9,1.2-1.8,2.3-2.7,3.5c-1.1,1.4-2.3,2.9-3.4,4.3c-0.1,0.1-0.2,0.4-0.2,0.5s0.3,0.2,0.5,0.2c0.8,0,1.6,0,2.4,0
			c0.6,0,1.1,0,1.7,0c-0.3,1.5-0.7,2.9-1.2,4.2c-0.9,2.2-2.2,4.1-3.9,5.8c-0.7,0.7-1.4,1.3-2.2,1.9c-1.3,0.9-2.7,1.6-4.1,2.2
			c-1.3,0.5-2.7,0.8-4.1,0.9c-3.2,0.3-6.2-0.1-9.1-1.6c-0.3-0.1-0.5-0.2-0.8-0.4c-0.9-0.6-1.7-1.1-2.5-1.7c-0.7-0.6-1.4-1.2-2-1.9
			c-0.4-0.4-0.7-0.8-1.1-1.3c-1.1,0.9-2.2,1.8-3.3,2.7c1.1,1.1,2,2.2,3.1,3.2c0.9,0.8,1.9,1.5,2.8,2.1c1.5,1,3.1,1.7,4.8,2.2
			c2.1,0.7,4.3,1,6.5,1c2.6,0,5.1-0.4,7.5-1.4c1.4-0.6,2.8-1.2,4.1-2.1c1.3-0.9,2.5-1.8,3.5-2.9c1.1-1.2,2.1-2.4,3-3.8
			c1.5-2.3,2.4-4.7,3-7.3c0.1-0.6,0.3-1.3,0.4-2c1.5,0,2.9,0,4.3,0C328.3,970,328.5,969.9,328.8,969.8z M280.8,962.6
			c1.4,0.3,2.7,0.5,4,0.8c0.5-1.5,0.9-3,1.4-4.4c-1.2-0.6-2.4-1.2-3.7-1.9C281.8,958.9,281.2,960.7,280.8,962.6z M281.4,973.4
			c0.6,1.9,1.3,3.6,2.3,5.3c1.2-0.8,2.4-1.5,3.5-2.3c-0.7-1.3-1.3-2.5-1.7-3.8c-0.1-0.2-0.1-0.4-0.4-0.3
			C283.9,972.6,282.6,973,281.4,973.4z M290.1,953.6c-0.9-1-1.8-2-2.8-3.1c-1.4,1.3-2.5,2.8-3.5,4.4c1.2,0.8,2.3,1.5,3.4,2.3
			C288.2,956,289.2,954.8,290.1,953.6z M296.4,945.2c0.4,1.4,0.7,2.8,1.1,4.1h0.1c1.3-0.3,2.7-0.5,4.1-0.6c0.3,0,0.3-0.2,0.3-0.4
			c0-1.2,0-2.4,0-3.7c0-0.1,0-0.2,0-0.3C300,944.4,298.3,944.7,296.4,945.2z M289.3,948.8c0.8,1.2,1.7,2.3,2.4,3.4
			c1.3-0.8,2.6-1.5,3.9-2.2c-0.5-1.2-1-2.6-1.5-3.9C292.3,946.7,290.8,947.7,289.3,948.8z M280.8,970.9c1.4-0.3,2.7-0.5,4-0.7
			c-0.1-1.6-0.1-3.1-0.2-4.6c-1.3-0.1-2.7-0.2-4.1-0.3C280.3,967.1,280.5,969,280.8,970.9z"/>
	</g>
	<path d="M328.8,969.8c-0.2,0.1-0.5,0.1-0.7,0.1c-1.4,0-2.9,0-4.3,0c-0.1,0.7-0.2,1.3-0.4,2c-0.6,2.6-1.6,5.1-3,7.3
		c-0.9,1.4-1.9,2.6-3,3.8c-1.1,1.1-2.3,2-3.5,2.9c-1.3,0.9-2.6,1.5-4.1,2.1c-2.4,1-4.9,1.4-7.5,1.4c-2.2,0-4.4-0.3-6.5-1
		c-1.7-0.6-3.3-1.3-4.8-2.2c-1-0.6-2-1.3-2.8-2.1c-1.1-1-2-2.1-3.1-3.2c1.2-0.9,2.2-1.8,3.3-2.7c0.4,0.5,0.8,0.9,1.1,1.3
		c0.7,0.6,1.3,1.3,2,1.9c0.8,0.6,1.7,1.2,2.5,1.7c0.2,0.2,0.5,0.2,0.8,0.4c2.9,1.5,5.9,1.9,9.1,1.6c1.4-0.1,2.8-0.4,4.1-0.9
		c1.4-0.6,2.9-1.2,4.1-2.2c0.8-0.6,1.5-1.2,2.2-1.9c1.6-1.7,2.9-3.6,3.8-5.8c0.6-1.4,1-2.8,1.2-4.2c-0.6,0-1.2,0-1.7,0
		c-0.8,0-1.6,0-2.4,0c-0.2,0-0.4-0.1-0.5-0.2c-0.1-0.1,0.1-0.4,0.2-0.5c1.1-1.5,2.3-2.9,3.4-4.3c0.9-1.1,1.8-2.3,2.7-3.5
		c0.4-0.5,0.9-0.6,1.3,0c1.3,1.6,2.5,3.2,3.8,4.8c0.7,0.8,1.3,1.7,2,2.5c0.2,0.2,0.4,0.5,0.6,0.8
		C328.8,969.6,328.8,969.7,328.8,969.8z"/>
	<path d="M280.8,962.6c0.4-2,0.9-3.7,1.8-5.5c1.3,0.6,2.5,1.3,3.7,1.9c-0.5,1.5-0.9,2.9-1.4,4.4
		C283.6,963.2,282.2,962.9,280.8,962.6z"/>
	<path d="M281.4,973.4c1.3-0.4,2.5-0.8,3.7-1.2c0.3-0.1,0.4,0.1,0.4,0.3c0.4,1.3,1,2.5,1.7,3.8c-1.1,0.7-2.3,1.5-3.5,2.3
		C282.6,977,281.9,975.3,281.4,973.4z"/>
	<path d="M290.1,953.6c-1,1.2-1.9,2.4-2.9,3.6c-1.1-0.7-2.3-1.5-3.4-2.3c1-1.6,2.1-3.1,3.5-4.4C288.3,951.5,289.2,952.6,290.1,953.6
		z"/>
	<path d="M296.4,945.2c1.8-0.5,3.6-0.8,5.5-0.7c0,0.1,0,0.2,0,0.3c0,1.2,0,2.4,0,3.7c0,0.2,0,0.4-0.3,0.4c-1.4,0-2.7,0.2-4.1,0.6
		c0,0,0,0-0.1,0C297.2,948,296.8,946.6,296.4,945.2z"/>
	<path d="M289.3,948.8c1.5-1.1,3-2.1,4.8-2.8c0.5,1.3,1,2.7,1.5,3.9c-1.3,0.8-2.6,1.5-3.9,2.2C290.9,951.2,290.1,950,289.3,948.8z"
		/>
	<path d="M280.8,970.9c-0.3-1.9-0.5-3.8-0.3-5.7c1.4,0.1,2.8,0.2,4.1,0.3c0.1,1.5,0.1,3.1,0.2,4.6
		C283.5,970.4,282.2,970.6,280.8,970.9z"/>
	<circle class="st7" cx="301" cy="967" r="9.9"/>
</g>
<rect x="287" y="870" class="st7" width="26.6" height="60"/>
<polygon class="st0" points="314.9,815.3 262.3,815.3 262.3,846.3 271.3,846.3 271.3,903.1 262.3,903.1 262.3,965.1 271.3,965.1 
	271.3,1021.9 262.3,1021.9 262.3,1052.9 314.9,1052.9 314.9,1043.9 371.6,1043.9 371.6,1052.9 415.1,1052.9 415.1,1021.9 
	424.1,1021.9 424.1,965.1 415.1,965.1 415.1,903.1 424.1,903.1 424.1,846.3 415.1,846.3 415.1,815.3 371.6,815.3 371.6,824.3 
	314.9,824.3 "/>
<g>
	<path d="M364.6,909c-4.4,0-8,3.6-8,8s3.6,8,8,8s8-3.6,8-8S369,909,364.6,909z"/>
	<path class="st3" d="M364.6,909c-4.4,0-8,3.6-8,8s3.6,8,8,8s8-3.6,8-8S369,909,364.6,909z"/>
	<path class="st6" d="M368.8,914.7l0.7,0.2c0.2,0.5,0.3,0.9,0.4,1.1c0.1,0.3,0.1,0.6,0.1,1c0,0.6-0.1,1-0.4,1.4s-0.6,0.5-1.1,0.5
		c-0.2,0-0.3,0-0.5,0s-0.4-0.1-0.6-0.1l-2.1-0.6c-0.2-0.1-0.4-0.1-0.6-0.1s-0.3-0.1-0.5-0.1c-0.3,0-0.5,0.1-0.6,0.2
		c-0.1,0.1-0.2,0.3-0.2,0.6c0,0.2,0,0.3,0.1,0.5c0,0.2,0.1,0.3,0.1,0.4l-0.7-0.2c-0.2-0.4-0.3-0.8-0.4-1.1c-0.1-0.4-0.2-0.7-0.2-1
		c0-0.6,0.1-1,0.4-1.3s0.6-0.5,1.1-0.5c0.1,0,0.3,0,0.5,0s0.4,0.1,0.6,0.1l2.1,0.6c0.2,0,0.4,0.1,0.6,0.1s0.4,0.1,0.5,0.1
		c0.3,0,0.5-0.1,0.6-0.2s0.2-0.3,0.2-0.7c0-0.1,0-0.3-0.1-0.5C368.9,914.9,368.9,914.8,368.8,914.7z M360,914.6
		c0.4,0,0.7,0.1,0.9,0.4c0.3,0.3,0.4,0.6,0.4,1s-0.1,0.7-0.4,1s-0.6,0.4-0.9,0.4s-0.7-0.1-0.9-0.4c-0.3-0.3-0.4-0.6-0.4-1
		s0.1-0.7,0.4-1C359.3,914.7,359.6,914.6,360,914.6z"/>
	<path class="st6" d="M354.9,942.6c6.9,0,13.8,0,20.7,0c0,7.5,0,14.9,0,22.4c-6.9,0-13.8,0-20.7,0
		C354.9,957.5,354.9,950.1,354.9,942.6z M367.5,961.6L367.5,961.6c0.6,0,1.1,0,1.6,0h0.1c0.2-0.1,0.3-0.1,0.4-0.3
		c0.1-0.1,0.1-0.2,0.1-0.3s0.1-0.2,0.1-0.4c0-0.4,0-0.7,0-1.1c0-0.1,0-0.2,0.1-0.3c0.2-0.2,0.3-0.4,0.5-0.6c0.1-0.1,0.2-0.3,0.3-0.4
		c0.2-0.2,0.3-0.4,0.5-0.6c0.1-0.1,0.2-0.2,0.3-0.3c0.1-0.2,0.3-0.3,0.4-0.5c0.1-0.1,0.2-0.3,0.2-0.5c0-1.9,0-3.7,0-5.6
		c0-0.1,0-0.3,0-0.4l-0.1-0.2c-0.1-0.1-0.2-0.2-0.3-0.3c-0.1-0.1-0.2-0.2-0.3-0.3c-0.2-0.2-0.4-0.5-0.7-0.7
		c-0.1-0.1-0.2-0.2-0.3-0.3c-0.2-0.2-0.3-0.4-0.5-0.6c-0.1-0.1-0.2-0.2-0.3-0.3c-0.2-0.2-0.3-0.4-0.5-0.6s-0.4-0.4-0.6-0.6
		c-0.1-0.1-0.2-0.2-0.4-0.2c-0.2,0-0.4,0-0.6,0h-0.1c0-0.3,0-0.6,0-0.8h0.1c0.5,0,0.9,0,1.4,0c0.2,0,0.3,0,0.5-0.1l0.1-0.1
		c0.1-0.2,0.2-0.3,0.2-0.5c0-0.3,0-0.7,0-1c0-0.2-0.1-0.4-0.3-0.6c-0.1-0.1-0.3-0.2-0.5-0.2c-1.8,0-3.6,0-5.4,0h-0.2
		c-0.3,0.1-0.4,0.3-0.5,0.5c0,0.1-0.1,0.2-0.1,0.3c0,0.3,0,0.6,0,0.9v0.1c0,0.1,0.1,0.3,0.2,0.4s0.2,0.2,0.4,0.2h0.3
		c0.5,0,0.9,0,1.4,0h0.1c0,0.3,0,0.6,0,0.8H365c-1.2,0-2.5,0-3.7,0h-0.2c-0.2,0.1-0.4,0.2-0.5,0.4c-0.1,0.1-0.1,0.3-0.1,0.4
		c0,3.1,0,6.3,0,9.4v0.1c0,0.1,0.1,0.2,0.1,0.3c0.1,0.2,0.2,0.3,0.3,0.4c0.2,0.2,0.3,0.3,0.5,0.5s0.3,0.3,0.5,0.5s0.3,0.3,0.5,0.5
		c0.1,0.2,0.3,0.3,0.4,0.5l0.1,0.1c0,0.5,0,0.9,0,1.4c0,0.1,0,0.3,0.1,0.4l0.1,0.2c0.1,0.2,0.2,0.2,0.4,0.2c0.5,0,1,0,1.6,0h0.1
		c0,0.3,0,0.6,0,0.8h-0.1c-0.5,0-0.9,0-1.4,0c-0.2,0-0.3,0.1-0.5,0.2c-0.1,0.1-0.2,0.2-0.2,0.3c-0.1,0.1-0.1,0.3-0.1,0.5
		c0,0.3,0,0.5,0,0.8v0.2c0,0.2,0.1,0.3,0.3,0.4c0.1,0.1,0.3,0.2,0.5,0.2c1.8,0,3.7,0,5.5,0c0.2,0,0.3-0.1,0.5-0.2
		c0.2-0.2,0.3-0.4,0.3-0.7s0-0.5,0-0.8c0-0.2-0.1-0.4-0.3-0.6c-0.1-0.1-0.3-0.2-0.5-0.2c-0.5,0-1,0-1.5,0h-0.1
		C367.5,962.2,367.5,961.9,367.5,961.6z M358.8,951.4L358.8,951.4c0-0.6,0-1.1,0-1.7v-0.2c0-0.2-0.2-0.4-0.3-0.6
		c-0.1-0.1-0.3-0.1-0.4-0.1c-0.3,0-0.5,0-0.8,0c-0.2,0-0.4,0-0.5,0.2c-0.2,0.2-0.3,0.4-0.3,0.6c0,2,0,3.9,0,5.9
		c0,0.3,0.1,0.5,0.3,0.6c0.1,0.1,0.3,0.2,0.5,0.2c0.3,0,0.5,0,0.8,0h0.1c0.2,0,0.3-0.1,0.4-0.3c0.1-0.1,0.2-0.3,0.2-0.5
		c0-0.5,0-1.1,0-1.6v-0.1c0.3,0,0.5,0,0.8,0c0-0.9,0-1.7,0-2.5C359.3,951.4,359.1,951.4,358.8,951.4z"/>
	<path d="M367.5,961.6c0,0.3,0,0.6,0,0.8h0.1c0.5,0,1,0,1.5,0c0.2,0,0.4,0.1,0.5,0.2c0.2,0.2,0.3,0.4,0.3,0.6c0,0.3,0,0.5,0,0.8
		s-0.1,0.5-0.3,0.7c-0.1,0.1-0.3,0.2-0.5,0.2c-1.8,0-3.7,0-5.5,0c-0.2,0-0.3-0.1-0.5-0.2c-0.1-0.1-0.2-0.3-0.3-0.4v-0.2
		c0-0.3,0-0.5,0-0.8c0-0.2,0-0.3,0.1-0.5c0.1-0.1,0.1-0.2,0.2-0.3s0.3-0.2,0.5-0.2c0.5,0,0.9,0,1.4,0h0.1c0-0.3,0-0.6,0-0.8H365
		c-0.5,0-1,0-1.6,0c-0.2,0-0.3-0.1-0.4-0.2l-0.1-0.2c-0.1-0.1-0.1-0.2-0.1-0.4c0-0.5,0-0.9,0-1.4l-0.1-0.1c-0.1-0.2-0.3-0.3-0.4-0.5
		c-0.2-0.2-0.3-0.3-0.5-0.5s-0.3-0.3-0.5-0.5s-0.3-0.3-0.5-0.5c-0.1-0.1-0.2-0.2-0.3-0.4c0-0.1-0.1-0.2-0.1-0.3v-0.1
		c0-3.1,0-6.3,0-9.4c0-0.2,0-0.3,0.1-0.4c0.1-0.2,0.3-0.3,0.5-0.4h0.2c1.2,0,2.5,0,3.7,0h0.1c0-0.3,0-0.5,0-0.8h-0.1
		c-0.5,0-0.9,0-1.4,0h-0.3c-0.1,0-0.3-0.1-0.4-0.2c-0.1-0.1-0.2-0.2-0.2-0.4v-0.1c0-0.3,0-0.6,0-0.9c0-0.1,0-0.2,0.1-0.3
		c0.1-0.2,0.3-0.4,0.5-0.5h0.2c1.8,0,3.6,0,5.4,0c0.2,0,0.3,0.1,0.5,0.2s0.3,0.3,0.3,0.6s0,0.7,0,1c0,0.2-0.1,0.4-0.2,0.5l-0.1,0.1
		c-0.1,0.1-0.3,0.1-0.5,0.1c-0.5,0-0.9,0-1.4,0h-0.1c0,0.3,0,0.6,0,0.8h0.1c0.2,0,0.4,0,0.6,0s0.3,0,0.4,0.2
		c0.2,0.2,0.4,0.4,0.6,0.6c0.2,0.2,0.3,0.4,0.5,0.6c0.1,0.1,0.2,0.2,0.3,0.3c0.2,0.2,0.3,0.4,0.5,0.6c0.1,0.1,0.2,0.2,0.3,0.3
		c0.2,0.2,0.4,0.5,0.7,0.7c0.1,0.1,0.2,0.2,0.3,0.3c0.1,0.1,0.2,0.2,0.3,0.3l0.1,0.2c0,0.1,0,0.3,0,0.4c0,1.9,0,3.7,0,5.6
		c0,0.2-0.1,0.4-0.2,0.5c-0.1,0.2-0.3,0.3-0.4,0.5c-0.1,0.1-0.2,0.2-0.3,0.3c-0.2,0.2-0.3,0.4-0.5,0.6c-0.1,0.1-0.2,0.3-0.3,0.4
		c-0.2,0.2-0.3,0.4-0.5,0.6c-0.1,0.1-0.1,0.2-0.1,0.3c0,0.4,0,0.7,0,1.1c0,0.1,0,0.2-0.1,0.4c0,0.1-0.1,0.2-0.1,0.3
		c-0.1,0.2-0.3,0.2-0.4,0.3H369C368.6,961.6,368.1,961.6,367.5,961.6L367.5,961.6z M370.4,955.1L370.4,955.1l-0.2-0.2l-0.2-0.2
		c-0.1-0.1-0.3-0.2-0.4-0.3s-0.3-0.2-0.4-0.3s-0.2-0.2-0.4-0.3c-0.2-0.1-0.3-0.3-0.5-0.4c-0.1-0.1-0.3-0.2-0.4-0.3s-0.3-0.2-0.4-0.3
		s-0.3-0.2-0.4-0.4c-0.1-0.1-0.3-0.2-0.4-0.3c-0.2-0.1-0.3-0.3-0.5-0.4l-0.2-0.2c0,0.7,0,1.3,0,1.9h-0.1c-0.1-0.1-0.2-0.2-0.4-0.2
		c-0.2-0.1-0.4-0.2-0.5-0.3c-0.2-0.1-0.4-0.2-0.6-0.4c-0.2-0.1-0.3-0.2-0.5-0.3s-0.4-0.2-0.6-0.4c-0.1-0.1-0.3-0.2-0.4-0.2l-0.2-0.1
		l0,0c0,0.6,0,1.3,0,1.9v0.1c0.2,0.1,0.3,0.2,0.5,0.3s0.4,0.2,0.6,0.3s0.4,0.2,0.6,0.4c0.2,0.1,0.4,0.2,0.6,0.3s0.4,0.2,0.6,0.3
		c0.1,0.1,0.2,0.1,0.3,0.2c0.2,0.1,0.3,0.2,0.5,0.3l0.1,0.1c0-0.6,0-1.2,0-1.8l0.1,0.1c0.1,0.1,0.3,0.1,0.4,0.2
		c0.1,0.1,0.3,0.1,0.4,0.2s0.3,0.1,0.4,0.2c0.2,0.1,0.3,0.1,0.5,0.2c0.1,0.1,0.3,0.1,0.4,0.2c0.1,0.1,0.3,0.1,0.4,0.2
		c0.2,0.1,0.3,0.1,0.5,0.2l0.2,0.1L370.4,955.1z"/>
	<path d="M358.8,951.4c0.3,0,0.5,0,0.8,0c0,0.8,0,1.7,0,2.5c-0.3,0-0.5,0-0.8,0v0.1c0,0.5,0,1.1,0,1.6c0,0.2-0.1,0.3-0.2,0.5
		c-0.1,0.1-0.3,0.2-0.4,0.3h-0.1c-0.3,0-0.5,0-0.8,0c-0.2,0-0.4-0.1-0.5-0.2c-0.2-0.2-0.3-0.4-0.3-0.6c0-2,0-3.9,0-5.9
		c0-0.3,0.1-0.5,0.3-0.6c0.1-0.1,0.3-0.2,0.5-0.2c0.3,0,0.5,0,0.8,0c0.1,0,0.3,0,0.4,0.1c0.2,0.1,0.3,0.3,0.3,0.6v0.2
		C358.8,950.3,358.8,950.8,358.8,951.4L358.8,951.4z"/>
	<path class="st6" d="M370.4,955.1l-0.2-0.1l-0.2-0.1c-0.2-0.1-0.3-0.1-0.5-0.2c-0.1-0.1-0.3-0.1-0.4-0.2c-0.1-0.1-0.3-0.1-0.4-0.2
		c-0.2-0.1-0.3-0.1-0.5-0.2c-0.1-0.1-0.3-0.1-0.4-0.2s-0.3-0.1-0.4-0.2c-0.1-0.1-0.3-0.1-0.4-0.2l-0.1-0.1c0,0.6,0,1.2,0,1.8
		l-0.1-0.1c-0.2-0.1-0.3-0.2-0.5-0.3c-0.1-0.1-0.2-0.1-0.3-0.2c-0.2-0.1-0.4-0.2-0.6-0.3s-0.4-0.2-0.6-0.3s-0.4-0.2-0.6-0.4
		c-0.2-0.1-0.4-0.2-0.6-0.3s-0.3-0.2-0.5-0.3v-0.1c0-0.6,0-1.3,0-1.9l0,0l0.2,0.1c0.1,0.1,0.3,0.2,0.4,0.2c0.2,0.1,0.4,0.2,0.6,0.4
		c0.2,0.1,0.3,0.2,0.5,0.3s0.4,0.2,0.6,0.4c0.2,0.1,0.4,0.2,0.5,0.3s0.2,0.2,0.4,0.2h0.1c0-0.6,0-1.3,0-1.9l0.2,0.2
		c0.2,0.1,0.3,0.3,0.5,0.4c0.1,0.1,0.3,0.2,0.4,0.3s0.3,0.2,0.4,0.4c0.1,0.1,0.3,0.2,0.4,0.3s0.3,0.2,0.4,0.3
		c0.2,0.1,0.3,0.3,0.5,0.4c0.1,0.1,0.2,0.2,0.4,0.3c0.1,0.1,0.3,0.2,0.4,0.3s0.3,0.2,0.4,0.3l0.2,0.2L370.4,955.1L370.4,955.1z"/>
</g>
<ellipse transform="matrix(3.328102e-02 -0.9994 0.9994 3.328102e-02 -460.9184 650.8301)" class="st5" cx="106" cy="563.7" rx="18.4" ry="18.4"/>
<ellipse transform="matrix(3.328102e-02 -0.9994 0.9994 3.328102e-02 -390.2546 582.4928)" class="st5" cx="106" cy="493" rx="18.4" ry="18.4"/>
<circle class="st7" cx="106.1" cy="351.5" r="18.4"/>
<circle class="st7" cx="106.1" cy="422.2" r="18.4"/>
<polygon class="st0" points="216.9,423.4 216.9,366.7 207.9,366.7 207.9,294.7 163.6,294.7 163.6,285.7 106.8,285.7 106.8,294.7 
	62.5,294.7 62.5,366.7 53.5,366.7 53.5,423.4 62.5,423.4 62.5,480.1 53.6,480.1 53.6,536.9 62.5,536.9 62.5,611.5 106.8,611.5 
	106.8,620.5 163.6,620.5 163.6,611.5 207.9,611.5 207.9,536.9 215.4,536.9 216.9,536.9 216.9,480.1 207.9,480.1 207.9,423.4 "/>
<g>
	<path class="st6" d="M147.2,398.6c14.7,0,29.4,0,44.1,0c0,15.7,0,31.4,0,47.1c-14.7,0-29.4,0-44.1,0
		C147.2,430,147.2,414.3,147.2,398.6z M152.4,428.2v0.1v0.2c-0.1,0.9,0.1,1.7,0.6,2.4c0.4,0.5,0.7,1.1,1.1,1.6c1,1,2,2.1,3.5,2.3
		c0.1,0,0.3,0.1,0.3,0.2c0.2,0.8,0.8,1.3,1.4,1.7c1.2,0.8,2.6,1.3,4,1.7c0.6,0.2,1.1,0.3,1.7,0.5c1.2,0.5,2.4,0.5,3.6,0
		c0.3-0.1,0.4-0.1,0.7,0.1c0.3,0.3,0.8,0.5,1.2,0.6c0.8,0.1,1.6,0.1,2.4,0c0.8,0,1.4-0.3,1.9-1c0.2-0.3,0.3-0.2,0.5-0.1
		c1.3,0.6,3.2-0.1,3.8-1c0.3-0.5,0.6-1,1.4-0.8c0.2,0,0.4-0.1,0.6-0.2c0.3-0.2,0.6-0.4,0.9-0.7c1-1.2,2.1-2.4,3.1-3.6
		c0.9-1,1.2-2.3,1.1-3.6c0-0.3,0.1-0.4,0.3-0.5c0.4-0.2,0.8-0.4,1.1-0.7c1-1.3,1.1-3.6,0.2-5c-0.1-0.2-0.1-0.4,0-0.6
		c0.2-0.3,0.4-0.7,0.4-1.1c0.3-1.5,0-2.9-0.7-4.3c-0.3-0.6-0.6-1.2-1.2-1.5c-0.3-0.1-0.3-0.3-0.3-0.5c-0.1-1.6-0.7-3-2.1-3.9
		c-0.2-0.2-0.5-0.3-0.6-0.5c-0.2-0.3-0.3-0.6-0.5-0.9c-0.7-1-1.5-1.7-2.7-2c-0.2-0.1-0.4-0.2-0.6-0.4c-0.5-0.4-1-0.9-1.5-1.2
		c-0.7-0.4-1.4-0.7-2.2-0.3l-0.3-0.1c-0.3-0.1-0.5-0.3-0.7-0.4c-1.3-0.4-2.7-0.6-4.1-0.6c-0.4,0-0.8,0.2-1.3,0.3c-0.1,0-0.3,0-0.4,0
		c-1,0-2-0.1-3-0.1c-0.7,0-1.3,0.3-1.8,0.9c-0.1,0.2-0.4,0.3-0.6,0.3c-1.1-0.1-2.2,0.2-3.2,0.7c-1.2,0.6-2.2,1.3-3.4,1.9
		c-0.7,0.4-1.1,1-1.4,1.7c-0.1,0.2-0.3,0.4-0.5,0.6c-0.5,0.3-1,0.7-1.2,1.3c-0.3,0.7-0.8,1.3-1.4,1.8c-0.7,0.6-1.1,1.3-1.2,2.2
		c0,0.4-0.1,0.8-0.4,1.1c-1.1,1.4-0.7,3.8,0.7,4.9c0.2,0.1,0.2,0.2,0.1,0.4c-1.1,1.1-1.3,2.5-1,4C150.9,427.1,151.4,428,152.4,428.2
		z"/>
	<path d="M152.4,428.2c-1.2-0.2-1.5-1.1-1.7-2.1c-0.3-1.5-0.1-2.8,1-4c0.2-0.2,0.1-0.3-0.1-0.4c-1.4-1.1-1.8-3.6-0.7-4.9
		c0.3-0.3,0.3-0.7,0.4-1.1c0.1-0.9,0.5-1.6,1.2-2.2c0.6-0.5,1.1-1.1,1.4-1.8c0.2-0.6,0.7-0.9,1.2-1.3c0.2-0.1,0.4-0.4,0.5-0.6
		c0.3-0.7,0.8-1.3,1.4-1.7c1.1-0.7,2.2-1.4,3.4-1.9c1-0.5,2.1-0.8,3.2-0.7c0.2,0,0.5-0.1,0.6-0.3c0.4-0.6,1.1-0.9,1.8-0.9
		c1,0,2,0.1,3,0.1c0.1,0,0.3,0,0.4,0c0.4-0.1,0.8-0.3,1.3-0.3c1.4,0,2.8,0.1,4.1,0.6c0.3,0.1,0.5,0.3,0.7,0.4l0.3,0.1
		c0.8-0.4,1.5-0.1,2.2,0.3c0.6,0.3,1,0.8,1.5,1.2c0.2,0.1,0.4,0.3,0.6,0.4c1.2,0.3,2,1.1,2.7,2c0.2,0.3,0.3,0.6,0.5,0.9
		c0.2,0.2,0.4,0.4,0.6,0.5c1.4,0.9,2,2.3,2.1,3.9c0,0.2,0.1,0.4,0.3,0.5c0.6,0.3,0.9,0.9,1.2,1.5c0.6,1.4,1,2.8,0.7,4.3
		c-0.1,0.4-0.3,0.7-0.4,1.1c-0.1,0.2-0.1,0.4,0,0.6c0.9,1.4,0.8,3.8-0.2,5c-0.3,0.3-0.7,0.5-1.1,0.7c-0.2,0.1-0.3,0.2-0.3,0.5
		c0.1,1.4-0.3,2.6-1.1,3.6c-1,1.2-2,2.4-3.1,3.6c-0.2,0.3-0.5,0.5-0.9,0.7c-0.2,0.1-0.4,0.3-0.6,0.2c-0.8-0.2-1.1,0.4-1.4,0.8
		c-0.6,0.9-2.5,1.6-3.8,1c-0.2-0.1-0.4-0.1-0.5,0.1c-0.4,0.7-1.1,1-1.9,1s-1.6,0.1-2.4,0c-0.4,0-0.9-0.3-1.2-0.6s-0.4-0.2-0.7-0.1
		c-1.2,0.5-2.4,0.5-3.6,0c-0.5-0.2-1.1-0.4-1.7-0.5c-1.4-0.4-2.8-0.9-4-1.7c-0.6-0.4-1.1-0.9-1.4-1.7c0-0.1-0.2-0.2-0.3-0.2
		c-1.5-0.2-2.6-1.2-3.5-2.3c-0.4-0.5-0.8-1-1.1-1.6c-0.5-0.7-0.7-1.5-0.6-2.4v-0.2L152.4,428.2z M179.8,414.5
		c0.4-0.2,0.8-0.3,1.1-0.4c0.2-0.1,0.5-0.1,0.6,0c0.3,0.2,0.5,0.4,0.4,0.8c-0.1,0.3-0.3,0.6-0.6,0.7c-0.5,0.1-0.9,0.3-1.4,0.4
		c-0.3,0.1-0.5,0.3-0.6,0.6c-0.1,0.3-0.3,0.6-0.5,0.9s-0.5,0.4-0.9,0.3c-0.3-0.1-0.5-0.5-0.4-0.9c0.1-0.2,0.1-0.4,0.2-0.5
		c0.4-0.7,0.5-1.4,0.5-2.2c0-0.6,0-1.2,0-1.7c0-0.3,0-0.5,0-0.9c-0.3,0.2-0.6,0.4-0.9,0.6c-0.2,0.1-0.4,0.2-0.6,0.2
		c-0.5,0-1,0-1.5,0c-0.4,0-0.7-0.3-0.7-0.8s0.3-0.8,0.9-0.8c0.7,0,1.3,0,1.9-0.5c0.2-0.2,0.5-0.3,0.7-0.5c0.1-0.1,0.3-0.3,0.3-0.5
		c0-0.6,0-1.3,0-1.9c0-0.1,0-0.3-0.1-0.3c-0.4-0.5-1.4-0.8-1.9-0.5c-0.6,0.3-1.3,0.7-1.9,1c-0.4,0.2-0.8,0.2-1-0.1
		c-0.3-0.5-0.3-0.9,0.1-1.2c0.2-0.2,0.4-0.3,0.7-0.5c-0.2,0-0.3-0.1-0.4-0.1c-0.9-0.1-1.7-0.2-2.6-0.3c-0.5-0.1-0.9,0.1-1.3,0.4
		c-0.1,0.1-0.4,0.1-0.5,0.1c-1.1-0.4-2.1-0.4-3.2-0.3c-0.1,0-0.3,0.1-0.4,0.1c-0.4,0.2-0.4,0.4-0.2,0.7c0.3,0.5,0.6,1,0.9,1.4
		c0.2,0.4,0.1,0.9-0.2,1.1s-0.8,0.1-1-0.2c-0.3-0.4-0.6-0.9-0.8-1.3c-0.4-0.6-0.8-0.8-1.5-0.7c-1.2,0.2-2.2,0.8-3.2,1.3
		c-0.1,0-0.1,0.1-0.2,0.2c0.2,0.1,0.3,0.1,0.4,0.2c0.6,0.4,1.3,0.7,1.7,1.4c0.6,1,1.3,1.9,2,2.8c0.2-0.2,0.4-0.4,0.7-0.5
		c0.5-0.1,1.1-0.1,1.7,0c0.2,0,0.4,0.2,0.5,0.4c0.3,0.6,0,1.1-0.7,1.1c-0.5,0-1.1,0-1.7,0c0.1,0.2,0.1,0.3,0.2,0.4
		c0.2,0.5,0.5,1.1,0.7,1.6c0.2,0.3,0.1,0.7-0.1,1s-0.5,0.5-0.8,0.8c-0.3,0.2-0.6,0.3-0.9,0.1c-0.3-0.2-0.4-0.5-0.3-0.9
		c0.1-0.2,0.2-0.3,0.3-0.5c0.1-0.1,0.1-0.3,0.1-0.3c-0.4-0.9-0.8-1.7-1.2-2.5c-0.5-0.8-1-1.5-1.6-2.2c-0.2-0.3-0.4-0.6-0.6-0.7
		c-0.6-0.4-1.3-0.7-1.9-1c-0.1,0-0.3,0-0.4,0.1c-0.5,0.3-0.6,0.8-0.7,1.3c-0.1,0.4-0.3,0.6-0.7,0.7c-0.5,0.1-0.9,0.4-1.1,0.9
		c-0.1,0.3-0.2,0.6-0.3,0.9c-0.1,0.2-0.2,0.3-0.3,0.4c-0.6,0.3-1.1,0.7-1.4,1.3c-0.1,0.1-0.1,0.3-0.2,0.5c0.2,0,0.4,0,0.6,0
		s0.4,0,0.6,0c0.4,0,0.7,0.3,0.7,0.7c0,0.5-0.3,0.8-0.7,0.8c-0.3,0-0.6,0-0.9,0c-0.5,0-1,0.4-1.2,0.9c-0.4,1.2,0.2,2,0.9,2.7
		c0.3,0.2,0.6,0.3,0.9,0.1c0.8-0.4,1.6-0.5,2.4-0.4c0.1,0,0.2,0,0.3-0.1c0.6-0.9,1.4-1.8,1.2-3c0-0.2,0-0.5,0-0.7
		c0-0.4-0.1-0.8-0.4-1c-0.1-0.1-0.2-0.3-0.3-0.5c-0.1-0.3,0-0.7,0.4-1c0.3-0.2,0.5-0.1,0.8,0.2c0.2,0.2,0.3,0.4,0.5,0.5
		c0.4,0.3,0.5,0.6,0.5,1.1c0,0.8,0,1.6,0,2.4c0,0.6-0.2,1-0.5,1.5c-0.3,0.4-0.6,0.9-0.8,1.3l0.1,0.1c0.5,0.5,1.2,0.4,1.8,0.2
		c0.9-0.2,1.8-0.4,2.8-0.1c0.1,0,0.2,0,0.3,0c1.2-0.2,2.4-0.4,3.6-0.6c0-0.1,0-0.2,0-0.4c0-0.6,0-1.1,0-1.7c0-0.4,0.4-0.7,0.7-0.7
		s0.7,0.4,0.7,0.7c0,0.1,0,0.2,0,0.3c0,0.7,0,1.3,0,2c0,0.4,0.1,0.5,0.5,0.7c1.3,0.4,2.5,0.3,3.7-0.3c0.4-0.2,0.9-0.3,1.3-0.3
		c0.3,0,0.4-0.1,0.4-0.4c0-0.9,0-1.7,0-2.6c0-0.6-0.2-0.9-0.8-1c-0.7-0.1-1.4-0.2-2.1-0.3c0,0.1,0,0.2,0,0.2c0,0.6-0.3,0.9-0.7,0.9
		c-0.5,0-0.7-0.3-0.7-1c0-1,0-2,0-3.1c0-0.5,0-0.9,0-1.4c-0.3,0-0.5,0-0.7,0c-0.4,0-0.7-0.3-0.7-0.7s0.2-0.7,0.7-0.8
		c0.2,0,0.5,0,0.7,0c0.3,0,0.4-0.1,0.5-0.3c0.1-0.3,0.2-0.6,0.4-0.9s0.5-0.4,0.8-0.3c0.3,0.1,0.5,0.3,0.5,0.6c0,0.2-0.1,0.5-0.2,0.7
		c-0.4,0.7-0.6,1.4-0.5,2.3c0,0.5,0,1,0,1.5s0.1,0.6,0.6,0.7c0.6,0.1,1.2,0.2,1.8,0.3c0.7,0.1,1.4,0.3,1.7,1
		c0.2,0.4,0.3,0.9,0.3,1.4c0.1,0.9,0,1.7,0,2.6c0,0.1,0,0.3,0,0.4c1.6,0,3.2,0,4.3,1.6c0.5-1,1.3-1.3,2.2-1.6
		c-0.2-0.4-0.4-0.7-0.5-1.1c-0.2-0.5,0-0.9,0.4-1.1s0.8,0,1,0.5s0.4,0.9,0.6,1.3c0.9,0.1,1.8,0.1,2.6,0.3c0.8,0.2,0.8,0,1-0.6
		c0-0.1,0.1-0.2,0.1-0.4c0.1-1.3-0.2-2.4-0.8-3.5c-0.1-0.2-0.2-0.2-0.4-0.1c-0.4,0.3-0.9,0.5-1.3,0.7c-0.4,0.2-0.8,0.1-1-0.3
		c-0.2-0.4-0.1-0.8,0.3-1.1c0.2-0.1,0.3-0.1,0.5-0.3c0.2-0.1,0.5-0.3,0.5-0.5c0.2-1.2-0.3-2.7-1.5-3.4c-0.5-0.3-1-0.5-1.1-1.1
		c-0.1-0.8-0.7-1.2-1.3-1.7c-0.3-0.2-0.7-0.3-1.1-0.5C179.8,410.4,179.8,412.4,179.8,414.5z M169.4,429.6c0.3,0,0.4,0,0.6,0
		c0.5,0,0.9,0.4,0.9,0.8c0,0.4-0.4,0.8-0.9,0.8c-0.3,0-0.7,0-1,0c-0.9,0-1.3-0.4-1.1-1.3c0.1-0.8,0.4-1.5,0.5-2.3
		c0.1-0.4,0.3-0.9,0.3-1.3c0-0.9,0-1.9,0-2.8c0-0.3-0.1-0.4-0.4-0.5c-0.6-0.2-1.1-0.4-1.6-0.6c-0.4-0.1-0.7-0.2-1.1-0.2
		c-0.7,0.1-1.4,0.3-2.1,0.4c-0.4,0.1-0.8,0.2-1.1,0.1c-0.8-0.3-1.6-0.1-2.4,0.1c0,0.2,0,0.3,0,0.5c0,1,0,2.1,0,3.1
		c0,0.3,0.1,0.6,0.3,0.8c0.3,0.3,0.6,0.6,0.9,0.9s0.3,0.9,0,1.1c-0.3,0.3-0.7,0.3-1.1-0.1c-0.3-0.3-0.5-0.6-0.9-1
		c-0.4,0.4-0.6,0.7-0.9,1c-0.3,0.4-0.8,0.4-1.1,0.1s-0.3-0.8,0-1.2c0.2-0.2,0.4-0.4,0.6-0.6c0.5-0.4,0.6-0.9,0.6-1.5
		c0-0.9,0-1.9,0-2.8c0-0.3-0.1-0.4-0.4-0.5c-0.3-0.1-0.6-0.3-0.9-0.5c-0.4-0.2-0.9-0.4-1.3-0.4c-0.6,0-1.3,0.2-1.9,0.4
		c-1.7,0.6-2.1,2.3-1.7,3.7c0.2,0.5,0.5,0.6,0.9,0.3c0.6-0.4,1.2-0.9,1.9-1.3c0.3-0.2,0.6-0.2,0.9,0s0.4,0.5,0.3,0.8
		c-0.1,0.2-0.2,0.4-0.3,0.5c-0.5,0.4-1,0.7-1.5,1.1c-0.1,0.1-0.2,0.2-0.3,0.3c-0.1,0.6-0.3,1.2,0,1.8c0.3,0.5,0.6,1,1,1.5
		c0.6,0.8,1.3,1.5,2.3,1.9c0.2,0.1,0.4,0.1,0.5,0.1c0.4-0.2,0.8-0.4,1.2-0.7c0.3-0.2,0.7-0.4,1-0.4c1-0.2,2-0.2,3,0.1
		c0.1,0,0.3,0,0.5,0.1c0-0.2,0-0.3,0-0.5c0-1.3,0-2.7,0-4c0-0.3,0.1-0.6,0.2-0.8c0.2-0.3,0.5-0.5,0.8-0.8s0.6-0.3,0.9,0
		s0.4,0.6,0.2,0.9c-0.1,0.2-0.3,0.4-0.4,0.6c-0.1,0.2-0.2,0.4-0.2,0.5c0,1.1,0,2.3,0,3.4c0,0.2,0.1,0.4,0.2,0.5
		c0.3,0.4,0.7,0.7,1,1.1c0.3,0.3,0.3,0.8,0,1.1s-0.7,0.3-1,0s-0.6-0.6-0.8-0.9c-0.1-0.1-0.2-0.2-0.3-0.2c-1.2,0.1-2.4,0.2-3.5,0.4
		c-0.4,0.1-0.7,0.3-1,0.5v0.3c0.3,0.4,0.5,0.8,0.8,1c0.8,0.5,1.7,0.9,2.5,1.2c0.9,0.4,1.9,0.6,2.9,0.9c0.8,0.3,1.7,0.3,2.5,0
		c0.3-0.1,0.4-0.2,0.3-0.5c-0.2-0.4-0.3-0.9-0.4-1.4c-0.2-0.6,0.1-1,0.7-1.1c0.5,0,1,0,1.5,0s0.7,0.3,0.7,0.8c0,0.4-0.2,0.7-0.7,0.8
		c-0.1,0-0.3,0-0.5,0c0.2,0.6,0.3,1.1,0.5,1.6c0.1,0.2,0.4,0.3,0.6,0.4c0.7,0,1.4,0,2.1,0c0.4,0,0.7-0.2,1-0.6
		c0.7-1.2,0.8-1.2,1.9-0.5l0,0c0.7,0.4,1.9,0.1,2.4-0.5c0.5-0.7,0.9-1.4,0.7-2.3c0-0.2,0-0.4,0-0.6c0-0.6-0.1-1.2-0.5-1.6
		c-0.3-0.4-0.3-0.9,0.1-1.2c0.4-0.3,0.8-0.1,1.1,0.3c0.4,0.7,0.7,1.4,0.7,2.2c0,0.5,0,1,0,1.5c0,0.1,0,0.3,0,0.5
		c1.3-1,2.3-2.3,3.3-3.6c0.3-0.4,0.5-0.8,0.8-1.2c0.6-1.3,0.4-2.7-0.6-3.7c-0.1-0.1-0.2-0.2-0.3-0.3c-0.3-0.3-0.3-0.8,0-1.1
		s0.7-0.3,1.1,0.1c0.3,0.4,0.7,0.7,1,1.1l0.3,0.1c0.4-0.1,0.7-0.3,0.9-0.7c0.3-0.9,0.3-1.8-0.1-2.7c-0.1-0.2-0.2-0.3-0.4-0.4
		c-1.7-0.7-3.4-0.7-5.1,0.1c-0.6,0.3-0.9,0.8-0.9,1.6c0,0.6,0.1,1.2,0,1.8s0.2,0.9,0.7,1.2c0.4,0.3,0.8,0.5,1.2,0.8
		c0.3,0.2,0.4,0.8,0.2,1.1s-0.7,0.4-1,0.2c-0.5-0.4-1-0.8-1.6-1.1c-0.2-0.1-0.4-0.3-0.6-0.3c-0.7,0.1-1.3-0.1-1.9-0.3
		c-0.7-0.2-1.3-0.5-2.1-0.8c0,0.2-0.1,0.4-0.1,0.5c0,1.2,0,2.5,0,3.7c0,0.8,0.1,1.3,0.9,1.5c0.6,0.2,0.7,0.7,0.5,1.1
		c-0.2,0.4-0.6,0.5-1.1,0.2c-0.8-0.4-1.5-0.8-2.4-0.6h-0.1c-0.5-0.1-0.8-0.5-0.6-1c0.1-0.5,0.3-0.6,1-0.6c0.3,0,0.4-0.1,0.4-0.4
		c0-1.4,0-2.9,0-4.3c0-0.3,0-0.6,0.1-0.8c0.1-0.4,0.3-0.8,0.8-0.9c0.6-0.2,1.3-0.1,1.9,0.2c0.6,0.3,1.3,0.5,2,0.7
		c0.2,0.1,0.4,0.1,0.4-0.2c0-1,0.2-2-0.6-2.9c-0.4-0.5-0.9-0.9-1.5-0.9c-1.3,0-2.5,0-3.8,0c-0.1,0-0.2,0.1-0.3,0.1
		c-0.6,0.2-1.2,0.5-1.8,0.7c-0.3,0.1-0.7,0-0.8,0.2s-0.1,0.6-0.1,0.9c0,1.3,0.1,2.6-0.4,3.8C169.6,428.7,169.4,429.1,169.4,429.6z"
		/>
	<path class="st6" d="M179.8,414.5c0-2.1,0-4.1,0-6.2c0.4,0.2,0.8,0.3,1.1,0.5c0.6,0.4,1.1,0.9,1.3,1.7c0.1,0.7,0.7,0.9,1.1,1.1
		c1.2,0.7,1.6,2.2,1.5,3.4c0,0.2-0.3,0.3-0.5,0.5c-0.1,0.1-0.3,0.2-0.5,0.3c-0.4,0.2-0.5,0.7-0.3,1.1c0.2,0.3,0.6,0.5,1,0.3
		s0.9-0.5,1.3-0.7c0.2-0.1,0.3-0.1,0.4,0.1c0.6,1.1,1,2.2,0.8,3.5c0,0.1,0,0.2-0.1,0.4c-0.2,0.6-0.3,0.8-1,0.6
		c-0.8-0.2-1.7-0.2-2.6-0.3c-0.2-0.4-0.4-0.8-0.6-1.3s-0.6-0.7-1-0.5s-0.6,0.6-0.4,1.1c0.2,0.4,0.3,0.7,0.5,1.1
		c-0.9,0.3-1.7,0.6-2.2,1.6c-1.1-1.6-2.7-1.6-4.3-1.6c0-0.2,0-0.3,0-0.4c0-0.9,0-1.7,0-2.6c0-0.5-0.1-1-0.3-1.4
		c-0.3-0.7-1-0.9-1.7-1c-0.6-0.1-1.2-0.2-1.8-0.3c-0.5-0.1-0.6-0.2-0.6-0.7s0-1,0-1.5c-0.1-0.8,0.1-1.6,0.5-2.3
		c0.1-0.2,0.2-0.5,0.2-0.7c0-0.3-0.2-0.6-0.5-0.6c-0.3-0.1-0.6,0-0.8,0.3s-0.3,0.6-0.4,0.9c-0.1,0.3-0.3,0.4-0.5,0.3
		c-0.2,0-0.5,0-0.7,0c-0.4,0.1-0.7,0.4-0.7,0.8c0,0.4,0.3,0.7,0.7,0.7c0.2,0,0.4,0,0.7,0c0,0.5,0,1,0,1.4c0,1,0,2,0,3.1
		c0,0.6,0.3,1,0.7,1s0.7-0.3,0.7-0.9c0-0.1,0-0.1,0-0.2c0.7,0.1,1.4,0.1,2.1,0.3c0.6,0.1,0.8,0.4,0.8,1c0,0.9,0,1.7,0,2.6
		c0,0.3-0.1,0.4-0.4,0.4c-0.4,0.1-0.9,0.1-1.3,0.3c-1.2,0.6-2.4,0.6-3.7,0.3c-0.4-0.1-0.5-0.2-0.5-0.7c0-0.6,0-1.3,0-2
		c0-0.1,0-0.2,0-0.3c0-0.4-0.4-0.7-0.7-0.7s-0.7,0.4-0.7,0.7c0,0.6,0,1.1,0,1.7c0,0.2,0,0.3,0,0.4c-1.2,0.2-2.4,0.4-3.6,0.6
		c-0.1,0-0.2,0-0.3,0c-0.9-0.3-1.9-0.1-2.8,0.1c-0.6,0.1-1.2,0.3-1.8-0.2l-0.1-0.1c0.3-0.4,0.5-0.9,0.8-1.3c0.3-0.4,0.5-0.9,0.5-1.5
		c0-0.8,0-1.6,0-2.4c0-0.4-0.1-0.8-0.5-1.1c-0.2-0.2-0.4-0.3-0.5-0.5c-0.2-0.2-0.5-0.3-0.8-0.2c-0.4,0.2-0.5,0.6-0.4,1
		c0.1,0.2,0.2,0.4,0.3,0.5c0.3,0.3,0.4,0.6,0.4,1c0,0.2,0,0.5,0,0.7c0.2,1.2-0.6,2.1-1.2,3c0,0.1-0.2,0.1-0.3,0.1
		c-0.9-0.1-1.7,0-2.4,0.4c-0.4,0.2-0.7,0.1-0.9-0.1c-0.8-0.6-1.3-1.5-0.9-2.7c0.1-0.5,0.7-0.9,1.2-0.9c0.3,0,0.6,0,0.9,0
		c0.4,0,0.7-0.3,0.7-0.8c0-0.4-0.3-0.7-0.7-0.7c-0.2,0-0.4,0-0.6,0s-0.4,0-0.6,0c0.1-0.2,0.1-0.4,0.2-0.5c0.4-0.6,0.8-1,1.4-1.3
		c0.1-0.1,0.3-0.3,0.3-0.4c0.1-0.3,0.1-0.6,0.3-0.9c0.2-0.5,0.6-0.8,1.1-0.9c0.4-0.1,0.6-0.3,0.7-0.7c0.1-0.5,0.2-1,0.7-1.3
		c0.1-0.1,0.3-0.1,0.4-0.1c0.7,0.3,1.3,0.6,1.9,1c0.3,0.2,0.4,0.5,0.6,0.7c0.5,0.7,1.1,1.5,1.6,2.2c0.5,0.8,0.8,1.7,1.2,2.5
		c0,0.1-0.1,0.2-0.1,0.3c-0.1,0.2-0.2,0.3-0.3,0.5c-0.1,0.3-0.1,0.7,0.3,0.9c0.3,0.2,0.6,0.2,0.9-0.1c0.3-0.2,0.6-0.5,0.8-0.8
		s0.3-0.6,0.1-1c-0.3-0.5-0.5-1-0.7-1.6c-0.1-0.1-0.1-0.2-0.2-0.4c0.6,0,1.1,0,1.7,0c0.7,0,1-0.5,0.7-1.1c-0.1-0.2-0.3-0.4-0.5-0.4
		c-0.5-0.1-1.1-0.1-1.7,0c-0.2,0-0.4,0.3-0.7,0.5c-0.6-0.9-1.3-1.8-2-2.8c-0.4-0.7-1.1-1-1.7-1.4c-0.1-0.1-0.3-0.1-0.4-0.2
		c0.1-0.1,0.2-0.2,0.2-0.2c1-0.5,2.1-1.1,3.2-1.3c0.7-0.1,1.1,0,1.5,0.7c0.3,0.5,0.5,0.9,0.8,1.3c0.2,0.3,0.7,0.4,1,0.2
		c0.3-0.2,0.4-0.7,0.2-1.1c-0.3-0.5-0.6-1-0.9-1.4c-0.2-0.4-0.2-0.5,0.2-0.7c0.1-0.1,0.3-0.1,0.4-0.1c1.1-0.1,2.2-0.1,3.2,0.3
		c0.1,0.1,0.4,0,0.5-0.1c0.4-0.4,0.8-0.5,1.3-0.4c0.9,0.1,1.7,0.2,2.6,0.3c0.1,0,0.2,0.1,0.4,0.1c-0.2,0.2-0.5,0.3-0.7,0.5
		c-0.4,0.3-0.4,0.7-0.1,1.2c0.2,0.3,0.6,0.3,1,0.1c0.6-0.4,1.2-0.7,1.9-1c0.6-0.3,1.5,0,1.9,0.5c0.1,0.1,0.1,0.2,0.1,0.3
		c0,0.6,0,1.3,0,1.9c0,0.2-0.1,0.4-0.3,0.5c-0.2,0.2-0.5,0.3-0.7,0.5c-0.5,0.5-1.2,0.5-1.9,0.5c-0.6,0-0.9,0.3-0.9,0.8
		c0,0.4,0.3,0.7,0.7,0.8c0.5,0,1,0,1.5,0c0.2,0,0.4-0.1,0.6-0.2c0.3-0.2,0.5-0.4,0.9-0.6c0,0.3,0,0.6,0,0.9c0,0.6,0,1.2,0,1.7
		c0.1,0.8-0.1,1.5-0.5,2.2c-0.1,0.2-0.2,0.4-0.2,0.5c-0.1,0.4,0.1,0.7,0.4,0.9c0.4,0.2,0.7,0.1,0.9-0.3c0.2-0.3,0.3-0.6,0.5-0.9
		c0.1-0.3,0.3-0.5,0.6-0.6c0.5-0.1,0.9-0.3,1.4-0.4c0.4-0.1,0.6-0.4,0.6-0.7c0.1-0.4-0.2-0.6-0.4-0.8c-0.2-0.1-0.4-0.1-0.6,0
		C180.4,414.2,180.1,414.4,179.8,414.5z"/>
	<path class="st6" d="M169.4,429.6c0.1-0.5,0.2-1,0.4-1.4c0.5-1.2,0.4-2.5,0.4-3.8c0-0.3-0.1-0.7,0.1-0.9c0.1-0.2,0.5-0.1,0.8-0.2
		c0.6-0.2,1.2-0.5,1.8-0.7c0.1,0,0.2-0.1,0.3-0.1c1.3,0,2.5,0,3.8,0c0.6,0,1.1,0.4,1.5,0.9c0.8,0.9,0.5,1.9,0.6,2.9
		c0,0.3-0.2,0.2-0.4,0.2c-0.7-0.2-1.3-0.4-2-0.7c-0.6-0.3-1.2-0.4-1.9-0.2c-0.4,0.1-0.7,0.5-0.8,0.9c-0.1,0.3-0.1,0.5-0.1,0.8
		c0,1.4,0,2.9,0,4.3c0,0.3-0.1,0.4-0.4,0.4c-0.7,0-0.9,0.1-1,0.6s0.1,0.9,0.6,1h0.1c0.9-0.2,1.6,0.2,2.4,0.6
		c0.5,0.3,0.9,0.2,1.1-0.2s0.1-0.9-0.5-1.1c-0.8-0.3-1-0.8-0.9-1.5c0.1-1.2,0-2.5,0-3.7c0-0.2,0-0.3,0.1-0.5
		c0.7,0.3,1.4,0.5,2.1,0.8c0.6,0.2,1.2,0.4,1.9,0.3c0.2,0,0.4,0.1,0.6,0.3c0.5,0.4,1,0.8,1.6,1.1c0.4,0.2,0.8,0.2,1-0.2
		c0.2-0.3,0.1-0.8-0.2-1.1c-0.4-0.3-0.8-0.6-1.2-0.8c-0.4-0.3-0.8-0.6-0.7-1.2c0.1-0.6,0-1.2,0-1.8c0-0.7,0.3-1.3,0.9-1.6
		c1.7-0.9,3.4-0.9,5.1-0.1c0.2,0.1,0.3,0.2,0.4,0.4c0.3,0.9,0.4,1.8,0.1,2.7c-0.1,0.4-0.5,0.6-0.9,0.7l-0.3-0.1
		c-0.3-0.4-0.7-0.7-1-1.1c-0.3-0.3-0.8-0.4-1.1-0.1s-0.3,0.8,0,1.1c0.1,0.1,0.2,0.2,0.3,0.3c1,1,1.3,2.4,0.6,3.7
		c-0.2,0.4-0.5,0.8-0.8,1.2c-1,1.2-2,2.5-3.3,3.6c0-0.2,0-0.3,0-0.5c0-0.5,0-1,0-1.5c0-0.8-0.3-1.5-0.7-2.2
		c-0.3-0.5-0.8-0.6-1.1-0.3c-0.4,0.3-0.4,0.8-0.1,1.2c0.4,0.5,0.5,1,0.5,1.6c0,0.2,0,0.4,0,0.6c0.1,0.9-0.2,1.6-0.7,2.3
		c-0.5,0.6-1.7,0.9-2.4,0.5l0,0c-1.2-0.7-1.2-0.7-1.9,0.5c-0.2,0.4-0.5,0.6-1,0.6c-0.7,0-1.4,0-2.1,0c-0.2,0-0.5-0.2-0.6-0.4
		c-0.2-0.5-0.3-1.1-0.5-1.6c0.2,0,0.3,0,0.5,0c0.4-0.1,0.7-0.4,0.7-0.8c0-0.5-0.3-0.7-0.7-0.8c-0.5,0-1,0-1.5,0s-0.8,0.5-0.7,1.1
		c0.1,0.5,0.3,0.9,0.4,1.4c0.1,0.3,0,0.4-0.3,0.5c-0.8,0.3-1.7,0.3-2.5,0c-1-0.3-1.9-0.6-2.9-0.9c-0.9-0.3-1.7-0.7-2.5-1.2
		c-0.3-0.2-0.6-0.6-0.8-1v-0.3c0.3-0.2,0.7-0.4,1-0.5c1.2-0.2,2.4-0.3,3.5-0.4c0.1,0,0.3,0.1,0.3,0.2c0.3,0.3,0.6,0.6,0.8,0.9
		c0.3,0.3,0.7,0.3,1,0s0.3-0.8,0-1.1c-0.3-0.4-0.7-0.7-1-1.1c-0.1-0.1-0.2-0.3-0.2-0.5c0-1.1,0-2.3,0-3.4c0-0.2,0.1-0.4,0.2-0.5
		c0.1-0.2,0.3-0.4,0.4-0.6c0.2-0.3,0.1-0.7-0.2-0.9c-0.3-0.3-0.6-0.3-0.9,0s-0.6,0.5-0.8,0.8c-0.2,0.2-0.2,0.5-0.2,0.8
		c0,1.3,0,2.7,0,4c0,0.1,0,0.3,0,0.5c-0.2,0-0.3,0-0.5-0.1c-1-0.3-2-0.3-3-0.1c-0.4,0.1-0.7,0.3-1,0.4c-0.4,0.2-0.8,0.5-1.2,0.7
		c-0.1,0.1-0.4,0-0.5-0.1c-0.9-0.4-1.6-1.2-2.3-1.9c-0.4-0.4-0.7-1-1-1.5c-0.3-0.6-0.1-1.2,0-1.8c0-0.1,0.2-0.2,0.3-0.3
		c0.5-0.4,1-0.7,1.5-1.1c0.2-0.1,0.3-0.3,0.3-0.5c0.1-0.3,0-0.6-0.3-0.8c-0.3-0.2-0.6-0.2-0.9,0c-0.6,0.4-1.2,0.9-1.9,1.3
		c-0.5,0.3-0.8,0.2-0.9-0.3c-0.4-1.4,0-3.1,1.7-3.7c0.6-0.2,1.3-0.4,1.9-0.4c0.4,0,0.9,0.2,1.3,0.4c0.3,0.1,0.6,0.4,0.9,0.5
		c0.3,0.1,0.4,0.2,0.4,0.5c0,0.9,0,1.9,0,2.8c0,0.6-0.2,1.1-0.6,1.5c-0.2,0.2-0.4,0.4-0.6,0.6c-0.3,0.4-0.3,0.9,0,1.2
		s0.7,0.3,1.1-0.1c0.3-0.3,0.5-0.6,0.9-1c0.4,0.4,0.6,0.7,0.9,1c0.4,0.4,0.8,0.4,1.1,0.1c0.3-0.3,0.3-0.8,0-1.1s-0.6-0.6-0.9-0.9
		c-0.2-0.2-0.3-0.5-0.3-0.8c0-1,0-2.1,0-3.1c0-0.2,0-0.3,0-0.5c0.8-0.2,1.6-0.4,2.4-0.1c0.3,0.1,0.8,0,1.1-0.1
		c0.7-0.1,1.4-0.3,2.1-0.4c0.4,0,0.7,0.1,1.1,0.2c0.6,0.2,1.1,0.4,1.6,0.6c0.3,0.1,0.4,0.2,0.4,0.5c0,0.9,0,1.9,0,2.8
		c0,0.4-0.2,0.9-0.3,1.3c-0.2,0.8-0.4,1.5-0.5,2.3c-0.1,0.9,0.3,1.3,1.1,1.3c0.3,0,0.7,0,1,0c0.5,0,0.9-0.4,0.9-0.8
		c0-0.4-0.4-0.8-0.9-0.8C169.8,429.6,169.6,429.6,169.4,429.6z"/>
	<path class="st6" d="M191.6,525.3c-14.9,0-29.8,0-44.7,0c0-21.6,0-43.2,0-64.8c14.9,0,29.8,0,44.7,0
		C191.6,482.1,191.6,503.7,191.6,525.3z M187.1,494.1c0,3.1,0,6.1,0,9.1c-4.8,0-9.6,0-14.5,0c0,4.9,0,9.7,0,14.7c4.8,0,9.7,0,14.5,0
		c0,1.7,0,3.2,0,4.8c0.7,0,1.3,0,1.9,0c0-2.5,0-5,0-7.5c-4.8,0-9.7,0-14.5,0c0-3.1,0-6.1,0-9.2c4.8,0,9.6,0,14.5,0
		c0-4.9,0-9.7,0-14.5c-4.8,0-9.6,0-14.5,0c0-3.1,0-6.1,0-9.2c4.8,0,9.6,0,14.5,0c0-4.9,0-9.7,0-14.6c-4.8,0-9.6,0-14.5,0
		c0-1.5,0-3.1,0-4.5c-0.7,0-1.3,0-1.9,0c0,2.4,0,4.8,0,7.3c4.8,0,9.6,0,14.4,0c0,3.1,0,6.1,0,9.2c-4.8,0-9.6,0-14.5,0
		c0,0.1,0,0.2,0,0.3c0,4.6,0,9.2,0,13.8c0,0.5,0.2,0.5,0.6,0.5c4.4,0,8.8,0,13.2,0C186.6,494.1,186.8,494.1,187.1,494.1z
		 M166.9,517.3c-0.1-1-0.5-1.9-1.1-2.6c-0.9-1.1-2.2-1.6-3.6-2.1c-1-0.4-2-0.7-3-1.1c-1.1-0.4-2.2-0.8-3.2-1.2
		c-1.1-0.4-2.2-0.7-3.3-1.2c-0.5-0.2-0.9-0.6-1.2-1c-0.3-0.3-0.3-0.8,0-1.1s0.6-0.7,1-0.8c1.3-0.6,2.7-1.2,4-1.7
		c0.7-0.3,1.4-0.5,2.1-0.8c0.8-0.4,1.7-0.8,2.5-1.1c0.8-0.4,1.6-0.7,2.4-1.1c1-0.6,2-1.2,2.6-2.3c0.9-1.4,0.7-3.4-0.4-4.6
		c-0.7-0.8-1.5-1.3-2.4-1.7c-0.4-0.2-0.9-0.3-1.3-0.5c-0.7-0.3-1.4-0.5-2.1-0.8c-0.8-0.3-1.7-0.6-2.5-0.8c-1.1-0.4-2.2-0.8-3.3-1.2
		c-0.8-0.3-1.6-0.7-2.3-1.1c-0.6-0.3-0.9-1.1-0.6-1.5c0.4-0.4,0.9-0.9,1.4-1.1c0.6-0.3,1.4-0.5,2.1-0.7c1.5-0.4,3-0.9,4.6-1.3
		c1.7-0.5,3.4-1,5.1-1.5c1.4-0.5,2.3-1.6,2.7-2.9c0.6-1.8-0.2-3.3-1.5-4.5c-0.9-0.9-2.2-1.2-3.3-1.6c-1.2-0.5-2.5-0.9-3.7-1.4
		c-1.4-0.5-2.8-1-4.2-1.5c-0.6-0.2-1.2-0.4-1.7-0.8c-1.2-0.9-1.4-1.1-0.1-2.3c0.5-0.4,1.1-0.7,1.7-1c0.6-0.3,0.7-1.3,0.4-2.1
		c-0.3-0.6-0.5-0.7-1.4-0.3h-0.1c-1.3,0.7-2.5,1.6-3.2,3c-0.5,1.1-0.2,3,0.5,3.8c1.3,1.4,2.9,2.1,4.7,2.7c1.1,0.4,2.3,0.8,3.4,1.2
		c1.1,0.4,2.1,0.8,3.1,1.2c1.1,0.4,2.2,0.7,3.1,1.4c0.7,0.5,0.8,1.4,0.2,1.9c-0.5,0.4-1,0.7-1.5,0.8c-0.9,0.3-1.8,0.5-2.8,0.8
		c-0.5,0.1-1,0.2-1.5,0.4c-1.2,0.4-2.5,0.8-3.7,1.1s-2.5,0.5-3.6,1.1c-1.2,0.7-2.2,1.5-2.4,3c-0.3,1.6,0.1,3,1.2,4.1
		c1.2,1.2,2.8,1.5,4.3,2.1c1.1,0.4,2.2,0.8,3.3,1.2s2.2,0.9,3.4,1.3c1.2,0.4,2.2,0.9,3.1,1.8c0.3,0.3,0.3,0.5,0,0.8
		c-0.5,0.5-1,0.9-1.5,1.3c-0.5,0.3-1.2,0.6-1.8,0.8c-1.2,0.5-2.4,1.1-3.5,1.6c-1,0.4-1.9,0.8-2.9,1.2c-0.6,0.3-1.2,0.6-1.8,0.8
		c-1.1,0.4-2.1,1-2.8,1.9c-1.4,1.8-1.1,4.4,0.8,5.9c1.2,1,2.8,1.4,4.2,2c0.8,0.4,1.7,0.6,2.6,0.9c1.2,0.4,2.3,0.9,3.5,1.3
		c1.2,0.4,2.3,0.8,3.3,1.6c0.4,0.4,0.5,0.7,0.1,1.1c-0.5,0.5-1.1,1-1.7,1.3c-1.4,0.7-1.5,1.5-1.1,2.5c0.2,0.5,0.8,0.7,1.2,0.4
		c0.8-0.5,1.6-1,2.2-1.6C166.4,519.6,166.9,518.5,166.9,517.3z"/>
	<path d="M187.1,494.1c-0.2,0-0.4,0-0.7,0c-4.4,0-8.8,0-13.2,0c-0.4,0-0.6,0-0.6-0.5c0-4.6,0-9.2,0-13.8c0-0.1,0-0.2,0-0.3
		c4.8,0,9.6,0,14.5,0c0-3.1,0-6.1,0-9.2c-4.8,0-9.6,0-14.4,0c0-2.4,0-4.8,0-7.3c0.6,0,1.2,0,1.9,0c0,1.5,0,3,0,4.5
		c4.9,0,9.7,0,14.5,0c0,4.9,0,9.7,0,14.6c-4.8,0-9.6,0-14.5,0c0,3.1,0,6.1,0,9.2c4.8,0,9.6,0,14.5,0c0,4.8,0,9.6,0,14.5
		c-4.8,0-9.6,0-14.5,0c0,3.1,0,6.1,0,9.2c4.8,0,9.6,0,14.5,0c0,2.5,0,5,0,7.5c-0.6,0-1.3,0-1.9,0c0-1.6,0-3.2,0-4.8
		c-4.9,0-9.7,0-14.5,0c0-4.9,0-9.8,0-14.7c4.8,0,9.6,0,14.5,0C187.1,500.1,187.1,497.1,187.1,494.1z"/>
	<path d="M166.9,517.3c-0.2,1.2-0.7,2.3-1.6,3.2c-0.7,0.6-1.5,1.1-2.2,1.6c-0.4,0.3-1,0-1.2-0.4c-0.4-0.9-0.3-1.8,1.1-2.5
		c0.6-0.3,1.2-0.8,1.7-1.3c0.4-0.4,0.3-0.7-0.1-1.1c-1-0.8-2.1-1.2-3.3-1.6c-1.2-0.4-2.3-0.9-3.5-1.3c-0.9-0.3-1.8-0.5-2.6-0.9
		c-1.4-0.6-3-0.9-4.2-2c-1.8-1.5-2.2-4.2-0.8-5.9c0.7-0.9,1.7-1.5,2.8-1.9c0.6-0.2,1.2-0.5,1.8-0.8c1-0.4,1.9-0.8,2.9-1.2
		c1.2-0.5,2.4-1.1,3.5-1.6c0.6-0.3,1.2-0.5,1.8-0.8c0.5-0.3,1-0.8,1.5-1.3c0.2-0.2,0.2-0.5,0-0.8c-0.9-0.9-2-1.4-3.1-1.8
		c-1.1-0.4-2.2-0.9-3.4-1.3c-1.1-0.4-2.2-0.7-3.3-1.2c-1.5-0.6-3.1-0.9-4.3-2.1c-1.2-1.1-1.5-2.5-1.2-4.1c0.3-1.4,1.2-2.3,2.4-3
		c1.1-0.6,2.4-0.8,3.6-1.1c1.3-0.3,2.5-0.7,3.7-1.1c0.5-0.1,1-0.2,1.5-0.4c0.9-0.2,1.9-0.5,2.8-0.8c0.5-0.2,1.1-0.5,1.5-0.8
		c0.7-0.5,0.5-1.4-0.2-1.9c-0.9-0.7-2-1-3.1-1.4c-1.1-0.4-2.1-0.8-3.1-1.2c-1.1-0.4-2.3-0.8-3.4-1.2c-1.7-0.6-3.4-1.3-4.7-2.7
		c-0.7-0.8-1-2.7-0.5-3.8c0.7-1.4,1.8-2.3,3.2-3h0.1c0.8-0.4,1.1-0.3,1.4,0.3c0.4,0.7,0.2,1.8-0.4,2.1c-0.6,0.3-1.2,0.6-1.7,1
		c-1.3,1.1-1.1,1.3,0.1,2.3c0.5,0.4,1.1,0.6,1.7,0.8c1.4,0.5,2.8,1,4.2,1.5c1.3,0.4,2.5,0.9,3.7,1.4c1.1,0.5,2.4,0.8,3.3,1.6
		c1.3,1.2,2.1,2.7,1.5,4.5c-0.4,1.3-1.3,2.5-2.7,2.9c-1.7,0.5-3.4,1-5.1,1.5c-1.5,0.4-3,0.8-4.6,1.3c-0.7,0.2-1.4,0.4-2.1,0.7
		c-0.5,0.3-1,0.7-1.4,1.1c-0.3,0.4,0,1.2,0.6,1.5c0.8,0.4,1.5,0.8,2.3,1.1c1.1,0.4,2.2,0.8,3.3,1.2c0.8,0.3,1.7,0.6,2.5,0.8
		c0.7,0.2,1.4,0.5,2.1,0.8c0.4,0.2,0.9,0.3,1.3,0.5c0.9,0.4,1.7,0.9,2.4,1.7c1.1,1.3,1.3,3.2,0.4,4.6c-0.6,1.1-1.6,1.7-2.6,2.3
		c-0.8,0.4-1.6,0.7-2.4,1.1c-0.8,0.4-1.6,0.8-2.5,1.1c-0.7,0.3-1.4,0.6-2.1,0.8c-1.3,0.6-2.7,1.1-4,1.7c-0.4,0.2-0.7,0.5-1,0.8
		s-0.3,0.8,0,1.1c0.4,0.4,0.8,0.8,1.2,1c1.1,0.5,2.2,0.8,3.3,1.2s2.2,0.8,3.2,1.2s2,0.7,3,1.1c1.3,0.5,2.6,1,3.6,2.1
		C166.4,515.4,166.9,516.3,166.9,517.3z"/>
	<path d="M175.1,552.9c0,0.8-0.1,1.7-0.4,2.5c-0.5,2.2-1.7,4.2-3.4,6c-0.9,0.9-1.9,1.7-3.1,2.5c1.3,0.8,2.5,1.8,3.6,2.9
		c1.3,1.2,2.2,2.7,2.7,4.4c0.5,1.6,0.5,3.4,0.2,5.1c-0.3,1.7-1,3.4-2,4.7c-1.1,1.5-2.5,2.6-4.1,3.2c-1.5,0.7-3.2,0.9-4.9,0.6
		c-1.6-0.2-3.1-0.9-4.5-1.8c-1.4-1-2.5-2.2-3.2-3.6c-0.8-1.5-1.2-3.2-1.1-4.8c0-0.9,0.1-1.8,0.3-2.6l0,0c0.5-2.2,1.7-4.2,3.6-6
		c0.9-0.8,1.8-1.6,2.7-2.2c-1.9-1.3-3.7-2.8-5-4.9c-1-1.4-1.5-3.1-1.6-5c-0.1-1.7,0.2-3.4,0.9-5c1.4-3.3,4.3-5.6,7.5-6.1
		c1.7-0.3,3.4-0.1,5,0.6c1.5,0.6,2.9,1.6,4,2.9C174.3,548.2,175.1,550.6,175.1,552.9z M164.9,561.7c2-1,5.6-3.3,6.5-7.1v-0.1v-0.1
		c0.6-2,0-4.2-1.6-6s-3.8-2.7-5.9-2.4l0,0c-2.1,0.3-3.9,1.9-4.9,4.1c-1,2.3-0.9,4.9,0.4,6.7l0,0C160.9,559,162.9,560.4,164.9,561.7z
		 M158.6,575.1c0,1.9,1.1,3.8,2.9,5c0.9,0.6,2,1.1,3,1.2c1.1,0.2,2.1,0,3-0.4h0.1c1-0.4,1.9-1.1,2.6-2.1c0.7-0.9,1.2-2.1,1.4-3.3
		c0.4-2.5-0.3-4.9-1.9-6.4l0,0l0,0c-1.3-1.3-2.9-2.4-4.6-3.4c-2.8,1.7-5.4,3.9-6.2,7c-0.1,0.6-0.2,1.2-0.2,1.8l0,0v0.1v0.1
		C158.6,574.9,158.6,575,158.6,575.1z"/>
	<rect x="163.9" y="570.9" width="1.5" height="7"/>
	<polygon points="167.6,552.5 167.6,554.4 165.6,554.4 165.6,556.3 163.8,556.3 163.8,554.4 161.8,554.4 161.8,552.5 163.8,552.5 
		163.8,550.4 165.6,550.4 165.6,552.5 	"/>
	<path d="M183.6,579.9l-1.4,0.4v2.4l1.3,0.4v1.3l-6.8-2v-1.8l6.8-2L183.6,579.9z M177.9,581.5l3.2,0.9v-1.8L177.9,581.5z"/>
	<path d="M183.6,574.3c-0.8,0.4-1.6,0.7-2.4,1.1c-0.3,0.2-0.5,0.7-0.4,1.1c0.2,0.1,0.5,0,0.7,0c0.7,0,1.4,0,2.1,0c0,0.4,0,0.9,0,1.3
		c-2.3,0-4.6,0-6.8,0c0-1-0.1-1.9,0.1-2.9c0.1-0.6,0.5-1.3,1.1-1.5c0.7-0.2,1.6-0.1,2,0.5c0.2,0.2,0.3,0.5,0.3,0.8
		c0.2-0.4,0.5-0.6,0.9-0.8c0.7-0.4,1.4-0.7,2.1-1c0.2-0.2,0.3-0.1,0.3,0.1C183.6,573.4,183.6,573.9,183.6,574.3z M178.8,574.6
		c-0.4,0-0.8,0.3-0.9,0.7c-0.1,0.4,0,0.7-0.1,1.1c0.6,0,1.3,0,1.9,0c0-0.5,0.1-1.2-0.3-1.6C179.1,574.7,178.9,574.6,178.8,574.6z"/>
	<path d="M180.1,566.8c1,0,2,0.2,2.7,0.9s0.8,1.7,0.8,2.6c0,0.5,0,1.1,0,1.6c-2.3,0-4.6,0-6.8,0c0-0.8,0-1.6,0-2.4
		c0-0.8,0.3-1.6,1-2.1C178.4,566.9,179.1,566.8,180.1,566.8z M180.1,568.2c-0.7,0-1.4,0.1-1.9,0.6c-0.4,0.4-0.4,1-0.4,1.6
		c0,0.1,0,0.2,0,0.3c1.6,0,3.1,0,4.7,0c0-0.6,0-1.2-0.3-1.7C181.6,568.3,180.9,568.2,180.1,568.2z"/>
	<path d="M180.9,560.9c0.8,0,1.7,0.3,2.2,1c0.5,0.8,0.5,1.9,0.2,2.8c-0.3,0.7-1,1.1-1.7,1.2c-0.8,0.1-1.6,0-2.5,0s-1.7,0-2.6,0
		c0-0.4,0-0.9,0-1.3c1.6,0,3.3,0,4.9,0c0.5,0,0.9-0.4,1-0.8c0.1-0.5,0-1.1-0.5-1.4c-0.6-0.3-1.3-0.1-1.9-0.2c-1.2,0-2.3,0-3.5,0
		c0-0.4,0-0.9,0-1.3C178.1,560.9,179.6,560.9,180.9,560.9L180.9,560.9z"/>
	<polygon points="177.8,559.7 176.6,559.7 176.6,555.4 177.8,555.4 177.8,556.9 182.4,556.9 182.4,555.4 183.4,555.4 183.4,559.7 
		182.4,559.7 182.4,558.2 177.8,558.2 	"/>
	<path d="M183.6,550.6c-1.7,0.7-3.3,1.5-5,2.2c1.7,0,3.3,0,5,0c0,0.4,0,0.8,0,1.2c-2.3,0-4.6,0-6.8,0c0-0.5,0-1.1,0-1.6
		c1.6-0.7,3.1-1.4,4.7-2.1c0.2,0,0.3-0.1,0-0.1c-1.6,0-3.1,0-4.7,0c0-0.4,0-0.8,0-1.2c2.3,0,4.6,0,6.8,0
		C183.6,549.6,183.6,550.1,183.6,550.6z"/>
	<path d="M180.1,542.8c1,0,2.1,0.2,2.9,1c0.7,0.8,0.9,2,0.5,2.9c-0.3,0.8-1.1,1.3-2,1.5s-1.9,0.2-2.8,0c-0.8-0.2-1.6-0.8-1.9-1.6
		s-0.3-1.7,0.2-2.5s1.4-1.1,2.3-1.2C179.4,542.8,179.8,542.8,180.1,542.8z M180.1,544.2c-0.7,0-1.4,0-2,0.4
		c-0.5,0.4-0.5,1.1-0.3,1.6c0.3,0.6,1.1,0.7,1.7,0.7c0.8,0,1.6,0,2.3-0.3c0.4-0.2,0.7-0.7,0.6-1.2c0-0.5-0.4-0.9-0.8-1.1
		C181.1,544.2,180.6,544.2,180.1,544.2z"/>
	<path class="st6" d="M143.4,325.3c16,0,32,0,48.1,0c0,17.3,0,34.6,0,51.9c-16,0-32,0-48.1,0C143.4,360,143.4,342.7,143.4,325.3z
		 M172.6,369.4h0.2c1.2,0,2.3,0,3.5,0c0.1,0,0.2,0,0.3,0c0.4-0.1,0.8-0.3,1-0.7c0.1-0.2,0.3-0.4,0.3-0.6c0.1-0.3,0.1-0.5,0.1-0.8
		c0-0.9,0-1.7,0-2.6c0-0.2,0-0.4,0.2-0.6c0.4-0.4,0.7-0.9,1.1-1.3c0.3-0.3,0.5-0.6,0.8-0.9c0.4-0.4,0.8-0.9,1.1-1.3
		c0.2-0.2,0.4-0.5,0.6-0.7c0.3-0.4,0.6-0.8,1-1.1c0.3-0.3,0.5-0.7,0.5-1.1c0-4.3,0-8.6,0-12.9c0-0.3,0-0.7,0-1
		c0-0.2-0.1-0.4-0.2-0.5c-0.2-0.3-0.4-0.5-0.6-0.8s-0.5-0.5-0.7-0.8c-0.5-0.6-1-1.1-1.5-1.7c-0.2-0.3-0.5-0.5-0.7-0.8
		c-0.4-0.4-0.8-0.9-1.2-1.3c-0.2-0.2-0.4-0.5-0.7-0.7c-0.4-0.4-0.8-0.9-1.2-1.3c-0.4-0.5-0.9-0.9-1.3-1.4c-0.3-0.3-0.6-0.4-0.9-0.4
		c-0.5,0-1,0-1.5,0h-0.2c0-0.7,0-1.3,0-2h0.2c1,0,2.1,0,3.1,0c0.4,0,0.8,0,1.1-0.3c0.1-0.1,0.2-0.2,0.3-0.3c0.3-0.4,0.5-0.8,0.5-1.2
		c0-0.8,0-1.6,0-2.4c0-0.6-0.3-1-0.7-1.3c-0.3-0.2-0.7-0.4-1.1-0.4c-4.2,0-8.4,0-12.6,0c-0.2,0-0.4,0-0.5,0.1
		c-0.6,0.2-1,0.6-1.3,1.1c-0.1,0.2-0.2,0.4-0.2,0.6c0,0.7,0,1.4,0,2.1c0,0.1,0,0.2,0.1,0.3c0.1,0.3,0.2,0.6,0.4,0.9s0.6,0.5,0.9,0.6
		c0.2,0.1,0.4,0.1,0.6,0.1c1.1,0,2.2,0,3.3,0h0.2c0,0.6,0,1.3,0,1.9h-0.2c-2.9,0-5.8,0-8.7,0c-0.2,0-0.4,0-0.5,0
		c-0.5,0.1-0.9,0.4-1.2,0.8c-0.2,0.3-0.3,0.6-0.3,1c0,7.3,0,14.6,0,21.9v0.2c0,0.2,0.2,0.4,0.3,0.6c0.2,0.3,0.4,0.6,0.7,0.9
		c0.4,0.4,0.8,0.8,1.1,1.2c0.4,0.4,0.7,0.8,1.1,1.2c0.4,0.4,0.7,0.8,1.1,1.2c0.3,0.4,0.7,0.7,1,1.1c0.1,0.1,0.1,0.2,0.1,0.3
		c0,1.1,0,2.1,0,3.2c0,0.3,0.1,0.6,0.3,0.9c0.1,0.2,0.2,0.3,0.3,0.5c0.2,0.4,0.6,0.6,1,0.6c1.2,0,2.4,0,3.6,0h0.2c0,0.7,0,1.3,0,2
		h-0.2c-1.1,0-2.2,0-3.3,0c-0.4,0-0.8,0.1-1.1,0.4c-0.2,0.2-0.4,0.4-0.5,0.7c-0.1,0.3-0.2,0.7-0.2,1.1c0,0.6,0,1.2,0,1.8
		c0,0.2,0,0.3,0,0.5c0.1,0.4,0.3,0.7,0.6,1c0.3,0.3,0.7,0.4,1.1,0.4c4.3,0,8.5,0,12.8,0c0.4,0,0.8-0.2,1.1-0.5
		c0.5-0.4,0.7-1,0.7-1.6c0-0.6,0-1.3,0-1.9c0-0.6-0.2-1-0.6-1.4c-0.3-0.3-0.7-0.5-1.1-0.5c-1.2,0-2.3,0-3.5,0h-0.2
		C172.6,370.7,172.6,370.1,172.6,369.4z M152.4,345.8v-0.2c0-1.2,0-2.5,0-3.7c0-0.1,0-0.3,0-0.4c-0.1-0.6-0.4-1-0.8-1.3
		c-0.3-0.2-0.6-0.3-0.9-0.3c-0.6,0-1.2,0-1.8,0c-0.4,0-0.8,0.1-1.2,0.4c-0.5,0.4-0.7,0.9-0.7,1.5c0,4.5,0,9.1,0,13.6
		c0,0.6,0.2,1.1,0.6,1.5c0.3,0.3,0.7,0.5,1.2,0.5c0.6,0,1.3,0,1.9,0c0.1,0,0.2,0,0.3,0c0.4-0.1,0.7-0.3,1-0.6s0.4-0.7,0.5-1.1
		c0-1.2,0-2.5,0-3.7v-0.2c0.6,0,1.2,0,1.8,0c0-2,0-3.9,0-5.9C153.7,345.8,153.1,345.8,152.4,345.8z"/>
	<path d="M172.6,369.4c0,0.7,0,1.3,0,2h0.2c1.2,0,2.3,0,3.5,0c0.4,0,0.8,0.1,1.1,0.5c0.4,0.4,0.6,0.9,0.6,1.4c0,0.6,0,1.3,0,1.9
		c0,0.6-0.2,1.2-0.7,1.6c-0.3,0.3-0.7,0.5-1.1,0.5c-4.3,0-8.5,0-12.8,0c-0.4,0-0.8-0.1-1.1-0.4s-0.5-0.6-0.6-1c0-0.2,0-0.3,0-0.5
		c0-0.6,0-1.2,0-1.8c0-0.4,0-0.7,0.2-1.1c0.1-0.3,0.3-0.5,0.5-0.7c0.3-0.3,0.7-0.4,1.1-0.4c1.1,0,2.2,0,3.3,0h0.2c0-0.6,0-1.3,0-2
		h-0.2c-1.2,0-2.4,0-3.6,0c-0.5,0-0.8-0.2-1-0.6c-0.1-0.2-0.2-0.3-0.3-0.5c-0.2-0.3-0.3-0.5-0.3-0.9c0-1.1,0-2.1,0-3.2
		c0-0.1,0-0.2-0.1-0.3c-0.3-0.4-0.7-0.7-1-1.1c-0.4-0.4-0.8-0.8-1.1-1.2c-0.4-0.4-0.7-0.8-1.1-1.2c-0.4-0.4-0.8-0.8-1.1-1.2
		c-0.3-0.3-0.5-0.6-0.7-0.9c-0.1-0.2-0.3-0.4-0.3-0.6v-0.2c0-7.3,0-14.6,0-21.9c0-0.4,0.1-0.7,0.3-1c0.3-0.4,0.7-0.7,1.2-0.8
		c0.2,0,0.4,0,0.5,0c2.9,0,5.8,0,8.7,0h0.2c0-0.6,0-1.3,0-1.9h-0.2c-1.1,0-2.2,0-3.3,0c-0.2,0-0.4,0-0.6-0.1
		c-0.3-0.1-0.7-0.3-0.9-0.6c-0.2-0.3-0.4-0.5-0.4-0.9c0-0.1-0.1-0.2-0.1-0.3c0-0.7,0-1.4,0-2.1c0-0.2,0.1-0.4,0.2-0.6
		c0.3-0.5,0.7-0.9,1.3-1.1c0.2-0.1,0.4-0.1,0.5-0.1c4.2,0,8.4,0,12.6,0c0.4,0,0.8,0.1,1.1,0.4c0.4,0.3,0.7,0.8,0.7,1.3
		c0,0.8,0,1.6,0,2.4c0,0.5-0.2,0.9-0.5,1.2c-0.1,0.1-0.2,0.2-0.3,0.3c-0.3,0.3-0.7,0.3-1.1,0.3c-1,0-2.1,0-3.1,0h-0.2
		c0,0.7,0,1.3,0,2h0.2c0.5,0,1,0,1.5,0c0.4,0,0.7,0.1,0.9,0.4c0.4,0.4,0.9,0.9,1.3,1.4c0.4,0.4,0.8,0.9,1.2,1.3
		c0.2,0.2,0.4,0.5,0.7,0.7c0.4,0.4,0.8,0.9,1.2,1.3c0.2,0.3,0.5,0.5,0.7,0.8c0.5,0.6,1,1.1,1.5,1.7c0.2,0.3,0.5,0.5,0.7,0.8
		c0.2,0.2,0.4,0.5,0.6,0.8c0.1,0.2,0.2,0.4,0.2,0.5c0,0.3,0,0.7,0,1c0,4.3,0,8.6,0,12.9c0,0.4-0.2,0.8-0.5,1.1
		c-0.3,0.4-0.6,0.8-1,1.1c-0.2,0.2-0.4,0.5-0.6,0.7c-0.4,0.4-0.8,0.9-1.1,1.3c-0.3,0.3-0.5,0.6-0.8,0.9c-0.4,0.4-0.7,0.9-1.1,1.3
		c-0.2,0.2-0.2,0.4-0.2,0.6c0,0.9,0,1.7,0,2.6c0,0.3,0,0.6-0.1,0.8s-0.2,0.5-0.3,0.6c-0.2,0.4-0.6,0.5-1,0.7c-0.1,0-0.2,0-0.3,0
		c-1.2,0-2.3,0-3.5,0h-0.4L172.6,369.4L172.6,369.4z M179.4,354.4L179.4,354.4c-0.2-0.2-0.3-0.3-0.5-0.5c-0.2-0.1-0.3-0.3-0.5-0.4
		c-0.3-0.3-0.6-0.5-0.9-0.8s-0.7-0.5-1-0.8c-0.3-0.2-0.6-0.5-0.8-0.7c-0.4-0.3-0.7-0.6-1.1-0.9c-0.3-0.3-0.6-0.5-0.9-0.8
		s-0.7-0.5-1-0.8s-0.7-0.6-1-0.8c-0.3-0.3-0.6-0.5-0.9-0.8c-0.4-0.3-0.8-0.6-1.2-1c-0.2-0.1-0.3-0.3-0.6-0.5c0,1.5,0,3,0,4.5
		l-0.1-0.1c-0.3-0.2-0.6-0.4-0.9-0.6c-0.4-0.3-0.8-0.5-1.2-0.8s-0.9-0.6-1.3-0.8c-0.4-0.2-0.8-0.5-1.1-0.7c-0.4-0.3-0.9-0.6-1.3-0.8
		c-0.3-0.2-0.6-0.4-0.9-0.6c-0.1-0.1-0.3-0.2-0.4-0.3v0.1c0,1.5,0,3,0,4.5l0.1,0.2c0.4,0.2,0.8,0.4,1.1,0.6c0.5,0.3,1,0.5,1.4,0.8
		c0.5,0.3,1,0.5,1.5,0.8s1,0.5,1.5,0.8s1,0.5,1.4,0.8c0.2,0.1,0.5,0.3,0.7,0.4c0.4,0.2,0.8,0.4,1.1,0.6c0.1,0.1,0.2,0.1,0.3,0.2
		c0-1.4,0-2.8,0-4.2c0.1,0.1,0.2,0.1,0.3,0.2c0.3,0.1,0.7,0.3,1,0.4c0.3,0.1,0.7,0.3,1,0.4c0.3,0.1,0.7,0.3,1,0.4
		c0.4,0.1,0.7,0.3,1.1,0.4c0.3,0.1,0.7,0.3,1,0.4c0.3,0.1,0.6,0.3,1,0.4c0.4,0.2,0.8,0.3,1.2,0.5c0.2,0.1,0.3,0.1,0.5,0.2
		C179.1,354.3,179.3,354.4,179.4,354.4z"/>
	<path d="M152.4,345.8c0.6,0,1.2,0,1.8,0c0,2,0,3.9,0,5.9c-0.6,0-1.2,0-1.8,0v0.2c0,1.2,0,2.5,0,3.7c0,0.4-0.2,0.8-0.5,1.1
		c-0.3,0.3-0.6,0.5-1,0.6c-0.1,0-0.2,0-0.3,0c-0.6,0-1.3,0-1.9,0c-0.5,0-0.9-0.2-1.2-0.5c-0.4-0.4-0.6-0.9-0.6-1.5
		c0-4.5,0-9.1,0-13.6c0-0.6,0.2-1.1,0.7-1.5c0.3-0.3,0.7-0.4,1.2-0.4c0.6,0,1.2,0,1.8,0c0.3,0,0.7,0.1,0.9,0.3
		c0.4,0.3,0.7,0.7,0.8,1.3c0,0.1,0,0.3,0,0.4c0,1.2,0,2.5,0,3.7L152.4,345.8L152.4,345.8z"/>
	<path class="st6" d="M179.4,354.4c-0.1-0.1-0.3-0.1-0.4-0.2c-0.2-0.1-0.3-0.1-0.5-0.2c-0.4-0.1-0.8-0.3-1.2-0.5
		c-0.3-0.1-0.6-0.3-1-0.4c-0.3-0.1-0.7-0.3-1-0.4c-0.4-0.1-0.7-0.3-1.1-0.4c-0.3-0.1-0.7-0.3-1-0.4c-0.3-0.1-0.7-0.3-1-0.4
		c-0.3-0.1-0.7-0.3-1-0.4c-0.1,0-0.2-0.1-0.3-0.2c0,1.4,0,2.8,0,4.2c-0.1-0.1-0.2-0.1-0.3-0.2c-0.4-0.2-0.8-0.4-1.1-0.6
		c-0.2-0.1-0.5-0.3-0.7-0.4c-0.5-0.3-1-0.5-1.4-0.8c-0.5-0.3-1-0.5-1.5-0.8s-1-0.5-1.5-0.8s-1-0.5-1.4-0.8c-0.4-0.2-0.8-0.4-1.1-0.6
		l-0.1-0.2c0-1.5,0-3,0-4.5v-0.1c0.1,0.1,0.3,0.2,0.4,0.3c0.3,0.2,0.6,0.4,0.9,0.6c0.4,0.3,0.9,0.6,1.3,0.8c0.4,0.2,0.8,0.5,1.1,0.7
		c0.4,0.3,0.9,0.6,1.3,0.8c0.4,0.3,0.8,0.5,1.2,0.8c0.3,0.2,0.6,0.4,0.9,0.6l0.1,0.1c0-1.5,0-3,0-4.5c0.2,0.2,0.4,0.3,0.6,0.5
		c0.4,0.3,0.8,0.6,1.2,1c0.3,0.3,0.6,0.5,0.9,0.8s0.7,0.6,1,0.8c0.3,0.3,0.7,0.5,1,0.8s0.6,0.5,0.9,0.8c0.4,0.3,0.7,0.6,1.1,0.9
		c0.3,0.2,0.6,0.5,0.8,0.7c0.3,0.3,0.7,0.5,1,0.8s0.6,0.5,0.9,0.8c0.2,0.1,0.3,0.3,0.5,0.4C179.1,354.1,179.3,354.2,179.4,354.4
		L179.4,354.4z"/>
</g>
<polygon class="st8" points="495.2,553.3 495.2,481.3 464.1,481.3 464.1,472.3 407.4,472.3 407.4,481.3 345.3,481.3 345.3,472.3 
	288.6,472.3 288.6,481.3 257.6,481.3 257.6,553.3 266.6,553.3 266.6,610 257.6,610 257.6,666.8 266.6,666.8 266.6,723.5 
	257.6,723.5 257.6,798.1 288.6,798.1 288.6,807.1 345.3,807.1 345.3,798.1 407.2,798.1 407.2,807.1 464,807.1 464,798.1 
	495.2,798.1 495.2,723.5 486.2,723.5 486.2,666.8 495.2,666.8 495.2,610 486.2,610 486.2,553.3 "/>
<g>
	<path class="st6" d="M311.2,534.8c45.5,0,91.1,0,136.6,0c0,73.7,0,147.5,0,221.2c-45.5,0-91.1,0-136.6,0
		C311.2,682.2,311.2,608.5,311.2,534.8z M372.4,655.5c-1,0-1.8,0-2.5,0c-6.8,0-13.6-0.1-20.3,0c-1.4,0-3,0.5-4.3,1.2
		c-4.9,2.7-9.6,5.7-14.5,8.4c-1.1,0.6-1.5,1.2-1.6,2.4c-0.1,4.9-0.3,9.7-0.5,14.6c0,0.6,0.1,1.1,0.3,2.2c1.1-0.8,1.7-1.4,2.4-1.8
		c2.3-1.4,2.1-3.8,2.3-6c0.2-1.5,0.8-2,2.2-2.2c2.2-0.3,4.3-0.9,6.4-1.3c3-0.5,6.1-0.9,9.1-1.3c-1.5,3.7-3,7-4.1,10.5
		c-0.6,1.8-1.6,2.7-3.2,3.4c-3.8,1.5-7.5,3.1-11.2,4.6c-1.2,0.5-1.1,1-0.4,1.8c0.6,0.7,0.9,1.6,1.6,2.1c1.4,1,1.6,3.1,4,3.2
		c4,0.2,7.9,1,11.9,1.4c0.5,0.1,1.1-0.3,1.5-0.6c2-1.7,3.9-3.4,5.9-5.1c3.4-2.9,6.8-5.9,10.3-8.7c0.8-0.6,2.3-1,3.2-0.7
		c4.5,1.6,8.9,3.5,13.4,5.3c2.1,0.8,3.1,2,2.5,4.6c-1,4.5-1.5,9.1-2.2,13.6c-0.7,4.3-1.4,8.5-2,12.8c-0.1,0.9,0,1.9,0.2,2.8
		c0.2,0.9,0.8,1.7,0.7,2.5c-0.6,4.2-1.3,8.4-2.2,12.5c-0.4,1.7,0.2,3,1.3,4.1c1.6,1.7,3.4,3.2,5.1,4.8c0.9,0.9,1.8,0.8,2.5-0.1
		c2.7-3.9,5.3-7.9,7.8-11.9c0.7-1.1,1.4-1.3,2.4-0.6c1.5,1.1,2.9,0.8,4.4-0.2c3.6-2.4,7.2-4.7,10.9-6.9c0.9-0.5,2.1-0.6,3.2-0.5
		c2.3,0.3,4.5,0.8,7,1.3c0-2.3-0.3-4.1,0.1-5.9c0.7-3.5-1.5-5-4.1-6.2c-3-1.4-4.1-3.9-2.7-6.8c1.4-3,2.8-5.9,4.2-8.9
		c0.8-1.8,1.7-3.5,2.5-5.2c2.6-5.8,6.2-11,7.2-17.6c0.7-4.2-0.7-7.1-2.3-10.5c-1.9-3.9-4.2-7.7-3.5-12.6c1-7,1.2-14.1,1.6-21.1
		s0.7-14,1.1-21c0.1-1.8,0-3.3-1.5-4.7c-1.3-1.2-2.1-3.1-3.1-4.6c-2-3.1-4-6.3-6.1-9.3c-2.4-3.6-5-7.2-7.4-10.9
		c-2.1-3.2-4.2-6.3-6.4-9.5c-0.4-0.5-0.9-1-1.5-1.2c-2.5-1-5.2-1.6-7.5-2.9c-3.5-2.1-7.2-3.2-11.3-3.5c-3.3-0.2-6.6-0.2-9.7-1.1
		c-4.4-1.2-9.3-0.4-13.4-3.4c-3-2.3-6.5-3.9-9.8-5.8c-3.1-1.9-6.2-3.9-9.3-5.6c-0.6-0.3-1.7-0.2-2.3,0.2c-3.5,2.3-6.9,4.6-10.2,7.2
		c-0.8,0.6-1.4,2-1.4,3c-0.1,4.3,0,8.7,0,13c0,0.5,0.2,1,0.3,2.1c1.5-1.1,3.3-1.7,3.8-2.9c0.9-2,1-4.3,1.5-7c1.7,0.1,4-0.3,5.5,0.5
		c2,1.2,3.5,3.4,5.2,5.1c2.6,2.7,5.1,5.4,7.7,8c2.4,2.5,5,4.8,7.4,7.3c0.2,0.2,0,1.2-0.3,1.4c-2.7,1.9-5.6,3.7-8.3,5.6
		c-2.6,1.8-5,3.7-7.6,5.4c-3.9,2.7-7.8,5.3-11.7,7.9c-2.1,1.4-3.6,2.9-3.5,6c0.2,7.8-0.1,15.5-0.1,23.3c0,0.7,0.1,1.4,0.2,2.3
		c2.9-0.3,5.2-1.3,6.3-3.8c1.2-2.8,2.3-5.7,3.1-8.7c0.5-2,1.6-2.7,3.5-2.9c5.6-0.4,11.3-0.7,16.8-1.4c2.6-0.3,3.5,0.8,4.1,2.9
		c1.9,6.5,3.9,13,5.8,19.5c0.1,0.5,0.4,1,0.5,1.5C370.2,648.4,371.3,651.8,372.4,655.5z"/>
</g>
<path d="M372.4,655.5c-1.2-3.8-2.2-7.2-3.3-10.6c-0.2-0.5-0.4-1-0.5-1.5c-1.9-6.5-3.9-13-5.8-19.5c-0.6-2.1-1.5-3.2-4.1-2.9
	c-5.6,0.7-11.2,1-16.8,1.4c-1.9,0.1-2.9,0.9-3.5,2.9c-0.8,3-1.9,5.9-3.1,8.7c-1.1,2.5-3.4,3.5-6.3,3.8c-0.1-0.8-0.2-1.6-0.2-2.3
	c0.1-7.8,0.4-15.5,0.1-23.3c-0.1-3.1,1.4-4.6,3.5-6c3.9-2.6,7.8-5.3,11.7-7.9c2.6-1.8,5-3.7,7.6-5.4c2.8-1.9,5.6-3.7,8.3-5.6
	c0.3-0.2,0.5-1.2,0.3-1.4c-2.4-2.5-5-4.8-7.4-7.3c-2.6-2.6-5.1-5.3-7.7-8c-1.7-1.8-3.2-3.9-5.2-5.1c-1.5-0.9-3.7-0.4-5.5-0.5
	c-0.5,2.7-0.6,5-1.5,7c-0.5,1.2-2.3,1.8-3.8,2.9c-0.2-1.1-0.3-1.6-0.3-2.1c0-4.3-0.1-8.7,0-13c0-1,0.6-2.4,1.4-3
	c3.3-2.5,6.7-4.9,10.2-7.2c0.6-0.4,1.7-0.5,2.3-0.2c3.2,1.8,6.2,3.8,9.3,5.6c3.3,2,6.8,3.6,9.8,5.8c4.1,3,9,2.2,13.4,3.4
	c3.1,0.9,6.5,0.9,9.7,1.1c4.1,0.3,7.7,1.4,11.3,3.5c2.3,1.3,5,1.9,7.5,2.9c0.6,0.2,1.2,0.7,1.5,1.2c2.2,3.1,4.3,6.3,6.4,9.5
	c2.5,3.6,5,7.2,7.4,10.9c2.1,3.1,4.1,6.2,6.1,9.3c1,1.6,1.8,3.4,3.1,4.6c1.5,1.4,1.6,3,1.5,4.7c-0.4,7-0.6,14-1.1,21
	c-0.4,7-0.6,14.1-1.6,21.1c-0.7,4.9,1.7,8.7,3.5,12.6c1.6,3.4,3,6.2,2.3,10.5c-1,6.6-4.6,11.8-7.2,17.6c-0.8,1.8-1.7,3.5-2.5,5.2
	c-1.4,3-2.9,5.9-4.2,8.9c-1.3,2.9-0.3,5.4,2.7,6.8c2.6,1.2,4.8,2.6,4.1,6.2c-0.3,1.7-0.1,3.6-0.1,5.9c-2.5-0.5-4.8-1-7-1.3
	c-1-0.1-2.3,0-3.2,0.5c-3.7,2.2-7.3,4.5-10.9,6.9c-1.5,1-2.8,1.3-4.4,0.2c-1-0.7-1.7-0.5-2.4,0.6c-2.6,4-5.2,8-7.8,11.9
	c-0.6,1-1.6,1-2.5,0.1c-1.7-1.6-3.5-3.1-5.1-4.8c-1.1-1.1-1.6-2.3-1.3-4.1c0.9-4.1,1.6-8.3,2.2-12.5c0.1-0.8-0.6-1.7-0.7-2.5
	c-0.2-0.9-0.3-1.9-0.2-2.8c0.6-4.3,1.4-8.5,2-12.8c0.7-4.6,1.2-9.2,2.2-13.6c0.6-2.6-0.4-3.8-2.5-4.6c-4.4-1.8-8.9-3.7-13.4-5.3
	c-0.9-0.3-2.4,0.1-3.2,0.7c-3.5,2.8-6.9,5.8-10.3,8.7c-2,1.7-3.9,3.4-5.9,5.1c-0.4,0.3-1,0.7-1.5,0.6c-4-0.4-7.9-1.2-11.9-1.4
	c-2.3-0.1-2.6-2.3-4-3.2c-0.7-0.5-1.1-1.4-1.6-2.1c-0.7-0.8-0.8-1.4,0.4-1.8c3.7-1.5,7.4-3.1,11.2-4.6c1.7-0.6,2.6-1.6,3.2-3.4
	c1.1-3.5,2.7-6.9,4.1-10.5c-3,0.4-6,0.8-9.1,1.3c-2.2,0.4-4.3,1-6.4,1.3c-1.4,0.2-2,0.7-2.2,2.2c-0.2,2.2,0,4.6-2.3,6
	c-0.7,0.4-1.4,1-2.4,1.8c-0.2-1.1-0.3-1.6-0.3-2.2c0.1-4.9,0.3-9.7,0.5-14.6c0-1.2,0.4-1.8,1.6-2.4c4.9-2.7,9.6-5.7,14.5-8.4
	c1.3-0.7,2.8-1.2,4.3-1.2c6.8-0.1,13.6,0,20.3,0C370.7,655.6,371.4,655.5,372.4,655.5z M427.5,609.5c-0.4-0.9-0.7-1.5-1-2
	c-1.9-2.8-3.8-5.7-5.7-8.5c-1.9-2.9-3.7-5.8-5.5-8.7c-2.8-4.3-5.5-8.6-8.6-12.7c-1.2-1.6-1.5-4.1-4.4-4.2c-5.5-0.2-11-0.9-16.6-1.2
	c-0.7,0-1.5,0.2-2.1,0.6c-3.2,2.1-6.4,4.4-9.5,6.6c-2.7,1.9-5.3,3.8-7.9,5.6c-3.5,2.5-7.1,4.9-10.6,7.4s-7.1,4.9-10.6,7.4
	c-4,2.8-7.9,5.7-12,8.4c-1.5,0.9-1.5,1.5-0.7,2.8c1.7,2.6,3.2,5.2,4.8,7.8c1.3,2.1,2.9,3.3,5.7,2.6c2.2-0.6,4.5-0.8,6.7-1.1
	c6.1-0.8,12.2-1.4,18.3-2.2c7.2-0.9,14.4-2,21.6-3c9-1.3,18-2.8,26.9-4.1C419.7,610.3,423.4,610,427.5,609.5z M428.4,610.6
	c-2.4,0.6-4.1,1.1-5.9,1.3c-5.2,0.8-10.5,1.6-15.7,2.4c-4.9,0.7-9.9,1.5-14.8,2.2c-8.5,1.2-17,2.4-25.5,3.5
	c-3.3,0.4-3.4,0.7-2.4,3.8c1.9,5.8,3.8,11.5,5.7,17.3c1.2,4,2.3,8,3.4,12c1.2,4.3,1.5,4.5,5.9,4.5c14.8,0.3,29.5,0.6,44.3,0.9
	c0.7,0,1.3,0,2.2,0C426.5,642.5,427.4,626.8,428.4,610.6z M432,672.5c-1.7-3.5-3.4-6.7-4.8-9.9c-0.7-1.7-1.7-2.4-3.6-2.4
	c-8-0.2-15.9-0.7-23.9-0.9c-11.6-0.3-23.1-0.5-34.7-0.7c-0.9,0-2.2,0.6-2.8,1.3c-2.6,3.5-5.1,7.1-7.6,10.8c-0.7,1-1.3,2.2-2,3.3
	c3.6,1.5,6.9,3,10.3,4.4c4.8,2,9.6,3.9,14.4,5.8c2,0.8,4.3,1.3,6,2.5c2.9,2,5.8,2.2,9,0.9c0.7-0.3,1.3-0.8,2-1
	c6.1-2.3,12.2-4.6,18.3-6.9C418.9,677.3,425.3,675,432,672.5z M388.9,690.6c-1.1,7.5-2.1,14.5-3.2,21.5c-0.4,2.8-1,5.5-1.4,8.3
	c-0.1,0.6,0.2,1.6,0.6,1.9c5.5,3.6,11.2,7.1,16.8,10.6c0.4,0.2,1.2,0.2,1.6,0c3.5-2.1,6.9-4.3,10.4-6.6c1.6-1.1,2.5-2.4,2.6-4.5
	c0.1-3.2,0.9-6.4,1.2-9.6c0.1-1.1-0.1-2.7-0.8-3.3c-1.7-1.6-3.8-2.9-5.8-4.2c-6-3.9-11.9-7.8-17.9-11.6
	C391.7,692.3,390.5,691.6,388.9,690.6z M431.5,674.3c-3.5,1.4-6.7,2.7-10,4c-7.4,2.8-14.8,5.4-22.2,8.2c-2.2,0.8-4.5,1.6-6.7,2.5
	c-0.5,0.2-1,0.7-1.6,1.1c4,2.6,7.7,5,11.4,7.5c4.5,2.9,8.9,5.8,13.3,8.8c1.6,1,2.4,1.3,3.4-0.9c2-4.6,4.4-9.1,6.6-13.7
	c0.9-1.9,1.7-3.8,2.7-5.6C430.4,682.5,432.1,679,431.5,674.3z M342.4,551.2c-0.5,3.1-1,5.9-1.5,8.6c-0.4,2.3-0.7,4.3,1.8,6.2
	c2.9,2.3,5.2,5.4,7.8,8.1c3.4,3.4,6.9,6.7,10.4,10c0.6,0.5,1.3,0.9,2,1.3c0.4-0.8,1.1-1.7,1.1-2.5c0.1-5.9,0.1-11.7,0.1-17.6
	c0-0.7-0.5-1.7-1-2.1c-1.3-1-2.8-1.6-4.2-2.5c-3.4-2-6.7-4.1-10.1-6.1C346.8,553.4,344.7,552.4,342.4,551.2z M362.3,656.8
	c-5,0-9.3,0-13.7,0c-0.3,0-0.5,0.2-0.8,0.3c-5,2.8-9.9,5.8-15,8.5c-1.4,0.8-1.8,1.5-1,2.8c0.5,0.9,1.2,1.7,1.5,2.7
	c0.5,1.3,1.2,1.7,2.6,1.5c4.5-0.9,9.1-1.7,13.6-2.3c2.4-0.3,4.3-0.7,5.7-3.1C357.2,663.7,359.7,660.6,362.3,656.8z M351.8,675.5
	c-2.7,7.1-5.2,13.9-7.8,20.8c2.3,0.2,4,0.5,5.6,0.6c0.6,0,1.4-0.1,1.9-0.5c3.4-2.9,6.8-5.9,10.2-8.9c2-1.7,4-3.5,6.2-5.4
	C362.5,679.9,357.4,677.8,351.8,675.5z M365.9,583.2c2.2-1.5,4.1-2.8,6-4.1c2.7-1.9,5.6-3.6,8.1-5.7c3.2-2.7,6.5-3.5,10.6-2.5
	c2.1,0.5,4.3,0.4,6.5,0.5c0.1-0.4,0.1-0.8,0.2-1.2c-3.7-1-7.4-2.1-11.2-2.9c-2.2-0.5-4.5-0.5-6.8-0.8c-4.3-0.6-8.6-1.2-13.1-1.9
	c-0.1,0.8-0.2,1.2-0.2,1.5C365.9,571.7,365.9,577.2,365.9,583.2z M388.6,745.1c0.3-0.2,0.5-0.3,0.6-0.4c2.7-3.7,5.4-7.4,7.9-11.2
	c0.2-0.3-0.1-1.5-0.6-1.8c-3.1-2.1-6.3-4.1-9.5-6.1c-0.6-0.3-1.3-0.5-1.8-0.7c-0.9,4.6-1.8,8.9-2.6,13.2c-0.1,0.6,0,1.4,0.4,1.8
	C384.8,741.6,386.7,743.3,388.6,745.1z M330.1,635.6c2.3,0,3.5-0.8,3.9-2.7c0.2-0.9,0.9-1.8,1.1-2.7c0.4-3.3,4-6.2,1.2-10
	c-1.8-2.5-3.4-5.1-5.3-8.1C330.6,620.2,330.4,627.8,330.1,635.6z M340.7,552.2c-0.2-0.1-0.3-0.2-0.5-0.3c-1.8,1.3-3.4,2.7-5.3,3.8
	c-4.2,2.4-4.5,3.4-1.4,7c1,1.2,5.1,1,5.3-0.4C339.5,559,340.1,555.6,340.7,552.2z M345.7,686.7c-4.1,1.6-7.7,3.1-11.4,4.5
	c0.9,1.3,1.6,2.4,2.4,3.4c1,1.3,5.5,1.6,6,0.4C343.7,692.4,344.6,689.7,345.7,686.7z M418.4,716.3c-0.2,2.3-0.5,4.7-0.6,7
	c0,0.5,0.6,1.2,1.1,1.4c1.8,0.5,3.6,0.9,5.4,1.3C425.9,721.1,423.6,717.2,418.4,716.3z M331.4,671.2c-0.1,0-0.3,0.1-0.4,0.1
	c-0.1,3.1-0.3,6.2-0.4,9.4c0.2,0,0.5,0.1,0.7,0.1c0.5-2.3,1.2-4.6,1.5-7C332.9,673,331.9,672.1,331.4,671.2z M330.7,571.9
	c2.7-2.5,2.6-7.4,0-9.6C330.7,565.4,330.7,568.4,330.7,571.9z"/>
<path class="st6" d="M427.5,609.5c-4.2,0.5-7.8,0.9-11.4,1.4c-9,1.3-18,2.8-26.9,4.1c-7.2,1.1-14.4,2.1-21.6,3
	c-6.1,0.8-12.2,1.4-18.3,2.2c-2.3,0.3-4.6,0.4-6.7,1.1c-2.8,0.8-4.4-0.5-5.7-2.6c-1.6-2.6-3.2-5.2-4.8-7.8c-0.8-1.3-0.7-1.9,0.7-2.8
	c4.1-2.6,8-5.6,12-8.4c3.5-2.5,7.1-4.9,10.6-7.4s7.1-4.9,10.6-7.4c2.7-1.9,5.3-3.8,7.9-5.6c3.2-2.2,6.3-4.4,9.5-6.6
	c0.6-0.4,1.4-0.7,2.1-0.6c5.5,0.4,11,1,16.6,1.2c2.9,0.1,3.2,2.7,4.4,4.2c3.1,4.1,5.8,8.4,8.6,12.7c1.9,2.9,3.7,5.8,5.5,8.7
	c1.9,2.9,3.8,5.7,5.7,8.5C426.9,608,427.1,608.6,427.5,609.5z"/>
<path class="st6" d="M428.4,610.6c-1,16.3-1.9,31.9-2.9,47.9c-0.9,0-1.5,0-2.2,0c-14.8-0.3-29.5-0.6-44.3-0.9
	c-4.4-0.1-4.7-0.3-5.9-4.5c-1.1-4-2.2-8-3.4-12c-1.8-5.8-3.7-11.6-5.7-17.3c-1-3.1-0.9-3.3,2.4-3.8c8.5-1.1,17-2.3,25.5-3.5
	c4.9-0.7,9.9-1.5,14.8-2.2c5.2-0.8,10.5-1.5,15.7-2.4C424.3,611.6,426,611.1,428.4,610.6z"/>
<path class="st6" d="M432,672.5c-6.7,2.5-13,4.8-19.4,7.1c-6.1,2.3-12.2,4.6-18.3,6.9c-0.7,0.3-1.3,0.7-2,1c-3.1,1.4-6,1.1-9-0.9
	c-1.8-1.2-4-1.7-6-2.5c-4.8-1.9-9.6-3.8-14.4-5.8c-3.4-1.4-6.7-2.9-10.3-4.4c0.7-1.1,1.3-2.3,2-3.3c2.5-3.6,4.9-7.3,7.6-10.8
	c0.6-0.7,1.8-1.3,2.8-1.3c11.6,0.1,23.1,0.4,34.7,0.7c8,0.2,15.9,0.7,23.9,0.9c1.9,0.1,2.8,0.7,3.6,2.4
	C428.5,665.8,430.2,669,432,672.5z"/>
<path class="st6" d="M388.9,690.6c1.5,0.9,2.8,1.6,4,2.4c6,3.9,12,7.7,17.9,11.6c2,1.3,4.1,2.6,5.8,4.2c0.7,0.6,0.9,2.2,0.8,3.3
	c-0.3,3.2-1.1,6.4-1.2,9.6c-0.1,2.2-1,3.5-2.6,4.5c-3.4,2.2-6.9,4.4-10.4,6.6c-0.4,0.3-1.2,0.3-1.6,0c-5.6-3.5-11.2-7-16.8-10.6
	c-0.4-0.3-0.7-1.3-0.6-1.9c0.4-2.8,1-5.5,1.4-8.3C386.8,705.1,387.8,698.1,388.9,690.6z"/>
<path class="st6" d="M431.5,674.3c0.6,4.7-1.1,8.3-3,11.8c-1,1.8-1.8,3.7-2.7,5.6c-2.2,4.6-4.6,9.1-6.6,13.7
	c-0.9,2.1-1.8,1.9-3.4,0.9c-4.4-3-8.9-5.9-13.3-8.8c-3.7-2.4-7.5-4.9-11.4-7.5c0.6-0.4,1-0.9,1.6-1.1c2.2-0.9,4.5-1.7,6.7-2.5
	c7.4-2.7,14.8-5.4,22.2-8.2C424.8,677,428,675.6,431.5,674.3z"/>
<path class="st6" d="M342.4,551.2c2.3,1.2,4.4,2.3,6.3,3.4c3.4,2,6.7,4.1,10.1,6.1c1.4,0.8,2.9,1.5,4.2,2.5c0.6,0.4,1,1.4,1,2.1
	c0.1,5.9,0.1,11.7-0.1,17.6c0,0.8-0.7,1.7-1.1,2.5c-0.7-0.4-1.4-0.8-2-1.3c-3.5-3.3-7-6.6-10.4-10c-2.7-2.7-4.9-5.8-7.8-8.1
	c-2.4-1.9-2.2-3.9-1.8-6.2C341.4,557.1,341.9,554.3,342.4,551.2z"/>
<path class="st6" d="M362.3,656.8c-2.6,3.8-5.1,6.9-7,10.3c-1.4,2.5-3.3,2.8-5.7,3.1c-4.6,0.7-9.1,1.5-13.6,2.3
	c-1.4,0.3-2.1-0.1-2.6-1.5c-0.3-1-1-1.8-1.5-2.7c-0.8-1.3-0.4-2,1-2.8c5-2.7,10-5.7,15-8.5c0.2-0.1,0.5-0.3,0.8-0.3
	C352.9,656.8,357.3,656.8,362.3,656.8z"/>
<path class="st6" d="M351.8,675.5c5.6,2.3,10.7,4.3,16.1,6.6c-2.2,2-4.2,3.7-6.2,5.4c-3.4,3-6.7,6-10.2,8.9
	c-0.5,0.4-1.3,0.5-1.9,0.5c-1.7-0.1-3.3-0.3-5.6-0.6C346.6,689.4,349.1,682.7,351.8,675.5z"/>
<path class="st6" d="M365.9,583.2c0-5.9,0-11.5,0-17c0-0.4,0.1-0.7,0.2-1.5c4.4,0.6,8.8,1.3,13.1,1.9c2.3,0.3,4.6,0.4,6.8,0.8
	c3.8,0.8,7.5,1.9,11.2,2.9c-0.1,0.4-0.1,0.8-0.2,1.2c-2.2-0.2-4.4,0-6.5-0.5c-4.1-1-7.4-0.2-10.6,2.5c-2.5,2.1-5.4,3.8-8.1,5.7
	C370,580.3,368.1,581.6,365.9,583.2z"/>
<path class="st6" d="M388.6,745.1c-1.9-1.8-3.8-3.5-5.6-5.3c-0.4-0.4-0.5-1.2-0.4-1.8c0.8-4.3,1.7-8.6,2.6-13.2
	c0.6,0.2,1.3,0.3,1.8,0.7c3.2,2,6.4,4,9.5,6.1c0.4,0.3,0.8,1.4,0.6,1.8c-2.6,3.8-5.3,7.5-7.9,11.2
	C389.1,744.8,388.8,744.9,388.6,745.1z"/>
<path class="st6" d="M330.1,635.6c0.3-7.8,0.6-15.4,0.9-23.5c1.9,3,3.5,5.6,5.3,8.1c2.8,3.8-0.8,6.7-1.2,10
	c-0.1,0.9-0.9,1.8-1.1,2.7C333.5,634.8,332.4,635.6,330.1,635.6z"/>
<path class="st6" d="M340.7,552.2c-0.6,3.4-1.1,6.8-1.8,10.1c-0.3,1.3-4.3,1.6-5.3,0.4c-3.1-3.6-2.9-4.6,1.4-7
	c1.9-1.1,3.5-2.5,5.3-3.8C340.3,552.1,340.5,552.2,340.7,552.2z"/>
<path class="st6" d="M345.7,686.7c-1.1,3.1-2,5.7-3,8.3c-0.5,1.2-4.9,0.9-6-0.4c-0.8-1-1.5-2.1-2.4-3.4
	C338,689.7,341.6,688.3,345.7,686.7z"/>
<path class="st6" d="M418.4,716.3c5.2,0.9,7.4,4.8,5.9,9.7c-1.8-0.4-3.6-0.8-5.4-1.3c-0.5-0.1-1.1-0.9-1.1-1.4
	C418,720.9,418.2,718.6,418.4,716.3z"/>
<path class="st6" d="M331.4,671.2c0.5,0.9,1.5,1.8,1.4,2.6c-0.3,2.4-1,4.7-1.5,7c-0.2,0-0.5-0.1-0.7-0.1c0.1-3.1,0.3-6.2,0.4-9.4
	C331.2,671.3,331.3,671.3,331.4,671.2z"/>
<path class="st6" d="M330.7,571.9c0-3.4,0-6.5,0-9.6C333.3,564.5,333.4,569.4,330.7,571.9z"/>
<text transform="matrix(1 0 0 1 131.2002 921.0001)" class="st9 st10">+</text>
<text transform="matrix(1 0 0 1 133.7002 981.1997)" class="st9 st11">l</text>
</svg>
