<?xml version="1.0" encoding="utf-8"?>
<!-- Generator: Adobe Illustrator 23.0.6, SVG Export Plug-In . SVG Version: 6.00 Build 0)  -->
<svg version="1.1" id="Layer_1" xmlns="http://www.w3.org/2000/svg" xmlns:xlink="http://www.w3.org/1999/xlink" x="0px" y="0px"
	 viewBox="0 0 603.8 462" style="enable-background:new 0 0 603.8 462;" xml:space="preserve">
<style type="text/css">
	.st0{fill:none;stroke:#000000;}
	.st1{fill:none;stroke:#000000;stroke-miterlimit:10;}
	.st2{fill:#777777;}
	.st3{fill:#777777;stroke:#777777;stroke-width:0.7087;stroke-linecap:round;}
	.st4{fill:none;stroke:#000000;stroke-linecap:round;}
	.st5{font-family:'ArialMT';}
	.st6{font-size:16.0236px;}
</style>
<path id="front_outsideCutPath_2_" vector-effect="non-scaling-stroke" class="st0" d="M291.8,112.1"/>
<path id="front_outsideCutPath_5_" vector-effect="non-scaling-stroke" class="st0" d="M54.2,121.1"/>
<path id="front_outsideCutPath_4_" vector-effect="non-scaling-stroke" class="st0" d="M54.2,112.1"/>
<g>
	<path id="top_outsideCutPath" vector-effect="non-scaling-stroke" class="st1" d="M359.2,2.8v316.8h237.6V2.8H359.2z"/>
	<path id="top_labelLayer" vector-effect="non-scaling-stroke" class="st2" d="M499,162.5h-0.2c0.1,0.8,0.2,1.5,0.2,2.3
		c0,0.4,0,0.9,0,1.3v8.9h-3.3v-31.2h2.7l0.5,2.9h0.2c0.4-0.5,0.8-1,1.3-1.4c0.5-0.5,1.1-0.8,1.7-1.1c0.7-0.3,1.5-0.6,2.3-0.7
		c0.5-0.1,1-0.1,1.5-0.1c2.9,0,5.1,1,6.6,2.9c1.6,2,2.3,4.7,2.3,8.2c0,1.1-0.1,2.2-0.3,3.2c-0.2,1.1-0.5,2.2-0.9,3.1
		c-0.3,0.7-0.7,1.3-1.2,1.9c-1.3,1.7-3.3,2.7-5.5,2.9c-0.4,0-0.7,0.1-1.1,0.1c-1.4,0-2.7-0.3-3.8-0.8
		C500.8,164.3,499.8,163.6,499,162.5z M467.1,162.6v2.5c-0.1,0.1-0.3,0.1-0.4,0.2c-0.3,0.1-0.7,0.2-1.2,0.3
		c-0.3,0.1-0.6,0.1-0.9,0.1s-0.6,0-0.8,0h-0.1c-4.2,0-6.3-2.2-6.3-6.6v-12.8h-3v-1.6l3.1-1.4l1.4-4.6h1.9v5h6.3v2.5h-6.3v12.7
		c0,0.4,0,0.8,0.1,1.2c0.1,0.4,0.2,0.8,0.4,1.1c0.1,0.3,0.3,0.5,0.5,0.7c0.5,0.5,1.1,0.9,1.9,1c0.2,0,0.4,0,0.7,0c0.5,0,1,0,1.6-0.1
		h0.1c0.2,0,0.3-0.1,0.5-0.1C466.6,162.7,466.9,162.6,467.1,162.6z M489.7,157.7c0.2-1.1,0.3-2.2,0.3-3.3c0-0.2,0-0.3,0-0.5
		c0-1.2-0.2-2.3-0.4-3.3c-0.4-1.6-1.1-3.1-2.2-4.3c-1.1-1.2-2.4-2.1-4-2.6c-1-0.3-2.1-0.5-3.2-0.4c-0.8,0-1.5,0.1-2.3,0.2
		c-1.9,0.3-3.7,1.3-5,2.7c-1.8,2-2.6,4.7-2.6,8.2c0,2.3,0.4,4.2,1.2,5.9c0.1,0.2,0.2,0.3,0.2,0.5c0.7,1.4,1.9,2.6,3.2,3.4
		c0.7,0.4,1.4,0.7,2.1,0.9c1,0.3,2,0.4,3,0.4c0.7,0,1.5-0.1,2.2-0.2c2-0.3,3.8-1.3,5.1-2.8C488.6,161.4,489.3,159.7,489.7,157.7z
		 M473.6,154.5c0,0.8,0,1.6,0.2,2.4c0.2,1.6,0.7,2.9,1.5,3.9c0.8,1.1,2.1,1.8,3.5,2c0.5,0.1,0.9,0.1,1.4,0.1c0.7,0,1.3-0.1,2-0.2
		c1.1-0.3,2.2-1,2.9-1.9c0.8-1.1,1.3-2.5,1.6-4.3c0.1-0.7,0.1-1.3,0.1-2c0-1.8-0.2-3.2-0.7-4.5c-0.2-0.6-0.6-1.2-1-1.8
		c-0.8-1.1-2-1.8-3.3-2c-0.5-0.1-1-0.1-1.6-0.1c-0.7,0-1.3,0.1-1.9,0.2c-1.2,0.3-2.2,0.9-2.9,1.9c-0.8,1-1.3,2.4-1.5,4.1
		C473.7,153,473.6,153.7,473.6,154.5z M499,153.7v0.7c0,0.7,0,1.5,0.1,2.2c0.2,1.9,0.7,3.3,1.4,4.3c0.6,0.8,1.5,1.3,2.4,1.6
		c0.5,0.2,1.1,0.3,1.8,0.3c0.2,0,0.4,0,0.7,0c0.7,0,1.5-0.1,2.1-0.4c0.8-0.3,1.5-0.9,2.1-1.7c0-0.1,0.1-0.1,0.1-0.2
		c0.5-0.7,0.8-1.5,1.1-2.3c0.2-0.7,0.4-1.5,0.4-2.3c0-0.5,0.1-1.1,0.1-1.6c0-0.8,0-1.6-0.2-2.3c-0.1-0.8-0.3-1.5-0.5-2.1
		s-0.5-1.2-0.9-1.7c-1.1-1.4-2.5-2.2-4.5-2.2c-0.6,0-1.2,0-1.8,0.2c-1.3,0.3-2.3,0.8-3,1.7c-0.4,0.5-0.7,1-0.9,1.6
		C499.2,150.6,499,152,499,153.7z"/>
</g>
<path id="right_outsideCutPath" vector-effect="non-scaling-stroke" class="st0" d="M-14.3,495.3v144h316.8v-144H-14.3z"/>
<path id="bottom_outsideCutPath" vector-effect="non-scaling-stroke" class="st1" d="M-307.7-45v316.8H9.1V-45H-307.7z"/>
<path id="bottom_labelLayer" vector-effect="non-scaling-stroke" class="st2" d="M-80.8,140.8h-3.3v-14c0-0.5,0-0.9-0.1-1.4
	s-0.2-0.9-0.3-1.3c-0.2-0.4-0.4-0.8-0.7-1.1c-0.4-0.5-1-0.8-1.6-1c-0.5-0.2-1.1-0.3-1.8-0.3c-2,0-3.5,0.6-4.5,1.7
	c-0.4,0.5-0.7,1.1-0.9,1.7c-0.4,1-0.5,2.2-0.5,3.7l0,0v12h-3.3v-14c0-0.5,0-0.9-0.1-1.4s-0.2-0.9-0.3-1.3c-0.2-0.4-0.4-0.8-0.7-1.1
	c-0.7-0.9-1.9-1.3-3.4-1.3c-2,0-3.5,0.6-4.5,1.8c-0.9,1.1-1.3,2.9-1.4,5.3c0,0.3,0,0.5,0,0.8v11.3h-3.3v-21.5h2.7l0.5,2.9h0.2
	c0.6-1,1.5-1.9,2.6-2.5c1-0.5,2-0.8,3.1-0.9c0.2,0,0.5,0,0.7,0c0.8,0,1.6,0.1,2.4,0.2c1,0.2,1.8,0.6,2.5,1.2
	c0.7,0.6,1.3,1.4,1.7,2.3h0.2c0.6-1.1,1.5-1.9,2.6-2.5c0.1,0,0.1-0.1,0.2-0.1c0.9-0.5,2-0.8,3-0.9c0.4,0,0.8-0.1,1.1-0.1
	c0.7,0,1.4,0.1,2.1,0.2c0.8,0.1,1.4,0.4,2,0.7c0.5,0.3,1,0.6,1.4,1c0.5,0.6,0.9,1.2,1.2,2c0.2,0.6,0.4,1.2,0.5,2
	c0.1,0.7,0.1,1.4,0.1,2.1v13.8L-80.8,140.8L-80.8,140.8z M-210,138.1h-0.2l-0.7,2.8h-2.3v-30.6h3.3v7.4c0,0.8,0,1.5,0,2.3
	c0,0.7-0.1,1.4-0.1,2.1v0.1h0.2c1.3-1.8,3.2-2.9,5.4-3.1c0.4-0.1,0.9-0.1,1.3-0.1c0.9,0,1.9,0.1,2.8,0.4c1.5,0.4,2.8,1.3,3.8,2.5
	c0.8,1,1.3,2.1,1.7,3.2c0.4,1.4,0.7,3.1,0.7,5c0,1.1-0.1,2.2-0.3,3.2c-0.2,1.1-0.5,2.2-0.9,3.1c-0.3,0.7-0.7,1.3-1.2,1.9
	c-1.3,1.7-3.3,2.7-5.5,2.9c-0.4,0-0.7,0.1-1.1,0.1c-1.4,0-2.7-0.3-3.8-0.8C-208.2,139.9-209.2,139.2-210,138.1z M-154.4,138.2v2.5
	c-0.1,0.1-0.3,0.1-0.4,0.2c-0.3,0.1-0.7,0.2-1.2,0.3c-0.3,0-0.6,0.1-0.9,0.1s-0.6,0-0.8,0h-0.1c-4.2,0-6.3-2.2-6.3-6.6v-12.8h-3.1
	v-1.6l3.1-1.4l1.4-4.6h1.9v5h6.3v2.5h-6.3v12.7c0,0.4,0,0.8,0.1,1.2s0.2,0.8,0.4,1.1c0.1,0.3,0.3,0.5,0.5,0.7c0.5,0.5,1.1,0.9,1.9,1
	c0.2,0,0.4,0.1,0.7,0.1c0.5,0,1,0,1.6-0.1h0.1c0.2,0,0.3-0.1,0.5-0.1C-154.9,138.3-154.6,138.2-154.4,138.2z M-140.2,138.2v2.5
	c-0.1,0.1-0.3,0.1-0.4,0.2c-0.3,0.1-0.7,0.2-1.2,0.3c-0.3,0-0.6,0.1-0.9,0.1s-0.6,0-0.8,0h-0.1c-4.2,0-6.3-2.2-6.3-6.6v-12.8h-3.1
	v-1.6l3.1-1.4l1.4-4.6h1.9v5h6.3v2.5h-6.3v12.7c0,0.4,0,0.8,0.1,1.2s0.2,0.8,0.4,1.1c0.1,0.3,0.3,0.5,0.5,0.7c0.5,0.5,1.1,0.9,1.9,1
	c0.2,0,0.4,0.1,0.7,0.1c0.5,0,1,0,1.6-0.1h0.1c0.2,0,0.3-0.1,0.5-0.1C-140.7,138.3-140.4,138.2-140.2,138.2z M-170.3,133.3
	c0.2-1.1,0.3-2.2,0.3-3.3c0-0.2,0-0.3,0-0.5c0-1.2-0.2-2.3-0.4-3.3c-0.4-1.6-1.1-3.1-2.2-4.3s-2.4-2.1-4-2.6c-1-0.3-2.1-0.5-3.2-0.5
	c-0.8,0-1.5,0.1-2.3,0.2c-1.9,0.3-3.7,1.3-5,2.7c-1.8,2-2.6,4.7-2.6,8.2c0,2.3,0.4,4.2,1.2,5.9c0.1,0.2,0.2,0.3,0.2,0.5
	c0.7,1.4,1.9,2.6,3.2,3.4c0.7,0.4,1.4,0.7,2.1,0.9c1,0.3,2,0.4,3,0.4c0.7,0,1.5-0.1,2.2-0.2c2-0.3,3.8-1.3,5.1-2.8
	C-171.5,137-170.7,135.3-170.3,133.3z M-117.6,133.3c0.2-1.1,0.3-2.2,0.3-3.3c0-0.2,0-0.3,0-0.5c0-1.2-0.2-2.3-0.4-3.3
	c-0.4-1.6-1.1-3.1-2.2-4.3c-1.1-1.2-2.4-2.1-4-2.6c-1-0.3-2.1-0.5-3.2-0.5c-0.8,0-1.5,0.1-2.3,0.2c-1.9,0.3-3.7,1.3-5,2.7
	c-1.8,2-2.6,4.7-2.6,8.2c0,2.3,0.4,4.2,1.2,5.9c0.1,0.2,0.2,0.3,0.2,0.5c0.7,1.4,1.9,2.6,3.2,3.4c0.7,0.4,1.4,0.7,2.1,0.9
	c1,0.3,2,0.4,3,0.4c0.7,0,1.5-0.1,2.2-0.2c2-0.3,3.8-1.3,5.1-2.8C-118.8,137-118,135.3-117.6,133.3z M-186.4,130.1
	c0,0.8,0,1.6,0.2,2.4c0.2,1.6,0.7,2.9,1.5,3.9c0.8,1.1,2.1,1.9,3.5,2.1c0.5,0.1,0.9,0.1,1.4,0.1c0.7,0,1.3-0.1,2-0.2
	c1.1-0.3,2.2-1,2.9-1.9c0.8-1.1,1.3-2.5,1.6-4.3c0.1-0.7,0.1-1.3,0.1-2c0-1.8-0.2-3.2-0.7-4.5c-0.2-0.6-0.6-1.2-1-1.8
	c-0.8-1.1-2-1.8-3.3-2c-0.5-0.1-1-0.1-1.6-0.1c-0.7,0-1.3,0.1-1.9,0.2c-1.2,0.3-2.2,0.9-2.9,1.9c-0.8,1-1.3,2.4-1.5,4.1
	C-186.4,128.6-186.4,129.3-186.4,130.1z M-133.7,130.1c0,0.8,0,1.6,0.2,2.4c0.2,1.6,0.7,2.9,1.5,3.9c0.8,1.1,2.1,1.9,3.5,2.1
	c0.5,0.1,0.9,0.1,1.4,0.1c0.7,0,1.3-0.1,2-0.2c1.1-0.3,2.2-1,2.9-1.9c0.8-1.1,1.3-2.5,1.6-4.3c0.1-0.7,0.1-1.3,0.1-2
	c0-1.8-0.2-3.2-0.7-4.5c-0.2-0.6-0.6-1.2-1-1.8c-0.8-1.1-2-1.8-3.3-2c-0.5-0.1-1-0.1-1.6-0.1c-0.7,0-1.3,0.1-1.9,0.2
	c-1.2,0.3-2.2,0.9-2.9,1.9c-0.8,1-1.3,2.4-1.5,4.1C-133.6,128.6-133.7,129.3-133.7,130.1z M-203.7,121.7c-0.6,0-1.2,0-1.8,0.2
	c-0.7,0.1-1.3,0.4-1.8,0.6c-0.5,0.3-0.9,0.7-1.3,1.1c-0.3,0.5-0.6,1-0.8,1.5c-0.4,1-0.6,2.3-0.6,3.9c0,0.4,0,0.7,0,1.1
	c0,0.7,0,1.5,0.1,2.2c0.2,1.9,0.7,3.3,1.4,4.3c0.6,0.8,1.5,1.3,2.4,1.6c0.5,0.2,1.1,0.3,1.8,0.3c0.2,0,0.4,0,0.7,0
	c0.6,0,1.2-0.1,1.8-0.2c1.1-0.3,2-1,2.6-1.9c0.4-0.6,0.7-1.3,0.9-2c0.2-0.6,0.3-1.3,0.4-2.1c0.1-0.7,0.1-1.5,0.1-2.2
	c0-2.8-0.5-4.9-1.5-6.3C-200.1,122.4-201.7,121.7-203.7,121.7z"/>
<ellipse transform="matrix(0.8 -0.5999 0.5999 0.8 -350.7072 145.968)" class="st3" cx="43.6" cy="599.1" rx="11.3" ry="11.3"/>
<circle class="st3" cx="101.6" cy="597.6" r="11.3"/>
<image style="overflow:visible;enable-background:new    ;" width="959" height="959" xlink:href="Images/battery.jpg"  transform="matrix(6.045340e-02 0 0 5.598316e-02 43.6252 527.1435)">
</image>
<image style="overflow:visible;enable-background:new    ;" width="1600" height="1600" xlink:href="Images/engine.jpg"  transform="matrix(3.849540e-02 0 0 3.562780e-02 184.8249 525.4852)">
</image>
<g>
	<path id="left_outsideCutPath" vector-effect="non-scaling-stroke" class="st0" d="M365,503.1v144h316.8v-144H365z"/>
	<g>
		<circle class="st3" cx="414.3" cy="599.1" r="18.4"/>
		<circle class="st3" cx="485.1" cy="599.1" r="18.4"/>
		<circle class="st3" cx="626.5" cy="599.1" r="18.4"/>
		<circle class="st3" cx="555.8" cy="599.1" r="18.4"/>
	</g>
	
		<image style="overflow:visible;enable-background:new    ;" width="150" height="151" xlink:href="Images/arduino.jpg"  transform="matrix(0.2834 0 0 0.2752 393.0728 520.3032)">
	</image>
	
		<image style="overflow:visible;enable-background:new    ;" width="1600" height="1600" xlink:href="Images/engine.jpg"  transform="matrix(3.412803e-02 0 0 3.004271e-02 599.2045 517.0466)">
	</image>
	
		<image style="overflow:visible;enable-background:new    ;" width="530" height="530" xlink:href="Images/brain.jpg"  transform="matrix(8.869101e-02 0 0 8.304498e-02 532.2775 517.4155)">
	</image>
	
		<image style="overflow:visible;enable-background:new    ;" width="421" height="402" xlink:href="Images/analog-png-7.png"  transform="matrix(0.1537 0 0 0.111 452.7003 517.1115)">
	</image>
</g>
<rect x="206.3" y="593.1" class="st3" width="18.7" height="9.1"/>
<polyline class="st4" points="458.2,-23.2 521,-23.2 521,-32.2 584.5,-32.2 584.5,-23.2 645.1,-23.2 645.1,-32.2 700.4,-32.2 
	700.4,-23.2 "/>
<g>
	<polyline class="st4" points="54.2,112.1 88,112.1 88,121.1 	"/>
	<path class="st4" d="M54.2,112.1"/>
	<path class="st4" d="M41.1,112.1"/>
	<path class="st4" d="M41.1,112.1"/>
	<path class="st4" d="M31.3,121.1"/>
	<line class="st4" x1="88" y1="121.1" x2="88" y2="112.1"/>
	<path class="st4" d="M88,121.1"/>
	<line class="st4" x1="144.7" y1="112.1" x2="144.7" y2="121.1"/>
	<polyline class="st4" points="144.7,121.1 144.7,112.1 201.3,112.1 201.3,121.1 	"/>
	<line class="st4" x1="201.3" y1="121.1" x2="201.3" y2="112.1"/>
	<path class="st4" d="M201.3,121.1"/>
	<line class="st4" x1="258" y1="112.1" x2="258" y2="121.1"/>
	<polyline class="st4" points="258,121.1 258,112.1 291.8,112.1 	"/>
</g>
<g>
	<g>
		<path id="front_outsideCutPath_3_" vector-effect="non-scaling-stroke" class="st0" d="M54.2,121.1v135h237.6v-135"/>
		<path id="front_outsideCutPath" vector-effect="non-scaling-stroke" class="st0" d="M291.8,112.1v-36H54.2v36"/>
		
			<image style="overflow:visible;enable-background:new    ;" width="212" height="48" xlink:href="149F47201194CA15.jpg"  transform="matrix(0.7937 0 0 0.7937 87.9606 162.2866)">
		</image>
	</g>
	<g>
		<polyline class="st4" points="291.8,121.1 258,121.1 258,112.1 		"/>
		<path class="st4" d="M291.8,121.1"/>
		<line class="st4" x1="258" y1="112.1" x2="258" y2="121.1"/>
		<path class="st4" d="M258,112.1"/>
		<path class="st4" d="M201.3,112.1"/>
		<line class="st4" x1="201.3" y1="121.1" x2="201.3" y2="112.1"/>
		<polyline class="st4" points="201.3,112.1 201.3,121.1 144.7,121.1 144.7,112.1 		"/>
		<line class="st4" x1="144.7" y1="112.1" x2="144.7" y2="121.1"/>
		<path class="st4" d="M144.7,112.1"/>
		<path class="st4" d="M88,112.1"/>
		<line class="st4" x1="88" y1="121.1" x2="88" y2="112.1"/>
		<polyline class="st4" points="88,112.1 88,121.1 54.2,121.1 		"/>
	</g>
</g>
<path id="back_outsideCutPath_4_" vector-effect="non-scaling-stroke" class="st0" d="M411.1,195.9"/>
<g>
	<path id="back_outsideCutPath_1_" vector-effect="non-scaling-stroke" class="st0" d="M359.2,319.6v135h237.6v-135"/>
	<g>
		<g>
			<circle class="st3" cx="529.4" cy="436.5" r="7.1"/>
			<circle class="st3" cx="566.2" cy="436.5" r="7.1"/>
			
				<image style="overflow:visible;enable-background:new    ;" width="1667" height="1786" xlink:href="Images/info.jpg"  transform="matrix(1.211721e-02 0 0 1.169880e-02 556.1226 398.9079)">
			</image>
			
				<image style="overflow:visible;enable-background:new    ;" width="1600" height="1600" xlink:href="Images/engine.jpg"  transform="matrix(1.644337e-02 0 0 1.460217e-02 516.2676 397.6732)">
			</image>
		</g>
		<g>
			
				<image style="overflow:visible;enable-background:new    ;" width="626" height="626" xlink:href="Images/t1TwA.jpg"  transform="matrix(4.543621e-09 -7.721105e-02 8.011945e-02 4.714770e-09 521.2173 386.258)">
			</image>
			<circle class="st3" cx="546.3" cy="358.7" r="9.9"/>
		</g>
		<rect x="430" y="411.5" class="st3" width="60" height="26.6"/>
		<text transform="matrix(0.7489 0 0 1 439.2602 428.2226)" class="st5 st6">sensors</text>
		<g>
			<path class="st4" d="M279.5,310.6"/>
			<polyline class="st4" points="392.9,310.6 392.9,319.6 359.2,319.6 			"/>
			<polyline class="st4" points="392.9,319.6 392.9,310.6 449.6,310.6 449.6,319.6 			"/>
			<polyline class="st4" points="506.3,310.6 506.3,319.6 449.6,319.6 449.6,310.6 			"/>
			<polyline class="st4" points="506.3,310.6 563,310.6 563,319.6 			"/>
			<line class="st4" x1="506.3" y1="319.6" x2="506.3" y2="310.6"/>
			<polyline class="st4" points="596.8,319.6 563,319.6 563,310.6 			"/>
		</g>
	</g>
</g>
</svg>
