<?xml version="1.0" encoding="utf-8"?>
<!-- Generator: Adobe Illustrator 23.0.6, SVG Export Plug-In . SVG Version: 6.00 Build 0)  -->
<svg version="1.1" id="Layer_1" xmlns="http://www.w3.org/2000/svg" xmlns:xlink="http://www.w3.org/1999/xlink" x="0px" y="0px"
	 viewBox="0 0 1101.2 742" style="enable-background:new 0 0 1101.2 742;" xml:space="preserve">
<style type="text/css">
	.st0{fill:none;stroke:#FF0000;stroke-width:7.200000e-02;stroke-miterlimit:10;}
	.st1{fill:none;stroke:#000000;stroke-miterlimit:10;}
	.st2{fill:#777777;stroke:#FF0000;stroke-width:7.200000e-02;stroke-miterlimit:10;}
	.st3{fill:#FFFFFF;}
	.st4{fill:none;stroke:#000000;}
	.st5{font-family:'ArialMT';}
	.st6{font-size:16.0236px;}
	.st7{fill:#FFFFFF;stroke:#FF0000;stroke-width:7.200000e-02;stroke-miterlimit:10;}
	.st8{stroke:#000000;stroke-miterlimit:10;}
</style>
<path class="st0" d="M40.4,292.8v388.8H350V292.8H40.4z M107.4,319.8h56.7v9h-56.7V319.8z M58.4,670.2c-3.6,0-6.6-3-6.6-6.6
	s3-6.6,6.6-6.6c3.6,0,6.6,3,6.6,6.6S62,670.2,58.4,670.2z M59.2,318.2c-3.6,0-6.6-3-6.6-6.6s3-6.6,6.6-6.6s6.6,3,6.6,6.6
	S62.9,318.2,59.2,318.2z M85.4,571h-9v-56.7h9V571z M85.4,457.5h-9v-56.7h9V457.5z M164.2,654.6h-56.7v-9h56.7V654.6z M282.8,654.6
	h-56.6v-9h56.6V654.6z M283,328.8h-56.7v-9H283V328.8z M305,400.8h9v56.7h-9V400.8z M314.1,571h-9v-56.7h9V571z M332,670.2
	c-3.6,0-6.6-3-6.6-6.6s3-6.6,6.6-6.6s6.6,3,6.6,6.6S335.6,670.2,332,670.2z M332,318.2c-3.6,0-6.6-3-6.6-6.6s3-6.6,6.6-6.6
	s6.6,3,6.6,6.6S335.6,318.2,332,318.2z"/>
<g>
	<path class="st0" d="M83.6,78.3v27v9V158h9v56.7h-9v43.6h31v9h56.7v-9h62.1v9h56.7v-9h31v-42.3h-9v-56.7h9v-45v-9v-27H83.6z
		 M171.4,114.3h-56.7v-9h56.7V114.3z M290.2,114.3h-56.7v-9h56.7V114.3z"/>
	
		<image style="overflow:visible;" width="277" height="100" xlink:href="149F47201194CA0E.png"  transform="matrix(0.4735 0 0 0.4735 136.8751 139.8259)">
	</image>
	
		<image style="overflow:visible;" width="390" height="100" xlink:href="149F47201194CA09.png"  transform="matrix(0.4264 0 0 0.4264 119.3015 178.1719)">
	</image>
</g>
<g>
	<path id="top_outsideCutPath_9_" vector-effect="non-scaling-stroke" class="st1" d="M711.4,21"/>
	<path id="top_outsideCutPath_11_" vector-effect="non-scaling-stroke" class="st1" d="M881.5,21"/>
	<g>
		<circle class="st2" cx="966.3" cy="300.2" r="18.4"/>
		<circle class="st2" cx="966.3" cy="229.5" r="18.4"/>
		<circle class="st2" cx="966.3" cy="88" r="18.4"/>
		<circle class="st2" cx="966.3" cy="158.7" r="18.4"/>
	</g>
	<g>
		<path class="st3" d="M884.7,135.3c14.7,0,29.4,0,44.1,0c0,15.7,0,31.4,0,47.1c-14.7,0-29.4,0-44.1,0
			C884.7,166.7,884.7,151,884.7,135.3z M890,164.9c0,0.1,0,0.1,0,0.1c0,0.1,0,0.1,0,0.2c-0.1,0.9,0.1,1.7,0.6,2.4
			c0.4,0.5,0.7,1.1,1.1,1.6c1,1,2,2.1,3.5,2.3c0.1,0,0.3,0.1,0.3,0.2c0.2,0.8,0.8,1.3,1.4,1.7c1.2,0.8,2.6,1.3,4,1.7
			c0.6,0.2,1.1,0.3,1.7,0.5c1.2,0.5,2.4,0.5,3.6,0c0.3-0.1,0.4-0.1,0.7,0.1c0.3,0.3,0.8,0.5,1.2,0.6c0.8,0.1,1.6,0.1,2.4,0
			c0.8,0,1.4-0.3,1.9-1c0.2-0.3,0.3-0.2,0.5-0.1c1.3,0.6,3.2-0.1,3.8-1c0.3-0.5,0.6-1,1.4-0.8c0.2,0,0.4-0.1,0.6-0.2
			c0.3-0.2,0.6-0.4,0.9-0.7c1-1.2,2.1-2.4,3.1-3.6c0.9-1,1.2-2.3,1.1-3.6c0-0.3,0.1-0.4,0.3-0.5c0.4-0.2,0.8-0.4,1.1-0.7
			c1-1.3,1.1-3.6,0.2-5c-0.1-0.2-0.1-0.4,0-0.6c0.2-0.3,0.4-0.7,0.4-1.1c0.3-1.5,0-2.9-0.7-4.3c-0.3-0.6-0.6-1.2-1.2-1.5
			c-0.3-0.1-0.3-0.3-0.3-0.5c-0.1-1.6-0.7-3-2.1-3.9c-0.2-0.2-0.5-0.3-0.6-0.5c-0.2-0.3-0.3-0.6-0.5-0.9c-0.7-1-1.5-1.7-2.7-2
			c-0.2-0.1-0.4-0.2-0.6-0.4c-0.5-0.4-1-0.9-1.5-1.2c-0.7-0.4-1.4-0.7-2.2-0.3c-0.1,0-0.2,0-0.3-0.1c-0.3-0.1-0.5-0.3-0.7-0.4
			c-1.3-0.4-2.7-0.6-4.1-0.6c-0.4,0-0.8,0.2-1.3,0.3c-0.1,0-0.3,0-0.4,0c-1,0-2-0.1-3-0.1c-0.7,0-1.3,0.3-1.8,0.9
			c-0.1,0.2-0.4,0.3-0.6,0.3c-1.1-0.1-2.2,0.2-3.2,0.7c-1.2,0.6-2.2,1.3-3.4,1.9c-0.7,0.4-1.1,1-1.4,1.7c-0.1,0.2-0.3,0.4-0.5,0.6
			c-0.5,0.3-1,0.7-1.2,1.3c-0.3,0.7-0.8,1.3-1.4,1.8c-0.7,0.6-1.1,1.3-1.2,2.2c0,0.4-0.1,0.8-0.4,1.1c-1.1,1.4-0.7,3.8,0.7,4.9
			c0.2,0.1,0.2,0.2,0.1,0.4c-1.1,1.1-1.3,2.5-1,4C888.4,163.8,888.8,164.7,890,164.9z"/>
		<path d="M890,164.9c-1.2-0.2-1.5-1.1-1.7-2.1c-0.3-1.5-0.1-2.8,1-4c0.2-0.2,0.1-0.3-0.1-0.4c-1.4-1.1-1.8-3.6-0.7-4.9
			c0.3-0.3,0.3-0.7,0.4-1.1c0.1-0.9,0.5-1.6,1.2-2.2c0.6-0.5,1.1-1.1,1.4-1.8c0.2-0.6,0.7-0.9,1.2-1.3c0.2-0.1,0.4-0.4,0.5-0.6
			c0.3-0.7,0.8-1.3,1.4-1.7c1.1-0.7,2.2-1.4,3.4-1.9c1-0.5,2.1-0.8,3.2-0.7c0.2,0,0.5-0.1,0.6-0.3c0.4-0.6,1.1-0.9,1.8-0.9
			c1,0,2,0.1,3,0.1c0.1,0,0.3,0,0.4,0c0.4-0.1,0.8-0.3,1.3-0.3c1.4,0,2.8,0.1,4.1,0.6c0.3,0.1,0.5,0.3,0.7,0.4
			c0.1,0,0.2,0.1,0.3,0.1c0.8-0.4,1.5-0.1,2.2,0.3c0.6,0.3,1,0.8,1.5,1.2c0.2,0.1,0.4,0.3,0.6,0.4c1.2,0.3,2,1.1,2.7,2
			c0.2,0.3,0.3,0.6,0.5,0.9c0.2,0.2,0.4,0.4,0.6,0.5c1.4,0.9,2,2.3,2.1,3.9c0,0.2,0.1,0.4,0.3,0.5c0.6,0.3,0.9,0.9,1.2,1.5
			c0.6,1.4,1,2.8,0.7,4.3c-0.1,0.4-0.3,0.7-0.4,1.1c-0.1,0.2-0.1,0.4,0,0.6c0.9,1.4,0.8,3.8-0.2,5c-0.3,0.3-0.7,0.5-1.1,0.7
			c-0.2,0.1-0.3,0.2-0.3,0.5c0.1,1.4-0.3,2.6-1.1,3.6c-1,1.2-2,2.4-3.1,3.6c-0.2,0.3-0.5,0.5-0.9,0.7c-0.2,0.1-0.4,0.3-0.6,0.2
			c-0.8-0.2-1.1,0.4-1.4,0.8c-0.6,0.9-2.5,1.6-3.8,1c-0.2-0.1-0.4-0.1-0.5,0.1c-0.4,0.7-1.1,1-1.9,1c-0.8,0-1.6,0.1-2.4,0
			c-0.4,0-0.9-0.3-1.2-0.6c-0.3-0.3-0.4-0.2-0.7-0.1c-1.2,0.5-2.4,0.5-3.6,0c-0.5-0.2-1.1-0.4-1.7-0.5c-1.4-0.4-2.8-0.9-4-1.7
			c-0.6-0.4-1.1-0.9-1.4-1.7c0-0.1-0.2-0.2-0.3-0.2c-1.5-0.2-2.6-1.2-3.5-2.3c-0.4-0.5-0.8-1-1.1-1.6c-0.5-0.7-0.7-1.5-0.6-2.4
			c0-0.1,0-0.1,0-0.2C890,164.9,890,164.9,890,164.9z M917.2,151.2c0.4-0.2,0.8-0.3,1.1-0.4c0.2-0.1,0.5-0.1,0.6,0
			c0.3,0.2,0.5,0.4,0.4,0.8c-0.1,0.3-0.3,0.6-0.6,0.7c-0.5,0.1-0.9,0.3-1.4,0.4c-0.3,0.1-0.5,0.3-0.6,0.6c-0.1,0.3-0.3,0.6-0.5,0.9
			c-0.2,0.3-0.5,0.4-0.9,0.3c-0.3-0.1-0.5-0.5-0.4-0.9c0.1-0.2,0.1-0.4,0.2-0.5c0.4-0.7,0.5-1.4,0.5-2.2c0-0.6,0-1.2,0-1.7
			c0-0.3,0-0.5,0-0.9c-0.3,0.2-0.6,0.4-0.9,0.6c-0.2,0.1-0.4,0.2-0.6,0.2c-0.5,0-1,0-1.5,0c-0.4,0-0.7-0.3-0.7-0.8
			c0-0.5,0.3-0.8,0.9-0.8c0.7,0,1.3,0,1.9-0.5c0.2-0.2,0.5-0.3,0.7-0.5c0.1-0.1,0.3-0.3,0.3-0.5c0-0.6,0-1.3,0-1.9
			c0-0.1,0-0.3-0.1-0.3c-0.4-0.5-1.4-0.8-1.9-0.5c-0.6,0.3-1.3,0.7-1.9,1c-0.4,0.2-0.8,0.2-1-0.1c-0.3-0.5-0.3-0.9,0.1-1.2
			c0.2-0.2,0.4-0.3,0.7-0.5c-0.2,0-0.3-0.1-0.4-0.1c-0.9-0.1-1.7-0.2-2.6-0.3c-0.5-0.1-0.9,0.1-1.3,0.4c-0.1,0.1-0.4,0.1-0.5,0.1
			c-1.1-0.4-2.1-0.4-3.2-0.3c-0.1,0-0.3,0.1-0.4,0.1c-0.4,0.2-0.4,0.4-0.2,0.7c0.3,0.5,0.6,1,0.9,1.4c0.2,0.4,0.1,0.9-0.2,1.1
			c-0.3,0.2-0.8,0.1-1-0.2c-0.3-0.4-0.6-0.9-0.8-1.3c-0.4-0.6-0.8-0.8-1.5-0.7c-1.2,0.2-2.2,0.8-3.2,1.3c-0.1,0-0.1,0.1-0.2,0.2
			c0.2,0.1,0.3,0.1,0.4,0.2c0.6,0.4,1.3,0.7,1.7,1.4c0.6,1,1.3,1.9,2,2.8c0.2-0.2,0.4-0.4,0.7-0.5c0.5-0.1,1.1-0.1,1.7,0
			c0.2,0,0.4,0.2,0.5,0.4c0.3,0.6,0,1.1-0.7,1.1c-0.5,0-1.1,0-1.7,0c0.1,0.2,0.1,0.3,0.2,0.4c0.2,0.5,0.5,1.1,0.7,1.6
			c0.2,0.3,0.1,0.7-0.1,1c-0.2,0.3-0.5,0.5-0.8,0.8c-0.3,0.2-0.6,0.3-0.9,0.1c-0.3-0.2-0.4-0.5-0.3-0.9c0.1-0.2,0.2-0.3,0.3-0.5
			c0.1-0.1,0.1-0.3,0.1-0.3c-0.4-0.9-0.8-1.7-1.2-2.5c-0.5-0.8-1-1.5-1.6-2.2c-0.2-0.3-0.4-0.6-0.6-0.7c-0.6-0.4-1.3-0.7-1.9-1
			c-0.1,0-0.3,0-0.4,0.1c-0.5,0.3-0.6,0.8-0.7,1.3c-0.1,0.4-0.3,0.6-0.7,0.7c-0.5,0.1-0.9,0.4-1.1,0.9c-0.1,0.3-0.2,0.6-0.3,0.9
			c-0.1,0.2-0.2,0.3-0.3,0.4c-0.6,0.3-1.1,0.7-1.4,1.3c-0.1,0.1-0.1,0.3-0.2,0.5c0.2,0,0.4,0,0.6,0c0.2,0,0.4,0,0.6,0
			c0.4,0,0.7,0.3,0.7,0.7c0,0.5-0.3,0.8-0.7,0.8c-0.3,0-0.6,0-0.9,0c-0.5,0-1,0.4-1.2,0.9c-0.4,1.2,0.2,2,0.9,2.7
			c0.3,0.2,0.6,0.3,0.9,0.1c0.8-0.4,1.6-0.5,2.4-0.4c0.1,0,0.2,0,0.3-0.1c0.6-0.9,1.4-1.8,1.2-3c0-0.2,0-0.5,0-0.7
			c0-0.4-0.1-0.7-0.4-1c-0.1-0.1-0.2-0.3-0.3-0.5c-0.1-0.3,0-0.7,0.4-1c0.3-0.2,0.5-0.1,0.8,0.2c0.2,0.2,0.3,0.4,0.5,0.5
			c0.4,0.3,0.5,0.6,0.5,1.1c0,0.8,0,1.6,0,2.4c0,0.6-0.2,1-0.5,1.5c-0.3,0.4-0.6,0.9-0.8,1.3c0.1,0.1,0.1,0.1,0.1,0.1
			c0.5,0.5,1.2,0.4,1.8,0.2c0.9-0.2,1.8-0.4,2.8-0.1c0.1,0,0.2,0,0.3,0c1.2-0.2,2.4-0.4,3.6-0.6c0-0.1,0-0.2,0-0.4
			c0-0.6,0-1.1,0-1.7c0-0.4,0.4-0.7,0.7-0.7c0.3,0,0.7,0.4,0.7,0.7c0,0.1,0,0.2,0,0.3c0,0.7,0,1.3,0,2c0,0.4,0.1,0.5,0.5,0.7
			c1.3,0.4,2.5,0.3,3.7-0.3c0.4-0.2,0.9-0.3,1.3-0.3c0.3,0,0.4-0.1,0.4-0.4c0-0.9,0-1.7,0-2.6c0-0.6-0.2-0.9-0.8-1
			c-0.7-0.1-1.4-0.2-2.1-0.3c0,0.1,0,0.2,0,0.2c0,0.6-0.3,0.9-0.7,0.9c-0.5,0-0.7-0.3-0.7-1c0-1,0-2,0-3.1c0-0.5,0-0.9,0-1.4
			c-0.3,0-0.5,0-0.7,0c-0.4,0-0.7-0.3-0.7-0.7c0-0.4,0.2-0.7,0.7-0.8c0.2,0,0.5,0,0.7,0c0.3,0,0.4-0.1,0.5-0.3
			c0.1-0.3,0.2-0.6,0.4-0.9c0.2-0.3,0.5-0.4,0.8-0.3c0.3,0.1,0.5,0.3,0.5,0.6c0,0.2-0.1,0.5-0.2,0.7c-0.4,0.7-0.6,1.4-0.5,2.3
			c0,0.5,0,1,0,1.5c0,0.5,0.1,0.6,0.6,0.7c0.6,0.1,1.2,0.2,1.8,0.3c0.7,0.1,1.4,0.3,1.7,1c0.2,0.4,0.3,0.9,0.3,1.4
			c0.1,0.9,0,1.7,0,2.6c0,0.1,0,0.3,0,0.4c1.6,0,3.2,0,4.3,1.6c0.5-1,1.3-1.3,2.2-1.6c-0.2-0.4-0.4-0.7-0.5-1.1
			c-0.2-0.5,0-0.9,0.4-1.1c0.4-0.2,0.8,0,1,0.5c0.2,0.5,0.4,0.9,0.6,1.3c0.9,0.1,1.8,0.1,2.6,0.3c0.8,0.2,0.8,0,1-0.6
			c0-0.1,0.1-0.2,0.1-0.4c0.1-1.3-0.2-2.4-0.8-3.5c-0.1-0.2-0.2-0.2-0.4-0.1c-0.4,0.3-0.9,0.5-1.3,0.7c-0.4,0.2-0.8,0.1-1-0.3
			c-0.2-0.4-0.1-0.8,0.3-1.1c0.2-0.1,0.3-0.1,0.5-0.3c0.2-0.1,0.5-0.3,0.5-0.5c0.2-1.2-0.3-2.7-1.5-3.4c-0.5-0.3-1-0.5-1.1-1.1
			c-0.1-0.8-0.7-1.2-1.3-1.7c-0.3-0.2-0.7-0.3-1.1-0.5C917.2,147.1,917.2,149.1,917.2,151.2z M906.8,166.3c0.3,0,0.4,0,0.6,0
			c0.5,0,0.9,0.4,0.9,0.8c0,0.4-0.4,0.8-0.9,0.8c-0.3,0-0.7,0-1,0c-0.9,0-1.3-0.4-1.1-1.3c0.1-0.8,0.4-1.5,0.5-2.3
			c0.1-0.4,0.3-0.9,0.3-1.3c0-0.9,0-1.9,0-2.8c0-0.3-0.1-0.4-0.4-0.5c-0.6-0.2-1.1-0.4-1.6-0.6c-0.4-0.1-0.7-0.2-1.1-0.2
			c-0.7,0.1-1.4,0.3-2.1,0.4c-0.4,0.1-0.8,0.2-1.1,0.1c-0.8-0.3-1.6-0.1-2.4,0.1c0,0.2,0,0.3,0,0.5c0,1,0,2.1,0,3.1
			c0,0.3,0.1,0.6,0.3,0.8c0.3,0.3,0.6,0.6,0.9,0.9c0.3,0.3,0.3,0.9,0,1.1c-0.3,0.3-0.7,0.3-1.1-0.1c-0.3-0.3-0.5-0.6-0.9-1
			c-0.4,0.4-0.6,0.7-0.9,1c-0.3,0.4-0.8,0.4-1.1,0.1c-0.3-0.3-0.3-0.8,0-1.2c0.2-0.2,0.4-0.4,0.6-0.6c0.5-0.4,0.6-0.9,0.6-1.5
			c0-0.9,0-1.9,0-2.8c0-0.3-0.1-0.4-0.4-0.5c-0.3-0.1-0.6-0.3-0.9-0.5c-0.4-0.2-0.9-0.4-1.3-0.4c-0.6,0-1.3,0.2-1.9,0.4
			c-1.7,0.6-2.1,2.3-1.7,3.7c0.2,0.5,0.5,0.6,0.9,0.3c0.6-0.4,1.2-0.9,1.9-1.3c0.3-0.2,0.6-0.2,0.9,0c0.3,0.2,0.4,0.5,0.3,0.8
			c-0.1,0.2-0.2,0.4-0.3,0.5c-0.5,0.4-1,0.7-1.5,1.1c-0.1,0.1-0.2,0.2-0.3,0.3c-0.1,0.6-0.3,1.2,0,1.8c0.3,0.5,0.6,1,1,1.5
			c0.6,0.8,1.3,1.5,2.3,1.9c0.2,0.1,0.4,0.1,0.5,0.1c0.4-0.2,0.8-0.4,1.2-0.7c0.3-0.2,0.7-0.4,1-0.4c1-0.2,2-0.2,3,0.1
			c0.1,0,0.3,0,0.5,0.1c0-0.2,0-0.3,0-0.5c0-1.3,0-2.7,0-4c0-0.3,0.1-0.6,0.2-0.8c0.2-0.3,0.5-0.5,0.8-0.8c0.3-0.3,0.6-0.3,0.9,0
			c0.3,0.3,0.4,0.6,0.2,0.9c-0.1,0.2-0.3,0.4-0.4,0.6c-0.1,0.2-0.2,0.4-0.2,0.5c0,1.1,0,2.3,0,3.4c0,0.2,0.1,0.4,0.2,0.5
			c0.3,0.4,0.7,0.7,1,1.1c0.3,0.3,0.3,0.8,0,1.1c-0.3,0.3-0.7,0.3-1,0c-0.3-0.3-0.6-0.6-0.8-0.9c-0.1-0.1-0.2-0.2-0.3-0.2
			c-1.2,0.1-2.4,0.2-3.5,0.4c-0.4,0.1-0.7,0.3-1,0.5c-0.1,0-0.1,0.2,0,0.3c0.3,0.4,0.5,0.8,0.8,1c0.8,0.5,1.7,0.9,2.5,1.2
			c0.9,0.4,1.9,0.6,2.9,0.9c0.8,0.3,1.7,0.3,2.5,0c0.3-0.1,0.4-0.2,0.3-0.5c-0.2-0.4-0.3-0.9-0.4-1.4c-0.2-0.6,0.1-1,0.7-1.1
			c0.5,0,1,0,1.5,0c0.5,0,0.7,0.3,0.7,0.8c0,0.4-0.2,0.7-0.7,0.8c-0.1,0-0.3,0-0.5,0c0.2,0.6,0.3,1.1,0.5,1.6
			c0.1,0.2,0.4,0.3,0.6,0.4c0.7,0,1.4,0,2.1,0c0.4,0,0.7-0.2,1-0.6c0.7-1.2,0.8-1.2,1.9-0.5c0,0,0,0,0,0c0.7,0.4,1.9,0.1,2.4-0.5
			c0.5-0.7,0.9-1.4,0.7-2.3c0-0.2,0-0.4,0-0.6c0-0.6-0.1-1.2-0.5-1.6c-0.3-0.4-0.3-0.9,0.1-1.2c0.4-0.3,0.8-0.1,1.1,0.3
			c0.4,0.7,0.7,1.4,0.7,2.2c0,0.5,0,1,0,1.5c0,0.1,0,0.3,0,0.5c1.3-1,2.3-2.3,3.3-3.6c0.3-0.4,0.5-0.8,0.8-1.2
			c0.6-1.3,0.4-2.7-0.6-3.7c-0.1-0.1-0.2-0.2-0.3-0.3c-0.3-0.3-0.3-0.8,0-1.1c0.3-0.3,0.7-0.3,1.1,0.1c0.3,0.4,0.7,0.7,1,1.1
			c0.1,0.1,0.2,0.2,0.3,0.1c0.4-0.1,0.7-0.3,0.9-0.7c0.3-0.9,0.3-1.8-0.1-2.7c-0.1-0.2-0.2-0.3-0.4-0.4c-1.7-0.7-3.4-0.7-5.1,0.1
			c-0.6,0.3-0.9,0.8-0.9,1.6c0,0.6,0.1,1.2,0,1.8c-0.1,0.6,0.2,0.9,0.7,1.2c0.4,0.3,0.8,0.5,1.2,0.8c0.3,0.2,0.4,0.8,0.2,1.1
			c-0.2,0.3-0.7,0.4-1,0.2c-0.5-0.4-1-0.8-1.6-1.1c-0.2-0.1-0.4-0.3-0.6-0.3c-0.7,0.1-1.3-0.1-1.9-0.3c-0.7-0.2-1.3-0.5-2.1-0.8
			c0,0.2-0.1,0.4-0.1,0.5c0,1.2,0,2.5,0,3.7c0,0.8,0.1,1.3,0.9,1.5c0.6,0.2,0.7,0.7,0.5,1.1c-0.2,0.4-0.6,0.5-1.1,0.2
			c-0.8-0.4-1.5-0.8-2.4-0.6c0,0-0.1,0-0.1,0c-0.5-0.1-0.8-0.5-0.6-1c0.1-0.5,0.3-0.6,1-0.6c0.3,0,0.4-0.1,0.4-0.4
			c0-1.4,0-2.9,0-4.3c0-0.3,0-0.6,0.1-0.8c0.1-0.4,0.3-0.8,0.8-0.9c0.6-0.2,1.3-0.1,1.9,0.2c0.6,0.3,1.3,0.5,2,0.7
			c0.2,0.1,0.4,0.1,0.4-0.2c0-1,0.2-2-0.6-2.9c-0.4-0.5-0.9-0.9-1.5-0.9c-1.3,0-2.5,0-3.8,0c-0.1,0-0.2,0.1-0.3,0.1
			c-0.6,0.2-1.2,0.5-1.8,0.7c-0.3,0.1-0.7,0-0.8,0.2c-0.1,0.2-0.1,0.6-0.1,0.9c0,1.3,0.1,2.6-0.4,3.8
			C907.1,165.4,907,165.8,906.8,166.3z"/>
		<path class="st3" d="M917.2,151.2c0-2.1,0-4.1,0-6.2c0.4,0.2,0.8,0.3,1.1,0.5c0.6,0.4,1.1,0.9,1.3,1.7c0.1,0.7,0.7,0.9,1.1,1.1
			c1.2,0.7,1.6,2.2,1.5,3.4c0,0.2-0.3,0.3-0.5,0.5c-0.1,0.1-0.3,0.2-0.5,0.3c-0.4,0.2-0.5,0.7-0.3,1.1c0.2,0.3,0.6,0.5,1,0.3
			c0.4-0.2,0.9-0.5,1.3-0.7c0.2-0.1,0.3-0.1,0.4,0.1c0.6,1.1,1,2.2,0.8,3.5c0,0.1,0,0.2-0.1,0.4c-0.2,0.6-0.3,0.8-1,0.6
			c-0.8-0.2-1.7-0.2-2.6-0.3c-0.2-0.4-0.4-0.8-0.6-1.3c-0.2-0.5-0.6-0.7-1-0.5c-0.4,0.2-0.6,0.6-0.4,1.1c0.2,0.4,0.3,0.7,0.5,1.1
			c-0.9,0.3-1.7,0.6-2.2,1.6c-1.1-1.6-2.7-1.6-4.3-1.6c0-0.2,0-0.3,0-0.4c0-0.9,0-1.7,0-2.6c0-0.5-0.1-1-0.3-1.4
			c-0.3-0.7-1-0.9-1.7-1c-0.6-0.1-1.2-0.2-1.8-0.3c-0.5-0.1-0.6-0.2-0.6-0.7c0-0.5,0-1,0-1.5c-0.1-0.8,0.1-1.6,0.5-2.3
			c0.1-0.2,0.2-0.5,0.2-0.7c0-0.3-0.2-0.6-0.5-0.6c-0.3-0.1-0.6,0-0.8,0.3c-0.2,0.3-0.3,0.6-0.4,0.9c-0.1,0.3-0.3,0.4-0.5,0.3
			c-0.2,0-0.5,0-0.7,0c-0.4,0.1-0.7,0.4-0.7,0.8c0,0.4,0.3,0.7,0.7,0.7c0.2,0,0.4,0,0.7,0c0,0.5,0,1,0,1.4c0,1,0,2,0,3.1
			c0,0.6,0.3,1,0.7,1c0.4,0,0.7-0.3,0.7-0.9c0-0.1,0-0.1,0-0.2c0.7,0.1,1.4,0.1,2.1,0.3c0.6,0.1,0.8,0.4,0.8,1c0,0.9,0,1.7,0,2.6
			c0,0.3-0.1,0.4-0.4,0.4c-0.4,0.1-0.9,0.1-1.3,0.3c-1.2,0.6-2.4,0.6-3.7,0.3c-0.4-0.1-0.5-0.2-0.5-0.7c0-0.6,0-1.3,0-2
			c0-0.1,0-0.2,0-0.3c0-0.4-0.4-0.7-0.7-0.7c-0.3,0-0.7,0.4-0.7,0.7c0,0.6,0,1.1,0,1.7c0,0.2,0,0.3,0,0.4c-1.2,0.2-2.4,0.4-3.6,0.6
			c-0.1,0-0.2,0-0.3,0c-0.9-0.3-1.9-0.1-2.8,0.1c-0.6,0.1-1.2,0.3-1.8-0.2c0,0-0.1-0.1-0.1-0.1c0.3-0.4,0.5-0.9,0.8-1.3
			c0.3-0.4,0.5-0.9,0.5-1.5c0-0.8,0-1.6,0-2.4c0-0.4-0.1-0.8-0.5-1.1c-0.2-0.2-0.4-0.3-0.5-0.5c-0.2-0.2-0.5-0.3-0.8-0.2
			c-0.4,0.2-0.5,0.6-0.4,1c0.1,0.2,0.2,0.4,0.3,0.5c0.3,0.3,0.4,0.6,0.4,1c0,0.2,0,0.5,0,0.7c0.2,1.2-0.6,2.1-1.2,3
			c0,0.1-0.2,0.1-0.3,0.1c-0.9-0.1-1.7,0-2.4,0.4c-0.4,0.2-0.7,0.1-0.9-0.1c-0.8-0.6-1.3-1.5-0.9-2.7c0.1-0.5,0.7-0.9,1.2-0.9
			c0.3,0,0.6,0,0.9,0c0.4,0,0.7-0.3,0.7-0.8c0-0.4-0.3-0.7-0.7-0.7c-0.2,0-0.4,0-0.6,0c-0.2,0-0.4,0-0.6,0c0.1-0.2,0.1-0.4,0.2-0.5
			c0.4-0.6,0.8-1,1.4-1.3c0.1-0.1,0.3-0.3,0.3-0.4c0.1-0.3,0.1-0.6,0.3-0.9c0.2-0.5,0.6-0.8,1.1-0.9c0.4-0.1,0.6-0.3,0.7-0.7
			c0.1-0.5,0.2-1,0.7-1.3c0.1-0.1,0.3-0.1,0.4-0.1c0.7,0.3,1.3,0.6,1.9,1c0.3,0.2,0.4,0.5,0.6,0.7c0.5,0.7,1.1,1.5,1.6,2.2
			c0.5,0.8,0.8,1.7,1.2,2.5c0,0.1-0.1,0.2-0.1,0.3c-0.1,0.2-0.2,0.3-0.3,0.5c-0.1,0.3-0.1,0.7,0.3,0.9c0.3,0.2,0.6,0.2,0.9-0.1
			c0.3-0.2,0.6-0.5,0.8-0.8c0.2-0.3,0.3-0.6,0.1-1c-0.3-0.5-0.5-1-0.7-1.6c-0.1-0.1-0.1-0.2-0.2-0.4c0.6,0,1.1,0,1.7,0
			c0.7,0,1-0.5,0.7-1.1c-0.1-0.2-0.3-0.4-0.5-0.4c-0.5-0.1-1.1-0.1-1.7,0c-0.2,0-0.4,0.3-0.7,0.5c-0.6-0.9-1.3-1.8-2-2.8
			c-0.4-0.7-1.1-1-1.7-1.4c-0.1-0.1-0.3-0.1-0.4-0.2c0.1-0.1,0.2-0.2,0.2-0.2c1-0.5,2.1-1.1,3.2-1.3c0.7-0.1,1.1,0,1.5,0.7
			c0.3,0.5,0.5,0.9,0.8,1.3c0.2,0.3,0.7,0.4,1,0.2c0.3-0.2,0.4-0.7,0.2-1.1c-0.3-0.5-0.6-1-0.9-1.4c-0.2-0.4-0.2-0.5,0.2-0.7
			c0.1-0.1,0.3-0.1,0.4-0.1c1.1-0.1,2.2-0.1,3.2,0.3c0.1,0.1,0.4,0,0.5-0.1c0.4-0.4,0.8-0.5,1.3-0.4c0.9,0.1,1.7,0.2,2.6,0.3
			c0.1,0,0.2,0.1,0.4,0.1c-0.2,0.2-0.5,0.3-0.7,0.5c-0.4,0.3-0.4,0.7-0.1,1.2c0.2,0.3,0.6,0.3,1,0.1c0.6-0.4,1.2-0.7,1.9-1
			c0.6-0.3,1.5,0,1.9,0.5c0.1,0.1,0.1,0.2,0.1,0.3c0,0.6,0,1.3,0,1.9c0,0.2-0.1,0.4-0.3,0.5c-0.2,0.2-0.5,0.3-0.7,0.5
			c-0.5,0.5-1.2,0.5-1.9,0.5c-0.6,0-0.9,0.3-0.9,0.8c0,0.4,0.3,0.7,0.7,0.8c0.5,0,1,0,1.5,0c0.2,0,0.4-0.1,0.6-0.2
			c0.3-0.2,0.5-0.4,0.9-0.6c0,0.3,0,0.6,0,0.9c0,0.6,0,1.2,0,1.7c0.1,0.8-0.1,1.5-0.5,2.2c-0.1,0.2-0.2,0.4-0.2,0.5
			c-0.1,0.4,0.1,0.7,0.4,0.9c0.4,0.2,0.7,0.1,0.9-0.3c0.2-0.3,0.3-0.6,0.5-0.9c0.1-0.3,0.3-0.5,0.6-0.6c0.5-0.1,0.9-0.3,1.4-0.4
			c0.4-0.1,0.6-0.4,0.6-0.7c0.1-0.4-0.2-0.6-0.4-0.8c-0.2-0.1-0.4-0.1-0.6,0C918,150.9,917.6,151.1,917.2,151.2z"/>
		<path class="st3" d="M906.8,166.3c0.1-0.5,0.2-1,0.4-1.4c0.5-1.2,0.4-2.5,0.4-3.8c0-0.3-0.1-0.7,0.1-0.9c0.1-0.2,0.5-0.1,0.8-0.2
			c0.6-0.2,1.2-0.5,1.8-0.7c0.1,0,0.2-0.1,0.3-0.1c1.3,0,2.5,0,3.8,0c0.6,0,1.1,0.4,1.5,0.9c0.8,0.9,0.5,1.9,0.6,2.9
			c0,0.3-0.2,0.2-0.4,0.2c-0.7-0.2-1.3-0.4-2-0.7c-0.6-0.3-1.2-0.4-1.9-0.2c-0.4,0.1-0.7,0.5-0.8,0.9c-0.1,0.3-0.1,0.5-0.1,0.8
			c0,1.4,0,2.9,0,4.3c0,0.3-0.1,0.4-0.4,0.4c-0.7,0-0.9,0.1-1,0.6c-0.1,0.5,0.1,0.9,0.6,1c0,0,0.1,0,0.1,0c0.9-0.2,1.6,0.2,2.4,0.6
			c0.5,0.3,0.9,0.2,1.1-0.2c0.2-0.4,0.1-0.9-0.5-1.1c-0.8-0.3-1-0.8-0.9-1.5c0.1-1.2,0-2.5,0-3.7c0-0.2,0-0.3,0.1-0.5
			c0.7,0.3,1.4,0.5,2.1,0.8c0.6,0.2,1.2,0.4,1.9,0.3c0.2,0,0.4,0.1,0.6,0.3c0.5,0.4,1,0.8,1.6,1.1c0.4,0.2,0.8,0.2,1-0.2
			c0.2-0.3,0.1-0.8-0.2-1.1c-0.4-0.3-0.8-0.6-1.2-0.8c-0.4-0.3-0.8-0.6-0.7-1.2c0.1-0.6,0-1.2,0-1.8c0-0.7,0.3-1.3,0.9-1.6
			c1.7-0.9,3.4-0.9,5.1-0.1c0.2,0.1,0.3,0.2,0.4,0.4c0.3,0.9,0.4,1.8,0.1,2.7c-0.1,0.4-0.5,0.6-0.9,0.7c-0.1,0-0.2-0.1-0.3-0.1
			c-0.3-0.4-0.7-0.7-1-1.1c-0.3-0.3-0.8-0.4-1.1-0.1c-0.3,0.3-0.3,0.8,0,1.1c0.1,0.1,0.2,0.2,0.3,0.3c1,1,1.3,2.4,0.6,3.7
			c-0.2,0.4-0.5,0.8-0.8,1.2c-1,1.2-2,2.5-3.3,3.6c0-0.2,0-0.3,0-0.5c0-0.5,0-1,0-1.5c0-0.8-0.3-1.5-0.7-2.2
			c-0.3-0.5-0.8-0.6-1.1-0.3c-0.4,0.3-0.4,0.8-0.1,1.2c0.4,0.5,0.5,1,0.5,1.6c0,0.2,0,0.4,0,0.6c0.1,0.9-0.2,1.6-0.7,2.3
			c-0.5,0.6-1.7,0.9-2.4,0.5c0,0,0,0,0,0c-1.2-0.7-1.2-0.7-1.9,0.5c-0.2,0.4-0.5,0.6-1,0.6c-0.7,0-1.4,0-2.1,0
			c-0.2,0-0.5-0.2-0.6-0.4c-0.2-0.5-0.3-1.1-0.5-1.6c0.2,0,0.3,0,0.5,0c0.4-0.1,0.7-0.4,0.7-0.8c0-0.5-0.3-0.7-0.7-0.8
			c-0.5,0-1,0-1.5,0c-0.5,0-0.8,0.5-0.7,1.1c0.1,0.5,0.3,0.9,0.4,1.4c0.1,0.3,0,0.4-0.3,0.5c-0.8,0.3-1.7,0.3-2.5,0
			c-1-0.3-1.9-0.6-2.9-0.9c-0.9-0.3-1.7-0.7-2.5-1.2c-0.3-0.2-0.6-0.6-0.8-1c0-0.1,0-0.3,0-0.3c0.3-0.2,0.7-0.4,1-0.5
			c1.2-0.2,2.4-0.3,3.5-0.4c0.1,0,0.3,0.1,0.3,0.2c0.3,0.3,0.6,0.6,0.8,0.9c0.3,0.3,0.7,0.3,1,0c0.3-0.3,0.3-0.8,0-1.1
			c-0.3-0.4-0.7-0.7-1-1.1c-0.1-0.1-0.2-0.3-0.2-0.5c0-1.1,0-2.3,0-3.4c0-0.2,0.1-0.4,0.2-0.5c0.1-0.2,0.3-0.4,0.4-0.6
			c0.2-0.3,0.1-0.7-0.2-0.9c-0.3-0.3-0.6-0.3-0.9,0c-0.3,0.3-0.6,0.5-0.8,0.8c-0.2,0.2-0.2,0.5-0.2,0.8c0,1.3,0,2.7,0,4
			c0,0.1,0,0.3,0,0.5c-0.2,0-0.3,0-0.5-0.1c-1-0.3-2-0.3-3-0.1c-0.4,0.1-0.7,0.3-1,0.4c-0.4,0.2-0.8,0.5-1.2,0.7
			c-0.1,0.1-0.4,0-0.5-0.1c-0.9-0.4-1.6-1.2-2.3-1.9c-0.4-0.4-0.7-1-1-1.5c-0.3-0.6-0.1-1.2,0-1.8c0-0.1,0.2-0.2,0.3-0.3
			c0.5-0.4,1-0.7,1.5-1.1c0.2-0.1,0.3-0.3,0.3-0.5c0.1-0.3,0-0.6-0.3-0.8c-0.3-0.2-0.6-0.2-0.9,0c-0.6,0.4-1.2,0.9-1.9,1.3
			c-0.5,0.3-0.8,0.2-0.9-0.3c-0.4-1.4,0-3.1,1.7-3.7c0.6-0.2,1.3-0.4,1.9-0.4c0.4,0,0.9,0.2,1.3,0.4c0.3,0.1,0.6,0.4,0.9,0.5
			c0.3,0.1,0.4,0.2,0.4,0.5c0,0.9,0,1.9,0,2.8c0,0.6-0.2,1.1-0.6,1.5c-0.2,0.2-0.4,0.4-0.6,0.6c-0.3,0.4-0.3,0.9,0,1.2
			c0.3,0.3,0.7,0.3,1.1-0.1c0.3-0.3,0.5-0.6,0.9-1c0.4,0.4,0.6,0.7,0.9,1c0.4,0.4,0.8,0.4,1.1,0.1c0.3-0.3,0.3-0.8,0-1.1
			c-0.3-0.3-0.6-0.6-0.9-0.9c-0.2-0.2-0.3-0.5-0.3-0.8c0-1,0-2.1,0-3.1c0-0.2,0-0.3,0-0.5c0.8-0.2,1.6-0.4,2.4-0.1
			c0.3,0.1,0.8,0,1.1-0.1c0.7-0.1,1.4-0.3,2.1-0.4c0.4,0,0.7,0.1,1.1,0.2c0.6,0.2,1.1,0.4,1.6,0.6c0.3,0.1,0.4,0.2,0.4,0.5
			c0,0.9,0,1.9,0,2.8c0,0.4-0.2,0.9-0.3,1.3c-0.2,0.8-0.4,1.5-0.5,2.3c-0.1,0.9,0.3,1.3,1.1,1.3c0.3,0,0.7,0,1,0
			c0.5,0,0.9-0.4,0.9-0.8c0-0.4-0.4-0.8-0.9-0.8C907.3,166.3,907.1,166.3,906.8,166.3z"/>
	</g>
	<g>
		<path class="st3" d="M929.1,262c-14.9,0-29.8,0-44.7,0c0-21.6,0-43.2,0-64.8c14.9,0,29.8,0,44.7,0
			C929.1,218.8,929.1,240.4,929.1,262z M924.5,230.8c0,3.1,0,6.1,0,9.1c-4.8,0-9.6,0-14.5,0c0,4.9,0,9.7,0,14.7c4.8,0,9.7,0,14.5,0
			c0,1.7,0,3.2,0,4.8c0.7,0,1.3,0,1.9,0c0-2.5,0-5,0-7.5c-4.8,0-9.7,0-14.5,0c0-3.1,0-6.1,0-9.2c4.8,0,9.6,0,14.5,0
			c0-4.9,0-9.7,0-14.5c-4.8,0-9.6,0-14.5,0c0-3.1,0-6.1,0-9.2c4.8,0,9.6,0,14.5,0c0-4.9,0-9.7,0-14.6c-4.8,0-9.6,0-14.5,0
			c0-1.5,0-3.1,0-4.5c-0.7,0-1.3,0-1.9,0c0,2.4,0,4.8,0,7.3c4.8,0,9.6,0,14.4,0c0,3.1,0,6.1,0,9.2c-4.8,0-9.6,0-14.5,0
			c0,0.1,0,0.2,0,0.3c0,4.6,0,9.2,0,13.8c0,0.5,0.2,0.5,0.6,0.5c4.4,0,8.8,0,13.2,0C924.1,230.8,924.3,230.8,924.5,230.8z
			 M904.5,254c-0.1-1-0.5-1.9-1.1-2.6c-0.9-1.1-2.2-1.6-3.6-2.1c-1-0.4-2-0.7-3-1.1c-1.1-0.4-2.2-0.8-3.2-1.2
			c-1.1-0.4-2.2-0.7-3.3-1.2c-0.5-0.2-0.9-0.6-1.2-1c-0.3-0.3-0.3-0.8,0-1.1c0.3-0.3,0.6-0.6,1-0.8c1.3-0.6,2.7-1.2,4-1.7
			c0.7-0.3,1.4-0.5,2.1-0.8c0.8-0.4,1.7-0.8,2.5-1.1c0.8-0.4,1.6-0.7,2.4-1.1c1-0.6,2-1.2,2.6-2.3c0.9-1.4,0.7-3.4-0.4-4.6
			c-0.7-0.8-1.5-1.3-2.4-1.7c-0.4-0.2-0.9-0.3-1.3-0.5c-0.7-0.3-1.4-0.5-2.1-0.8c-0.8-0.3-1.7-0.6-2.5-0.8c-1.1-0.4-2.2-0.8-3.3-1.2
			c-0.8-0.3-1.6-0.7-2.3-1.1c-0.6-0.3-0.9-1.1-0.6-1.5c0.4-0.4,0.9-0.9,1.4-1.1c0.6-0.3,1.4-0.5,2.1-0.7c1.5-0.4,3-0.9,4.6-1.3
			c1.7-0.5,3.4-1,5.1-1.5c1.4-0.5,2.3-1.6,2.7-2.9c0.6-1.8-0.2-3.3-1.5-4.5c-0.9-0.9-2.2-1.2-3.3-1.6c-1.2-0.5-2.5-0.9-3.7-1.4
			c-1.4-0.5-2.8-1-4.2-1.5c-0.6-0.2-1.2-0.4-1.7-0.8c-1.2-0.9-1.4-1.1-0.1-2.3c0.5-0.4,1.1-0.7,1.7-1c0.6-0.3,0.7-1.3,0.4-2.1
			c-0.3-0.6-0.5-0.7-1.4-0.3c0,0-0.1,0-0.1,0c-1.3,0.7-2.5,1.6-3.2,3c-0.5,1.1-0.2,3,0.5,3.8c1.3,1.4,2.9,2.1,4.7,2.7
			c1.1,0.4,2.3,0.8,3.4,1.2c1.1,0.4,2.1,0.8,3.1,1.2c1.1,0.4,2.2,0.7,3.1,1.4c0.7,0.5,0.8,1.4,0.2,1.9c-0.5,0.4-1,0.7-1.5,0.8
			c-0.9,0.3-1.8,0.5-2.8,0.8c-0.5,0.1-1,0.2-1.5,0.4c-1.2,0.4-2.5,0.8-3.7,1.1c-1.2,0.3-2.5,0.5-3.6,1.1c-1.2,0.7-2.2,1.5-2.4,3
			c-0.3,1.6,0.1,3,1.2,4.1c1.2,1.2,2.8,1.5,4.3,2.1c1.1,0.4,2.2,0.8,3.3,1.2c1.1,0.4,2.2,0.9,3.4,1.3c1.2,0.4,2.2,0.9,3.1,1.8
			c0.3,0.3,0.3,0.5,0,0.8c-0.5,0.4-1,0.9-1.5,1.3c-0.5,0.3-1.2,0.6-1.8,0.8c-1.2,0.5-2.4,1.1-3.5,1.6c-1,0.4-1.9,0.8-2.9,1.2
			c-0.6,0.3-1.2,0.6-1.8,0.8c-1.1,0.4-2.1,1-2.8,1.9c-1.4,1.8-1.1,4.4,0.8,5.9c1.2,1,2.8,1.4,4.2,2c0.8,0.4,1.7,0.6,2.6,0.9
			c1.2,0.4,2.3,0.9,3.5,1.3c1.2,0.4,2.3,0.8,3.3,1.6c0.4,0.4,0.5,0.7,0.1,1.1c-0.5,0.5-1.1,1-1.7,1.3c-1.4,0.7-1.5,1.5-1.1,2.5
			c0.2,0.5,0.8,0.7,1.2,0.4c0.8-0.5,1.6-1,2.2-1.6C903.8,256.3,904.3,255.2,904.5,254z"/>
		<path d="M924.5,230.8c-0.2,0-0.4,0-0.7,0c-4.4,0-8.8,0-13.2,0c-0.4,0-0.6,0-0.6-0.5c0-4.6,0-9.2,0-13.8c0-0.1,0-0.2,0-0.3
			c4.8,0,9.6,0,14.5,0c0-3.1,0-6.1,0-9.2c-4.8,0-9.6,0-14.4,0c0-2.4,0-4.8,0-7.3c0.6,0,1.2,0,1.9,0c0,1.5,0,3,0,4.5
			c4.9,0,9.7,0,14.5,0c0,4.9,0,9.7,0,14.6c-4.8,0-9.6,0-14.5,0c0,3.1,0,6.1,0,9.2c4.8,0,9.6,0,14.5,0c0,4.8,0,9.6,0,14.5
			c-4.8,0-9.6,0-14.5,0c0,3.1,0,6.1,0,9.2c4.8,0,9.6,0,14.5,0c0,2.5,0,5,0,7.5c-0.6,0-1.3,0-1.9,0c0-1.6,0-3.2,0-4.8
			c-4.9,0-9.7,0-14.5,0c0-4.9,0-9.8,0-14.7c4.8,0,9.6,0,14.5,0C924.5,236.8,924.5,233.8,924.5,230.8z"/>
		<path d="M904.5,254c-0.2,1.2-0.7,2.3-1.6,3.2c-0.7,0.6-1.5,1.1-2.2,1.6c-0.4,0.3-1,0-1.2-0.4c-0.4-0.9-0.3-1.8,1.1-2.5
			c0.6-0.3,1.2-0.8,1.7-1.3c0.4-0.4,0.3-0.7-0.1-1.1c-1-0.8-2.1-1.2-3.3-1.6c-1.2-0.4-2.3-0.9-3.5-1.3c-0.9-0.3-1.8-0.5-2.6-0.9
			c-1.4-0.6-3-0.9-4.2-2c-1.8-1.5-2.2-4.2-0.8-5.9c0.7-0.9,1.7-1.5,2.8-1.9c0.6-0.2,1.2-0.5,1.8-0.8c1-0.4,1.9-0.8,2.9-1.2
			c1.2-0.5,2.4-1.1,3.5-1.6c0.6-0.3,1.2-0.5,1.8-0.8c0.5-0.3,1-0.8,1.5-1.3c0.2-0.2,0.2-0.5,0-0.8c-0.9-0.9-2-1.4-3.1-1.8
			c-1.1-0.4-2.2-0.9-3.4-1.3c-1.1-0.4-2.2-0.7-3.3-1.2c-1.5-0.6-3.1-0.9-4.3-2.1c-1.2-1.1-1.5-2.5-1.2-4.1c0.3-1.4,1.2-2.3,2.4-3
			c1.1-0.6,2.4-0.8,3.6-1.1c1.3-0.3,2.5-0.7,3.7-1.1c0.5-0.1,1-0.2,1.5-0.4c0.9-0.2,1.9-0.5,2.8-0.8c0.5-0.2,1.1-0.5,1.5-0.8
			c0.7-0.5,0.5-1.4-0.2-1.9c-0.9-0.7-2-1-3.1-1.4c-1.1-0.4-2.1-0.8-3.1-1.2c-1.1-0.4-2.3-0.8-3.4-1.2c-1.7-0.6-3.4-1.3-4.7-2.7
			c-0.7-0.8-1-2.7-0.5-3.8c0.7-1.4,1.8-2.3,3.2-3c0,0,0.1,0,0.1,0c0.8-0.4,1.1-0.3,1.4,0.3c0.4,0.7,0.2,1.8-0.4,2.1
			c-0.6,0.3-1.2,0.6-1.7,1c-1.3,1.1-1.1,1.3,0.1,2.3c0.5,0.4,1.1,0.6,1.7,0.8c1.4,0.5,2.8,1,4.2,1.5c1.3,0.4,2.5,0.9,3.7,1.4
			c1.1,0.5,2.4,0.8,3.3,1.6c1.3,1.2,2.1,2.7,1.5,4.5c-0.4,1.3-1.3,2.5-2.7,2.9c-1.7,0.5-3.4,1-5.1,1.5c-1.5,0.4-3,0.8-4.6,1.3
			c-0.7,0.2-1.4,0.4-2.1,0.7c-0.5,0.3-1,0.7-1.4,1.1c-0.3,0.4,0,1.2,0.6,1.5c0.8,0.4,1.5,0.8,2.3,1.1c1.1,0.4,2.2,0.8,3.3,1.2
			c0.8,0.3,1.7,0.6,2.5,0.8c0.7,0.2,1.4,0.5,2.1,0.8c0.4,0.2,0.9,0.3,1.3,0.5c0.9,0.4,1.7,0.9,2.4,1.7c1.1,1.3,1.3,3.2,0.4,4.6
			c-0.6,1.1-1.6,1.7-2.6,2.3c-0.8,0.4-1.6,0.7-2.4,1.1c-0.8,0.4-1.6,0.8-2.5,1.1c-0.7,0.3-1.4,0.6-2.1,0.8c-1.3,0.6-2.7,1.1-4,1.7
			c-0.4,0.2-0.7,0.5-1,0.8c-0.3,0.3-0.3,0.8,0,1.1c0.4,0.4,0.8,0.8,1.2,1c1.1,0.5,2.2,0.8,3.3,1.2c1.1,0.4,2.2,0.8,3.2,1.2
			c1,0.4,2,0.7,3,1.1c1.3,0.5,2.6,1,3.6,2.1C904,252.1,904.4,253,904.5,254z"/>
	</g>
	<ellipse class="st2" cx="521.3" cy="98.3" rx="11.3" ry="11.3"/>
	<circle class="st2" cx="521.3" cy="153.3" r="11.3"/>
	<g>
		<path class="st3" d="M592.4,153.4c-17.9,0-35.8,0-53.7,0c0-19.3,0-38.7,0-58c17.9,0,35.8,0,53.7,0
			C592.4,114.7,592.4,134.1,592.4,153.4z M573,99c-0.2,0-0.4,0-0.5,0c-4.2,0-8.4,0-12.6,0c-3.2,0-6.3,0-9.5,0c-0.2,0-0.4,0-0.7,0.1
			c-0.6,0.1-0.9,0.8-0.9,1.5c0,15.8,0,31.5,0,47.3c0,0.1,0,0.2,0,0.3c0.1,0.5,0.3,1,0.8,1.2c0.3,0.1,0.5,0.2,0.8,0.2
			c7.3,0,14.6,0,21.9,0c0.6,0,0.6,0,0.6-0.6c0-16.5,0-33,0-49.6C573,99.3,573,99.2,573,99z M579.1,105.5c0-0.2,0-0.3,0-0.4
			c0-2.6,0-5.2,0-7.8c0-0.8-0.5-1.4-1.4-1.4c-0.6,0-1.3,0-1.9,0c-0.9,0-1.4,0.6-1.4,1.4c0,17.8,0,35.7,0,53.5c0,0.1,0,0.3,0,0.4
			c0,0.8,0.7,1.4,1.4,1.4c0.6,0,1.3,0,1.9,0c0.1,0,0.3,0,0.4-0.1c0.7-0.3,1-0.8,1-1.5c0-2.4,0-4.8,0-7.1c0-0.1,0-0.2,0-0.3
			c0.8,0,1.5,0,2.3,0c0.7,0,1.4-0.6,1.4-1.3c0-0.2,0-0.3,0-0.5c0-1.8,0-3.7,0-5.5c0-0.7-0.6-1.4-1.4-1.4c-0.6,0-1.1,0-1.7,0
			c-0.2,0-0.4,0-0.6,0c0-6.9,0-13.8,0-20.7c0.1,0,0.2,0,0.3,0c0.7,0,1.3,0,2,0c0.8,0,1.3-0.7,1.3-1.3c0-2,0-4.1,0-6.1
			c0-0.5-0.2-0.8-0.6-1.1c-0.3-0.2-0.5-0.2-0.8-0.2C580.5,105.5,579.8,105.5,579.1,105.5z"/>
		<path d="M573,99c0,0.2,0,0.3,0,0.4c0,16.5,0,33,0,49.6c0,0.6,0,0.6-0.6,0.6c-7.3,0-14.6,0-21.9,0c-0.3,0-0.6-0.1-0.8-0.2
			c-0.5-0.2-0.8-0.6-0.8-1.2c0-0.1,0-0.2,0-0.3c0-15.8,0-31.5,0-47.3c0-0.7,0.4-1.4,0.9-1.5c0.2-0.1,0.4-0.1,0.7-0.1
			c3.2,0,6.3,0,9.5,0c4.2,0,8.4,0,12.6,0C572.6,99,572.8,99,573,99z M563.1,111.1c0,0.1,0,0.2,0,0.3c0,0.6,0,1.2,0,1.8
			c0,0.4,0.3,0.7,0.6,0.7c0.5,0,1.1,0,1.6,0c0.1,0,0.2-0.1,0.3-0.1c0.2-0.2,0.3-0.4,0.3-0.7c0-0.7,0-1.4,0-2.1c0.1,0,0.2,0,0.3,0
			c0.5,0,1.1,0,1.6,0c0.5,0,0.7-0.2,0.7-0.6c0-0.6,0-1.2,0-1.8c0-0.4-0.2-0.6-0.7-0.6c-0.6,0-1.2,0-1.7,0c-0.1,0-0.2,0-0.3,0
			c0-0.5,0-0.9,0-1.4c0-0.3,0-0.6,0-0.9c0-0.4-0.3-0.5-0.6-0.5c-0.5,0-1,0-1.5,0c-0.5,0-0.7,0.2-0.7,0.7c0,0.5,0,1.1,0,1.6
			c0,0.2,0,0.4,0,0.6c-0.7,0-1.3,0-1.9,0c-0.5,0-0.7,0.2-0.7,0.7c0,0.5,0,1,0,1.6c0,0.4,0.2,0.8,0.8,0.8
			C561.8,111.1,562.5,111.1,563.1,111.1z M563.1,139.3c0,1.1,0,2.2,0,3.3c0,0.5,0.3,0.7,0.7,0.7c0.4,0,0.9,0,1.3,0
			c0.5,0,0.8-0.2,0.8-0.8c0-0.4,0-0.9,0-1.3c0-1.7,0-3.4,0-5.1c0-0.7-0.2-0.9-0.9-0.9c-0.4,0-0.7,0-1.1,0c-0.6,0-0.8,0.2-0.8,0.8
			C563.1,137.1,563.1,138.2,563.1,139.3z"/>
		<path d="M579.1,105.5c0.7,0,1.4,0,2.2,0c0.3,0,0.6,0,0.8,0.2c0.4,0.3,0.6,0.6,0.6,1.1c0,2,0,4.1,0,6.1c0,0.6-0.6,1.4-1.3,1.3
			c-0.7,0-1.3,0-2,0c-0.1,0-0.2,0-0.3,0c0,6.9,0,13.8,0,20.7c0.2,0,0.4,0,0.6,0c0.6,0,1.1,0,1.7,0c0.8-0.1,1.4,0.7,1.4,1.4
			c0,1.8,0,3.7,0,5.5c0,0.2,0,0.3,0,0.5c0,0.7-0.7,1.4-1.4,1.3c-0.7,0-1.5,0-2.3,0c0,0.1,0,0.2,0,0.3c0,2.4,0,4.8,0,7.1
			c0,0.7-0.3,1.2-1,1.5c-0.1,0-0.3,0-0.4,0.1c-0.6,0-1.3,0-1.9,0c-0.8,0-1.4-0.6-1.4-1.4c0-0.1,0-0.3,0-0.4c0-17.8,0-35.7,0-53.5
			c0-0.9,0.5-1.5,1.4-1.4c0.6,0,1.3,0,1.9,0c0.8,0,1.4,0.6,1.4,1.4c0,2.6,0,5.2,0,7.8C579.1,105.2,579.1,105.3,579.1,105.5z"/>
		<path class="st3" d="M563.1,111.1c-0.7,0-1.3,0-1.9,0c-0.5,0-0.8-0.3-0.8-0.8c0-0.5,0-1,0-1.6c0-0.5,0.2-0.7,0.7-0.7
			c0.6,0,1.3,0,1.9,0c0-0.2,0-0.4,0-0.6c0-0.5,0-1.1,0-1.6c0-0.5,0.2-0.7,0.7-0.7c0.5,0,1,0,1.5,0c0.4,0,0.6,0.2,0.6,0.5
			c0,0.3,0,0.6,0,0.9c0,0.5,0,0.9,0,1.4c0.1,0,0.2,0,0.3,0c0.6,0,1.2,0,1.7,0c0.4,0,0.7,0.2,0.7,0.6c0,0.6,0,1.2,0,1.8
			c0,0.5-0.3,0.6-0.7,0.6c-0.5,0-1.1,0-1.6,0c-0.1,0-0.2,0-0.3,0c0,0.7,0,1.4,0,2.1c0,0.3-0.1,0.5-0.3,0.7c-0.1,0.1-0.2,0.1-0.3,0.1
			c-0.5,0-1.1,0-1.6,0c-0.3,0-0.6-0.3-0.6-0.7c0-0.6,0-1.2,0-1.8C563.1,111.4,563.1,111.3,563.1,111.1z"/>
		<path class="st3" d="M563.1,139.3c0-1.1,0-2.2,0-3.2c0-0.6,0.2-0.8,0.8-0.8c0.4,0,0.7,0,1.1,0c0.7,0,0.9,0.2,0.9,0.9
			c0,1.7,0,3.4,0,5.1c0,0.4,0,0.9,0,1.3c0,0.5-0.2,0.8-0.8,0.8c-0.4,0-0.9,0-1.3,0c-0.5,0-0.7-0.3-0.7-0.7
			C563.1,141.5,563.1,140.4,563.1,139.3z"/>
	</g>
	<g>
		<path class="st3" d="M594,298.2c-19,0-38,0-57,0c0-20.5,0-41.1,0-61.6c19,0,38,0,57,0C594,257.1,594,277.6,594,298.2z
			 M559.2,245.9c-0.1,0-0.2,0-0.2,0c-1.4,0-2.7,0-4.1,0c-0.1,0-0.3,0-0.4,0.1c-0.5,0.2-0.9,0.4-1.2,0.8c-0.2,0.2-0.3,0.5-0.4,0.8
			c-0.1,0.3-0.1,0.7-0.1,1c0,1,0,2,0,3c0,0.3,0,0.5-0.2,0.7c-0.5,0.5-0.9,1-1.3,1.5c-0.3,0.4-0.6,0.7-0.9,1.1
			c-0.5,0.5-0.9,1.1-1.3,1.6c-0.3,0.3-0.5,0.6-0.8,0.9c-0.4,0.4-0.8,0.9-1.1,1.3c-0.3,0.4-0.6,0.8-0.6,1.4c0,5.1,0,10.2,0,15.4
			c0,0.4,0,0.8,0,1.2c0,0.2,0.1,0.5,0.2,0.6c0.2,0.3,0.5,0.6,0.7,0.9c0.3,0.3,0.6,0.6,0.9,0.9c0.6,0.7,1.2,1.3,1.8,2
			c0.3,0.3,0.6,0.6,0.9,0.9c0.5,0.5,0.9,1,1.4,1.5c0.3,0.3,0.5,0.6,0.8,0.9c0.5,0.5,1,1,1.4,1.5c0.5,0.5,1,1.1,1.5,1.6
			c0.3,0.3,0.7,0.4,1.1,0.4c0.6,0,1.2,0,1.8,0c0.1,0,0.1,0,0.2,0c0,0.8,0,1.5,0,2.3c-0.1,0-0.1,0-0.2,0c-1.2,0-2.5,0-3.7,0
			c-0.5,0-0.9,0.1-1.3,0.4c-0.1,0.1-0.3,0.2-0.4,0.3c-0.4,0.4-0.6,0.9-0.6,1.5c0,0.9,0,1.9,0,2.8c0,0.7,0.4,1.2,0.9,1.6
			c0.3,0.3,0.8,0.5,1.3,0.5c5,0,10,0,15,0c0.2,0,0.4,0,0.6-0.1c0.7-0.2,1.2-0.7,1.5-1.3c0.1-0.2,0.2-0.5,0.2-0.8c0-0.8,0-1.7,0-2.5
			c0-0.1,0-0.3-0.1-0.4c-0.1-0.4-0.3-0.7-0.5-1c-0.3-0.4-0.7-0.6-1.1-0.7c-0.2-0.1-0.5-0.1-0.7-0.1c-1.3,0-2.6,0-3.9,0
			c-0.1,0-0.1,0-0.2,0c0-0.8,0-1.5,0-2.3c0.1,0,0.2,0,0.2,0c3.4,0,6.9,0,10.3,0c0.2,0,0.4,0,0.6-0.1c0.6-0.1,1.1-0.5,1.4-1
			c0.2-0.4,0.4-0.8,0.4-1.2c0-8.7,0-17.3,0-26c0-0.1,0-0.1,0-0.2c-0.1-0.3-0.2-0.5-0.4-0.7c-0.2-0.4-0.5-0.8-0.8-1.1
			c-0.4-0.5-0.9-1-1.3-1.4c-0.4-0.5-0.9-1-1.3-1.4c-0.4-0.5-0.9-1-1.3-1.4c-0.4-0.4-0.8-0.8-1.2-1.3c-0.1-0.1-0.1-0.2-0.1-0.4
			c0-1.3,0-2.5,0-3.8c0-0.4-0.1-0.7-0.3-1c-0.1-0.2-0.3-0.4-0.4-0.6c-0.3-0.5-0.7-0.7-1.2-0.7c-1.4,0-2.9,0-4.3,0
			c-0.1,0-0.1,0-0.2,0c0-0.8,0-1.5,0-2.3c0.1,0,0.2,0,0.2,0c1.3,0,2.6,0,3.9,0c0.5,0,1-0.1,1.3-0.5c0.3-0.2,0.5-0.5,0.6-0.8
			c0.2-0.4,0.2-0.8,0.2-1.3c0-0.7,0-1.4,0-2.1c0-0.2,0-0.4,0-0.6c-0.1-0.5-0.4-0.9-0.8-1.2c-0.4-0.3-0.8-0.5-1.4-0.5
			c-5.1,0-10.1,0-15.2,0c-0.5,0-1,0.2-1.4,0.5c-0.6,0.5-0.8,1.2-0.8,1.9c0,0.8,0,1.5,0,2.3c0,0.7,0.3,1.2,0.7,1.7
			c0.4,0.4,0.8,0.5,1.4,0.5c1.4,0,2.8,0,4.1,0c0.1,0,0.1,0,0.2,0C559.2,244.3,559.2,245.1,559.2,245.9z M583.2,273.9
			c0,0.1,0,0.2,0,0.2c0,1.5,0,2.9,0,4.4c0,0.2,0,0.3,0,0.5c0.1,0.7,0.4,1.2,0.9,1.5c0.3,0.2,0.7,0.3,1.1,0.3c0.7,0,1.4,0,2.2,0
			c0.5,0,1-0.1,1.4-0.5c0.5-0.5,0.8-1.1,0.8-1.8c0-5.4,0-10.8,0-16.1c0-0.7-0.2-1.3-0.7-1.8c-0.4-0.4-0.9-0.6-1.4-0.6
			c-0.8,0-1.5,0-2.3,0c-0.1,0-0.3,0-0.4,0.1c-0.5,0.1-0.9,0.4-1.2,0.7c-0.3,0.4-0.5,0.8-0.5,1.3c0,1.5,0,2.9,0,4.4
			c0,0.1,0,0.1,0,0.2c-0.7,0-1.5,0-2.2,0c0,2.3,0,4.7,0,7C581.7,273.9,582.5,273.9,583.2,273.9z"/>
		<path d="M559.2,245.9c0-0.8,0-1.5,0-2.3c-0.1,0-0.1,0-0.2,0c-1.4,0-2.8,0-4.1,0c-0.5,0-1-0.2-1.4-0.5c-0.5-0.5-0.7-1-0.7-1.7
			c0-0.8,0-1.5,0-2.3c0-0.7,0.2-1.4,0.8-1.9c0.4-0.3,0.8-0.5,1.4-0.5c5.1,0,10.1,0,15.2,0c0.5,0,1,0.1,1.4,0.5
			c0.4,0.3,0.7,0.7,0.8,1.2c0,0.2,0,0.4,0,0.6c0,0.7,0,1.4,0,2.1c0,0.4,0,0.9-0.2,1.3c-0.1,0.3-0.4,0.6-0.6,0.8
			c-0.4,0.3-0.8,0.5-1.3,0.5c-1.3,0-2.6,0-3.9,0c-0.1,0-0.1,0-0.2,0c0,0.8,0,1.5,0,2.3c0.1,0,0.1,0,0.2,0c1.4,0,2.9,0,4.3,0
			c0.5,0,0.9,0.2,1.2,0.7c0.1,0.2,0.3,0.4,0.4,0.6c0.2,0.3,0.3,0.6,0.3,1c0,1.3,0,2.5,0,3.8c0,0.1,0,0.3,0.1,0.4
			c0.4,0.4,0.8,0.8,1.2,1.3c0.4,0.5,0.9,1,1.3,1.4c0.4,0.5,0.9,1,1.3,1.4c0.4,0.5,0.9,1,1.3,1.4c0.3,0.3,0.6,0.7,0.8,1.1
			c0.1,0.2,0.3,0.5,0.4,0.7c0,0.1,0,0.1,0,0.2c0,8.7,0,17.3,0,26c0,0.4-0.1,0.8-0.4,1.2c-0.3,0.5-0.8,0.9-1.4,1
			c-0.2,0-0.4,0.1-0.6,0.1c-3.4,0-6.9,0-10.3,0c-0.1,0-0.2,0-0.2,0c0,0.8,0,1.5,0,2.3c0.1,0,0.1,0,0.2,0c1.3,0,2.6,0,3.9,0
			c0.2,0,0.5,0,0.7,0.1c0.4,0.1,0.8,0.3,1.1,0.7c0.2,0.3,0.4,0.6,0.5,1c0,0.1,0.1,0.3,0.1,0.4c0,0.8,0,1.7,0,2.5
			c0,0.3-0.1,0.5-0.2,0.8c-0.3,0.6-0.8,1.1-1.5,1.3c-0.2,0.1-0.4,0.1-0.6,0.1c-5,0-10,0-15,0c-0.5,0-0.9-0.2-1.3-0.5
			c-0.5-0.4-0.8-0.9-0.9-1.6c0-0.9-0.1-1.9,0-2.8c0-0.6,0.2-1,0.6-1.5c0.1-0.1,0.3-0.2,0.4-0.3c0.4-0.3,0.8-0.4,1.3-0.4
			c1.2,0,2.5,0,3.7,0c0.1,0,0.1,0,0.2,0c0-0.8,0-1.5,0-2.3c-0.1,0-0.1,0-0.2,0c-0.6,0-1.2,0-1.8,0c-0.4,0-0.8-0.1-1.1-0.4
			c-0.5-0.5-1-1.1-1.5-1.6c-0.5-0.5-1-1-1.4-1.5c-0.3-0.3-0.5-0.6-0.8-0.9c-0.5-0.5-0.9-1-1.4-1.5c-0.3-0.3-0.6-0.6-0.9-0.9
			c-0.6-0.7-1.2-1.3-1.8-2c-0.3-0.3-0.6-0.6-0.9-0.9c-0.3-0.3-0.5-0.6-0.7-0.9c-0.1-0.2-0.2-0.4-0.2-0.6c0-0.4,0-0.8,0-1.2
			c0-5.1,0-10.2,0-15.4c0-0.5,0.2-1,0.6-1.4c0.4-0.4,0.8-0.9,1.1-1.3c0.3-0.3,0.5-0.6,0.8-0.9c0.5-0.5,0.9-1.1,1.3-1.6
			c0.3-0.4,0.6-0.7,0.9-1.1c0.4-0.5,0.8-1.1,1.3-1.5c0.2-0.2,0.2-0.5,0.2-0.7c0-1,0-2,0-3c0-0.3,0.1-0.7,0.1-1
			c0.1-0.3,0.2-0.5,0.4-0.8c0.3-0.4,0.7-0.6,1.2-0.8c0.1,0,0.3-0.1,0.4-0.1c1.4,0,2.7,0,4.1,0C559.1,245.9,559.1,245.9,559.2,245.9z
			 M551.2,263.7C551.2,263.7,551.2,263.7,551.2,263.7c0.2,0.2,0.4,0.4,0.6,0.6c0.2,0.2,0.4,0.3,0.6,0.5c0.4,0.3,0.7,0.6,1.1,0.9
			c0.4,0.3,0.8,0.6,1.2,1c0.3,0.3,0.7,0.5,1,0.8c0.4,0.4,0.9,0.7,1.3,1.1c0.4,0.3,0.7,0.6,1.1,0.9c0.4,0.3,0.8,0.6,1.2,1
			c0.4,0.3,0.8,0.7,1.2,1c0.4,0.3,0.7,0.6,1.1,0.9c0.5,0.4,0.9,0.8,1.4,1.1c0.2,0.2,0.4,0.3,0.7,0.5c0-1.8,0-3.5,0-5.3
			c0.1,0,0.1,0,0.1,0.1c0.3,0.2,0.7,0.5,1,0.7c0.5,0.3,1,0.6,1.5,1c0.5,0.3,1,0.7,1.6,1c0.5,0.3,0.9,0.6,1.4,0.9
			c0.5,0.3,1,0.7,1.5,1c0.3,0.2,0.7,0.4,1,0.7c0.2,0.1,0.3,0.2,0.5,0.3c0,0,0-0.1,0-0.1c0-1.8,0-3.5,0-5.3c0-0.1-0.1-0.2-0.1-0.2
			c-0.4-0.3-0.9-0.5-1.4-0.8c-0.6-0.3-1.1-0.6-1.7-0.9c-0.6-0.3-1.1-0.6-1.7-1c-0.6-0.3-1.2-0.6-1.7-1c-0.6-0.3-1.1-0.6-1.7-1
			c-0.3-0.2-0.6-0.3-0.9-0.5c-0.5-0.2-0.9-0.5-1.4-0.7c-0.1-0.1-0.3-0.1-0.4-0.2c0,1.7,0,3.3,0,5c-0.1-0.1-0.2-0.1-0.4-0.2
			c-0.4-0.2-0.8-0.3-1.2-0.5c-0.4-0.2-0.8-0.3-1.2-0.5c-0.4-0.2-0.8-0.3-1.2-0.5c-0.4-0.2-0.8-0.3-1.3-0.5c-0.4-0.2-0.8-0.3-1.2-0.5
			c-0.4-0.2-0.8-0.3-1.1-0.5c-0.5-0.2-0.9-0.4-1.4-0.5c-0.2-0.1-0.4-0.1-0.6-0.2C551.5,263.8,551.3,263.8,551.2,263.7z"/>
		<path d="M583.2,273.9c-0.7,0-1.4,0-2.2,0c0-2.3,0-4.7,0-7c0.7,0,1.4,0,2.2,0c0-0.1,0-0.2,0-0.2c0-1.5,0-2.9,0-4.4
			c0-0.5,0.2-0.9,0.5-1.3c0.3-0.4,0.7-0.6,1.2-0.7c0.1,0,0.3-0.1,0.4-0.1c0.8,0,1.5,0,2.3,0c0.5,0,1,0.2,1.4,0.6
			c0.5,0.5,0.7,1.1,0.7,1.8c0,5.4,0,10.8,0,16.1c0,0.7-0.3,1.3-0.8,1.8c-0.4,0.4-0.9,0.5-1.4,0.5c-0.7,0-1.4,0-2.2,0
			c-0.4,0-0.8-0.1-1.1-0.3c-0.5-0.4-0.9-0.9-0.9-1.5c0-0.2,0-0.3,0-0.5c0-1.5,0-2.9,0-4.4C583.2,274.1,583.2,274,583.2,273.9z"/>
		<path class="st3" d="M551.2,263.7c0.2,0.1,0.3,0.1,0.5,0.2c0.2,0.1,0.4,0.1,0.6,0.2c0.5,0.2,0.9,0.4,1.4,0.5
			c0.4,0.1,0.8,0.3,1.1,0.5c0.4,0.2,0.8,0.3,1.2,0.5c0.4,0.2,0.8,0.3,1.3,0.5c0.4,0.2,0.8,0.3,1.2,0.5c0.4,0.2,0.8,0.3,1.2,0.5
			c0.4,0.2,0.8,0.3,1.2,0.5c0.1,0,0.2,0.1,0.4,0.2c0-1.7,0-3.3,0-5c0.1,0.1,0.3,0.2,0.4,0.2c0.5,0.2,0.9,0.5,1.4,0.7
			c0.3,0.2,0.6,0.3,0.9,0.5c0.6,0.3,1.1,0.6,1.7,1c0.6,0.3,1.2,0.6,1.7,1c0.6,0.3,1.1,0.6,1.7,1c0.6,0.3,1.1,0.6,1.7,0.9
			c0.5,0.3,0.9,0.5,1.4,0.8c0.1,0,0.1,0.1,0.1,0.2c0,1.8,0,3.5,0,5.3c0,0,0,0.1,0,0.1c-0.2-0.1-0.3-0.2-0.5-0.3
			c-0.3-0.2-0.7-0.4-1-0.7c-0.5-0.3-1-0.7-1.5-1c-0.5-0.3-0.9-0.6-1.4-0.9c-0.5-0.3-1-0.7-1.6-1c-0.5-0.3-1-0.6-1.5-1
			c-0.3-0.2-0.7-0.5-1-0.7c0,0-0.1,0-0.1-0.1c0,1.8,0,3.5,0,5.3c-0.2-0.2-0.4-0.4-0.7-0.5c-0.5-0.4-0.9-0.8-1.4-1.1
			c-0.4-0.3-0.7-0.6-1.1-0.9c-0.4-0.3-0.8-0.7-1.2-1c-0.4-0.3-0.8-0.6-1.2-1c-0.4-0.3-0.7-0.6-1.1-0.9c-0.4-0.4-0.9-0.7-1.3-1.1
			c-0.3-0.3-0.7-0.6-1-0.8c-0.4-0.3-0.8-0.6-1.2-1c-0.4-0.3-0.7-0.6-1.1-0.9c-0.2-0.2-0.4-0.3-0.6-0.5
			C551.6,264.1,551.4,263.9,551.2,263.7C551.2,263.7,551.2,263.7,551.2,263.7z"/>
	</g>
	<rect x="516.8" y="258" class="st2" width="9.1" height="18.7"/>
	<path id="back_outsideCutPath_9_" vector-effect="non-scaling-stroke" class="st4" d="M849.1,369.1"/>
	<path id="back_outsideCutPath_6_" vector-effect="non-scaling-stroke" class="st4" d="M812,476.1"/>
	<polygon class="st0" points="633.2,161.4 633.2,104.7 624.2,104.7 624.2,32.7 579.8,32.7 579.8,23.7 523.1,23.7 523.1,32.7 
		478.8,32.7 478.8,104.7 469.8,104.7 469.8,161.4 478.8,161.4 478.8,218.1 469.8,218.1 469.8,274.9 478.8,274.9 478.8,349.5 
		523.1,349.5 523.1,358.5 579.8,358.5 579.8,349.5 624.2,349.5 624.2,274.9 631.8,274.9 633.2,274.9 633.2,218.1 624.2,218.1 
		624.2,161.4 	"/>
	<polygon class="st0" points="1016.2,161.4 1016.2,104.7 1007.2,104.7 1007.2,32.7 962.8,32.7 962.8,23.7 906.1,23.7 906.1,32.7 
		861.8,32.7 861.8,104.7 852.8,104.7 852.8,161.4 861.8,161.4 861.8,218.1 852.8,218.1 852.8,274.9 861.8,274.9 861.8,349.5 
		906.1,349.5 906.1,358.5 962.8,358.5 962.8,349.5 1007.2,349.5 1007.2,274.9 1014.8,274.9 1016.2,274.9 1016.2,218.1 1007.2,218.1 
		1007.2,161.4 	"/>
	<circle class="st2" cx="772.1" cy="480.4" r="7.1"/>
	<circle class="st2" cx="808.9" cy="480.4" r="7.1"/>
	<g>
		<path class="st3" d="M786.2,430.4c-7.4,0-14.8,0-22.2,0c0-16.1,0-32.3,0-48.4c16.7,0,33.5,0,50.3,0c0,16.1,0,32.3,0,48.4
			c-9.2,0-18.5,0-27.7,0c0.3-0.2,0.5-0.4,0.8-0.6c0.8-0.7,1.7-1.3,2.5-2c1.6-1.3,3.2-2.5,4.8-3.8c0.5-0.4,0.5-0.9,0-1.3
			c-1.2-0.9-2.3-1.8-3.5-2.7c-1.4-1.1-2.9-2.3-4.3-3.4c-0.1-0.1-0.4-0.2-0.5-0.2c-0.1,0-0.2,0.3-0.2,0.5c0,0.8,0,1.6,0,2.4
			c0,0.6,0,1.1,0,1.7c-1.5-0.3-2.9-0.7-4.2-1.2c-2.2-0.9-4.1-2.2-5.8-3.8c-0.7-0.7-1.3-1.4-1.9-2.2c-0.9-1.3-1.6-2.7-2.2-4.1
			c-0.5-1.3-0.8-2.7-0.9-4.1c-0.3-3.2,0.1-6.2,1.6-9.1c0.1-0.3,0.2-0.5,0.4-0.8c0.6-0.9,1.1-1.7,1.7-2.5c0.6-0.7,1.2-1.4,1.9-2
			c0.4-0.4,0.8-0.7,1.3-1.1c-0.9-1.1-1.8-2.2-2.7-3.3c-1.1,1.1-2.2,2-3.2,3.1c-0.8,0.9-1.5,1.9-2.1,2.8c-1,1.5-1.7,3.1-2.2,4.8
			c-0.7,2.1-1,4.3-1,6.5c0,2.6,0.4,5.1,1.4,7.5c0.6,1.4,1.2,2.8,2.1,4.1c0.9,1.3,1.8,2.5,2.9,3.5c1.2,1.1,2.4,2.1,3.8,3
			c2.3,1.5,4.7,2.4,7.3,3c0.6,0.1,1.3,0.3,2,0.4c0,1.5,0,2.9,0,4.3C786,429.9,786.1,430.1,786.2,430.4z M793.4,382.4
			c-0.3,1.4-0.5,2.7-0.8,4c1.5,0.5,3,0.9,4.4,1.4c0.6-1.2,1.2-2.4,1.9-3.7C797.1,383.4,795.3,382.8,793.4,382.4z M782.6,383
			c-1.9,0.6-3.6,1.3-5.3,2.3c0.8,1.2,1.5,2.4,2.3,3.5c1.3-0.7,2.5-1.3,3.8-1.7c0.2-0.1,0.4-0.1,0.3-0.4
			C783.4,385.5,783,384.2,782.6,383z M802.4,391.7c1-0.9,2-1.8,3.1-2.8c-1.3-1.4-2.8-2.5-4.4-3.5c-0.8,1.2-1.5,2.3-2.3,3.4
			C800,389.8,801.2,390.8,802.4,391.7z M810.8,398c-1.4,0.4-2.8,0.7-4.1,1.1c0,0.1,0,0.1,0,0.1c0.3,1.3,0.5,2.7,0.6,4.1
			c0,0.3,0.2,0.3,0.4,0.3c1.2,0,2.4,0,3.7,0c0.1,0,0.2,0,0.3,0C811.6,401.6,811.3,399.9,810.8,398z M807.2,390.9
			c-1.2,0.8-2.3,1.7-3.4,2.4c0.8,1.3,1.5,2.6,2.2,3.9c1.2-0.5,2.6-1,3.9-1.5C809.3,393.9,808.3,392.4,807.2,390.9z M785.1,382.4
			c0.3,1.4,0.5,2.7,0.7,4c1.6-0.1,3.1-0.1,4.6-0.2c0.1-1.3,0.2-2.7,0.3-4.1C788.9,382,787,382.1,785.1,382.4z"/>
		<path d="M786.2,430.4c-0.1-0.2-0.1-0.5-0.1-0.7c0-1.4,0-2.9,0-4.3c-0.7-0.1-1.3-0.2-2-0.4c-2.6-0.6-5.1-1.6-7.3-3
			c-1.4-0.9-2.6-1.9-3.8-3c-1.1-1.1-2-2.3-2.9-3.5c-0.9-1.3-1.5-2.6-2.1-4.1c-1-2.4-1.4-4.9-1.4-7.5c0-2.2,0.3-4.4,1-6.5
			c0.6-1.7,1.3-3.3,2.2-4.8c0.6-1,1.3-2,2.1-2.8c1-1.1,2.1-2,3.2-3.1c0.9,1.2,1.8,2.2,2.7,3.3c-0.5,0.4-0.9,0.8-1.3,1.1
			c-0.6,0.7-1.3,1.3-1.9,2c-0.6,0.8-1.2,1.7-1.7,2.5c-0.2,0.2-0.2,0.5-0.4,0.8c-1.5,2.9-1.9,5.9-1.6,9.1c0.1,1.4,0.4,2.8,0.9,4.1
			c0.6,1.4,1.2,2.9,2.2,4.1c0.6,0.8,1.2,1.5,1.9,2.2c1.7,1.6,3.6,2.9,5.8,3.8c1.4,0.6,2.8,1,4.2,1.2c0-0.6,0-1.2,0-1.7
			c0-0.8,0-1.6,0-2.4c0-0.2,0.1-0.4,0.2-0.5c0.1-0.1,0.4,0.1,0.5,0.2c1.5,1.1,2.9,2.3,4.3,3.4c1.1,0.9,2.3,1.8,3.5,2.7
			c0.5,0.4,0.6,0.9,0,1.3c-1.6,1.3-3.2,2.5-4.8,3.8c-0.8,0.7-1.7,1.3-2.5,2c-0.2,0.2-0.5,0.4-0.8,0.6
			C786.4,430.4,786.3,430.4,786.2,430.4z"/>
		<path d="M793.4,382.4c2,0.4,3.7,0.9,5.5,1.8c-0.6,1.3-1.3,2.5-1.9,3.7c-1.5-0.5-2.9-0.9-4.4-1.4
			C792.8,385.2,793.1,383.8,793.4,382.4z"/>
		<path d="M782.6,383c0.4,1.3,0.8,2.5,1.2,3.7c0.1,0.3-0.1,0.4-0.3,0.4c-1.3,0.4-2.5,1-3.8,1.7c-0.7-1.1-1.5-2.3-2.3-3.5
			C779,384.2,780.7,383.5,782.6,383z"/>
		<path d="M802.4,391.7c-1.2-1-2.4-1.9-3.6-2.9c0.7-1.1,1.5-2.3,2.3-3.4c1.6,1,3.1,2.1,4.4,3.5C804.5,389.9,803.4,390.8,802.4,391.7
			z"/>
		<path d="M810.8,398c0.5,1.8,0.8,3.6,0.7,5.5c-0.1,0-0.2,0-0.3,0c-1.2,0-2.4,0-3.7,0c-0.2,0-0.4,0-0.4-0.3c0-1.4-0.2-2.7-0.6-4.1
			c0,0,0,0,0-0.1C808,398.8,809.4,398.4,810.8,398z"/>
		<path d="M807.2,390.9c1.1,1.5,2.1,3,2.8,4.8c-1.3,0.5-2.7,1-3.9,1.5c-0.8-1.3-1.5-2.6-2.2-3.9C804.8,392.5,806,391.7,807.2,390.9z
			"/>
		<path d="M785.1,382.4c1.9-0.3,3.8-0.5,5.7-0.3c-0.1,1.4-0.2,2.8-0.3,4.1c-1.5,0.1-3.1,0.1-4.6,0.2
			C785.6,385.1,785.4,383.8,785.1,382.4z"/>
	</g>
	<circle class="st2" cx="789" cy="402.6" r="9.9"/>
	<rect x="672.7" y="455.5" class="st2" width="60" height="26.6"/>
	<text transform="matrix(0.7489 0 0 1 681.9446 472.231)" class="st5 st6">sensors</text>
	<polygon class="st7" points="861.8,104.7 861.8,32.7 830.7,32.7 830.7,23.7 774,23.7 774,32.7 711.9,32.7 711.9,23.7 655.2,23.7 
		655.2,32.7 624.2,32.7 624.2,104.7 633.2,104.7 633.2,161.4 624.2,161.4 624.2,218.1 633.2,218.1 633.2,274.9 624.2,274.9 
		624.2,349.5 655.2,349.5 655.2,358.5 711.9,358.5 711.9,349.5 773.8,349.5 773.8,358.5 830.6,358.5 830.6,349.5 861.8,349.5 
		861.8,274.9 852.8,274.9 852.8,218.1 861.8,218.1 861.8,161.4 852.8,161.4 852.8,104.7 	"/>
	<polygon class="st0" points="861.8,402.2 861.8,349.6 830.7,349.6 830.7,358.6 774,358.6 774,349.6 711.9,349.6 711.9,358.6 
		655.2,358.6 655.2,349.6 624.2,349.6 624.2,402.2 633.2,402.2 633.2,458.9 624.2,458.9 624.2,502.4 655.2,502.4 655.2,511.4 
		711.9,511.4 711.9,502.4 774,502.4 774,511.4 830.7,511.4 830.7,502.4 861.8,502.4 861.8,458.9 852.8,458.9 852.8,402.2 	"/>
	<g>
		<path d="M912.7,289.6c0,0.8-0.1,1.7-0.4,2.5c-0.5,2.2-1.7,4.2-3.4,6c-0.9,0.9-1.9,1.7-3.1,2.5c1.3,0.8,2.5,1.8,3.6,2.9
			c1.3,1.2,2.2,2.7,2.7,4.4c0.5,1.6,0.5,3.4,0.2,5.1c-0.3,1.7-1,3.4-2,4.7c-1.1,1.5-2.5,2.6-4.1,3.2c-1.5,0.7-3.2,0.9-4.9,0.6
			c-1.6-0.2-3.1-0.9-4.5-1.8c-1.4-1-2.5-2.2-3.2-3.6c-0.8-1.5-1.2-3.2-1.1-4.8c0-0.9,0.1-1.8,0.3-2.6l0,0c0.5-2.2,1.7-4.2,3.6-6
			c0.9-0.8,1.8-1.6,2.7-2.2c-1.9-1.3-3.7-2.8-5-4.9c-1-1.4-1.5-3.1-1.6-5c-0.1-1.7,0.2-3.4,0.9-5c1.4-3.3,4.3-5.6,7.5-6.1
			c1.7-0.3,3.4-0.1,5,0.6c1.5,0.6,2.9,1.6,4,2.9C911.7,284.9,912.7,287.3,912.7,289.6z M902.5,298.4c2-1,5.6-3.3,6.5-7.1l0-0.1
			l0-0.1c0.6-2,0-4.2-1.6-6c-1.6-1.8-3.8-2.7-5.9-2.4l0,0c-2.1,0.3-3.9,1.9-4.9,4.1c-1,2.3-0.9,4.9,0.4,6.7l0,0
			C898.3,295.7,900.3,297.1,902.5,298.4z M896,311.8c0,1.9,1.1,3.8,2.9,5c0.9,0.6,2,1.1,3,1.2c1.1,0.2,2.1,0,3-0.4l0.1,0
			c1-0.4,1.9-1.1,2.6-2.1c0.7-0.9,1.2-2.1,1.4-3.3c0.4-2.5-0.3-4.9-1.9-6.4l0,0l0,0c-1.3-1.3-2.9-2.4-4.6-3.4
			c-2.8,1.7-5.4,3.9-6.2,7c-0.1,0.6-0.2,1.2-0.2,1.8c0,0,0,0,0,0l0,0.1l0,0.1C896,311.6,896,311.7,896,311.8z"/>
		<rect x="901.5" y="307.6" width="1.5" height="7"/>
		<polygon points="905.2,289.2 905.2,291.1 903.2,291.1 903.2,293 901.3,293 901.3,291.1 899.3,291.1 899.3,289.2 901.3,289.2 
			901.3,287.1 903.2,287.1 903.2,289.2 		"/>
		<path id="A" d="M921,316.6l-1.4,0.4v2.4l1.3,0.4v1.3l-6.8-2v-1.8l6.8-2L921,316.6z M915.4,318.2l3.2,0.9v-1.8L915.4,318.2z"/>
		<path id="R" d="M921,311c-0.8,0.4-1.6,0.7-2.4,1.1c-0.3,0.2-0.5,0.7-0.4,1.1c0.2,0.1,0.5,0,0.7,0c0.7,0,1.4,0,2.1,0
			c0,0.4,0,0.9,0,1.3c-2.3,0-4.6,0-6.8,0c0-1-0.1-1.9,0.1-2.9c0.1-0.6,0.5-1.3,1.1-1.5c0.7-0.2,1.6-0.1,2,0.5
			c0.2,0.2,0.3,0.5,0.3,0.8c0.2-0.4,0.5-0.6,0.9-0.8c0.7-0.4,1.4-0.7,2.1-1c0.2-0.2,0.3-0.1,0.3,0.1C921,310.1,921,310.6,921,311z
			 M916.2,311.3c-0.4,0-0.8,0.3-0.9,0.7c-0.1,0.4,0,0.7-0.1,1.1c0.6,0,1.3,0,1.9,0c0-0.5,0.1-1.2-0.4-1.6
			C916.7,311.4,916.4,311.3,916.2,311.3L916.2,311.3z"/>
		<path id="D" d="M917.5,303.5c1,0,2,0.2,2.7,0.9c0.7,0.7,0.8,1.7,0.8,2.6c0,0.5,0,1.1,0,1.6c-2.3,0-4.6,0-6.8,0c0-0.8,0-1.6,0-2.4
			c0-0.8,0.3-1.6,1-2.1C915.8,303.6,916.7,303.5,917.5,303.5z M917.6,304.9c-0.7,0-1.4,0.1-1.9,0.6c-0.4,0.4-0.4,1-0.4,1.6
			c0,0.1,0,0.2,0,0.3c1.6,0,3.1,0,4.7,0c0-0.6,0-1.2-0.3-1.7C919.2,305,918.3,304.9,917.6,304.9z"/>
		<path id="U" d="M918.5,297.6c0.8,0,1.7,0.3,2.2,1c0.5,0.8,0.5,1.9,0.2,2.8c-0.3,0.7-1,1.1-1.7,1.2c-0.8,0.1-1.6,0-2.5,0
			c-0.9,0-1.7,0-2.6,0c0-0.4,0-0.9,0-1.3c1.6,0,3.3,0,4.9,0c0.5,0,0.9-0.4,1-0.8c0.1-0.5,0-1.1-0.5-1.4c-0.6-0.3-1.3-0.1-1.9-0.2
			c-1.2,0-2.3,0-3.5,0c0-0.4,0-0.9,0-1.3C915.6,297.6,917.1,297.6,918.5,297.6L918.5,297.6z"/>
		<path id="I" d="M915.2,296.4h-1.1v-4.3h1.1v1.5h4.7v-1.5h1.1v4.3h-1.1v-1.5h-4.7V296.4z"/>
		<path id="N" d="M921,287.3c-1.7,0.7-3.3,1.5-5,2.2c1.7,0,3.3,0,5,0c0,0.4,0,0.8,0,1.2c-2.3,0-4.6,0-6.8,0c0-0.5,0-1.1,0-1.6
			c1.6-0.7,3.1-1.4,4.7-2.1c0.2,0,0.3-0.1,0-0.1c-1.6,0-3.1,0-4.7,0c0-0.4,0-0.8,0-1.2c2.3,0,4.6,0,6.8,0
			C921,286.3,921,286.8,921,287.3L921,287.3z"/>
		<path id="O" d="M917.6,279.5c1,0,2.1,0.2,2.9,1c0.7,0.8,0.9,2,0.5,2.9c-0.3,0.8-1.1,1.3-2,1.5c-0.9,0.2-1.9,0.2-2.8,0
			c-0.8-0.2-1.6-0.8-1.9-1.6c-0.3-0.8-0.3-1.7,0.2-2.5c0.5-0.8,1.4-1.1,2.3-1.2C917,279.5,917.3,279.5,917.6,279.5L917.6,279.5z
			 M917.6,280.9c-0.7,0-1.4,0-2,0.4c-0.5,0.4-0.5,1.1-0.3,1.6c0.3,0.6,1.1,0.7,1.7,0.7c0.8,0,1.6,0,2.3-0.3c0.4-0.2,0.7-0.7,0.6-1.2
			c0-0.5-0.4-0.9-0.8-1.1C918.7,280.9,918.1,280.9,917.6,280.9z"/>
	</g>
	<path id="TM" d="M892,281.9c0.2,0,0.3,0,0.5,0c0-0.4,0-0.7,0-1.1c1,0,1.9,0,2.9,0c0-0.2,0-0.4,0-0.6c-1,0-1.9,0-2.9,0
		c0-0.4,0-0.7,0-1.1c-0.2,0-0.3,0-0.5,0C892,280,892,280.9,892,281.9z M892,278.7c1.1,0,2.3,0,3.4,0c0-0.2,0-0.3,0-0.5
		c-1,0-1.9,0-2.9,0c1-0.3,1.9-0.6,2.9-0.9c0-0.2,0-0.3,0-0.5c-1-0.3-1.9-0.6-2.9-0.9c1,0,1.9,0,2.9,0c0-0.2,0-0.3,0-0.5
		c-1.1,0-2.3,0-3.4,0c0,0.3,0,0.5,0,0.8c0.9,0.3,1.8,0.6,2.7,0.8c-0.9,0.3-1.8,0.6-2.7,0.9C892,278.1,892,278.4,892,278.7z"/>
	<g>
		<circle class="st8" cx="808.9" cy="453.4" r="8"/>
		<path id="back_outsideCutPath_8_" vector-effect="non-scaling-stroke" class="st4" d="M809.9,454"/>
		<g>
			<path class="st3" d="M811.2,457.6l-0.2,0.7c-0.5,0.2-0.9,0.3-1.1,0.4c-0.3,0.1-0.6,0.1-1,0.1c-0.6,0-1-0.1-1.4-0.4
				c-0.3-0.3-0.5-0.6-0.5-1.1c0-0.2,0-0.3,0-0.5c0-0.2,0.1-0.4,0.1-0.6l0.6-2.1c0.1-0.2,0.1-0.4,0.1-0.6c0-0.2,0.1-0.3,0.1-0.5
				c0-0.3-0.1-0.5-0.2-0.6c-0.1-0.1-0.3-0.2-0.6-0.2c-0.2,0-0.3,0-0.5,0.1c-0.2,0-0.3,0.1-0.4,0.1l0.2-0.7c0.4-0.2,0.8-0.3,1.1-0.4
				c0.4-0.1,0.7-0.2,1-0.2c0.6,0,1,0.1,1.3,0.4c0.3,0.3,0.5,0.6,0.5,1.1c0,0.1,0,0.3,0,0.5c0,0.2-0.1,0.4-0.1,0.6l-0.6,2.1
				c0,0.2-0.1,0.4-0.1,0.6c0,0.2-0.1,0.4-0.1,0.5c0,0.3,0.1,0.5,0.2,0.6c0.1,0.1,0.3,0.2,0.7,0.2c0.1,0,0.3,0,0.5-0.1
				C810.9,457.7,811.1,457.7,811.2,457.6z M811.3,448.8c0,0.4-0.1,0.7-0.4,0.9c-0.3,0.3-0.6,0.4-1,0.4c-0.4,0-0.7-0.1-1-0.4
				c-0.3-0.3-0.4-0.6-0.4-0.9c0-0.4,0.1-0.7,0.4-0.9c0.3-0.3,0.6-0.4,1-0.4c0.4,0,0.7,0.1,1,0.4
				C811.2,448.1,811.3,448.4,811.3,448.8z"/>
		</g>
	</g>
	<g>
		<path class="st3" d="M783.3,443.7c0,6.9,0,13.8,0,20.7c-7.5,0-14.9,0-22.4,0c0-6.9,0-13.8,0-20.7
			C768.4,443.7,775.8,443.7,783.3,443.7z M764.3,456.3C764.3,456.3,764.3,456.4,764.3,456.3c0,0.6,0,1.1,0,1.6c0,0,0,0.1,0,0.1
			c0.1,0.2,0.1,0.3,0.3,0.4c0.1,0.1,0.2,0.1,0.3,0.1c0.1,0,0.2,0,0.4,0.1c0.4,0,0.7,0,1.1,0c0.1,0,0.2,0,0.3,0.1
			c0.2,0.2,0.4,0.3,0.6,0.5c0.1,0.1,0.3,0.2,0.4,0.3c0.2,0.2,0.4,0.3,0.6,0.5c0.1,0.1,0.2,0.2,0.3,0.3c0.2,0.1,0.3,0.3,0.5,0.4
			c0.1,0.1,0.3,0.2,0.5,0.2c1.9,0,3.7,0,5.6,0c0.1,0,0.3,0,0.4,0c0.1,0,0.2,0,0.2-0.1c0.1-0.1,0.2-0.2,0.3-0.3
			c0.1-0.1,0.2-0.2,0.3-0.3c0.2-0.2,0.5-0.4,0.7-0.7c0.1-0.1,0.2-0.2,0.3-0.3c0.2-0.2,0.4-0.3,0.6-0.5c0.1-0.1,0.2-0.2,0.3-0.3
			c0.2-0.2,0.4-0.3,0.6-0.5c0.2-0.2,0.4-0.4,0.6-0.6c0.1-0.1,0.2-0.2,0.2-0.4c0-0.2,0-0.4,0-0.6c0,0,0,0,0-0.1c0.3,0,0.6,0,0.8,0
			c0,0,0,0,0,0.1c0,0.5,0,0.9,0,1.4c0,0.2,0,0.3,0.1,0.5c0,0,0.1,0.1,0.1,0.1c0.2,0.1,0.3,0.2,0.5,0.2c0.3,0,0.7,0,1,0
			c0.2,0,0.4-0.1,0.6-0.3c0.1-0.1,0.2-0.3,0.2-0.5c0-1.8,0-3.6,0-5.4c0-0.1,0-0.2,0-0.2c-0.1-0.3-0.3-0.4-0.5-0.5
			c-0.1,0-0.2-0.1-0.3-0.1c-0.3,0-0.6,0-0.9,0c0,0-0.1,0-0.1,0c-0.1,0-0.3,0.1-0.4,0.2c-0.1,0.1-0.2,0.2-0.3,0.4c0,0.1,0,0.2,0,0.3
			c0,0.5,0,0.9,0,1.4c0,0,0,0,0,0.1c-0.3,0-0.6,0-0.8,0c0,0,0-0.1,0-0.1c0-1.2,0-2.5,0-3.7c0-0.1,0-0.2,0-0.2
			c-0.1-0.2-0.2-0.4-0.4-0.5c-0.1-0.1-0.3-0.1-0.4-0.1c-3.1,0-6.3,0-9.4,0c0,0-0.1,0-0.1,0c-0.1,0-0.2,0.1-0.3,0.1
			c-0.2,0.1-0.3,0.2-0.4,0.3c-0.2,0.2-0.3,0.3-0.5,0.5c-0.2,0.2-0.3,0.3-0.5,0.5c-0.2,0.2-0.3,0.3-0.5,0.5c-0.2,0.1-0.3,0.3-0.5,0.4
			c0,0-0.1,0.1-0.1,0.1c-0.5,0-0.9,0-1.4,0c-0.1,0-0.3,0-0.4,0.1c-0.1,0-0.1,0.1-0.2,0.1c-0.2,0.1-0.2,0.2-0.2,0.4c0,0.5,0,1,0,1.6
			c0,0,0,0,0,0.1c-0.3,0-0.6,0-0.8,0c0,0,0-0.1,0-0.1c0-0.5,0-0.9,0-1.4c0-0.2-0.1-0.3-0.2-0.5c-0.1-0.1-0.2-0.2-0.3-0.2
			c-0.1-0.1-0.3-0.1-0.5-0.1c-0.3,0-0.5,0-0.8,0c-0.1,0-0.1,0-0.2,0c-0.2,0-0.3,0.1-0.4,0.3c-0.1,0.1-0.2,0.3-0.2,0.5
			c0,1.8,0,3.7,0,5.5c0,0.2,0.1,0.3,0.2,0.5c0.2,0.2,0.4,0.3,0.7,0.3c0.3,0,0.6,0,0.8,0c0.2,0,0.4-0.1,0.6-0.3
			c0.1-0.1,0.2-0.3,0.2-0.5c0-0.5,0-1,0-1.5c0,0,0,0,0-0.1C763.7,456.3,764,456.3,764.3,456.3z M774.5,447.6
			C774.5,447.6,774.5,447.6,774.5,447.6c0.6,0,1.1,0,1.7,0c0.1,0,0.1,0,0.2,0c0.2,0,0.4-0.2,0.6-0.3c0.1-0.1,0.1-0.3,0.1-0.4
			c0-0.3,0-0.5,0-0.8c0-0.2,0-0.4-0.2-0.5c-0.2-0.2-0.4-0.3-0.6-0.3c-2,0-3.9,0-5.9,0c-0.3,0-0.5,0.1-0.6,0.3
			c-0.1,0.1-0.2,0.3-0.2,0.5c0,0.3,0,0.5,0,0.8c0,0,0,0.1,0,0.1c0,0.2,0.1,0.3,0.3,0.4c0.1,0.1,0.3,0.2,0.5,0.2c0.5,0,1.1,0,1.6,0
			c0,0,0,0,0.1,0c0,0.3,0,0.5,0,0.8c0.9,0,1.7,0,2.5,0C774.5,448.1,774.5,447.9,774.5,447.6z"/>
		<path d="M764.3,456.3c-0.3,0-0.6,0-0.8,0c0,0,0,0.1,0,0.1c0,0.5,0,1,0,1.5c0,0.2-0.1,0.4-0.2,0.5c-0.2,0.2-0.4,0.3-0.6,0.3
			c-0.3,0-0.6,0-0.8,0c-0.3,0-0.5-0.1-0.7-0.3c-0.1-0.1-0.2-0.3-0.2-0.5c0-1.8,0-3.7,0-5.5c0-0.2,0.1-0.3,0.2-0.5
			c0.1-0.1,0.3-0.2,0.4-0.3c0.1,0,0.1,0,0.2,0c0.3,0,0.5,0,0.8,0c0.2,0,0.3,0,0.5,0.1c0.1,0.1,0.2,0.1,0.3,0.2
			c0.1,0.1,0.2,0.3,0.2,0.5c0,0.5,0,0.9,0,1.4c0,0,0,0.1,0,0.1c0.3,0,0.6,0,0.8,0c0,0,0,0,0-0.1c0-0.5,0-1,0-1.6
			c0-0.2,0.1-0.3,0.2-0.4c0.1,0,0.1-0.1,0.2-0.1c0.1-0.1,0.2-0.1,0.4-0.1c0.5,0,0.9,0,1.4,0c0.1,0,0.1,0,0.1-0.1
			c0.2-0.1,0.3-0.3,0.5-0.4c0.2-0.2,0.3-0.3,0.5-0.5c0.2-0.2,0.3-0.3,0.5-0.5c0.2-0.2,0.3-0.3,0.5-0.5c0.1-0.1,0.2-0.2,0.4-0.3
			c0.1,0,0.2-0.1,0.3-0.1c0,0,0.1,0,0.1,0c3.1,0,6.3,0,9.4,0c0.2,0,0.3,0,0.4,0.1c0.2,0.1,0.3,0.3,0.4,0.5c0,0.1,0,0.2,0,0.2
			c0,1.2,0,2.5,0,3.7c0,0,0,0.1,0,0.1c0.3,0,0.5,0,0.8,0c0,0,0,0,0-0.1c0-0.5,0-0.9,0-1.4c0-0.1,0-0.2,0-0.3c0-0.1,0.1-0.3,0.3-0.4
			c0.1-0.1,0.2-0.2,0.4-0.2c0,0,0.1,0,0.1,0c0.3,0,0.6,0,0.9,0c0.1,0,0.2,0,0.3,0.1c0.2,0.1,0.4,0.3,0.5,0.5c0,0.1,0,0.2,0,0.2
			c0,1.8,0,3.6,0,5.4c0,0.2-0.1,0.3-0.2,0.5c-0.1,0.2-0.3,0.3-0.6,0.3c-0.3,0-0.7,0-1,0c-0.2,0-0.4-0.1-0.5-0.2c0,0-0.1-0.1-0.1-0.1
			c-0.1-0.1-0.1-0.3-0.1-0.5c0-0.5,0-0.9,0-1.4c0,0,0,0,0-0.1c-0.3,0-0.6,0-0.8,0c0,0,0,0,0,0.1c0,0.2,0,0.4,0,0.6
			c0,0.2,0,0.3-0.2,0.4c-0.2,0.2-0.4,0.4-0.6,0.6c-0.2,0.2-0.4,0.3-0.6,0.5c-0.1,0.1-0.2,0.2-0.3,0.3c-0.2,0.2-0.4,0.3-0.6,0.5
			c-0.1,0.1-0.2,0.2-0.3,0.3c-0.2,0.2-0.5,0.4-0.7,0.7c-0.1,0.1-0.2,0.2-0.3,0.3c-0.1,0.1-0.2,0.2-0.3,0.3c-0.1,0-0.2,0.1-0.2,0.1
			c-0.1,0-0.3,0-0.4,0c-1.9,0-3.7,0-5.6,0c-0.2,0-0.4-0.1-0.5-0.2c-0.2-0.1-0.3-0.3-0.5-0.4c-0.1-0.1-0.2-0.2-0.3-0.3
			c-0.2-0.2-0.4-0.3-0.6-0.5c-0.1-0.1-0.3-0.2-0.4-0.3c-0.2-0.2-0.4-0.3-0.6-0.5c-0.1-0.1-0.2-0.1-0.3-0.1c-0.4,0-0.7,0-1.1,0
			c-0.1,0-0.2,0-0.4-0.1c-0.1,0-0.2-0.1-0.3-0.1c-0.2-0.1-0.2-0.3-0.3-0.4c0,0,0-0.1,0-0.1C764.3,457.4,764.3,456.9,764.3,456.3
			C764.3,456.4,764.3,456.3,764.3,456.3z M770.8,459.2C770.8,459.2,770.8,459.2,770.8,459.2c0.1-0.1,0.1-0.1,0.2-0.2
			c0.1-0.1,0.1-0.1,0.2-0.2c0.1-0.1,0.2-0.3,0.3-0.4c0.1-0.1,0.2-0.3,0.3-0.4c0.1-0.1,0.2-0.2,0.3-0.4c0.1-0.2,0.3-0.3,0.4-0.5
			c0.1-0.1,0.2-0.3,0.3-0.4c0.1-0.1,0.2-0.3,0.3-0.4c0.1-0.1,0.2-0.3,0.4-0.4c0.1-0.1,0.2-0.3,0.3-0.4c0.1-0.2,0.3-0.3,0.4-0.5
			c0.1-0.1,0.1-0.1,0.2-0.2c-0.7,0-1.3,0-1.9,0c0,0,0,0,0-0.1c0.1-0.1,0.2-0.2,0.2-0.4c0.1-0.2,0.2-0.4,0.3-0.5
			c0.1-0.2,0.2-0.4,0.4-0.6c0.1-0.2,0.2-0.3,0.3-0.5c0.1-0.2,0.2-0.4,0.4-0.6c0.1-0.1,0.2-0.3,0.2-0.4c0-0.1,0.1-0.1,0.1-0.2
			c0,0,0,0,0,0c-0.6,0-1.3,0-1.9,0c0,0-0.1,0-0.1,0c-0.1,0.2-0.2,0.3-0.3,0.5c-0.1,0.2-0.2,0.4-0.3,0.6c-0.1,0.2-0.2,0.4-0.4,0.6
			c-0.1,0.2-0.2,0.4-0.3,0.6c-0.1,0.2-0.2,0.4-0.3,0.6c-0.1,0.1-0.1,0.2-0.2,0.3c-0.1,0.2-0.2,0.3-0.3,0.5c0,0-0.1,0.1-0.1,0.1
			c0.6,0,1.2,0,1.8,0c0,0.1-0.1,0.1-0.1,0.1c-0.1,0.1-0.1,0.3-0.2,0.4c-0.1,0.1-0.1,0.3-0.2,0.4c-0.1,0.1-0.1,0.3-0.2,0.4
			c-0.1,0.2-0.1,0.3-0.2,0.5c-0.1,0.1-0.1,0.3-0.2,0.4c-0.1,0.1-0.1,0.3-0.2,0.4c-0.1,0.2-0.1,0.3-0.2,0.5c0,0.1-0.1,0.1-0.1,0.2
			C770.8,459.1,770.8,459.2,770.8,459.2z"/>
		<path d="M774.5,447.6c0,0.3,0,0.5,0,0.8c-0.8,0-1.7,0-2.5,0c0-0.3,0-0.5,0-0.8c0,0-0.1,0-0.1,0c-0.5,0-1.1,0-1.6,0
			c-0.2,0-0.3-0.1-0.5-0.2c-0.1-0.1-0.2-0.3-0.3-0.4c0,0,0-0.1,0-0.1c0-0.3,0-0.5,0-0.8c0-0.2,0.1-0.4,0.2-0.5
			c0.2-0.2,0.4-0.3,0.6-0.3c2,0,3.9,0,5.9,0c0.3,0,0.5,0.1,0.6,0.3c0.1,0.1,0.2,0.3,0.2,0.5c0,0.3,0,0.5,0,0.8c0,0.1,0,0.3-0.1,0.4
			c-0.1,0.2-0.3,0.3-0.6,0.3c-0.1,0-0.1,0-0.2,0C775.6,447.6,775.1,447.6,774.5,447.6C774.5,447.6,774.5,447.6,774.5,447.6z"/>
		<path class="st3" d="M770.8,459.2c0-0.1,0-0.1,0.1-0.2c0-0.1,0.1-0.1,0.1-0.2c0.1-0.2,0.1-0.3,0.2-0.5c0.1-0.1,0.1-0.3,0.2-0.4
			c0.1-0.1,0.1-0.3,0.2-0.4c0.1-0.2,0.1-0.3,0.2-0.5c0.1-0.1,0.1-0.3,0.2-0.4c0.1-0.1,0.1-0.3,0.2-0.4c0.1-0.1,0.1-0.3,0.2-0.4
			c0,0,0-0.1,0.1-0.1c-0.6,0-1.2,0-1.8,0c0-0.1,0.1-0.1,0.1-0.1c0.1-0.2,0.2-0.3,0.3-0.5c0.1-0.1,0.1-0.2,0.2-0.3
			c0.1-0.2,0.2-0.4,0.3-0.6c0.1-0.2,0.2-0.4,0.3-0.6c0.1-0.2,0.2-0.4,0.4-0.6c0.1-0.2,0.2-0.4,0.3-0.6c0.1-0.2,0.2-0.3,0.3-0.5
			c0,0,0,0,0.1,0c0.6,0,1.3,0,1.9,0c0,0,0,0,0,0c0,0.1-0.1,0.1-0.1,0.2c-0.1,0.1-0.2,0.3-0.2,0.4c-0.1,0.2-0.2,0.4-0.4,0.6
			c-0.1,0.2-0.2,0.3-0.3,0.5c-0.1,0.2-0.2,0.4-0.4,0.6c-0.1,0.2-0.2,0.4-0.3,0.5c-0.1,0.1-0.2,0.2-0.2,0.4c0,0,0,0,0,0.1
			c0.6,0,1.3,0,1.9,0c-0.1,0.1-0.1,0.2-0.2,0.2c-0.1,0.2-0.3,0.3-0.4,0.5c-0.1,0.1-0.2,0.3-0.3,0.4c-0.1,0.1-0.2,0.3-0.4,0.4
			c-0.1,0.1-0.2,0.3-0.3,0.4c-0.1,0.1-0.2,0.3-0.3,0.4c-0.1,0.2-0.3,0.3-0.4,0.5c-0.1,0.1-0.2,0.2-0.3,0.4c-0.1,0.1-0.2,0.3-0.3,0.4
			c-0.1,0.1-0.2,0.3-0.3,0.4c-0.1,0.1-0.1,0.1-0.2,0.2C770.9,459.1,770.8,459.2,770.8,459.2C770.8,459.2,770.8,459.2,770.8,459.2z"
			/>
	</g>
	<g>
		<path class="st3" d="M880.8,62c16,0,32,0,48.1,0c0,17.3,0,34.6,0,51.9c-16,0-32,0-48.1,0C880.8,96.7,880.8,79.4,880.8,62z
			 M910.1,106.1c0.1,0,0.1,0,0.2,0c1.2,0,2.3,0,3.5,0c0.1,0,0.2,0,0.3,0c0.4-0.1,0.8-0.3,1-0.7c0.1-0.2,0.3-0.4,0.3-0.6
			c0.1-0.3,0.1-0.6,0.1-0.8c0-0.9,0-1.7,0-2.6c0-0.2,0-0.4,0.2-0.6c0.4-0.4,0.7-0.9,1.1-1.3c0.3-0.3,0.5-0.6,0.8-0.9
			c0.4-0.4,0.8-0.9,1.1-1.3c0.2-0.2,0.4-0.5,0.6-0.7c0.3-0.4,0.6-0.8,1-1.1c0.3-0.3,0.5-0.7,0.5-1.1c0-4.3,0-8.6,0-12.9
			c0-0.3,0-0.7,0-1c0-0.2-0.1-0.4-0.2-0.5c-0.2-0.3-0.4-0.5-0.6-0.8c-0.2-0.3-0.5-0.5-0.7-0.8c-0.5-0.6-1-1.1-1.5-1.7
			c-0.2-0.3-0.5-0.5-0.7-0.8c-0.4-0.4-0.8-0.9-1.2-1.3c-0.2-0.2-0.4-0.5-0.7-0.7c-0.4-0.4-0.8-0.9-1.2-1.3c-0.4-0.5-0.9-0.9-1.3-1.4
			c-0.3-0.3-0.6-0.4-0.9-0.4c-0.5,0-1,0-1.5,0c-0.1,0-0.1,0-0.2,0c0-0.7,0-1.3,0-2c0.1,0,0.1,0,0.2,0c1,0,2.1,0,3.1,0
			c0.4,0,0.8,0,1.1-0.3c0.1-0.1,0.2-0.2,0.3-0.3c0.3-0.4,0.5-0.8,0.5-1.2c0-0.8,0-1.6,0-2.4c0-0.6-0.3-1-0.7-1.3
			c-0.3-0.2-0.7-0.4-1.1-0.4c-4.2,0-8.4,0-12.6,0c-0.2,0-0.4,0-0.5,0.1c-0.6,0.2-1,0.6-1.3,1.1c-0.1,0.2-0.2,0.4-0.2,0.6
			c0,0.7,0,1.4,0,2.1c0,0.1,0,0.2,0.1,0.3c0.1,0.3,0.2,0.6,0.4,0.9c0.2,0.3,0.6,0.5,0.9,0.6c0.2,0.1,0.4,0.1,0.6,0.1
			c1.1,0,2.2,0,3.3,0c0.1,0,0.1,0,0.2,0c0,0.6,0,1.3,0,1.9c-0.1,0-0.1,0-0.2,0c-2.9,0-5.8,0-8.7,0c-0.2,0-0.4,0-0.5,0
			c-0.5,0.1-0.9,0.4-1.2,0.8c-0.2,0.3-0.3,0.6-0.3,1c0,7.3,0,14.6,0,21.9c0,0.1,0,0.1,0,0.2c0,0.2,0.2,0.4,0.3,0.6
			c0.2,0.3,0.4,0.6,0.7,0.9c0.4,0.4,0.8,0.8,1.1,1.2c0.4,0.4,0.7,0.8,1.1,1.2c0.4,0.4,0.7,0.8,1.1,1.2c0.3,0.4,0.7,0.7,1,1.1
			c0.1,0.1,0.1,0.2,0.1,0.3c0,1.1,0,2.1,0,3.2c0,0.3,0.1,0.6,0.3,0.9c0.1,0.2,0.2,0.3,0.3,0.5c0.2,0.4,0.6,0.6,1,0.6
			c1.2,0,2.4,0,3.6,0c0.1,0,0.1,0,0.2,0c0,0.7,0,1.3,0,2c-0.1,0-0.1,0-0.2,0c-1.1,0-2.2,0-3.3,0c-0.4,0-0.8,0.1-1.1,0.4
			c-0.2,0.2-0.4,0.4-0.5,0.7c-0.1,0.3-0.2,0.7-0.2,1.1c0,0.6,0,1.2,0,1.8c0,0.2,0,0.3,0,0.5c0.1,0.4,0.3,0.7,0.6,1
			c0.3,0.3,0.7,0.4,1.1,0.4c4.3,0,8.5,0,12.8,0c0.4,0,0.8-0.2,1.1-0.5c0.5-0.4,0.7-1,0.7-1.6c0-0.6,0-1.3,0-1.9c0-0.6-0.2-1-0.6-1.4
			c-0.3-0.3-0.7-0.5-1.1-0.5c-1.2,0-2.3,0-3.5,0c-0.1,0-0.1,0-0.2,0C910.1,107.4,910.1,106.8,910.1,106.1z M889.9,82.5
			c0-0.1,0-0.1,0-0.2c0-1.2,0-2.5,0-3.7c0-0.1,0-0.3,0-0.4c-0.1-0.6-0.4-1-0.8-1.3c-0.3-0.2-0.6-0.3-0.9-0.3c-0.6,0-1.2,0-1.8,0
			c-0.4,0-0.8,0.1-1.2,0.4c-0.5,0.4-0.7,0.9-0.7,1.5c0,4.5,0,9.1,0,13.6c0,0.6,0.2,1.1,0.6,1.5c0.3,0.3,0.7,0.5,1.2,0.5
			c0.6,0,1.3,0,1.9,0c0.1,0,0.2,0,0.3,0c0.4-0.1,0.7-0.3,1-0.6c0.3-0.3,0.5-0.7,0.5-1.1c0-1.2,0-2.5,0-3.7c0-0.1,0-0.1,0-0.2
			c0.6,0,1.2,0,1.8,0c0-2,0-3.9,0-5.9C891.1,82.5,890.5,82.5,889.9,82.5z"/>
		<path d="M910.1,106.1c0,0.7,0,1.3,0,2c0.1,0,0.1,0,0.2,0c1.2,0,2.3,0,3.5,0c0.4,0,0.8,0.1,1.1,0.5c0.4,0.4,0.6,0.9,0.6,1.4
			c0,0.6,0,1.3,0,1.9c0,0.6-0.2,1.2-0.7,1.6c-0.3,0.3-0.7,0.5-1.1,0.5c-4.3,0-8.5,0-12.8,0c-0.4,0-0.8-0.1-1.1-0.4
			c-0.3-0.3-0.5-0.6-0.6-1c0-0.2,0-0.3,0-0.5c0-0.6,0-1.2,0-1.8c0-0.4,0-0.7,0.2-1.1c0.1-0.3,0.3-0.5,0.5-0.7
			c0.3-0.3,0.7-0.4,1.1-0.4c1.1,0,2.2,0,3.3,0c0.1,0,0.1,0,0.2,0c0-0.6,0-1.3,0-2c-0.1,0-0.1,0-0.2,0c-1.2,0-2.4,0-3.6,0
			c-0.5,0-0.8-0.2-1-0.6c-0.1-0.2-0.2-0.3-0.3-0.5c-0.2-0.3-0.3-0.5-0.3-0.9c0-1.1,0-2.1,0-3.2c0-0.1,0-0.2-0.1-0.3
			c-0.3-0.4-0.7-0.7-1-1.1c-0.4-0.4-0.8-0.8-1.1-1.2c-0.4-0.4-0.7-0.8-1.1-1.2c-0.4-0.4-0.8-0.8-1.1-1.2c-0.3-0.3-0.5-0.6-0.7-0.9
			c-0.1-0.2-0.3-0.4-0.3-0.6c0-0.1,0-0.1,0-0.2c0-7.3,0-14.6,0-21.9c0-0.4,0.1-0.7,0.3-1c0.3-0.4,0.7-0.7,1.2-0.8c0.2,0,0.4,0,0.5,0
			c2.9,0,5.8,0,8.7,0c0.1,0,0.1,0,0.2,0c0-0.6,0-1.3,0-1.9c-0.1,0-0.1,0-0.2,0c-1.1,0-2.2,0-3.3,0c-0.2,0-0.4,0-0.6-0.1
			c-0.3-0.1-0.7-0.3-0.9-0.6c-0.2-0.3-0.4-0.5-0.4-0.9c0-0.1-0.1-0.2-0.1-0.3c0-0.7,0-1.4,0-2.1c0-0.2,0.1-0.4,0.2-0.6
			c0.3-0.5,0.7-0.9,1.3-1.1c0.2-0.1,0.4-0.1,0.5-0.1c4.2,0,8.4,0,12.6,0c0.4,0,0.8,0.1,1.1,0.4c0.4,0.3,0.7,0.8,0.7,1.3
			c0,0.8,0,1.6,0,2.4c0,0.5-0.2,0.9-0.5,1.2c-0.1,0.1-0.2,0.2-0.3,0.3c-0.3,0.3-0.7,0.3-1.1,0.3c-1,0-2.1,0-3.1,0
			c-0.1,0-0.1,0-0.2,0c0,0.7,0,1.3,0,2c0.1,0,0.1,0,0.2,0c0.5,0,1,0,1.5,0c0.4,0,0.7,0.1,0.9,0.4c0.4,0.4,0.9,0.9,1.3,1.4
			c0.4,0.4,0.8,0.9,1.2,1.3c0.2,0.2,0.4,0.5,0.7,0.7c0.4,0.4,0.8,0.9,1.2,1.3c0.2,0.3,0.5,0.5,0.7,0.8c0.5,0.6,1,1.1,1.5,1.7
			c0.2,0.3,0.5,0.5,0.7,0.8c0.2,0.2,0.4,0.5,0.6,0.8c0.1,0.2,0.2,0.4,0.2,0.5c0,0.3,0,0.7,0,1c0,4.3,0,8.6,0,12.9
			c0,0.4-0.2,0.8-0.5,1.1c-0.3,0.4-0.6,0.8-1,1.1c-0.2,0.2-0.4,0.5-0.6,0.7c-0.4,0.4-0.8,0.9-1.1,1.3c-0.3,0.3-0.5,0.6-0.8,0.9
			c-0.4,0.4-0.7,0.9-1.1,1.3c-0.2,0.2-0.2,0.4-0.2,0.6c0,0.9,0,1.7,0,2.6c0,0.3,0,0.6-0.1,0.8c-0.1,0.2-0.2,0.5-0.3,0.6
			c-0.2,0.4-0.6,0.5-1,0.7c-0.1,0-0.2,0-0.3,0c-1.2,0-2.3,0-3.5,0C910.3,106.1,910.2,106.1,910.1,106.1z M916.9,91.1
			C916.9,91.1,916.9,91.1,916.9,91.1c-0.2-0.2-0.3-0.3-0.5-0.5c-0.2-0.1-0.3-0.3-0.5-0.4c-0.3-0.3-0.6-0.5-0.9-0.8
			c-0.3-0.3-0.7-0.5-1-0.8c-0.3-0.2-0.6-0.5-0.8-0.7c-0.4-0.3-0.7-0.6-1.1-0.9c-0.3-0.3-0.6-0.5-0.9-0.8c-0.3-0.3-0.7-0.5-1-0.8
			c-0.3-0.3-0.7-0.6-1-0.8c-0.3-0.3-0.6-0.5-0.9-0.8c-0.4-0.3-0.8-0.6-1.2-1c-0.2-0.1-0.3-0.3-0.5-0.5c0,1.5,0,3,0,4.5
			c-0.1,0-0.1,0-0.1-0.1c-0.3-0.2-0.6-0.4-0.9-0.6c-0.4-0.3-0.8-0.5-1.2-0.8c-0.4-0.3-0.9-0.6-1.3-0.8c-0.4-0.2-0.8-0.5-1.1-0.7
			c-0.4-0.3-0.9-0.6-1.3-0.8c-0.3-0.2-0.6-0.4-0.9-0.6c-0.1-0.1-0.3-0.2-0.4-0.3c0,0,0,0.1,0,0.1c0,1.5,0,3,0,4.5
			c0,0.1,0,0.1,0.1,0.2c0.4,0.2,0.8,0.4,1.1,0.6c0.5,0.3,1,0.5,1.4,0.8c0.5,0.3,1,0.5,1.5,0.8c0.5,0.3,1,0.5,1.5,0.8
			c0.5,0.3,1,0.5,1.4,0.8c0.2,0.1,0.5,0.3,0.7,0.4c0.4,0.2,0.8,0.4,1.1,0.6c0.1,0.1,0.2,0.1,0.3,0.2c0-1.4,0-2.8,0-4.2
			c0.1,0.1,0.2,0.1,0.3,0.2c0.3,0.1,0.7,0.3,1,0.4c0.3,0.1,0.7,0.3,1,0.4c0.3,0.1,0.7,0.3,1,0.4c0.4,0.1,0.7,0.3,1.1,0.4
			c0.3,0.1,0.7,0.3,1,0.4c0.3,0.1,0.6,0.3,1,0.4c0.4,0.2,0.8,0.3,1.2,0.5c0.2,0.1,0.3,0.1,0.5,0.2C916.6,91,916.8,91.1,916.9,91.1z"
			/>
		<path d="M889.9,82.5c0.6,0,1.2,0,1.8,0c0,2,0,3.9,0,5.9c-0.6,0-1.2,0-1.8,0c0,0.1,0,0.1,0,0.2c0,1.2,0,2.5,0,3.7
			c0,0.4-0.2,0.8-0.5,1.1c-0.3,0.3-0.6,0.5-1,0.6c-0.1,0-0.2,0-0.3,0c-0.6,0-1.3,0-1.9,0c-0.5,0-0.9-0.2-1.2-0.5
			c-0.4-0.4-0.6-0.9-0.6-1.5c0-4.5,0-9.1,0-13.6c0-0.6,0.2-1.1,0.7-1.5c0.3-0.3,0.7-0.4,1.2-0.4c0.6,0,1.2,0,1.8,0
			c0.3,0,0.7,0.1,0.9,0.3c0.4,0.3,0.7,0.7,0.8,1.3c0,0.1,0,0.3,0,0.4c0,1.2,0,2.5,0,3.7C889.9,82.4,889.9,82.4,889.9,82.5z"/>
		<path class="st3" d="M916.9,91.1c-0.1-0.1-0.3-0.1-0.4-0.2c-0.2-0.1-0.3-0.1-0.5-0.2c-0.4-0.1-0.8-0.3-1.2-0.5
			c-0.3-0.1-0.6-0.3-1-0.4c-0.3-0.1-0.7-0.3-1-0.4c-0.4-0.1-0.7-0.3-1.1-0.4c-0.3-0.1-0.7-0.3-1-0.4c-0.3-0.1-0.7-0.3-1-0.4
			c-0.3-0.1-0.7-0.3-1-0.4c-0.1,0-0.2-0.1-0.3-0.2c0,1.4,0,2.8,0,4.2c-0.1-0.1-0.2-0.1-0.3-0.2c-0.4-0.2-0.8-0.4-1.1-0.6
			c-0.2-0.1-0.5-0.3-0.7-0.4c-0.5-0.3-1-0.5-1.4-0.8c-0.5-0.3-1-0.5-1.5-0.8c-0.5-0.3-1-0.5-1.5-0.8c-0.5-0.3-1-0.5-1.4-0.8
			c-0.4-0.2-0.8-0.4-1.1-0.6c0,0-0.1-0.1-0.1-0.2c0-1.5,0-3,0-4.5c0,0,0,0,0-0.1c0.1,0.1,0.3,0.2,0.4,0.3c0.3,0.2,0.6,0.4,0.9,0.6
			c0.4,0.3,0.9,0.6,1.3,0.8c0.4,0.2,0.8,0.5,1.1,0.7c0.4,0.3,0.9,0.6,1.3,0.8c0.4,0.3,0.8,0.5,1.2,0.8c0.3,0.2,0.6,0.4,0.9,0.6
			c0,0,0.1,0,0.1,0.1c0-1.5,0-3,0-4.5c0.2,0.2,0.4,0.3,0.5,0.5c0.4,0.3,0.8,0.6,1.2,1c0.3,0.3,0.6,0.5,0.9,0.8
			c0.3,0.3,0.7,0.6,1,0.8c0.3,0.3,0.7,0.5,1,0.8c0.3,0.3,0.6,0.5,0.9,0.8c0.4,0.3,0.7,0.6,1.1,0.9c0.3,0.2,0.6,0.5,0.8,0.7
			c0.3,0.3,0.7,0.5,1,0.8c0.3,0.3,0.6,0.5,0.9,0.8c0.2,0.1,0.3,0.3,0.5,0.4C916.6,90.8,916.7,90.9,916.9,91.1
			C916.9,91.1,916.9,91.1,916.9,91.1z"/>
	</g>
	<g>
		<path class="st3" d="M677.7,79.4c45.5,0,91.1,0,136.6,0c0,73.7,0,147.5,0,221.2c-45.5,0-91.1,0-136.6,0
			C677.7,226.8,677.7,153.1,677.7,79.4z M739,200.1c-1,0-1.8,0-2.5,0c-6.8,0-13.6-0.1-20.3,0c-1.4,0-3,0.5-4.3,1.2
			c-4.9,2.7-9.6,5.7-14.5,8.4c-1.1,0.6-1.5,1.2-1.6,2.4c-0.1,4.9-0.3,9.7-0.5,14.6c0,0.6,0.1,1.1,0.3,2.2c1.1-0.8,1.7-1.4,2.4-1.8
			c2.3-1.4,2.1-3.8,2.3-6c0.2-1.5,0.8-2,2.2-2.2c2.2-0.3,4.3-0.9,6.4-1.3c3-0.5,6.1-0.9,9.1-1.3c-1.5,3.7-3,7-4.1,10.5
			c-0.6,1.8-1.6,2.7-3.2,3.4c-3.8,1.5-7.5,3.1-11.2,4.6c-1.2,0.5-1.1,1-0.4,1.8c0.6,0.7,0.9,1.6,1.6,2.1c1.4,1,1.6,3.1,4,3.2
			c4,0.2,7.9,0.9,11.9,1.4c0.5,0.1,1.1-0.3,1.5-0.6c2-1.7,3.9-3.4,5.9-5.1c3.4-2.9,6.8-5.9,10.3-8.7c0.8-0.6,2.3-1,3.2-0.7
			c4.5,1.6,8.9,3.5,13.4,5.3c2.1,0.8,3.1,2,2.5,4.6c-1,4.5-1.5,9.1-2.2,13.6c-0.7,4.3-1.4,8.5-2,12.8c-0.1,0.9,0,1.9,0.2,2.8
			c0.2,0.9,0.8,1.7,0.7,2.5c-0.6,4.2-1.3,8.4-2.2,12.5c-0.4,1.7,0.2,3,1.3,4.1c1.6,1.7,3.4,3.2,5.1,4.8c0.9,0.9,1.8,0.8,2.5-0.1
			c2.7-3.9,5.3-7.9,7.8-11.9c0.7-1.1,1.4-1.3,2.4-0.6c1.5,1.1,2.9,0.8,4.4-0.2c3.6-2.4,7.2-4.7,10.9-6.9c0.9-0.5,2.1-0.6,3.2-0.5
			c2.3,0.3,4.5,0.8,7,1.3c0-2.3-0.3-4.1,0.1-5.9c0.7-3.5-1.5-5-4.1-6.2c-3-1.4-4.1-3.9-2.7-6.8c1.4-3,2.8-5.9,4.2-8.9
			c0.8-1.8,1.7-3.5,2.5-5.2c2.6-5.8,6.2-11,7.2-17.6c0.7-4.2-0.7-7.1-2.3-10.5c-1.9-3.9-4.2-7.7-3.5-12.6c1-7,1.2-14.1,1.6-21.1
			c0.4-7,0.7-14,1.1-21c0.1-1.8,0-3.3-1.5-4.7c-1.3-1.2-2.1-3.1-3.1-4.6c-2-3.1-4-6.3-6.1-9.3c-2.4-3.6-5-7.2-7.4-10.9
			c-2.1-3.2-4.2-6.3-6.4-9.5c-0.4-0.5-0.9-1-1.5-1.2c-2.5-1-5.2-1.6-7.5-2.9c-3.5-2.1-7.2-3.2-11.3-3.5c-3.3-0.2-6.6-0.2-9.7-1.1
			c-4.4-1.2-9.3-0.4-13.4-3.4c-3-2.3-6.5-3.9-9.8-5.8c-3.1-1.9-6.2-3.9-9.3-5.6c-0.6-0.3-1.7-0.2-2.3,0.2c-3.5,2.3-6.9,4.6-10.2,7.2
			c-0.8,0.6-1.4,2-1.4,3c-0.1,4.3,0,8.7,0,13c0,0.5,0.2,1,0.3,2.1c1.5-1.1,3.3-1.7,3.8-2.9c0.9-2,1-4.3,1.5-7c1.7,0.1,4-0.3,5.5,0.5
			c2,1.2,3.5,3.4,5.2,5.1c2.6,2.7,5.1,5.4,7.7,8c2.4,2.5,5,4.8,7.4,7.3c0.2,0.2,0,1.2-0.3,1.4c-2.7,1.9-5.6,3.7-8.3,5.6
			c-2.6,1.8-5,3.7-7.6,5.4c-3.9,2.7-7.8,5.3-11.7,7.9c-2.1,1.4-3.6,2.9-3.5,6c0.2,7.8-0.1,15.5-0.1,23.3c0,0.7,0.1,1.4,0.2,2.3
			c2.9-0.3,5.2-1.3,6.3-3.8c1.2-2.8,2.3-5.7,3.1-8.7c0.5-2,1.6-2.7,3.5-2.9c5.6-0.4,11.3-0.7,16.8-1.4c2.6-0.3,3.5,0.8,4.1,2.9
			c1.9,6.5,3.9,13,5.8,19.5c0.1,0.5,0.4,1,0.5,1.5C736.8,193,737.9,196.4,739,200.1z"/>
		<path d="M739,200.1c-1.2-3.8-2.2-7.2-3.3-10.6c-0.2-0.5-0.4-1-0.5-1.5c-1.9-6.5-3.9-13-5.8-19.5c-0.6-2.1-1.5-3.2-4.1-2.9
			c-5.6,0.7-11.2,1-16.8,1.4c-1.9,0.1-2.9,0.9-3.5,2.9c-0.8,3-1.9,5.9-3.1,8.7c-1.1,2.5-3.4,3.5-6.3,3.8c-0.1-0.8-0.2-1.6-0.2-2.3
			c0.1-7.8,0.4-15.5,0.1-23.3c-0.1-3.1,1.4-4.6,3.5-6c3.9-2.6,7.8-5.3,11.7-7.9c2.6-1.8,5-3.7,7.6-5.4c2.8-1.9,5.6-3.7,8.3-5.6
			c0.3-0.2,0.5-1.2,0.3-1.4c-2.4-2.5-5-4.8-7.4-7.3c-2.6-2.6-5.1-5.3-7.7-8c-1.7-1.8-3.2-3.9-5.2-5.1c-1.5-0.9-3.7-0.4-5.5-0.5
			c-0.5,2.7-0.6,5-1.5,7c-0.5,1.2-2.3,1.8-3.8,2.9c-0.2-1.1-0.3-1.6-0.3-2.1c0-4.3-0.1-8.7,0-13c0-1,0.6-2.4,1.4-3
			c3.3-2.5,6.7-4.9,10.2-7.2c0.6-0.4,1.7-0.5,2.3-0.2c3.2,1.8,6.2,3.8,9.3,5.6c3.3,2,6.8,3.6,9.8,5.8c4.1,3,9,2.2,13.4,3.4
			c3.1,0.9,6.5,0.9,9.7,1.1c4.1,0.3,7.7,1.4,11.3,3.5c2.3,1.3,5,1.9,7.5,2.9c0.6,0.2,1.2,0.7,1.5,1.2c2.2,3.1,4.3,6.3,6.4,9.5
			c2.5,3.6,5,7.2,7.4,10.9c2.1,3.1,4.1,6.2,6.1,9.3c1,1.6,1.8,3.4,3.1,4.6c1.5,1.4,1.6,3,1.5,4.7c-0.4,7-0.6,14-1.1,21
			c-0.4,7-0.6,14.1-1.6,21.1c-0.7,4.9,1.7,8.7,3.5,12.6c1.6,3.4,3,6.2,2.3,10.5c-1,6.6-4.6,11.8-7.2,17.6c-0.8,1.8-1.7,3.5-2.5,5.2
			c-1.4,3-2.9,5.9-4.2,8.9c-1.3,2.9-0.3,5.4,2.7,6.8c2.6,1.2,4.8,2.6,4.1,6.2c-0.3,1.7-0.1,3.6-0.1,5.9c-2.5-0.5-4.8-1-7-1.3
			c-1-0.1-2.3,0-3.2,0.5c-3.7,2.2-7.3,4.5-10.9,6.9c-1.5,1-2.8,1.3-4.4,0.2c-1-0.7-1.7-0.5-2.4,0.6c-2.6,4-5.2,8-7.8,11.9
			c-0.6,1-1.6,1-2.5,0.1c-1.7-1.6-3.5-3.1-5.1-4.8c-1.1-1.1-1.6-2.3-1.3-4.1c0.9-4.1,1.6-8.3,2.2-12.5c0.1-0.8-0.6-1.7-0.7-2.5
			c-0.2-0.9-0.3-1.9-0.2-2.8c0.6-4.3,1.4-8.5,2-12.8c0.7-4.6,1.2-9.2,2.2-13.6c0.6-2.6-0.4-3.8-2.5-4.6c-4.4-1.8-8.9-3.7-13.4-5.3
			c-0.9-0.3-2.4,0.1-3.2,0.7c-3.5,2.8-6.9,5.8-10.3,8.7c-2,1.7-3.9,3.4-5.9,5.1c-0.4,0.3-1,0.7-1.5,0.6c-4-0.4-7.9-1.2-11.9-1.4
			c-2.3-0.1-2.6-2.3-4-3.2c-0.7-0.5-1.1-1.4-1.6-2.1c-0.7-0.8-0.8-1.4,0.4-1.8c3.7-1.5,7.4-3.1,11.2-4.6c1.7-0.6,2.6-1.6,3.2-3.4
			c1.1-3.5,2.7-6.9,4.1-10.5c-3,0.4-6,0.8-9.1,1.3c-2.2,0.4-4.3,1-6.4,1.3c-1.4,0.2-2,0.7-2.2,2.2c-0.2,2.2,0,4.6-2.3,6
			c-0.7,0.4-1.4,1-2.4,1.8c-0.2-1.1-0.3-1.6-0.3-2.2c0.1-4.9,0.3-9.7,0.5-14.6c0-1.2,0.4-1.8,1.6-2.4c4.9-2.7,9.6-5.7,14.5-8.4
			c1.3-0.7,2.8-1.2,4.3-1.2c6.8-0.1,13.6,0,20.3,0C737.3,200.1,738,200.1,739,200.1z M794.1,154c-0.4-0.9-0.7-1.5-1-2
			c-1.9-2.8-3.8-5.7-5.7-8.5c-1.9-2.9-3.7-5.8-5.5-8.7c-2.8-4.3-5.5-8.6-8.6-12.7c-1.2-1.6-1.5-4.1-4.4-4.2
			c-5.5-0.2-11-0.9-16.6-1.2c-0.7,0-1.5,0.2-2.1,0.6c-3.2,2.1-6.4,4.4-9.5,6.6c-2.7,1.9-5.3,3.8-7.9,5.6c-3.5,2.5-7.1,4.9-10.6,7.4
			c-3.5,2.5-7.1,4.9-10.6,7.4c-4,2.8-7.9,5.7-12,8.4c-1.5,0.9-1.5,1.5-0.7,2.8c1.7,2.6,3.2,5.2,4.8,7.8c1.3,2.1,2.9,3.3,5.7,2.6
			c2.2-0.6,4.5-0.8,6.7-1.1c6.1-0.8,12.2-1.4,18.3-2.2c7.2-0.9,14.4-2,21.6-3c9-1.3,18-2.8,26.9-4.1
			C786.3,154.9,790,154.6,794.1,154z M795,155.2c-2.4,0.6-4.1,1.1-5.9,1.3c-5.2,0.8-10.5,1.6-15.7,2.4c-4.9,0.7-9.9,1.5-14.8,2.2
			c-8.5,1.2-17,2.4-25.5,3.5c-3.3,0.4-3.4,0.7-2.4,3.8c1.9,5.8,3.8,11.5,5.7,17.3c1.2,4,2.3,8,3.4,12c1.2,4.3,1.5,4.5,5.9,4.5
			c14.8,0.3,29.5,0.6,44.3,0.9c0.7,0,1.3,0,2.2,0C793.1,187.1,794,171.4,795,155.2z M798.5,217.1c-1.7-3.5-3.4-6.7-4.8-9.9
			c-0.7-1.7-1.7-2.4-3.6-2.4c-8-0.2-15.9-0.7-23.9-0.9c-11.6-0.3-23.1-0.5-34.7-0.7c-0.9,0-2.2,0.6-2.8,1.3
			c-2.6,3.5-5.1,7.1-7.6,10.8c-0.7,1-1.3,2.2-2,3.3c3.6,1.5,6.9,3,10.3,4.4c4.8,2,9.6,3.9,14.4,5.8c2,0.8,4.3,1.3,6,2.5
			c2.9,2,5.8,2.2,9,0.9c0.7-0.3,1.3-0.8,2-1c6.1-2.3,12.2-4.6,18.3-6.9C785.5,221.9,791.9,219.6,798.5,217.1z M755.5,235.2
			c-1.1,7.5-2.1,14.5-3.2,21.5c-0.4,2.8-1,5.5-1.4,8.3c-0.1,0.6,0.2,1.6,0.6,1.9c5.5,3.6,11.2,7.1,16.8,10.6c0.4,0.2,1.2,0.2,1.6,0
			c3.5-2.1,6.9-4.3,10.4-6.6c1.6-1.1,2.5-2.4,2.6-4.5c0.1-3.2,0.9-6.4,1.2-9.6c0.1-1.1-0.1-2.7-0.8-3.3c-1.7-1.6-3.8-2.9-5.8-4.2
			c-6-3.9-11.9-7.8-17.9-11.6C758.3,236.9,757.1,236.2,755.5,235.2z M798.1,218.8c-3.5,1.4-6.7,2.7-10,4c-7.4,2.8-14.8,5.4-22.2,8.2
			c-2.2,0.8-4.5,1.6-6.7,2.5c-0.5,0.2-1,0.7-1.6,1.1c4,2.6,7.7,5,11.4,7.5c4.5,2.9,8.9,5.8,13.3,8.8c1.6,1,2.4,1.3,3.4-0.9
			c2-4.6,4.4-9.1,6.6-13.7c0.9-1.9,1.7-3.8,2.7-5.6C797,227.1,798.7,223.6,798.1,218.8z M709,95.8c-0.5,3.1-1,5.9-1.5,8.6
			c-0.4,2.3-0.7,4.3,1.8,6.2c2.9,2.3,5.2,5.4,7.8,8.1c3.4,3.4,6.9,6.7,10.4,10c0.6,0.5,1.3,0.9,2,1.3c0.4-0.8,1.1-1.7,1.1-2.5
			c0.1-5.9,0.1-11.7,0.1-17.6c0-0.7-0.5-1.7-1-2.1c-1.3-1-2.8-1.6-4.2-2.5c-3.4-2-6.7-4.1-10.1-6.1C713.4,98,711.3,97,709,95.8z
			 M728.9,201.4c-5,0-9.3,0-13.7,0c-0.3,0-0.5,0.2-0.8,0.3c-5,2.8-9.9,5.8-15,8.5c-1.4,0.8-1.8,1.5-1,2.8c0.5,0.9,1.2,1.7,1.5,2.7
			c0.5,1.3,1.2,1.7,2.6,1.5c4.5-0.9,9.1-1.7,13.6-2.3c2.4-0.3,4.3-0.7,5.7-3.1C723.8,208.3,726.3,205.2,728.9,201.4z M718.4,220.1
			c-2.7,7.1-5.2,13.9-7.8,20.8c2.3,0.2,4,0.5,5.6,0.6c0.6,0,1.4-0.1,1.9-0.5c3.4-2.9,6.8-5.9,10.2-8.9c2-1.7,4-3.5,6.2-5.4
			C729.1,224.5,724,222.4,718.4,220.1z M732.5,127.7c2.2-1.5,4.1-2.8,6-4.1c2.7-1.9,5.6-3.6,8.1-5.7c3.2-2.7,6.5-3.5,10.6-2.5
			c2.1,0.5,4.3,0.4,6.5,0.5c0.1-0.4,0.1-0.8,0.2-1.2c-3.7-1-7.4-2.1-11.2-2.9c-2.2-0.5-4.5-0.5-6.8-0.8c-4.3-0.6-8.6-1.2-13.1-1.9
			c-0.1,0.8-0.2,1.2-0.2,1.5C732.5,116.3,732.5,121.8,732.5,127.7z M755.2,289.7c0.3-0.2,0.5-0.3,0.6-0.4c2.7-3.7,5.4-7.4,7.9-11.2
			c0.2-0.3-0.1-1.5-0.6-1.8c-3.1-2.1-6.3-4.1-9.5-6.1c-0.6-0.3-1.3-0.5-1.8-0.7c-0.9,4.6-1.8,8.9-2.6,13.2c-0.1,0.6,0,1.4,0.4,1.8
			C751.4,286.2,753.3,287.9,755.2,289.7z M696.7,180.2c2.3,0,3.5-0.8,3.9-2.7c0.2-0.9,0.9-1.8,1.1-2.7c0.4-3.3,4-6.2,1.2-10
			c-1.8-2.5-3.4-5.1-5.3-8.1C697.2,164.8,697,172.4,696.7,180.2z M707.3,96.8c-0.2-0.1-0.3-0.2-0.5-0.3c-1.8,1.3-3.4,2.7-5.3,3.8
			c-4.2,2.4-4.5,3.4-1.4,7c1,1.2,5.1,1,5.3-0.4C706.1,103.6,706.7,100.2,707.3,96.8z M712.3,231.3c-4.1,1.6-7.7,3.1-11.4,4.5
			c0.9,1.3,1.6,2.4,2.4,3.4c1,1.3,5.5,1.6,6,0.4C710.3,237,711.2,234.3,712.3,231.3z M785,260.9c-0.2,2.3-0.5,4.7-0.6,7
			c0,0.5,0.6,1.2,1.1,1.4c1.8,0.5,3.6,0.9,5.4,1.3C792.5,265.7,790.2,261.8,785,260.9z M698,215.8c-0.1,0-0.3,0.1-0.4,0.1
			c-0.1,3.1-0.3,6.2-0.4,9.4c0.2,0,0.5,0.1,0.7,0.1c0.5-2.3,1.2-4.6,1.5-7C699.5,217.6,698.5,216.7,698,215.8z M697.3,116.5
			c2.7-2.5,2.6-7.4,0-9.6C697.3,110,697.3,113,697.3,116.5z"/>
		<path class="st3" d="M794.1,154c-4.2,0.5-7.8,0.9-11.4,1.4c-9,1.3-18,2.8-26.9,4.1c-7.2,1.1-14.4,2.1-21.6,3
			c-6.1,0.8-12.2,1.4-18.3,2.2c-2.3,0.3-4.6,0.4-6.7,1.1c-2.8,0.8-4.4-0.5-5.7-2.6c-1.6-2.6-3.2-5.2-4.8-7.8
			c-0.8-1.3-0.7-1.9,0.7-2.8c4.1-2.6,8-5.6,12-8.4c3.5-2.5,7.1-4.9,10.6-7.4c3.5-2.5,7.1-4.9,10.6-7.4c2.7-1.9,5.3-3.8,7.9-5.6
			c3.2-2.2,6.3-4.4,9.5-6.6c0.6-0.4,1.4-0.7,2.1-0.6c5.5,0.4,11,1,16.6,1.2c2.9,0.1,3.2,2.7,4.4,4.2c3.1,4.1,5.8,8.4,8.6,12.7
			c1.9,2.9,3.7,5.8,5.5,8.7c1.9,2.9,3.8,5.7,5.7,8.5C793.5,152.6,793.7,153.2,794.1,154z"/>
		<path class="st3" d="M795,155.2c-1,16.3-1.9,31.9-2.9,47.9c-0.9,0-1.5,0-2.2,0c-14.8-0.3-29.5-0.6-44.3-0.9
			c-4.4-0.1-4.7-0.3-5.9-4.5c-1.1-4-2.2-8-3.4-12c-1.8-5.8-3.7-11.6-5.7-17.3c-1-3.1-0.9-3.3,2.4-3.8c8.5-1.1,17-2.3,25.5-3.5
			c4.9-0.7,9.9-1.5,14.8-2.2c5.2-0.8,10.5-1.5,15.7-2.4C790.9,156.2,792.6,155.7,795,155.2z"/>
		<path class="st3" d="M798.5,217.1c-6.7,2.5-13,4.8-19.4,7.1c-6.1,2.3-12.2,4.6-18.3,6.9c-0.7,0.3-1.3,0.7-2,1
			c-3.1,1.4-6,1.1-9-0.9c-1.8-1.2-4-1.7-6-2.5c-4.8-1.9-9.6-3.8-14.4-5.8c-3.4-1.4-6.7-2.9-10.3-4.4c0.7-1.1,1.3-2.3,2-3.3
			c2.5-3.6,4.9-7.3,7.6-10.8c0.6-0.7,1.8-1.3,2.8-1.3c11.6,0.1,23.1,0.4,34.7,0.7c8,0.2,15.9,0.7,23.9,0.9c1.9,0.1,2.8,0.7,3.6,2.4
			C795.1,210.4,796.8,213.6,798.5,217.1z"/>
		<path class="st3" d="M755.5,235.2c1.5,0.9,2.8,1.6,4,2.4c6,3.9,12,7.7,17.9,11.6c2,1.3,4.1,2.6,5.8,4.2c0.7,0.6,0.9,2.2,0.8,3.3
			c-0.3,3.2-1.1,6.4-1.2,9.6c-0.1,2.2-1,3.5-2.6,4.5c-3.4,2.2-6.9,4.4-10.4,6.6c-0.4,0.3-1.2,0.3-1.6,0c-5.6-3.5-11.2-7-16.8-10.6
			c-0.4-0.3-0.7-1.3-0.6-1.9c0.4-2.8,1-5.5,1.4-8.3C753.4,249.7,754.4,242.7,755.5,235.2z"/>
		<path class="st3" d="M798.1,218.8c0.6,4.7-1.1,8.3-3,11.8c-1,1.8-1.8,3.7-2.7,5.6c-2.2,4.6-4.6,9.1-6.6,13.7
			c-0.9,2.1-1.8,1.9-3.4,0.9c-4.4-3-8.9-5.9-13.3-8.8c-3.7-2.4-7.5-4.9-11.4-7.5c0.6-0.4,1-0.9,1.6-1.1c2.2-0.9,4.5-1.7,6.7-2.5
			c7.4-2.7,14.8-5.4,22.2-8.2C791.4,221.6,794.6,220.2,798.1,218.8z"/>
		<path class="st3" d="M709,95.8c2.3,1.2,4.4,2.3,6.3,3.4c3.4,2,6.7,4.1,10.1,6.1c1.4,0.8,2.9,1.5,4.2,2.5c0.6,0.4,1,1.4,1,2.1
			c0.1,5.9,0.1,11.7-0.1,17.6c0,0.8-0.7,1.7-1.1,2.5c-0.7-0.4-1.4-0.8-2-1.3c-3.5-3.3-7-6.6-10.4-10c-2.7-2.7-4.9-5.8-7.8-8.1
			c-2.4-1.9-2.2-3.9-1.8-6.2C708,101.7,708.5,98.9,709,95.8z"/>
		<path class="st3" d="M728.9,201.4c-2.6,3.8-5.1,6.9-7,10.3c-1.4,2.5-3.3,2.8-5.7,3.1c-4.6,0.7-9.1,1.5-13.6,2.3
			c-1.4,0.3-2.1-0.1-2.6-1.5c-0.3-1-1-1.8-1.5-2.7c-0.8-1.3-0.4-2,1-2.8c5-2.7,10-5.7,15-8.5c0.2-0.1,0.5-0.3,0.8-0.3
			C719.5,201.4,723.9,201.4,728.9,201.4z"/>
		<path class="st3" d="M718.4,220.1c5.6,2.3,10.7,4.3,16.1,6.6c-2.2,2-4.2,3.7-6.2,5.4c-3.4,3-6.7,6-10.2,8.9
			c-0.5,0.4-1.3,0.5-1.9,0.5c-1.7-0.1-3.3-0.3-5.6-0.6C713.2,234,715.7,227.2,718.4,220.1z"/>
		<path class="st3" d="M732.5,127.7c0-5.9,0-11.5,0-17c0-0.4,0.1-0.7,0.2-1.5c4.4,0.6,8.8,1.3,13.1,1.9c2.3,0.3,4.6,0.4,6.8,0.8
			c3.8,0.8,7.5,1.9,11.2,2.9c-0.1,0.4-0.1,0.8-0.2,1.2c-2.2-0.2-4.4,0-6.5-0.5c-4.1-1-7.4-0.2-10.6,2.5c-2.5,2.1-5.4,3.8-8.1,5.7
			C736.6,124.9,734.7,126.2,732.5,127.7z"/>
		<path class="st3" d="M755.2,289.7c-1.9-1.8-3.8-3.5-5.6-5.3c-0.4-0.4-0.5-1.2-0.4-1.8c0.8-4.3,1.7-8.6,2.6-13.2
			c0.6,0.2,1.3,0.3,1.8,0.7c3.2,2,6.4,4,9.5,6.1c0.4,0.3,0.8,1.4,0.6,1.8c-2.6,3.8-5.3,7.5-7.9,11.2
			C755.7,289.4,755.4,289.5,755.2,289.7z"/>
		<path class="st3" d="M696.7,180.2c0.3-7.8,0.6-15.4,0.9-23.5c1.9,3,3.5,5.6,5.3,8.1c2.8,3.8-0.8,6.7-1.2,10
			c-0.1,0.9-0.9,1.8-1.1,2.7C700.1,179.4,699,180.2,696.7,180.2z"/>
		<path class="st3" d="M707.3,96.8c-0.6,3.4-1.1,6.8-1.8,10.1c-0.3,1.3-4.3,1.6-5.3,0.4c-3.1-3.6-2.9-4.6,1.4-7
			c1.9-1.1,3.5-2.5,5.3-3.8C706.9,96.6,707.1,96.7,707.3,96.8z"/>
		<path class="st3" d="M712.3,231.3c-1.1,3.1-2,5.7-3,8.3c-0.5,1.2-4.9,0.9-6-0.4c-0.8-1-1.5-2.1-2.4-3.4
			C704.6,234.3,708.2,232.9,712.3,231.3z"/>
		<path class="st3" d="M785,260.9c5.2,0.9,7.4,4.8,5.9,9.7c-1.8-0.4-3.6-0.8-5.4-1.3c-0.5-0.1-1.1-0.9-1.1-1.4
			C784.6,265.5,784.8,263.2,785,260.9z"/>
		<path class="st3" d="M698,215.8c0.5,0.9,1.5,1.8,1.4,2.6c-0.3,2.4-1,4.7-1.5,7c-0.2,0-0.5-0.1-0.7-0.1c0.1-3.1,0.3-6.2,0.4-9.4
			C697.8,215.9,697.9,215.8,698,215.8z"/>
		<path class="st3" d="M697.3,116.5c0-3.4,0-6.5,0-9.6C699.9,109,700,114,697.3,116.5z"/>
	</g>
</g>
</svg>
