<?xml version="1.0" encoding="utf-8"?>
<!-- Generator: Adobe Illustrator 23.0.6, SVG Export Plug-In . SVG Version: 6.00 Build 0)  -->
<svg version="1.1" id="Layer_1" xmlns="http://www.w3.org/2000/svg" xmlns:xlink="http://www.w3.org/1999/xlink" x="0px" y="0px"
	 viewBox="0 0 919.1 1054.7" style="enable-background:new 0 0 919.1 1054.7;" xml:space="preserve">
<style type="text/css">
	.st0{fill:none;stroke:#FF0000;stroke-width:7.200000e-02;stroke-miterlimit:10;}
	.st1{fill:none;stroke:#000000;stroke-miterlimit:10;}
	.st2{fill:none;stroke:#000000;}
	.st3{fill:#777777;stroke:#FF0000;stroke-width:7.200000e-02;stroke-miterlimit:10;}
	.st4{fill:#FFFFFF;}
	.st5{fill:#FFFFFF;stroke:#FF0000;stroke-width:7.200000e-02;stroke-miterlimit:10;}
</style>
<path class="st0" d="M519.9,436.5V47.7H210.3v388.8H519.9z M452.8,409.5h-56.7v-9h56.7V409.5z M501.9,59.1c3.6,0,6.6,3,6.6,6.6
	s-3,6.6-6.6,6.6c-3.6,0-6.6-3-6.6-6.6S498.2,59.1,501.9,59.1z M501.1,411.1c3.6,0,6.6,3,6.6,6.6s-3,6.6-6.6,6.6s-6.6-3-6.6-6.6
	S497.4,411.1,501.1,411.1z M474.9,158.3h9v56.7h-9V158.3z M474.9,271.7h9v56.7h-9V271.7z M396.1,74.7h56.7v9h-56.7V74.7z
	 M277.5,74.7H334v9h-56.6V74.7z M277.3,400.5H334v9h-56.7V400.5z M255.3,328.5h-9v-56.7h9V328.5z M246.2,158.3h9v56.7h-9V158.3z
	 M228.3,59.1c3.6,0,6.6,3,6.6,6.6s-3,6.6-6.6,6.6s-6.6-3-6.6-6.6S224.6,59.1,228.3,59.1z M228.3,411.1c3.6,0,6.6,3,6.6,6.6
	s-3,6.6-6.6,6.6s-6.6-3-6.6-6.6S224.6,411.1,228.3,411.1z"/>
<path class="st0" d="M11.9,358.9h27h9h43.6v-9h56.7v9h43.6v-31h9v-56.7h-9V209h9v-56.7h-9v-31h-42.3v9H92.9v-9h-45h-9h-27V358.9z
	 M47.9,271.1v56.7h-9v-56.7H47.9z M47.9,152.3V209h-9v-56.7H47.9z"/>
<g>
	<g>
		<defs>
			<polyline id="SVGID_1_" points="120.8,174.5 73.4,174.5 73.4,305.6 120.8,305.6 120.8,174.5 			"/>
		</defs>
		<clipPath id="SVGID_2_">
			<use xlink:href="#SVGID_1_"  style="overflow:visible;"/>
		</clipPath>
		<g transform="matrix(1 -6.617445e-24 6.617445e-24 1 0 0)" style="clip-path:url(#SVGID_2_);">
			
				<image style="overflow:visible;" width="279" height="102" xlink:href="149F47201194CA0E.jpg"  transform="matrix(2.899107e-17 -0.4735 0.4735 2.899107e-17 72.9387 306.1008)">
			</image>
		</g>
	</g>
</g>
<g>
	<g>
		<defs>
			<polyline id="SVGID_3_" points="154.4,156.9 111.8,156.9 111.8,323.2 154.4,323.2 154.4,156.9 			"/>
		</defs>
		<clipPath id="SVGID_4_">
			<use xlink:href="#SVGID_3_"  style="overflow:visible;"/>
		</clipPath>
		<g transform="matrix(1 6.617445e-24 -6.617445e-24 1 0 0)" style="clip-path:url(#SVGID_4_);">
			
				<image style="overflow:visible;" width="392" height="102" xlink:href="149F47201194CA0F.jpg"  transform="matrix(2.610940e-17 -0.4264 0.4264 2.610940e-17 111.3318 323.6273)">
			</image>
		</g>
	</g>
</g>
<path id="top_outsideCutPath_9_" vector-effect="non-scaling-stroke" class="st1" d="M9.1,808.7"/>
<path id="top_outsideCutPath_11_" vector-effect="non-scaling-stroke" class="st1" d="M9.1,638.6"/>
<path id="back_outsideCutPath_9_" vector-effect="non-scaling-stroke" class="st2" d="M357.2,671.1"/>
<path id="back_outsideCutPath_6_" vector-effect="non-scaling-stroke" class="st2" d="M464.1,708.1"/>
<ellipse class="st3" cx="67.3" cy="782.8" rx="11.3" ry="11.3"/>
<circle class="st3" cx="67.3" cy="837.8" r="11.3"/>
<g>
	<path class="st4" d="M138.3,837.8c-17.9,0-35.8,0-53.7,0c0-19.3,0-38.7,0-58c17.9,0,35.8,0,53.7,0
		C138.3,799.2,138.3,818.5,138.3,837.8z M119,783.4c-0.2,0-0.4,0-0.5,0c-4.2,0-8.4,0-12.6,0c-3.2,0-6.3,0-9.5,0
		c-0.2,0-0.4,0-0.7,0.1c-0.6,0.1-0.9,0.8-0.9,1.5c0,15.8,0,31.5,0,47.3c0,0.1,0,0.2,0,0.3c0.1,0.5,0.3,1,0.8,1.2
		c0.3,0.1,0.5,0.2,0.8,0.2c7.3,0,14.6,0,21.9,0c0.6,0,0.6,0,0.6-0.6c0-16.5,0-33,0-49.6C119,783.7,119,783.6,119,783.4z
		 M125.1,789.9c0-0.2,0-0.3,0-0.4c0-2.6,0-5.2,0-7.8c0-0.8-0.5-1.4-1.4-1.4c-0.6,0-1.3,0-1.9,0c-0.9,0-1.4,0.6-1.4,1.4
		c0,17.8,0,35.7,0,53.5c0,0.1,0,0.3,0,0.4c0,0.8,0.7,1.4,1.4,1.4c0.6,0,1.3,0,1.9,0c0.1,0,0.3,0,0.4-0.1c0.7-0.3,1-0.8,1-1.5
		c0-2.4,0-4.8,0-7.1c0-0.1,0-0.2,0-0.3c0.8,0,1.5,0,2.3,0c0.7,0,1.4-0.6,1.4-1.3c0-0.2,0-0.3,0-0.5c0-1.8,0-3.7,0-5.5
		c0-0.7-0.6-1.4-1.4-1.4c-0.6,0-1.1,0-1.7,0c-0.2,0-0.4,0-0.6,0c0-6.9,0-13.8,0-20.7c0.1,0,0.2,0,0.3,0c0.7,0,1.3,0,2,0
		c0.8,0,1.3-0.7,1.3-1.3c0-2,0-4.1,0-6.1c0-0.5-0.2-0.8-0.6-1.1c-0.3-0.2-0.5-0.2-0.8-0.2C126.5,789.9,125.8,789.9,125.1,789.9z"/>
	<path d="M119,783.4c0,0.2,0,0.3,0,0.4c0,16.5,0,33,0,49.6c0,0.6,0,0.6-0.6,0.6c-7.3,0-14.6,0-21.9,0c-0.3,0-0.6-0.1-0.8-0.2
		c-0.5-0.2-0.8-0.6-0.8-1.2c0-0.1,0-0.2,0-0.3c0-15.8,0-31.5,0-47.3c0-0.7,0.4-1.4,0.9-1.5c0.2-0.1,0.4-0.1,0.7-0.1
		c3.2,0,6.3,0,9.5,0c4.2,0,8.4,0,12.6,0C118.6,783.4,118.8,783.4,119,783.4z M109.1,795.6c0,0.1,0,0.2,0,0.3c0,0.6,0,1.2,0,1.8
		c0,0.4,0.3,0.7,0.6,0.7c0.5,0,1.1,0,1.6,0c0.1,0,0.2-0.1,0.3-0.1c0.2-0.2,0.3-0.4,0.3-0.7c0-0.7,0-1.4,0-2.1c0.1,0,0.2,0,0.3,0
		c0.5,0,1.1,0,1.6,0c0.5,0,0.7-0.2,0.7-0.6c0-0.6,0-1.2,0-1.8c0-0.4-0.2-0.6-0.7-0.6c-0.6,0-1.2,0-1.7,0c-0.1,0-0.2,0-0.3,0
		c0-0.5,0-0.9,0-1.4c0-0.3,0-0.6,0-0.9c0-0.4-0.3-0.5-0.6-0.5c-0.5,0-1,0-1.5,0c-0.5,0-0.7,0.2-0.7,0.7c0,0.5,0,1.1,0,1.6
		c0,0.2,0,0.4,0,0.6c-0.7,0-1.3,0-1.9,0c-0.5,0-0.7,0.2-0.7,0.7c0,0.5,0,1,0,1.6c0,0.4,0.2,0.8,0.8,0.8
		C107.8,795.5,108.4,795.6,109.1,795.6z M109.1,823.7c0,1.1,0,2.2,0,3.3c0,0.5,0.3,0.7,0.7,0.7c0.4,0,0.9,0,1.3,0
		c0.5,0,0.8-0.2,0.8-0.8c0-0.4,0-0.9,0-1.3c0-1.7,0-3.4,0-5.1c0-0.7-0.2-0.9-0.9-0.9c-0.4,0-0.7,0-1.1,0c-0.6,0-0.8,0.2-0.8,0.8
		C109.1,821.5,109.1,822.6,109.1,823.7z"/>
	<path d="M125.1,789.9c0.7,0,1.4,0,2.2,0c0.3,0,0.6,0,0.8,0.2c0.4,0.3,0.6,0.6,0.6,1.1c0,2,0,4.1,0,6.1c0,0.6-0.6,1.4-1.3,1.3
		c-0.7,0-1.3,0-2,0c-0.1,0-0.2,0-0.3,0c0,6.9,0,13.8,0,20.7c0.2,0,0.4,0,0.6,0c0.6,0,1.1,0,1.7,0c0.8-0.1,1.4,0.7,1.4,1.4
		c0,1.8,0,3.7,0,5.5c0,0.2,0,0.3,0,0.5c0,0.7-0.7,1.4-1.4,1.3c-0.7,0-1.5,0-2.3,0c0,0.1,0,0.2,0,0.3c0,2.4,0,4.8,0,7.1
		c0,0.7-0.3,1.2-1,1.5c-0.1,0-0.3,0-0.4,0.1c-0.6,0-1.3,0-1.9,0c-0.8,0-1.4-0.6-1.4-1.4c0-0.1,0-0.3,0-0.4c0-17.8,0-35.7,0-53.5
		c0-0.9,0.5-1.5,1.4-1.4c0.6,0,1.3,0,1.9,0c0.8,0,1.4,0.6,1.4,1.4c0,2.6,0,5.2,0,7.8C125.1,789.7,125.1,789.8,125.1,789.9z"/>
	<path class="st4" d="M109.1,795.6c-0.7,0-1.3,0-1.9,0c-0.5,0-0.8-0.3-0.8-0.8c0-0.5,0-1,0-1.6c0-0.5,0.2-0.7,0.7-0.7
		c0.6,0,1.3,0,1.9,0c0-0.2,0-0.4,0-0.6c0-0.5,0-1.1,0-1.6c0-0.5,0.2-0.7,0.7-0.7c0.5,0,1,0,1.5,0c0.4,0,0.6,0.2,0.6,0.5
		c0,0.3,0,0.6,0,0.9c0,0.5,0,0.9,0,1.4c0.1,0,0.2,0,0.3,0c0.6,0,1.2,0,1.7,0c0.4,0,0.7,0.2,0.7,0.6c0,0.6,0,1.2,0,1.8
		c0,0.5-0.3,0.6-0.7,0.6c-0.5,0-1.1,0-1.6,0c-0.1,0-0.2,0-0.3,0c0,0.7,0,1.4,0,2.1c0,0.3-0.1,0.5-0.3,0.7c-0.1,0.1-0.2,0.1-0.3,0.1
		c-0.5,0-1.1,0-1.6,0c-0.3,0-0.6-0.3-0.6-0.7c0-0.6,0-1.2,0-1.8C109.1,795.8,109.1,795.7,109.1,795.6z"/>
	<path class="st4" d="M109.1,823.7c0-1.1,0-2.2,0-3.2c0-0.6,0.2-0.8,0.8-0.8c0.4,0,0.7,0,1.1,0c0.7,0,0.9,0.2,0.9,0.9
		c0,1.7,0,3.4,0,5.1c0,0.4,0,0.9,0,1.3c0,0.5-0.2,0.8-0.8,0.8c-0.4,0-0.9,0-1.3,0c-0.5,0-0.7-0.3-0.7-0.7
		C109.1,825.9,109.1,824.8,109.1,823.7z"/>
	<path class="st4" d="M140,982.6c-19,0-38,0-57,0c0-20.5,0-41.1,0-61.6c19,0,38,0,57,0C140,941.5,140,962.1,140,982.6z M105.2,930.3
		H105c-1.4,0-2.7,0-4.1,0c-0.1,0-0.3,0-0.4,0.1c-0.5,0.2-0.9,0.4-1.2,0.8c-0.2,0.2-0.3,0.5-0.4,0.8c-0.1,0.3-0.1,0.7-0.1,1
		c0,1,0,2,0,3c0,0.3,0,0.5-0.2,0.7c-0.5,0.5-0.9,1-1.3,1.5c-0.3,0.4-0.6,0.7-0.9,1.1c-0.5,0.5-0.9,1.1-1.3,1.6
		c-0.3,0.3-0.5,0.6-0.8,0.9c-0.4,0.4-0.8,0.9-1.1,1.3c-0.3,0.4-0.6,0.8-0.6,1.4c0,5.1,0,10.2,0,15.4c0,0.4,0,0.8,0,1.2
		c0,0.2,0.1,0.5,0.2,0.6c0.2,0.3,0.5,0.6,0.7,0.9c0.3,0.3,0.6,0.6,0.9,0.9c0.6,0.7,1.2,1.3,1.8,2c0.3,0.3,0.6,0.6,0.9,0.9
		c0.5,0.5,0.9,1,1.4,1.5c0.3,0.3,0.5,0.6,0.8,0.9c0.5,0.5,1,1,1.4,1.5c0.5,0.5,1,1.1,1.5,1.6c0.3,0.3,0.7,0.4,1.1,0.4
		c0.6,0,1.2,0,1.8,0h0.2c0,0.8,0,1.5,0,2.3H105c-1.2,0-2.5,0-3.7,0c-0.5,0-0.9,0.1-1.3,0.4c-0.1,0.1-0.3,0.2-0.4,0.3
		c-0.4,0.4-0.6,0.9-0.6,1.5c0,0.9,0,1.9,0,2.8c0,0.7,0.4,1.2,0.9,1.6c0.3,0.3,0.8,0.5,1.3,0.5c5,0,10,0,15,0c0.2,0,0.4,0,0.6-0.1
		c0.7-0.2,1.2-0.7,1.5-1.3c0.1-0.2,0.2-0.5,0.2-0.8c0-0.8,0-1.7,0-2.5c0-0.1,0-0.3-0.1-0.4c-0.1-0.4-0.3-0.7-0.5-1
		c-0.3-0.4-0.7-0.6-1.1-0.7c-0.2-0.1-0.5-0.1-0.7-0.1c-1.3,0-2.6,0-3.9,0h-0.2c0-0.8,0-1.5,0-2.3h0.2c3.4,0,6.9,0,10.3,0
		c0.2,0,0.4,0,0.6-0.1c0.6-0.1,1.1-0.5,1.4-1c0.2-0.4,0.4-0.8,0.4-1.2c0-8.7,0-17.3,0-26l0-0.2c-0.1-0.3-0.2-0.5-0.4-0.7
		c-0.2-0.4-0.5-0.8-0.8-1.1c-0.4-0.5-0.9-1-1.3-1.4c-0.4-0.5-0.9-1-1.3-1.4c-0.4-0.5-0.9-1-1.3-1.4c-0.4-0.4-0.8-0.8-1.2-1.2
		c-0.1-0.1-0.1-0.2-0.1-0.4c0-1.3,0-2.5,0-3.8c0-0.4-0.1-0.7-0.3-1c-0.1-0.2-0.3-0.4-0.4-0.6c-0.3-0.5-0.7-0.7-1.2-0.7
		c-1.4,0-2.9,0-4.3,0h-0.2c0-0.8,0-1.5,0-2.3h0.2c1.3,0,2.6,0,3.9,0c0.5,0,1-0.1,1.3-0.5c0.3-0.2,0.5-0.5,0.6-0.8
		c0.2-0.4,0.2-0.8,0.2-1.3c0-0.7,0-1.4,0-2.1c0-0.2,0-0.4,0-0.6c-0.1-0.5-0.4-0.9-0.8-1.2c-0.4-0.3-0.8-0.5-1.4-0.5
		c-5.1,0-10.1,0-15.2,0c-0.5,0-1,0.2-1.4,0.5c-0.6,0.5-0.8,1.2-0.8,1.9c0,0.8,0,1.5,0,2.3c0,0.7,0.3,1.2,0.7,1.7
		c0.4,0.4,0.8,0.5,1.4,0.5c1.4,0,2.8,0,4.1,0h0.2C105.2,928.8,105.2,929.5,105.2,930.3z M129.2,958.4c0,0.1,0,0.2,0,0.2
		c0,1.5,0,2.9,0,4.4c0,0.2,0,0.3,0,0.5c0.1,0.7,0.4,1.2,0.9,1.5c0.3,0.2,0.7,0.3,1.1,0.3c0.7,0,1.4,0,2.2,0c0.5,0,1-0.1,1.4-0.5
		c0.5-0.5,0.8-1.1,0.8-1.8c0-5.4,0-10.8,0-16.1c0-0.7-0.2-1.3-0.7-1.8c-0.4-0.4-0.9-0.6-1.4-0.6c-0.8,0-1.5,0-2.3,0
		c-0.1,0-0.3,0-0.4,0.1c-0.5,0.1-0.9,0.4-1.2,0.7c-0.3,0.4-0.5,0.8-0.5,1.3c0,1.5,0,2.9,0,4.4v0.2c-0.7,0-1.5,0-2.2,0
		c0,2.3,0,4.7,0,7C127.7,958.4,128.4,958.4,129.2,958.4z"/>
	<path d="M105.2,930.3c0-0.8,0-1.5,0-2.3H105c-1.4,0-2.8,0-4.1,0c-0.5,0-1-0.2-1.4-0.5c-0.5-0.5-0.7-1-0.7-1.7c0-0.8,0-1.5,0-2.3
		c0-0.7,0.2-1.4,0.8-1.9c0.4-0.3,0.8-0.5,1.4-0.5c5.1,0,10.1,0,15.2,0c0.5,0,1,0.1,1.4,0.5c0.4,0.3,0.7,0.7,0.8,1.2
		c0,0.2,0,0.4,0,0.6c0,0.7,0,1.4,0,2.1c0,0.4,0,0.9-0.2,1.3c-0.1,0.3-0.4,0.6-0.6,0.8c-0.4,0.3-0.8,0.5-1.3,0.5c-1.3,0-2.6,0-3.9,0
		h-0.2c0,0.8,0,1.5,0,2.3h0.2c1.4,0,2.9,0,4.3,0c0.5,0,0.9,0.2,1.2,0.7c0.1,0.2,0.3,0.4,0.4,0.6c0.2,0.3,0.3,0.6,0.3,1
		c0,1.3,0,2.5,0,3.8c0,0.1,0,0.3,0.1,0.4c0.4,0.4,0.8,0.8,1.2,1.2c0.4,0.5,0.9,1,1.3,1.4c0.4,0.5,0.9,1,1.3,1.4
		c0.4,0.5,0.9,1,1.3,1.4c0.3,0.3,0.6,0.7,0.8,1.1c0.1,0.2,0.3,0.5,0.4,0.7l0,0.2c0,8.7,0,17.3,0,26c0,0.4-0.1,0.8-0.4,1.2
		c-0.3,0.5-0.8,0.9-1.4,1c-0.2,0-0.4,0.1-0.6,0.1c-3.4,0-6.9,0-10.3,0h-0.2c0,0.8,0,1.5,0,2.3h0.2c1.3,0,2.6,0,3.9,0
		c0.2,0,0.5,0,0.7,0.1c0.4,0.1,0.8,0.3,1.1,0.7c0.2,0.3,0.4,0.6,0.5,1c0,0.1,0.1,0.3,0.1,0.4c0,0.8,0,1.7,0,2.5
		c0,0.3-0.1,0.5-0.2,0.8c-0.3,0.6-0.8,1.1-1.5,1.3c-0.2,0.1-0.4,0.1-0.6,0.1c-5,0-10,0-15,0c-0.5,0-0.9-0.2-1.3-0.5
		c-0.5-0.4-0.8-0.9-0.9-1.6c0-0.9-0.1-1.9,0-2.8c0-0.6,0.2-1,0.6-1.5c0.1-0.1,0.3-0.2,0.4-0.3c0.4-0.3,0.8-0.4,1.3-0.4
		c1.2,0,2.5,0,3.7,0h0.2c0-0.8,0-1.5,0-2.3H105c-0.6,0-1.2,0-1.8,0c-0.4,0-0.8-0.1-1.1-0.4c-0.5-0.5-1-1.1-1.5-1.6
		c-0.5-0.5-1-1-1.4-1.5c-0.3-0.3-0.5-0.6-0.8-0.9c-0.5-0.5-0.9-1-1.4-1.5c-0.3-0.3-0.6-0.6-0.9-0.9c-0.6-0.7-1.2-1.3-1.8-2
		c-0.3-0.3-0.6-0.6-0.9-0.9c-0.3-0.3-0.5-0.6-0.7-0.9c-0.1-0.2-0.2-0.4-0.2-0.6c0-0.4,0-0.8,0-1.2c0-5.1,0-10.2,0-15.4
		c0-0.5,0.2-1,0.6-1.4c0.4-0.4,0.8-0.9,1.1-1.3c0.3-0.3,0.5-0.6,0.8-0.9c0.5-0.5,0.9-1.1,1.3-1.6c0.3-0.4,0.6-0.7,0.9-1.1
		c0.4-0.5,0.8-1.1,1.3-1.5c0.2-0.2,0.2-0.5,0.2-0.7c0-1,0-2,0-3c0-0.3,0.1-0.7,0.1-1c0.1-0.3,0.2-0.5,0.4-0.8
		c0.3-0.4,0.7-0.6,1.2-0.8c0.1,0,0.3-0.1,0.4-0.1c1.4,0,2.7,0,4.1,0H105.2z M97.1,948.1L97.1,948.1c0.2,0.2,0.4,0.4,0.6,0.6
		c0.2,0.2,0.4,0.3,0.6,0.5c0.4,0.3,0.7,0.6,1.1,0.9c0.4,0.3,0.8,0.6,1.2,1c0.3,0.3,0.7,0.5,1,0.8c0.4,0.4,0.9,0.7,1.3,1.1
		c0.4,0.3,0.7,0.6,1.1,0.9c0.4,0.3,0.8,0.6,1.2,1c0.4,0.3,0.8,0.7,1.2,1c0.4,0.3,0.7,0.6,1.1,0.9c0.5,0.4,0.9,0.8,1.4,1.1
		c0.2,0.2,0.4,0.3,0.7,0.5c0-1.8,0-3.5,0-5.3l0.1,0.1c0.3,0.2,0.7,0.5,1,0.7c0.5,0.3,1,0.6,1.5,1c0.5,0.3,1,0.7,1.6,1
		c0.5,0.3,0.9,0.6,1.4,0.9c0.5,0.3,1,0.7,1.5,1c0.3,0.2,0.7,0.4,1,0.7c0.2,0.1,0.3,0.2,0.5,0.3l0-0.1c0-1.8,0-3.5,0-5.3l-0.1-0.2
		c-0.4-0.3-0.9-0.5-1.4-0.8c-0.6-0.3-1.1-0.6-1.7-0.9c-0.6-0.3-1.1-0.6-1.7-1c-0.6-0.3-1.2-0.6-1.7-1c-0.6-0.3-1.1-0.6-1.7-1
		c-0.3-0.2-0.6-0.3-0.9-0.5c-0.5-0.2-0.9-0.5-1.4-0.7c-0.1-0.1-0.3-0.1-0.4-0.2c0,1.7,0,3.3,0,5c-0.1-0.1-0.2-0.1-0.4-0.2
		c-0.4-0.2-0.8-0.3-1.2-0.5c-0.4-0.2-0.8-0.3-1.2-0.5c-0.4-0.2-0.8-0.3-1.2-0.5c-0.4-0.2-0.8-0.3-1.3-0.5c-0.4-0.2-0.8-0.3-1.2-0.5
		c-0.4-0.2-0.8-0.3-1.1-0.5c-0.5-0.2-0.9-0.4-1.4-0.5c-0.2-0.1-0.4-0.1-0.6-0.2C97.5,948.3,97.3,948.2,97.1,948.1z"/>
	<path d="M129.2,958.4c-0.7,0-1.4,0-2.2,0c0-2.3,0-4.7,0-7c0.7,0,1.4,0,2.2,0v-0.2c0-1.5,0-2.9,0-4.4c0-0.5,0.2-0.9,0.5-1.3
		c0.3-0.4,0.7-0.6,1.2-0.7c0.1,0,0.3-0.1,0.4-0.1c0.8,0,1.5,0,2.3,0c0.5,0,1,0.2,1.4,0.6c0.5,0.5,0.7,1.1,0.7,1.8
		c0,5.4,0,10.8,0,16.1c0,0.7-0.3,1.3-0.8,1.8c-0.4,0.3-0.9,0.5-1.4,0.5c-0.7,0-1.4,0-2.2,0c-0.4,0-0.8-0.1-1.1-0.3
		c-0.5-0.4-0.9-0.9-0.9-1.5c0-0.2,0-0.3,0-0.5c0-1.5,0-2.9,0-4.4C129.2,958.5,129.2,958.4,129.2,958.4z"/>
	<path class="st4" d="M97.1,948.1c0.2,0.1,0.3,0.1,0.5,0.2c0.2,0.1,0.4,0.1,0.6,0.2c0.5,0.2,0.9,0.4,1.4,0.5
		c0.4,0.2,0.8,0.3,1.1,0.5c0.4,0.2,0.8,0.3,1.2,0.5c0.4,0.2,0.8,0.3,1.3,0.5c0.4,0.2,0.8,0.3,1.2,0.5c0.4,0.2,0.8,0.3,1.2,0.5
		c0.4,0.2,0.8,0.3,1.2,0.5c0.1,0,0.2,0.1,0.4,0.2c0-1.7,0-3.3,0-5c0.1,0.1,0.3,0.2,0.4,0.2c0.5,0.2,0.9,0.5,1.4,0.7
		c0.3,0.2,0.6,0.3,0.9,0.5c0.6,0.3,1.1,0.6,1.7,1c0.6,0.3,1.2,0.6,1.7,1c0.6,0.3,1.1,0.6,1.7,1c0.6,0.3,1.1,0.6,1.7,0.9
		c0.5,0.3,0.9,0.5,1.4,0.8l0.1,0.2c0,1.8,0,3.5,0,5.3l0,0.1c-0.2-0.1-0.3-0.2-0.5-0.3c-0.3-0.2-0.7-0.4-1-0.7c-0.5-0.3-1-0.7-1.5-1
		c-0.5-0.3-0.9-0.6-1.4-0.9c-0.5-0.3-1-0.7-1.6-1c-0.5-0.3-1-0.6-1.5-1c-0.3-0.2-0.7-0.5-1-0.7l-0.1-0.1c0,1.8,0,3.5,0,5.3
		c-0.2-0.2-0.4-0.4-0.7-0.5c-0.5-0.4-0.9-0.8-1.4-1.1c-0.4-0.3-0.7-0.6-1.1-0.9c-0.4-0.3-0.8-0.7-1.2-1c-0.4-0.3-0.8-0.6-1.2-1
		c-0.4-0.3-0.7-0.6-1.1-0.9c-0.4-0.4-0.9-0.7-1.3-1.1c-0.3-0.3-0.7-0.6-1-0.8c-0.4-0.3-0.8-0.6-1.2-1c-0.4-0.3-0.7-0.6-1.1-0.9
		c-0.2-0.2-0.4-0.3-0.6-0.5C97.5,948.5,97.3,948.3,97.1,948.1L97.1,948.1z"/>
</g>
<rect x="62.7" y="942.5" class="st3" width="9.1" height="18.7"/>
<polygon class="st0" points="179.1,845.9 179.1,789.2 170.1,789.1 170.1,717.1 125.8,717.1 125.8,708.1 69.1,708.1 69.1,717.1 
	24.7,717.1 24.7,789.1 15.7,789.1 15.7,845.9 24.7,845.9 24.7,902.6 15.8,902.6 15.8,959.3 24.7,959.3 24.7,1033.9 69.1,1033.9 
	69.1,1042.9 125.8,1042.9 125.8,1033.9 170.1,1033.9 170.1,959.3 177.7,959.3 179.1,959.3 179.1,902.6 170.1,902.6 170.1,845.9 "/>
<path id="TM" d="M134.7,625.3c0.2,0,0.3,0,0.5,0c0-0.4,0-0.7,0-1.1c1,0,1.9,0,2.9,0c0-0.2,0-0.4,0-0.6c-1,0-1.9,0-2.9,0
	c0-0.4,0-0.7,0-1.1c-0.2,0-0.3,0-0.5,0C134.7,623.4,134.7,624.4,134.7,625.3z M134.7,622.1c1.1,0,2.3,0,3.4,0c0-0.2,0-0.3,0-0.5
	c-1,0-1.9,0-2.9,0c1-0.3,1.9-0.6,2.9-0.9c0-0.2,0-0.3,0-0.5c-1-0.3-1.9-0.6-2.9-0.9c1,0,1.9,0,2.9,0c0-0.2,0-0.3,0-0.5
	c-1.1,0-2.3,0-3.4,0c0,0.3,0,0.5,0,0.8c0.9,0.3,1.8,0.6,2.7,0.8c-0.9,0.3-1.8,0.6-2.7,0.9C134.7,621.6,134.7,621.9,134.7,622.1z"/>
<circle class="st3" cx="324.2" cy="891.9" r="7.1"/>
<circle class="st3" cx="324.2" cy="855.1" r="7.1"/>
<g>
	<path class="st4" d="M274.2,877.8c0,7.4,0,14.8,0,22.2c-16.1,0-32.3,0-48.4,0c0-16.7,0-33.5,0-50.2c16.1,0,32.3,0,48.4,0
		c0,9.2,0,18.5,0,27.7c-0.2-0.3-0.4-0.5-0.6-0.8c-0.7-0.8-1.3-1.7-2-2.5c-1.3-1.6-2.5-3.2-3.8-4.8c-0.4-0.5-0.9-0.5-1.3,0
		c-0.9,1.2-1.8,2.3-2.7,3.5c-1.1,1.4-2.3,2.9-3.4,4.3c-0.1,0.1-0.2,0.4-0.2,0.5c0,0.1,0.3,0.2,0.5,0.2c0.8,0,1.6,0,2.4,0
		c0.6,0,1.1,0,1.7,0c-0.3,1.5-0.7,2.9-1.2,4.2c-0.9,2.2-2.2,4.1-3.9,5.8c-0.7,0.7-1.4,1.3-2.2,1.9c-1.3,0.9-2.7,1.6-4.1,2.2
		c-1.3,0.5-2.7,0.8-4.1,0.9c-3.2,0.3-6.2-0.1-9.1-1.6c-0.3-0.1-0.5-0.2-0.8-0.4c-0.9-0.6-1.7-1.1-2.5-1.7c-0.7-0.6-1.4-1.2-2-1.9
		c-0.4-0.4-0.7-0.8-1.1-1.3c-1.1,0.9-2.2,1.8-3.3,2.7c1.1,1.1,2,2.2,3.1,3.2c0.9,0.8,1.9,1.5,2.8,2.1c1.5,1,3.1,1.7,4.8,2.2
		c2.1,0.7,4.3,1,6.5,1c2.6,0,5.1-0.4,7.5-1.4c1.4-0.6,2.8-1.2,4.1-2.1c1.3-0.9,2.5-1.8,3.5-2.9c1.1-1.2,2.1-2.4,3-3.8
		c1.5-2.3,2.4-4.7,3-7.3c0.1-0.6,0.3-1.3,0.4-2c1.5,0,2.9,0,4.3,0C273.7,878,273.9,877.9,274.2,877.8z M226.2,870.6
		c1.4,0.3,2.7,0.5,4,0.8c0.5-1.5,0.9-3,1.4-4.4c-1.2-0.6-2.4-1.2-3.7-1.9C227.2,866.9,226.6,868.7,226.2,870.6z M226.8,881.4
		c0.6,1.9,1.3,3.6,2.3,5.3c1.2-0.8,2.4-1.5,3.5-2.3c-0.7-1.3-1.3-2.5-1.7-3.8c-0.1-0.2-0.1-0.4-0.4-0.3
		C229.3,880.6,228,881,226.8,881.4z M235.5,861.6c-0.9-1-1.8-2-2.8-3.1c-1.4,1.3-2.5,2.8-3.5,4.4c1.2,0.8,2.3,1.5,3.4,2.3
		C233.6,864,234.6,862.8,235.5,861.6z M241.8,853.2c0.4,1.4,0.7,2.8,1.1,4.1l0.1,0c1.3-0.3,2.7-0.5,4.1-0.6c0.3,0,0.3-0.2,0.3-0.4
		c0-1.2,0-2.4,0-3.7c0-0.1,0-0.2,0-0.3C245.4,852.4,243.7,852.7,241.8,853.2z M234.7,856.8c0.8,1.2,1.7,2.3,2.4,3.4
		c1.3-0.8,2.6-1.5,3.9-2.2c-0.5-1.2-1-2.6-1.5-3.9C237.7,854.7,236.2,855.7,234.7,856.8z M226.2,878.9c1.4-0.3,2.7-0.5,4-0.7
		c-0.1-1.6-0.1-3.1-0.2-4.6c-1.3-0.1-2.7-0.2-4.1-0.3C225.7,875.1,225.9,877,226.2,878.9z"/>
</g>
<path d="M274.2,877.8c-0.2,0.1-0.5,0.1-0.7,0.1c-1.4,0-2.9,0-4.3,0c-0.1,0.7-0.2,1.3-0.4,2c-0.6,2.6-1.6,5.1-3,7.3
	c-0.9,1.4-1.9,2.6-3,3.8c-1.1,1.1-2.3,2-3.5,2.9c-1.3,0.9-2.6,1.5-4.1,2.1c-2.4,1-4.9,1.4-7.5,1.4c-2.2,0-4.4-0.3-6.5-1
	c-1.7-0.6-3.3-1.3-4.8-2.2c-1-0.6-2-1.3-2.8-2.1c-1.1-1-2-2.1-3.1-3.2c1.2-0.9,2.2-1.8,3.3-2.7c0.4,0.5,0.8,0.9,1.1,1.3
	c0.7,0.6,1.3,1.3,2,1.9c0.8,0.6,1.7,1.2,2.5,1.7c0.2,0.2,0.5,0.2,0.8,0.4c2.9,1.5,5.9,1.9,9.1,1.6c1.4-0.1,2.8-0.4,4.1-0.9
	c1.4-0.6,2.9-1.2,4.1-2.2c0.8-0.6,1.5-1.2,2.2-1.9c1.6-1.7,2.9-3.6,3.8-5.8c0.6-1.4,1-2.8,1.2-4.2c-0.6,0-1.2,0-1.7,0
	c-0.8,0-1.6,0-2.4,0c-0.2,0-0.4-0.1-0.5-0.2c-0.1-0.1,0.1-0.4,0.2-0.5c1.1-1.5,2.3-2.9,3.4-4.3c0.9-1.1,1.8-2.3,2.7-3.5
	c0.4-0.5,0.9-0.6,1.3,0c1.3,1.6,2.5,3.2,3.8,4.8c0.7,0.8,1.3,1.7,2,2.5c0.2,0.2,0.4,0.5,0.6,0.8
	C274.2,877.6,274.2,877.7,274.2,877.8z"/>
<path d="M226.2,870.6c0.4-2,0.9-3.7,1.8-5.5c1.3,0.6,2.5,1.3,3.7,1.9c-0.5,1.5-0.9,2.9-1.4,4.4C229,871.2,227.6,870.9,226.2,870.6z"
	/>
<path d="M226.8,881.4c1.3-0.4,2.5-0.8,3.7-1.2c0.3-0.1,0.4,0.1,0.4,0.3c0.4,1.3,1,2.5,1.7,3.8c-1.1,0.7-2.3,1.5-3.5,2.3
	C228,885,227.3,883.3,226.8,881.4z"/>
<path d="M235.5,861.6c-1,1.2-1.9,2.4-2.9,3.6c-1.1-0.7-2.3-1.5-3.4-2.3c1-1.6,2.1-3.1,3.5-4.4C233.7,859.5,234.6,860.6,235.5,861.6z
	"/>
<path d="M241.8,853.2c1.8-0.5,3.6-0.8,5.5-0.7c0,0.1,0,0.2,0,0.3c0,1.2,0,2.4,0,3.7c0,0.2,0,0.4-0.3,0.4c-1.4,0-2.7,0.2-4.1,0.6
	c0,0,0,0-0.1,0C242.6,856,242.2,854.6,241.8,853.2z"/>
<path d="M234.7,856.8c1.5-1.1,3-2.1,4.8-2.8c0.5,1.3,1,2.7,1.5,3.9c-1.3,0.8-2.6,1.5-3.9,2.2C236.3,859.2,235.5,858,234.7,856.8z"/>
<path d="M226.2,878.9c-0.3-1.9-0.5-3.8-0.3-5.7c1.4,0.1,2.8,0.2,4.1,0.3c0.1,1.5,0.1,3.1,0.2,4.6
	C228.9,878.4,227.6,878.6,226.2,878.9z"/>
<circle class="st3" cx="246.4" cy="875" r="9.9"/>
<rect x="299.3" y="931.3" class="st3" width="26.6" height="60"/>
<polygon class="st0" points="246,802.2 193.4,802.2 193.4,833.2 202.4,833.2 202.4,890 193.4,890 193.4,952 202.4,952 202.4,1008.8 
	193.4,1008.8 193.4,1039.8 246,1039.8 246,1030.8 302.7,1030.8 302.7,1039.8 346.2,1039.8 346.2,1008.8 355.2,1008.8 355.2,952 
	346.2,952 346.2,890 355.2,890 355.2,833.2 346.2,833.2 346.2,802.2 302.7,802.2 302.7,811.2 246,811.2 "/>
<g>
	<path d="M297.2,847.1c-4.4,0-8,3.6-8,8s3.6,8,8,8c4.4,0,8-3.6,8-8S301.6,847.1,297.2,847.1z"/>
	<path class="st1" d="M297.2,847.1c-4.4,0-8,3.6-8,8s3.6,8,8,8c4.4,0,8-3.6,8-8S301.6,847.1,297.2,847.1z"/>
	<path class="st4" d="M301.4,852.8l0.7,0.2c0.2,0.5,0.3,0.9,0.4,1.1c0.1,0.3,0.1,0.6,0.1,1c0,0.6-0.1,1-0.4,1.4s-0.6,0.5-1.1,0.5
		c-0.2,0-0.3,0-0.5,0c-0.2,0-0.4-0.1-0.6-0.1l-2.1-0.6c-0.2-0.1-0.4-0.1-0.6-0.1c-0.2,0-0.3-0.1-0.5-0.1c-0.3,0-0.5,0.1-0.6,0.2
		s-0.2,0.3-0.2,0.6c0,0.2,0,0.3,0.1,0.5c0,0.2,0.1,0.3,0.1,0.4l-0.7-0.2c-0.2-0.4-0.3-0.8-0.4-1.1c-0.1-0.4-0.2-0.7-0.2-1
		c0-0.6,0.1-1,0.4-1.3c0.3-0.3,0.6-0.5,1.1-0.5c0.1,0,0.3,0,0.5,0s0.4,0.1,0.6,0.1l2.1,0.6c0.2,0,0.4,0.1,0.6,0.1
		c0.2,0,0.4,0.1,0.5,0.1c0.3,0,0.5-0.1,0.6-0.2c0.1-0.1,0.2-0.3,0.2-0.7c0-0.1,0-0.3-0.1-0.5C301.5,853,301.5,852.9,301.4,852.8z
		 M292.6,852.7c0.4,0,0.7,0.1,0.9,0.4c0.3,0.3,0.4,0.6,0.4,1s-0.1,0.7-0.4,1c-0.3,0.3-0.6,0.4-0.9,0.4s-0.7-0.1-0.9-0.4
		c-0.3-0.3-0.4-0.6-0.4-1s0.1-0.7,0.4-1C291.9,852.8,292.2,852.7,292.6,852.7z"/>
	<path class="st4" d="M287.5,880.7c6.9,0,13.8,0,20.7,0c0,7.5,0,14.9,0,22.4c-6.9,0-13.8,0-20.7,0
		C287.5,895.6,287.5,888.2,287.5,880.7z M300.1,899.7L300.1,899.7c0.6,0,1.1,0,1.6,0l0.1,0c0.2-0.1,0.3-0.1,0.4-0.3
		c0.1-0.1,0.1-0.2,0.1-0.3c0-0.1,0.1-0.2,0.1-0.4c0-0.4,0-0.7,0-1.1c0-0.1,0-0.2,0.1-0.3c0.2-0.2,0.3-0.4,0.5-0.6
		c0.1-0.1,0.2-0.3,0.3-0.4c0.2-0.2,0.3-0.4,0.5-0.6c0.1-0.1,0.2-0.2,0.3-0.3c0.1-0.2,0.3-0.3,0.4-0.5c0.1-0.1,0.2-0.3,0.2-0.5
		c0-1.9,0-3.7,0-5.6c0-0.1,0-0.3,0-0.4l-0.1-0.2c-0.1-0.1-0.2-0.2-0.3-0.3c-0.1-0.1-0.2-0.2-0.3-0.3c-0.2-0.2-0.4-0.5-0.7-0.7
		c-0.1-0.1-0.2-0.2-0.3-0.3c-0.2-0.2-0.3-0.4-0.5-0.6c-0.1-0.1-0.2-0.2-0.3-0.3c-0.2-0.2-0.3-0.4-0.5-0.6c-0.2-0.2-0.4-0.4-0.6-0.6
		c-0.1-0.1-0.2-0.2-0.4-0.2c-0.2,0-0.4,0-0.6,0h-0.1c0-0.3,0-0.6,0-0.8h0.1c0.5,0,0.9,0,1.4,0c0.2,0,0.3,0,0.5-0.1l0.1-0.1
		c0.1-0.2,0.2-0.3,0.2-0.5c0-0.3,0-0.7,0-1c0-0.2-0.1-0.4-0.3-0.6c-0.1-0.1-0.3-0.2-0.5-0.2c-1.8,0-3.6,0-5.4,0l-0.2,0
		c-0.3,0.1-0.4,0.3-0.5,0.5c0,0.1-0.1,0.2-0.1,0.3c0,0.3,0,0.6,0,0.9l0,0.1c0,0.1,0.1,0.3,0.2,0.4c0.1,0.1,0.2,0.2,0.4,0.2l0.3,0
		c0.5,0,0.9,0,1.4,0h0.1c0,0.3,0,0.6,0,0.8h-0.1c-1.2,0-2.5,0-3.7,0l-0.2,0c-0.2,0.1-0.4,0.2-0.5,0.4c-0.1,0.1-0.1,0.3-0.1,0.4
		c0,3.1,0,6.3,0,9.4l0,0.1c0,0.1,0.1,0.2,0.1,0.3c0.1,0.2,0.2,0.3,0.3,0.4c0.2,0.2,0.3,0.3,0.5,0.5c0.2,0.2,0.3,0.3,0.5,0.5
		c0.2,0.2,0.3,0.3,0.5,0.5c0.1,0.2,0.3,0.3,0.4,0.5l0.1,0.1c0,0.5,0,0.9,0,1.4c0,0.1,0,0.3,0.1,0.4l0.1,0.2c0.1,0.2,0.2,0.2,0.4,0.2
		c0.5,0,1,0,1.6,0h0.1c0,0.3,0,0.6,0,0.8h-0.1c-0.5,0-0.9,0-1.4,0c-0.2,0-0.3,0.1-0.5,0.2c-0.1,0.1-0.2,0.2-0.2,0.3
		c-0.1,0.1-0.1,0.3-0.1,0.5c0,0.3,0,0.5,0,0.8l0,0.2c0,0.2,0.1,0.3,0.3,0.4c0.1,0.1,0.3,0.2,0.5,0.2c1.8,0,3.7,0,5.5,0
		c0.2,0,0.3-0.1,0.5-0.2c0.2-0.2,0.3-0.4,0.3-0.7c0-0.3,0-0.5,0-0.8c0-0.2-0.1-0.4-0.3-0.6c-0.1-0.1-0.3-0.2-0.5-0.2
		c-0.5,0-1,0-1.5,0h-0.1C300.1,900.3,300.1,900,300.1,899.7z M291.4,889.5L291.4,889.5c0-0.6,0-1.1,0-1.7l0-0.2
		c0-0.2-0.2-0.4-0.3-0.6c-0.1-0.1-0.3-0.1-0.4-0.1c-0.3,0-0.5,0-0.8,0c-0.2,0-0.4,0-0.5,0.2c-0.2,0.2-0.3,0.4-0.3,0.6
		c0,2,0,3.9,0,5.9c0,0.3,0.1,0.5,0.3,0.6c0.1,0.1,0.3,0.2,0.5,0.2c0.3,0,0.5,0,0.8,0l0.1,0c0.2,0,0.3-0.1,0.4-0.3
		c0.1-0.1,0.2-0.3,0.2-0.5c0-0.5,0-1.1,0-1.6v-0.1c0.3,0,0.5,0,0.8,0c0-0.9,0-1.7,0-2.5C291.9,889.5,291.7,889.5,291.4,889.5z"/>
	<path d="M300.1,899.7c0,0.3,0,0.6,0,0.8h0.1c0.5,0,1,0,1.5,0c0.2,0,0.4,0.1,0.5,0.2c0.2,0.2,0.3,0.4,0.3,0.6c0,0.3,0,0.5,0,0.8
		c0,0.3-0.1,0.5-0.3,0.7c-0.1,0.1-0.3,0.2-0.5,0.2c-1.8,0-3.7,0-5.5,0c-0.2,0-0.3-0.1-0.5-0.2c-0.1-0.1-0.2-0.3-0.3-0.4l0-0.2
		c0-0.3,0-0.5,0-0.8c0-0.2,0-0.3,0.1-0.5c0.1-0.1,0.1-0.2,0.2-0.3c0.1-0.1,0.3-0.2,0.5-0.2c0.5,0,0.9,0,1.4,0h0.1c0-0.3,0-0.6,0-0.8
		h-0.1c-0.5,0-1,0-1.6,0c-0.2,0-0.3-0.1-0.4-0.2l-0.1-0.2c-0.1-0.1-0.1-0.2-0.1-0.4c0-0.5,0-0.9,0-1.4l-0.1-0.1
		c-0.1-0.2-0.3-0.3-0.4-0.5c-0.2-0.2-0.3-0.3-0.5-0.5c-0.2-0.2-0.3-0.3-0.5-0.5c-0.2-0.2-0.3-0.3-0.5-0.5c-0.1-0.1-0.2-0.2-0.3-0.4
		c0-0.1-0.1-0.2-0.1-0.3l0-0.1c0-3.1,0-6.3,0-9.4c0-0.2,0-0.3,0.1-0.4c0.1-0.2,0.3-0.3,0.5-0.4l0.2,0c1.2,0,2.5,0,3.7,0h0.1
		c0-0.3,0-0.5,0-0.8h-0.1c-0.5,0-0.9,0-1.4,0l-0.3,0c-0.1,0-0.3-0.1-0.4-0.2c-0.1-0.1-0.2-0.2-0.2-0.4l0-0.1c0-0.3,0-0.6,0-0.9
		c0-0.1,0-0.2,0.1-0.3c0.1-0.2,0.3-0.4,0.5-0.5l0.2,0c1.8,0,3.6,0,5.4,0c0.2,0,0.3,0.1,0.5,0.2c0.2,0.1,0.3,0.3,0.3,0.6
		c0,0.3,0,0.7,0,1c0,0.2-0.1,0.4-0.2,0.5l-0.1,0.1c-0.1,0.1-0.3,0.1-0.5,0.1c-0.5,0-0.9,0-1.4,0h-0.1c0,0.3,0,0.6,0,0.8h0.1
		c0.2,0,0.4,0,0.6,0c0.2,0,0.3,0,0.4,0.2c0.2,0.2,0.4,0.4,0.6,0.6c0.2,0.2,0.3,0.4,0.5,0.6c0.1,0.1,0.2,0.2,0.3,0.3
		c0.2,0.2,0.3,0.4,0.5,0.6c0.1,0.1,0.2,0.2,0.3,0.3c0.2,0.2,0.4,0.5,0.7,0.7c0.1,0.1,0.2,0.2,0.3,0.3c0.1,0.1,0.2,0.2,0.3,0.3
		l0.1,0.2c0,0.1,0,0.3,0,0.4c0,1.9,0,3.7,0,5.6c0,0.2-0.1,0.4-0.2,0.5c-0.1,0.2-0.3,0.3-0.4,0.5c-0.1,0.1-0.2,0.2-0.3,0.3
		c-0.2,0.2-0.3,0.4-0.5,0.6c-0.1,0.1-0.2,0.3-0.3,0.4c-0.2,0.2-0.3,0.4-0.5,0.6c-0.1,0.1-0.1,0.2-0.1,0.3c0,0.4,0,0.7,0,1.1
		c0,0.1,0,0.2-0.1,0.4c0,0.1-0.1,0.2-0.1,0.3c-0.1,0.2-0.3,0.2-0.4,0.3l-0.1,0C301.2,899.7,300.7,899.7,300.1,899.7L300.1,899.7z
		 M303,893.2L303,893.2l-0.2-0.2l-0.2-0.2c-0.1-0.1-0.3-0.2-0.4-0.3c-0.1-0.1-0.3-0.2-0.4-0.3c-0.1-0.1-0.2-0.2-0.4-0.3
		c-0.2-0.1-0.3-0.3-0.5-0.4c-0.1-0.1-0.3-0.2-0.4-0.3c-0.1-0.1-0.3-0.2-0.4-0.3c-0.1-0.1-0.3-0.2-0.4-0.4c-0.1-0.1-0.3-0.2-0.4-0.3
		c-0.2-0.1-0.3-0.3-0.5-0.4l-0.2-0.2c0,0.7,0,1.3,0,1.9l-0.1,0c-0.1-0.1-0.2-0.2-0.4-0.2c-0.2-0.1-0.4-0.2-0.5-0.3
		c-0.2-0.1-0.4-0.2-0.6-0.4c-0.2-0.1-0.3-0.2-0.5-0.3c-0.2-0.1-0.4-0.2-0.6-0.4c-0.1-0.1-0.3-0.2-0.4-0.2l-0.2-0.1l0,0
		c0,0.6,0,1.3,0,1.9l0,0.1c0.2,0.1,0.3,0.2,0.5,0.3c0.2,0.1,0.4,0.2,0.6,0.3c0.2,0.1,0.4,0.2,0.6,0.4c0.2,0.1,0.4,0.2,0.6,0.3
		c0.2,0.1,0.4,0.2,0.6,0.3c0.1,0.1,0.2,0.1,0.3,0.2c0.2,0.1,0.3,0.2,0.5,0.3l0.1,0.1c0-0.6,0-1.2,0-1.8l0.1,0.1
		c0.1,0.1,0.3,0.1,0.4,0.2c0.1,0.1,0.3,0.1,0.4,0.2c0.1,0.1,0.3,0.1,0.4,0.2c0.2,0.1,0.3,0.1,0.5,0.2c0.1,0.1,0.3,0.1,0.4,0.2
		c0.1,0.1,0.3,0.1,0.4,0.2c0.2,0.1,0.3,0.1,0.5,0.2l0.2,0.1L303,893.2z"/>
	<path d="M291.4,889.5c0.3,0,0.5,0,0.8,0c0,0.8,0,1.7,0,2.5c-0.3,0-0.5,0-0.8,0v0.1c0,0.5,0,1.1,0,1.6c0,0.2-0.1,0.3-0.2,0.5
		c-0.1,0.1-0.3,0.2-0.4,0.3l-0.1,0c-0.3,0-0.5,0-0.8,0c-0.2,0-0.4-0.1-0.5-0.2c-0.2-0.2-0.3-0.4-0.3-0.6c0-2,0-3.9,0-5.9
		c0-0.3,0.1-0.5,0.3-0.6c0.1-0.1,0.3-0.2,0.5-0.2c0.3,0,0.5,0,0.8,0c0.1,0,0.3,0,0.4,0.1c0.2,0.1,0.3,0.3,0.3,0.6l0,0.2
		C291.4,888.4,291.4,888.9,291.4,889.5L291.4,889.5z"/>
	<path class="st4" d="M303,893.2l-0.2-0.1l-0.2-0.1c-0.2-0.1-0.3-0.1-0.5-0.2c-0.1-0.1-0.3-0.1-0.4-0.2c-0.1-0.1-0.3-0.1-0.4-0.2
		c-0.2-0.1-0.3-0.1-0.5-0.2c-0.1-0.1-0.3-0.1-0.4-0.2c-0.1-0.1-0.3-0.1-0.4-0.2c-0.1-0.1-0.3-0.1-0.4-0.2l-0.1-0.1
		c0,0.6,0,1.2,0,1.8l-0.1-0.1c-0.2-0.1-0.3-0.2-0.5-0.3c-0.1-0.1-0.2-0.1-0.3-0.2c-0.2-0.1-0.4-0.2-0.6-0.3
		c-0.2-0.1-0.4-0.2-0.6-0.3c-0.2-0.1-0.4-0.2-0.6-0.4c-0.2-0.1-0.4-0.2-0.6-0.3c-0.2-0.1-0.3-0.2-0.5-0.3l0-0.1c0-0.6,0-1.3,0-1.9
		l0,0l0.2,0.1c0.1,0.1,0.3,0.2,0.4,0.2c0.2,0.1,0.4,0.2,0.6,0.4c0.2,0.1,0.3,0.2,0.5,0.3c0.2,0.1,0.4,0.2,0.6,0.4
		c0.2,0.1,0.4,0.2,0.5,0.3c0.1,0.1,0.2,0.2,0.4,0.2l0.1,0c0-0.6,0-1.3,0-1.9l0.2,0.2c0.2,0.1,0.3,0.3,0.5,0.4
		c0.1,0.1,0.3,0.2,0.4,0.3c0.1,0.1,0.3,0.2,0.4,0.4c0.1,0.1,0.3,0.2,0.4,0.3c0.1,0.1,0.3,0.2,0.4,0.3c0.2,0.1,0.3,0.3,0.5,0.4
		c0.1,0.1,0.2,0.2,0.4,0.3c0.1,0.1,0.3,0.2,0.4,0.3c0.1,0.1,0.3,0.2,0.4,0.3l0.2,0.2L303,893.2L303,893.2z"/>
</g>
<circle class="st3" cx="132.8" cy="642.6" r="18.4"/>
<circle class="st3" cx="132.8" cy="571.9" r="18.4"/>
<circle class="st3" cx="132.8" cy="430.4" r="18.4"/>
<circle class="st3" cx="132.8" cy="501.1" r="18.4"/>
<polygon class="st0" points="182.6,503.8 182.6,447.1 173.6,447.1 173.6,375.1 129.3,375.1 129.3,366.1 72.6,366.1 72.6,375.1 
	28.2,375.1 28.2,447.1 19.2,447.1 19.2,503.8 28.2,503.8 28.2,560.5 19.3,560.5 19.3,617.3 28.2,617.3 28.2,691.9 72.6,691.9 
	72.6,700.9 129.3,700.9 129.3,691.9 173.6,691.9 173.6,617.3 181.2,617.3 182.6,617.3 182.6,560.5 173.6,560.5 173.6,503.8 "/>
<g>
	<path class="st4" d="M51.1,477.7c14.7,0,29.4,0,44.1,0c0,15.7,0,31.4,0,47.1c-14.7,0-29.4,0-44.1,0
		C51.1,509.1,51.1,493.4,51.1,477.7z M56.4,507.3l0,0.1l0,0.2c-0.1,0.9,0.1,1.7,0.6,2.4c0.4,0.5,0.7,1.1,1.1,1.6c1,1,2,2.1,3.5,2.3
		c0.1,0,0.3,0.1,0.3,0.2c0.2,0.8,0.8,1.3,1.4,1.7c1.2,0.8,2.6,1.3,4,1.7c0.6,0.2,1.1,0.3,1.7,0.5c1.2,0.5,2.4,0.5,3.6,0
		c0.3-0.1,0.4-0.1,0.7,0.1c0.3,0.3,0.8,0.5,1.2,0.6c0.8,0.1,1.6,0.1,2.4,0c0.8,0,1.4-0.3,1.9-1c0.2-0.3,0.3-0.2,0.5-0.1
		c1.3,0.6,3.2-0.1,3.8-1c0.3-0.5,0.6-1,1.4-0.8c0.2,0,0.4-0.1,0.6-0.2c0.3-0.2,0.6-0.4,0.9-0.7c1-1.2,2.1-2.4,3.1-3.6
		c0.9-1,1.2-2.3,1.1-3.6c0-0.3,0.1-0.4,0.3-0.5c0.4-0.2,0.8-0.4,1.1-0.7c1-1.3,1.1-3.6,0.2-5c-0.1-0.2-0.1-0.4,0-0.6
		c0.2-0.3,0.4-0.7,0.4-1.1c0.3-1.5,0-2.9-0.7-4.3c-0.3-0.6-0.6-1.2-1.2-1.5c-0.3-0.1-0.3-0.3-0.3-0.5c-0.1-1.6-0.7-3-2.1-3.9
		c-0.2-0.2-0.5-0.3-0.6-0.5c-0.2-0.3-0.3-0.6-0.5-0.9c-0.7-1-1.5-1.7-2.7-2c-0.2-0.1-0.4-0.2-0.6-0.4c-0.5-0.4-1-0.9-1.5-1.2
		c-0.7-0.4-1.4-0.7-2.2-0.3l-0.3-0.1c-0.3-0.1-0.5-0.3-0.7-0.4c-1.3-0.4-2.7-0.6-4.1-0.6c-0.4,0-0.8,0.2-1.3,0.3c-0.1,0-0.3,0-0.4,0
		c-1,0-2-0.1-3-0.1c-0.7,0-1.3,0.3-1.8,0.9c-0.1,0.2-0.4,0.3-0.6,0.3c-1.1-0.1-2.2,0.2-3.2,0.7c-1.2,0.6-2.2,1.3-3.4,1.9
		c-0.7,0.4-1.1,1-1.4,1.7c-0.1,0.2-0.3,0.4-0.5,0.6c-0.5,0.3-1,0.7-1.2,1.3c-0.3,0.7-0.8,1.3-1.4,1.8c-0.7,0.6-1.1,1.3-1.2,2.2
		c0,0.4-0.1,0.8-0.4,1.1c-1.1,1.4-0.7,3.8,0.7,4.9c0.2,0.1,0.2,0.2,0.1,0.4c-1.1,1.1-1.3,2.5-1,4C54.9,506.2,55.3,507.1,56.4,507.3z
		"/>
	<path d="M56.4,507.3c-1.2-0.2-1.5-1.1-1.7-2.1c-0.3-1.5-0.1-2.8,1-4c0.2-0.2,0.1-0.3-0.1-0.4c-1.4-1.1-1.8-3.6-0.7-4.9
		c0.3-0.3,0.3-0.7,0.4-1.1c0.1-0.9,0.5-1.6,1.2-2.2c0.6-0.5,1.1-1.1,1.4-1.8c0.2-0.6,0.7-0.9,1.2-1.3c0.2-0.1,0.4-0.4,0.5-0.6
		c0.3-0.7,0.8-1.3,1.4-1.7c1.1-0.7,2.2-1.4,3.4-1.9c1-0.5,2.1-0.8,3.2-0.7c0.2,0,0.5-0.1,0.6-0.3c0.4-0.6,1.1-0.9,1.8-0.9
		c1,0,2,0.1,3,0.1c0.1,0,0.3,0,0.4,0c0.4-0.1,0.8-0.3,1.3-0.3c1.4,0,2.8,0.1,4.1,0.6c0.3,0.1,0.5,0.3,0.7,0.4l0.3,0.1
		c0.8-0.4,1.5-0.1,2.2,0.3c0.6,0.3,1,0.8,1.5,1.2c0.2,0.1,0.4,0.3,0.6,0.4c1.2,0.3,2,1.1,2.7,2c0.2,0.3,0.3,0.6,0.5,0.9
		c0.2,0.2,0.4,0.4,0.6,0.5c1.4,0.9,2,2.3,2.1,3.9c0,0.2,0.1,0.4,0.3,0.5c0.6,0.3,0.9,0.9,1.2,1.5c0.6,1.4,1,2.8,0.7,4.3
		c-0.1,0.4-0.3,0.7-0.4,1.1c-0.1,0.2-0.1,0.4,0,0.6c0.9,1.4,0.8,3.8-0.2,5c-0.3,0.3-0.7,0.5-1.1,0.7c-0.2,0.1-0.3,0.2-0.3,0.5
		c0.1,1.4-0.3,2.6-1.1,3.6c-1,1.2-2,2.4-3.1,3.6c-0.2,0.3-0.5,0.5-0.9,0.7c-0.2,0.1-0.4,0.3-0.6,0.2c-0.8-0.2-1.1,0.4-1.4,0.8
		c-0.6,0.9-2.5,1.6-3.8,1c-0.2-0.1-0.4-0.1-0.5,0.1c-0.4,0.7-1.1,1-1.9,1c-0.8,0-1.6,0.1-2.4,0c-0.4,0-0.9-0.3-1.2-0.6
		c-0.3-0.3-0.4-0.2-0.7-0.1c-1.2,0.5-2.4,0.5-3.6,0c-0.5-0.2-1.1-0.4-1.7-0.5c-1.4-0.4-2.8-0.9-4-1.7c-0.6-0.4-1.1-0.9-1.4-1.7
		c0-0.1-0.2-0.2-0.3-0.2c-1.5-0.2-2.6-1.2-3.5-2.3c-0.4-0.5-0.8-1-1.1-1.6c-0.5-0.7-0.7-1.5-0.6-2.4l0-0.2L56.4,507.3z M83.7,493.6
		c0.4-0.2,0.8-0.3,1.1-0.4c0.2-0.1,0.5-0.1,0.6,0c0.3,0.2,0.5,0.4,0.4,0.8c-0.1,0.3-0.3,0.6-0.6,0.7c-0.5,0.1-0.9,0.3-1.4,0.4
		c-0.3,0.1-0.5,0.3-0.6,0.6c-0.1,0.3-0.3,0.6-0.5,0.9c-0.2,0.3-0.5,0.4-0.9,0.3c-0.3-0.1-0.5-0.5-0.4-0.9c0.1-0.2,0.1-0.4,0.2-0.5
		c0.4-0.7,0.5-1.4,0.5-2.2c0-0.6,0-1.2,0-1.7c0-0.3,0-0.5,0-0.9c-0.3,0.2-0.6,0.4-0.9,0.6c-0.2,0.1-0.4,0.2-0.6,0.2
		c-0.5,0-1,0-1.5,0c-0.4,0-0.7-0.3-0.7-0.8c0-0.5,0.3-0.8,0.9-0.8c0.7,0,1.3,0,1.9-0.5c0.2-0.2,0.5-0.3,0.7-0.5
		c0.1-0.1,0.3-0.3,0.3-0.5c0-0.6,0-1.3,0-1.9c0-0.1,0-0.3-0.1-0.3c-0.4-0.5-1.4-0.8-1.9-0.5c-0.6,0.3-1.3,0.7-1.9,1
		c-0.4,0.2-0.8,0.2-1-0.1c-0.3-0.5-0.3-0.9,0.1-1.2c0.2-0.2,0.4-0.3,0.7-0.5c-0.2,0-0.3-0.1-0.4-0.1c-0.9-0.1-1.7-0.2-2.6-0.3
		c-0.5-0.1-0.9,0.1-1.3,0.4c-0.1,0.1-0.4,0.1-0.5,0.1c-1.1-0.4-2.1-0.4-3.2-0.3c-0.1,0-0.3,0.1-0.4,0.1c-0.4,0.2-0.4,0.4-0.2,0.7
		c0.3,0.5,0.6,1,0.9,1.4c0.2,0.4,0.1,0.9-0.2,1.1c-0.3,0.2-0.8,0.1-1-0.2c-0.3-0.4-0.6-0.9-0.8-1.3c-0.4-0.6-0.8-0.8-1.5-0.7
		c-1.2,0.2-2.2,0.8-3.2,1.3c-0.1,0-0.1,0.1-0.2,0.2c0.2,0.1,0.3,0.1,0.4,0.2c0.6,0.4,1.3,0.7,1.7,1.4c0.6,1,1.3,1.9,2,2.8
		c0.2-0.2,0.4-0.4,0.7-0.5c0.5-0.1,1.1-0.1,1.7,0c0.2,0,0.4,0.2,0.5,0.4c0.3,0.6,0,1.1-0.7,1.1c-0.5,0-1.1,0-1.7,0
		c0.1,0.2,0.1,0.3,0.2,0.4c0.2,0.5,0.5,1.1,0.7,1.6c0.2,0.3,0.1,0.7-0.1,1c-0.2,0.3-0.5,0.5-0.8,0.8c-0.3,0.2-0.6,0.3-0.9,0.1
		c-0.3-0.2-0.4-0.5-0.3-0.9c0.1-0.2,0.2-0.3,0.3-0.5c0.1-0.1,0.1-0.3,0.1-0.3c-0.4-0.9-0.8-1.7-1.2-2.5c-0.5-0.8-1-1.5-1.6-2.2
		c-0.2-0.3-0.4-0.6-0.6-0.7c-0.6-0.4-1.3-0.7-1.9-1c-0.1,0-0.3,0-0.4,0.1c-0.5,0.3-0.6,0.8-0.7,1.3c-0.1,0.4-0.3,0.6-0.7,0.7
		c-0.5,0.1-0.9,0.4-1.1,0.9c-0.1,0.3-0.2,0.6-0.3,0.9c-0.1,0.2-0.2,0.3-0.3,0.4c-0.6,0.3-1.1,0.7-1.4,1.3c-0.1,0.1-0.1,0.3-0.2,0.5
		c0.2,0,0.4,0,0.6,0c0.2,0,0.4,0,0.6,0c0.4,0,0.7,0.3,0.7,0.7c0,0.5-0.3,0.8-0.7,0.8c-0.3,0-0.6,0-0.9,0c-0.5,0-1,0.4-1.2,0.9
		c-0.4,1.2,0.2,2,0.9,2.7c0.3,0.2,0.6,0.3,0.9,0.1c0.8-0.4,1.6-0.5,2.4-0.4c0.1,0,0.2,0,0.3-0.1c0.6-0.9,1.4-1.8,1.2-3
		c0-0.2,0-0.5,0-0.7c0-0.4-0.1-0.8-0.4-1c-0.1-0.1-0.2-0.3-0.3-0.5c-0.1-0.3,0-0.7,0.4-1c0.3-0.2,0.5-0.1,0.8,0.2
		c0.2,0.2,0.3,0.4,0.5,0.5c0.4,0.3,0.5,0.6,0.5,1.1c0,0.8,0,1.6,0,2.4c0,0.6-0.2,1-0.5,1.5c-0.3,0.4-0.6,0.9-0.8,1.3l0.1,0.1
		c0.5,0.5,1.2,0.4,1.8,0.2c0.9-0.2,1.8-0.4,2.8-0.1c0.1,0,0.2,0,0.3,0c1.2-0.2,2.4-0.4,3.6-0.6c0-0.1,0-0.2,0-0.4c0-0.6,0-1.1,0-1.7
		c0-0.4,0.4-0.7,0.7-0.7c0.3,0,0.7,0.4,0.7,0.7c0,0.1,0,0.2,0,0.3c0,0.7,0,1.3,0,2c0,0.4,0.1,0.5,0.5,0.7c1.3,0.4,2.5,0.3,3.7-0.3
		c0.4-0.2,0.9-0.3,1.3-0.3c0.3,0,0.4-0.1,0.4-0.4c0-0.9,0-1.7,0-2.6c0-0.6-0.2-0.9-0.8-1c-0.7-0.1-1.4-0.2-2.1-0.3
		c0,0.1,0,0.2,0,0.2c0,0.6-0.3,0.9-0.7,0.9c-0.5,0-0.7-0.3-0.7-1c0-1,0-2,0-3.1c0-0.5,0-0.9,0-1.4c-0.3,0-0.5,0-0.7,0
		c-0.4,0-0.7-0.3-0.7-0.7c0-0.4,0.2-0.7,0.7-0.8c0.2,0,0.5,0,0.7,0c0.3,0,0.4-0.1,0.5-0.3c0.1-0.3,0.2-0.6,0.4-0.9
		c0.2-0.3,0.5-0.4,0.8-0.3c0.3,0.1,0.5,0.3,0.5,0.6c0,0.2-0.1,0.5-0.2,0.7c-0.4,0.7-0.6,1.4-0.5,2.3c0,0.5,0,1,0,1.5
		c0,0.5,0.1,0.6,0.6,0.7c0.6,0.1,1.2,0.2,1.8,0.3c0.7,0.1,1.4,0.3,1.7,1c0.2,0.4,0.3,0.9,0.3,1.4c0.1,0.9,0,1.7,0,2.6
		c0,0.1,0,0.3,0,0.4c1.6,0,3.2,0,4.3,1.6c0.5-1,1.3-1.3,2.2-1.6c-0.2-0.4-0.4-0.7-0.5-1.1c-0.2-0.5,0-0.9,0.4-1.1
		c0.4-0.2,0.8,0,1,0.5c0.2,0.5,0.4,0.9,0.6,1.3c0.9,0.1,1.8,0.1,2.6,0.3c0.8,0.2,0.8,0,1-0.6c0-0.1,0.1-0.2,0.1-0.4
		c0.1-1.3-0.2-2.4-0.8-3.5c-0.1-0.2-0.2-0.2-0.4-0.1c-0.4,0.3-0.9,0.5-1.3,0.7c-0.4,0.2-0.8,0.1-1-0.3c-0.2-0.4-0.1-0.8,0.3-1.1
		c0.2-0.1,0.3-0.1,0.5-0.3c0.2-0.1,0.5-0.3,0.5-0.5c0.2-1.2-0.3-2.7-1.5-3.4c-0.5-0.3-1-0.5-1.1-1.1c-0.1-0.8-0.7-1.2-1.3-1.7
		c-0.3-0.2-0.7-0.3-1.1-0.5C83.7,489.5,83.7,491.5,83.7,493.6z M73.3,508.7c0.3,0,0.4,0,0.6,0c0.5,0,0.9,0.4,0.9,0.8
		c0,0.4-0.4,0.8-0.9,0.8c-0.3,0-0.7,0-1,0c-0.9,0-1.3-0.4-1.1-1.3c0.1-0.8,0.4-1.5,0.5-2.3c0.1-0.4,0.3-0.9,0.3-1.3
		c0-0.9,0-1.9,0-2.8c0-0.3-0.1-0.4-0.4-0.5c-0.6-0.2-1.1-0.4-1.6-0.6c-0.4-0.1-0.7-0.2-1.1-0.2c-0.7,0.1-1.4,0.3-2.1,0.4
		c-0.4,0.1-0.8,0.2-1.1,0.1c-0.8-0.3-1.6-0.1-2.4,0.1c0,0.2,0,0.3,0,0.5c0,1,0,2.1,0,3.1c0,0.3,0.1,0.6,0.3,0.8
		c0.3,0.3,0.6,0.6,0.9,0.9c0.3,0.3,0.3,0.9,0,1.1c-0.3,0.3-0.7,0.3-1.1-0.1c-0.3-0.3-0.5-0.6-0.9-1c-0.4,0.4-0.6,0.7-0.9,1
		c-0.3,0.4-0.8,0.4-1.1,0.1c-0.3-0.3-0.3-0.8,0-1.2c0.2-0.2,0.4-0.4,0.6-0.6c0.5-0.4,0.6-0.9,0.6-1.5c0-0.9,0-1.9,0-2.8
		c0-0.3-0.1-0.4-0.4-0.5c-0.3-0.1-0.6-0.3-0.9-0.5c-0.4-0.2-0.9-0.4-1.3-0.4c-0.6,0-1.3,0.2-1.9,0.4c-1.7,0.6-2.1,2.3-1.7,3.7
		c0.2,0.5,0.5,0.6,0.9,0.3c0.6-0.4,1.2-0.9,1.9-1.3c0.3-0.2,0.6-0.2,0.9,0c0.3,0.2,0.4,0.5,0.3,0.8c-0.1,0.2-0.2,0.4-0.3,0.5
		c-0.5,0.4-1,0.7-1.5,1.1c-0.1,0.1-0.2,0.2-0.3,0.3c-0.1,0.6-0.3,1.2,0,1.8c0.3,0.5,0.6,1,1,1.5c0.6,0.8,1.3,1.5,2.3,1.9
		c0.2,0.1,0.4,0.1,0.5,0.1c0.4-0.2,0.8-0.4,1.2-0.7c0.3-0.2,0.7-0.4,1-0.4c1-0.2,2-0.2,3,0.1c0.1,0,0.3,0,0.5,0.1c0-0.2,0-0.3,0-0.5
		c0-1.3,0-2.7,0-4c0-0.3,0.1-0.6,0.2-0.8c0.2-0.3,0.5-0.5,0.8-0.8c0.3-0.3,0.6-0.3,0.9,0c0.3,0.3,0.4,0.6,0.2,0.9
		c-0.1,0.2-0.3,0.4-0.4,0.6c-0.1,0.2-0.2,0.4-0.2,0.5c0,1.1,0,2.3,0,3.4c0,0.2,0.1,0.4,0.2,0.5c0.3,0.4,0.7,0.7,1,1.1
		c0.3,0.3,0.3,0.8,0,1.1c-0.3,0.3-0.7,0.3-1,0c-0.3-0.3-0.6-0.6-0.8-0.9c-0.1-0.1-0.2-0.2-0.3-0.2c-1.2,0.1-2.4,0.2-3.5,0.4
		c-0.4,0.1-0.7,0.3-1,0.5l0,0.3c0.3,0.4,0.5,0.8,0.8,1c0.8,0.5,1.7,0.9,2.5,1.2c0.9,0.4,1.9,0.6,2.9,0.9c0.8,0.3,1.7,0.3,2.5,0
		c0.3-0.1,0.4-0.2,0.3-0.5c-0.2-0.4-0.3-0.9-0.4-1.4c-0.2-0.6,0.1-1,0.7-1.1c0.5,0,1,0,1.5,0c0.5,0,0.7,0.3,0.7,0.8
		c0,0.4-0.2,0.7-0.7,0.8c-0.1,0-0.3,0-0.5,0c0.2,0.6,0.3,1.1,0.5,1.6c0.1,0.2,0.4,0.3,0.6,0.4c0.7,0,1.4,0,2.1,0
		c0.4,0,0.7-0.2,1-0.6c0.7-1.2,0.8-1.2,1.9-0.5l0,0c0.7,0.4,1.9,0.1,2.4-0.5c0.5-0.7,0.9-1.4,0.7-2.3c0-0.2,0-0.4,0-0.6
		c0-0.6-0.1-1.2-0.5-1.6c-0.3-0.4-0.3-0.9,0.1-1.2c0.4-0.3,0.8-0.1,1.1,0.3c0.4,0.7,0.7,1.4,0.7,2.2c0,0.5,0,1,0,1.5
		c0,0.1,0,0.3,0,0.5c1.3-1,2.3-2.3,3.3-3.6c0.3-0.4,0.5-0.8,0.8-1.2c0.6-1.3,0.4-2.7-0.6-3.7c-0.1-0.1-0.2-0.2-0.3-0.3
		c-0.3-0.3-0.3-0.8,0-1.1c0.3-0.3,0.7-0.3,1.1,0.1c0.3,0.4,0.7,0.7,1,1.1l0.3,0.1c0.4-0.1,0.7-0.3,0.9-0.7c0.3-0.9,0.3-1.8-0.1-2.7
		c-0.1-0.2-0.2-0.3-0.4-0.4c-1.7-0.7-3.4-0.7-5.1,0.1c-0.6,0.3-0.9,0.8-0.9,1.6c0,0.6,0.1,1.2,0,1.8c-0.1,0.6,0.2,0.9,0.7,1.2
		c0.4,0.3,0.8,0.5,1.2,0.8c0.3,0.2,0.4,0.8,0.2,1.1c-0.2,0.3-0.7,0.4-1,0.2c-0.5-0.4-1-0.8-1.6-1.1c-0.2-0.1-0.4-0.3-0.6-0.3
		c-0.7,0.1-1.3-0.1-1.9-0.3c-0.7-0.2-1.3-0.5-2.1-0.8c0,0.2-0.1,0.4-0.1,0.5c0,1.2,0,2.5,0,3.7c0,0.8,0.1,1.3,0.9,1.5
		c0.6,0.2,0.7,0.7,0.5,1.1c-0.2,0.4-0.6,0.5-1.1,0.2c-0.8-0.4-1.5-0.8-2.4-0.6l-0.1,0c-0.5-0.1-0.8-0.5-0.6-1c0.1-0.5,0.3-0.6,1-0.6
		c0.3,0,0.4-0.1,0.4-0.4c0-1.4,0-2.9,0-4.3c0-0.3,0-0.6,0.1-0.8c0.1-0.4,0.3-0.8,0.8-0.9c0.6-0.2,1.3-0.1,1.9,0.2
		c0.6,0.3,1.3,0.5,2,0.7c0.2,0.1,0.4,0.1,0.4-0.2c0-1,0.2-2-0.6-2.9c-0.4-0.5-0.9-0.9-1.5-0.9c-1.3,0-2.5,0-3.8,0
		c-0.1,0-0.2,0.1-0.3,0.1c-0.6,0.2-1.2,0.5-1.8,0.7c-0.3,0.1-0.7,0-0.8,0.2c-0.1,0.2-0.1,0.6-0.1,0.9c0,1.3,0.1,2.6-0.4,3.8
		C73.5,507.8,73.4,508.2,73.3,508.7z"/>
	<path class="st4" d="M83.7,493.6c0-2.1,0-4.1,0-6.2c0.4,0.2,0.8,0.3,1.1,0.5c0.6,0.4,1.1,0.9,1.3,1.7c0.1,0.7,0.7,0.9,1.1,1.1
		c1.2,0.7,1.6,2.2,1.5,3.4c0,0.2-0.3,0.3-0.5,0.5c-0.1,0.1-0.3,0.2-0.5,0.3c-0.4,0.2-0.5,0.7-0.3,1.1c0.2,0.3,0.6,0.5,1,0.3
		c0.4-0.2,0.9-0.5,1.3-0.7c0.2-0.1,0.3-0.1,0.4,0.1c0.6,1.1,1,2.2,0.8,3.5c0,0.1,0,0.2-0.1,0.4c-0.2,0.6-0.3,0.8-1,0.6
		c-0.8-0.2-1.7-0.2-2.6-0.3c-0.2-0.4-0.4-0.8-0.6-1.3c-0.2-0.5-0.6-0.7-1-0.5c-0.4,0.2-0.6,0.6-0.4,1.1c0.2,0.4,0.3,0.7,0.5,1.1
		c-0.9,0.3-1.7,0.6-2.2,1.6c-1.1-1.6-2.7-1.6-4.3-1.6c0-0.2,0-0.3,0-0.4c0-0.9,0-1.7,0-2.6c0-0.5-0.1-1-0.3-1.4
		c-0.3-0.7-1-0.9-1.7-1c-0.6-0.1-1.2-0.2-1.8-0.3c-0.5-0.1-0.6-0.2-0.6-0.7c0-0.5,0-1,0-1.5c-0.1-0.8,0.1-1.6,0.5-2.3
		c0.1-0.2,0.2-0.5,0.2-0.7c0-0.3-0.2-0.6-0.5-0.6c-0.3-0.1-0.6,0-0.8,0.3c-0.2,0.3-0.3,0.6-0.4,0.9c-0.1,0.3-0.3,0.4-0.5,0.3
		c-0.2,0-0.5,0-0.7,0c-0.4,0.1-0.7,0.4-0.7,0.8c0,0.4,0.3,0.7,0.7,0.7c0.2,0,0.4,0,0.7,0c0,0.5,0,1,0,1.4c0,1,0,2,0,3.1
		c0,0.6,0.3,1,0.7,1c0.4,0,0.7-0.3,0.7-0.9c0-0.1,0-0.1,0-0.2c0.7,0.1,1.4,0.1,2.1,0.3c0.6,0.1,0.8,0.4,0.8,1c0,0.9,0,1.7,0,2.6
		c0,0.3-0.1,0.4-0.4,0.4c-0.4,0.1-0.9,0.1-1.3,0.3c-1.2,0.6-2.4,0.6-3.7,0.3c-0.4-0.1-0.5-0.2-0.5-0.7c0-0.6,0-1.3,0-2
		c0-0.1,0-0.2,0-0.3c0-0.4-0.4-0.7-0.7-0.7c-0.3,0-0.7,0.4-0.7,0.7c0,0.6,0,1.1,0,1.7c0,0.2,0,0.3,0,0.4c-1.2,0.2-2.4,0.4-3.6,0.6
		c-0.1,0-0.2,0-0.3,0c-0.9-0.3-1.9-0.1-2.8,0.1c-0.6,0.1-1.2,0.3-1.8-0.2l-0.1-0.1c0.3-0.4,0.5-0.9,0.8-1.3c0.3-0.4,0.5-0.9,0.5-1.5
		c0-0.8,0-1.6,0-2.4c0-0.4-0.1-0.8-0.5-1.1c-0.2-0.2-0.4-0.3-0.5-0.5c-0.2-0.2-0.5-0.3-0.8-0.2c-0.4,0.2-0.5,0.6-0.4,1
		c0.1,0.2,0.2,0.4,0.3,0.5c0.3,0.3,0.4,0.6,0.4,1c0,0.2,0,0.5,0,0.7c0.2,1.2-0.6,2.1-1.2,3c0,0.1-0.2,0.1-0.3,0.1
		c-0.9-0.1-1.7,0-2.4,0.4c-0.4,0.2-0.7,0.1-0.9-0.1c-0.8-0.6-1.3-1.5-0.9-2.7c0.1-0.5,0.7-0.9,1.2-0.9c0.3,0,0.6,0,0.9,0
		c0.4,0,0.7-0.3,0.7-0.8c0-0.4-0.3-0.7-0.7-0.7c-0.2,0-0.4,0-0.6,0c-0.2,0-0.4,0-0.6,0c0.1-0.2,0.1-0.4,0.2-0.5
		c0.4-0.6,0.8-1,1.4-1.3c0.1-0.1,0.3-0.3,0.3-0.4c0.1-0.3,0.1-0.6,0.3-0.9c0.2-0.5,0.6-0.8,1.1-0.9c0.4-0.1,0.6-0.3,0.7-0.7
		c0.1-0.5,0.2-1,0.7-1.3c0.1-0.1,0.3-0.1,0.4-0.1c0.7,0.3,1.3,0.6,1.9,1c0.3,0.2,0.4,0.5,0.6,0.7c0.5,0.7,1.1,1.5,1.6,2.2
		c0.5,0.8,0.8,1.7,1.2,2.5c0,0.1-0.1,0.2-0.1,0.3c-0.1,0.2-0.2,0.3-0.3,0.5c-0.1,0.3-0.1,0.7,0.3,0.9c0.3,0.2,0.6,0.2,0.9-0.1
		c0.3-0.2,0.6-0.5,0.8-0.8c0.2-0.3,0.3-0.6,0.1-1c-0.3-0.5-0.5-1-0.7-1.6c-0.1-0.1-0.1-0.2-0.2-0.4c0.6,0,1.1,0,1.7,0
		c0.7,0,1-0.5,0.7-1.1c-0.1-0.2-0.3-0.4-0.5-0.4c-0.5-0.1-1.1-0.1-1.7,0c-0.2,0-0.4,0.3-0.7,0.5c-0.6-0.9-1.3-1.8-2-2.8
		c-0.4-0.7-1.1-1-1.7-1.4c-0.1-0.1-0.3-0.1-0.4-0.2c0.1-0.1,0.2-0.2,0.2-0.2c1-0.5,2.1-1.1,3.2-1.3c0.7-0.1,1.1,0,1.5,0.7
		c0.3,0.5,0.5,0.9,0.8,1.3c0.2,0.3,0.7,0.4,1,0.2c0.3-0.2,0.4-0.7,0.2-1.1c-0.3-0.5-0.6-1-0.9-1.4c-0.2-0.4-0.2-0.5,0.2-0.7
		c0.1-0.1,0.3-0.1,0.4-0.1c1.1-0.1,2.2-0.1,3.2,0.3c0.1,0.1,0.4,0,0.5-0.1c0.4-0.4,0.8-0.5,1.3-0.4c0.9,0.1,1.7,0.2,2.6,0.3
		c0.1,0,0.2,0.1,0.4,0.1c-0.2,0.2-0.5,0.3-0.7,0.5c-0.4,0.3-0.4,0.7-0.1,1.2c0.2,0.3,0.6,0.3,1,0.1c0.6-0.4,1.2-0.7,1.9-1
		c0.6-0.3,1.5,0,1.9,0.5c0.1,0.1,0.1,0.2,0.1,0.3c0,0.6,0,1.3,0,1.9c0,0.2-0.1,0.4-0.3,0.5c-0.2,0.2-0.5,0.3-0.7,0.5
		c-0.5,0.5-1.2,0.5-1.9,0.5c-0.6,0-0.9,0.3-0.9,0.8c0,0.4,0.3,0.7,0.7,0.8c0.5,0,1,0,1.5,0c0.2,0,0.4-0.1,0.6-0.2
		c0.3-0.2,0.5-0.4,0.9-0.6c0,0.3,0,0.6,0,0.9c0,0.6,0,1.2,0,1.7c0.1,0.8-0.1,1.5-0.5,2.2c-0.1,0.2-0.2,0.4-0.2,0.5
		c-0.1,0.4,0.1,0.7,0.4,0.9c0.4,0.2,0.7,0.1,0.9-0.3c0.2-0.3,0.3-0.6,0.5-0.9c0.1-0.3,0.3-0.5,0.6-0.6c0.5-0.1,0.9-0.3,1.4-0.4
		c0.4-0.1,0.6-0.4,0.6-0.7c0.1-0.4-0.2-0.6-0.4-0.8c-0.2-0.1-0.4-0.1-0.6,0C84.4,493.3,84.1,493.5,83.7,493.6z"/>
	<path class="st4" d="M73.3,508.7c0.1-0.5,0.2-1,0.4-1.4c0.5-1.2,0.4-2.5,0.4-3.8c0-0.3-0.1-0.7,0.1-0.9c0.1-0.2,0.5-0.1,0.8-0.2
		c0.6-0.2,1.2-0.5,1.8-0.7c0.1,0,0.2-0.1,0.3-0.1c1.3,0,2.5,0,3.8,0c0.6,0,1.1,0.4,1.5,0.9c0.8,0.9,0.5,1.9,0.6,2.9
		c0,0.3-0.2,0.2-0.4,0.2c-0.7-0.2-1.3-0.4-2-0.7c-0.6-0.3-1.2-0.4-1.9-0.2c-0.4,0.1-0.7,0.5-0.8,0.9c-0.1,0.3-0.1,0.5-0.1,0.8
		c0,1.4,0,2.9,0,4.3c0,0.3-0.1,0.4-0.4,0.4c-0.7,0-0.9,0.1-1,0.6c-0.1,0.5,0.1,0.9,0.6,1l0.1,0c0.9-0.2,1.6,0.2,2.4,0.6
		c0.5,0.3,0.9,0.2,1.1-0.2c0.2-0.4,0.1-0.9-0.5-1.1c-0.8-0.3-1-0.8-0.9-1.5c0.1-1.2,0-2.5,0-3.7c0-0.2,0-0.3,0.1-0.5
		c0.7,0.3,1.4,0.5,2.1,0.8c0.6,0.2,1.2,0.4,1.9,0.3c0.2,0,0.4,0.1,0.6,0.3c0.5,0.4,1,0.8,1.6,1.1c0.4,0.2,0.8,0.2,1-0.2
		c0.2-0.3,0.1-0.8-0.2-1.1c-0.4-0.3-0.8-0.6-1.2-0.8c-0.4-0.3-0.8-0.6-0.7-1.2c0.1-0.6,0-1.2,0-1.8c0-0.7,0.3-1.3,0.9-1.6
		c1.7-0.9,3.4-0.9,5.1-0.1c0.2,0.1,0.3,0.2,0.4,0.4c0.3,0.9,0.4,1.8,0.1,2.7c-0.1,0.4-0.5,0.6-0.9,0.7l-0.3-0.1
		c-0.3-0.4-0.7-0.7-1-1.1c-0.3-0.3-0.8-0.4-1.1-0.1c-0.3,0.3-0.3,0.8,0,1.1c0.1,0.1,0.2,0.2,0.3,0.3c1,1,1.3,2.4,0.6,3.7
		c-0.2,0.4-0.5,0.8-0.8,1.2c-1,1.2-2,2.5-3.3,3.6c0-0.2,0-0.3,0-0.5c0-0.5,0-1,0-1.5c0-0.8-0.3-1.5-0.7-2.2
		c-0.3-0.5-0.8-0.6-1.1-0.3c-0.4,0.3-0.4,0.8-0.1,1.2c0.4,0.5,0.5,1,0.5,1.6c0,0.2,0,0.4,0,0.6c0.1,0.9-0.2,1.6-0.7,2.3
		c-0.5,0.6-1.7,0.9-2.4,0.5l0,0c-1.2-0.7-1.2-0.7-1.9,0.5c-0.2,0.4-0.5,0.6-1,0.6c-0.7,0-1.4,0-2.1,0c-0.2,0-0.5-0.2-0.6-0.4
		c-0.2-0.5-0.3-1.1-0.5-1.6c0.2,0,0.3,0,0.5,0c0.4-0.1,0.7-0.4,0.7-0.8c0-0.5-0.3-0.7-0.7-0.8c-0.5,0-1,0-1.5,0
		c-0.5,0-0.8,0.5-0.7,1.1c0.1,0.5,0.3,0.9,0.4,1.4c0.1,0.3,0,0.4-0.3,0.5c-0.8,0.3-1.7,0.3-2.5,0c-1-0.3-1.9-0.6-2.9-0.9
		c-0.9-0.3-1.7-0.7-2.5-1.2c-0.3-0.2-0.6-0.6-0.8-1l0-0.3c0.3-0.2,0.7-0.4,1-0.5c1.2-0.2,2.4-0.3,3.5-0.4c0.1,0,0.3,0.1,0.3,0.2
		c0.3,0.3,0.6,0.6,0.8,0.9c0.3,0.3,0.7,0.3,1,0c0.3-0.3,0.3-0.8,0-1.1c-0.3-0.4-0.7-0.7-1-1.1c-0.1-0.1-0.2-0.3-0.2-0.5
		c0-1.1,0-2.3,0-3.4c0-0.2,0.1-0.4,0.2-0.5c0.1-0.2,0.3-0.4,0.4-0.6c0.2-0.3,0.1-0.7-0.2-0.9c-0.3-0.3-0.6-0.3-0.9,0
		c-0.3,0.3-0.6,0.5-0.8,0.8c-0.2,0.2-0.2,0.5-0.2,0.8c0,1.3,0,2.7,0,4c0,0.1,0,0.3,0,0.5c-0.2,0-0.3,0-0.5-0.1c-1-0.3-2-0.3-3-0.1
		c-0.4,0.1-0.7,0.3-1,0.4c-0.4,0.2-0.8,0.5-1.2,0.7c-0.1,0.1-0.4,0-0.5-0.1c-0.9-0.4-1.6-1.2-2.3-1.9c-0.4-0.4-0.7-1-1-1.5
		c-0.3-0.6-0.1-1.2,0-1.8c0-0.1,0.2-0.2,0.3-0.3c0.5-0.4,1-0.7,1.5-1.1c0.2-0.1,0.3-0.3,0.3-0.5c0.1-0.3,0-0.6-0.3-0.8
		c-0.3-0.2-0.6-0.2-0.9,0c-0.6,0.4-1.2,0.9-1.9,1.3c-0.5,0.3-0.8,0.2-0.9-0.3c-0.4-1.4,0-3.1,1.7-3.7c0.6-0.2,1.3-0.4,1.9-0.4
		c0.4,0,0.9,0.2,1.3,0.4c0.3,0.1,0.6,0.4,0.9,0.5c0.3,0.1,0.4,0.2,0.4,0.5c0,0.9,0,1.9,0,2.8c0,0.6-0.2,1.1-0.6,1.5
		c-0.2,0.2-0.4,0.4-0.6,0.6c-0.3,0.4-0.3,0.9,0,1.2c0.3,0.3,0.7,0.3,1.1-0.1c0.3-0.3,0.5-0.6,0.9-1c0.4,0.4,0.6,0.7,0.9,1
		c0.4,0.4,0.8,0.4,1.1,0.1c0.3-0.3,0.3-0.8,0-1.1c-0.3-0.3-0.6-0.6-0.9-0.9c-0.2-0.2-0.3-0.5-0.3-0.8c0-1,0-2.1,0-3.1
		c0-0.2,0-0.3,0-0.5c0.8-0.2,1.6-0.4,2.4-0.1c0.3,0.1,0.8,0,1.1-0.1c0.7-0.1,1.4-0.3,2.1-0.4c0.4,0,0.7,0.1,1.1,0.2
		c0.6,0.2,1.1,0.4,1.6,0.6c0.3,0.1,0.4,0.2,0.4,0.5c0,0.9,0,1.9,0,2.8c0,0.4-0.2,0.9-0.3,1.3c-0.2,0.8-0.4,1.5-0.5,2.3
		c-0.1,0.9,0.3,1.3,1.1,1.3c0.3,0,0.7,0,1,0c0.5,0,0.9-0.4,0.9-0.8c0-0.4-0.4-0.8-0.9-0.8C73.7,508.7,73.5,508.7,73.3,508.7z"/>
	<path class="st4" d="M95.6,604.4c-14.9,0-29.8,0-44.7,0c0-21.6,0-43.2,0-64.8c14.9,0,29.8,0,44.7,0
		C95.6,561.2,95.6,582.8,95.6,604.4z M91,573.2c0,3.1,0,6.1,0,9.1c-4.8,0-9.6,0-14.5,0c0,4.9,0,9.7,0,14.7c4.8,0,9.7,0,14.5,0
		c0,1.7,0,3.2,0,4.8c0.7,0,1.3,0,1.9,0c0-2.5,0-5,0-7.5c-4.8,0-9.7,0-14.5,0c0-3.1,0-6.1,0-9.2c4.8,0,9.6,0,14.5,0
		c0-4.9,0-9.7,0-14.5c-4.8,0-9.6,0-14.5,0c0-3.1,0-6.1,0-9.2c4.8,0,9.6,0,14.5,0c0-4.9,0-9.7,0-14.6c-4.8,0-9.6,0-14.5,0
		c0-1.5,0-3.1,0-4.5c-0.7,0-1.3,0-1.9,0c0,2.4,0,4.8,0,7.3c4.8,0,9.6,0,14.4,0c0,3.1,0,6.1,0,9.2c-4.8,0-9.6,0-14.5,0
		c0,0.1,0,0.2,0,0.3c0,4.6,0,9.2,0,13.8c0,0.5,0.2,0.5,0.6,0.5c4.4,0,8.8,0,13.2,0C90.5,573.2,90.7,573.2,91,573.2z M70.9,596.4
		c-0.1-1-0.5-1.9-1.1-2.6c-0.9-1.1-2.2-1.6-3.6-2.1c-1-0.4-2-0.7-3-1.1c-1.1-0.4-2.2-0.8-3.2-1.2c-1.1-0.4-2.2-0.7-3.3-1.2
		c-0.5-0.2-0.9-0.6-1.2-1c-0.3-0.3-0.3-0.8,0-1.1c0.3-0.3,0.6-0.7,1-0.8c1.3-0.6,2.7-1.2,4-1.7c0.7-0.3,1.4-0.5,2.1-0.8
		c0.8-0.4,1.7-0.8,2.5-1.1c0.8-0.4,1.6-0.7,2.4-1.1c1-0.6,2-1.2,2.6-2.3c0.9-1.4,0.7-3.4-0.4-4.6c-0.7-0.8-1.5-1.3-2.4-1.7
		c-0.4-0.2-0.9-0.3-1.3-0.5c-0.7-0.3-1.4-0.5-2.1-0.8c-0.8-0.3-1.7-0.6-2.5-0.8c-1.1-0.4-2.2-0.8-3.3-1.2c-0.8-0.3-1.6-0.7-2.3-1.1
		c-0.6-0.3-0.9-1.1-0.6-1.5c0.4-0.4,0.9-0.9,1.4-1.1c0.6-0.3,1.4-0.5,2.1-0.7c1.5-0.4,3-0.9,4.6-1.3c1.7-0.5,3.4-1,5.1-1.5
		c1.4-0.5,2.3-1.6,2.7-2.9c0.6-1.8-0.2-3.3-1.5-4.5c-0.9-0.9-2.2-1.2-3.3-1.6c-1.2-0.5-2.5-0.9-3.7-1.4c-1.4-0.5-2.8-1-4.2-1.5
		c-0.6-0.2-1.2-0.4-1.7-0.8c-1.2-0.9-1.4-1.1-0.1-2.3c0.5-0.4,1.1-0.7,1.7-1c0.6-0.3,0.7-1.3,0.4-2.1c-0.3-0.6-0.5-0.7-1.4-0.3
		l-0.1,0c-1.3,0.7-2.5,1.6-3.2,3c-0.5,1.1-0.2,3,0.5,3.8c1.3,1.4,2.9,2.1,4.7,2.7c1.1,0.4,2.3,0.8,3.4,1.2c1.1,0.4,2.1,0.8,3.1,1.2
		c1.1,0.4,2.2,0.7,3.1,1.4c0.7,0.5,0.8,1.4,0.2,1.9c-0.5,0.4-1,0.7-1.5,0.8c-0.9,0.3-1.8,0.5-2.8,0.8c-0.5,0.1-1,0.2-1.5,0.4
		c-1.2,0.4-2.5,0.8-3.7,1.1c-1.2,0.3-2.5,0.5-3.6,1.1c-1.2,0.7-2.2,1.5-2.4,3c-0.3,1.6,0.1,3,1.2,4.1c1.2,1.2,2.8,1.5,4.3,2.1
		c1.1,0.4,2.2,0.8,3.3,1.2c1.1,0.4,2.2,0.9,3.4,1.3c1.2,0.4,2.2,0.9,3.1,1.8c0.3,0.3,0.3,0.5,0,0.8c-0.5,0.5-1,0.9-1.5,1.3
		c-0.5,0.3-1.2,0.6-1.8,0.8c-1.2,0.5-2.4,1.1-3.5,1.6c-1,0.4-1.9,0.8-2.9,1.2c-0.6,0.3-1.2,0.6-1.8,0.8c-1.1,0.4-2.1,1-2.8,1.9
		c-1.4,1.8-1.1,4.4,0.8,5.9c1.2,1,2.8,1.4,4.2,2c0.8,0.4,1.7,0.6,2.6,0.9c1.2,0.4,2.3,0.9,3.5,1.3c1.2,0.4,2.3,0.8,3.3,1.6
		c0.4,0.4,0.5,0.7,0.1,1.1c-0.5,0.5-1.1,1-1.7,1.3c-1.4,0.7-1.5,1.5-1.1,2.5c0.2,0.5,0.8,0.7,1.2,0.4c0.8-0.5,1.6-1,2.2-1.6
		C70.3,598.7,70.8,597.6,70.9,596.4z"/>
	<path d="M91,573.2c-0.2,0-0.4,0-0.7,0c-4.4,0-8.8,0-13.2,0c-0.4,0-0.6,0-0.6-0.5c0-4.6,0-9.2,0-13.8c0-0.1,0-0.2,0-0.3
		c4.8,0,9.6,0,14.5,0c0-3.1,0-6.1,0-9.2c-4.8,0-9.6,0-14.4,0c0-2.4,0-4.8,0-7.3c0.6,0,1.2,0,1.9,0c0,1.5,0,3,0,4.5
		c4.9,0,9.7,0,14.5,0c0,4.9,0,9.7,0,14.6c-4.8,0-9.6,0-14.5,0c0,3.1,0,6.1,0,9.2c4.8,0,9.6,0,14.5,0c0,4.8,0,9.6,0,14.5
		c-4.8,0-9.6,0-14.5,0c0,3.1,0,6.1,0,9.2c4.8,0,9.6,0,14.5,0c0,2.5,0,5,0,7.5c-0.6,0-1.3,0-1.9,0c0-1.6,0-3.2,0-4.8
		c-4.9,0-9.7,0-14.5,0c0-4.9,0-9.8,0-14.7c4.8,0,9.6,0,14.5,0C91,579.2,91,576.2,91,573.2z"/>
	<path d="M70.9,596.4c-0.2,1.2-0.7,2.3-1.6,3.2c-0.7,0.6-1.5,1.1-2.2,1.6c-0.4,0.3-1,0-1.2-0.4c-0.4-0.9-0.3-1.8,1.1-2.5
		c0.6-0.3,1.2-0.8,1.7-1.3c0.4-0.4,0.3-0.7-0.1-1.1c-1-0.8-2.1-1.2-3.3-1.6c-1.2-0.4-2.3-0.9-3.5-1.3c-0.9-0.3-1.8-0.5-2.6-0.9
		c-1.4-0.6-3-0.9-4.2-2c-1.8-1.5-2.2-4.2-0.8-5.9c0.7-0.9,1.7-1.5,2.8-1.9c0.6-0.2,1.2-0.5,1.8-0.8c1-0.4,1.9-0.8,2.9-1.2
		c1.2-0.5,2.4-1.1,3.5-1.6c0.6-0.3,1.2-0.5,1.8-0.8c0.5-0.3,1-0.8,1.5-1.3c0.2-0.2,0.2-0.5,0-0.8c-0.9-0.9-2-1.4-3.1-1.8
		c-1.1-0.4-2.2-0.9-3.4-1.3c-1.1-0.4-2.2-0.7-3.3-1.2c-1.5-0.6-3.1-0.9-4.3-2.1c-1.2-1.1-1.5-2.5-1.2-4.1c0.3-1.4,1.2-2.3,2.4-3
		c1.1-0.6,2.4-0.8,3.6-1.1c1.3-0.3,2.5-0.7,3.7-1.1c0.5-0.1,1-0.2,1.5-0.4c0.9-0.2,1.9-0.5,2.8-0.8c0.5-0.2,1.1-0.5,1.5-0.8
		c0.7-0.5,0.5-1.4-0.2-1.9c-0.9-0.7-2-1-3.1-1.4c-1.1-0.4-2.1-0.8-3.1-1.2c-1.1-0.4-2.3-0.8-3.4-1.2c-1.7-0.6-3.4-1.3-4.7-2.7
		c-0.7-0.8-1-2.7-0.5-3.8c0.7-1.4,1.8-2.3,3.2-3l0.1,0c0.8-0.4,1.1-0.3,1.4,0.3c0.4,0.7,0.2,1.8-0.4,2.1c-0.6,0.3-1.2,0.6-1.7,1
		c-1.3,1.1-1.1,1.3,0.1,2.3c0.5,0.4,1.1,0.6,1.7,0.8c1.4,0.5,2.8,1,4.2,1.5c1.3,0.4,2.5,0.9,3.7,1.4c1.1,0.5,2.4,0.8,3.3,1.6
		c1.3,1.2,2.1,2.7,1.5,4.5c-0.4,1.3-1.3,2.5-2.7,2.9c-1.7,0.5-3.4,1-5.1,1.5c-1.5,0.4-3,0.8-4.6,1.3c-0.7,0.2-1.4,0.4-2.1,0.7
		c-0.5,0.3-1,0.7-1.4,1.1c-0.3,0.4,0,1.2,0.6,1.5c0.8,0.4,1.5,0.8,2.3,1.1c1.1,0.4,2.2,0.8,3.3,1.2c0.8,0.3,1.7,0.6,2.5,0.8
		c0.7,0.2,1.4,0.5,2.1,0.8c0.4,0.2,0.9,0.3,1.3,0.5c0.9,0.4,1.7,0.9,2.4,1.7c1.1,1.3,1.3,3.2,0.4,4.6c-0.6,1.1-1.6,1.7-2.6,2.3
		c-0.8,0.4-1.6,0.7-2.4,1.1c-0.8,0.4-1.6,0.8-2.5,1.1c-0.7,0.3-1.4,0.6-2.1,0.8c-1.3,0.6-2.7,1.1-4,1.7c-0.4,0.2-0.7,0.5-1,0.8
		c-0.3,0.3-0.3,0.8,0,1.1c0.4,0.4,0.8,0.8,1.2,1c1.1,0.5,2.2,0.8,3.3,1.2c1.1,0.4,2.2,0.8,3.2,1.2c1,0.4,2,0.7,3,1.1
		c1.3,0.5,2.6,1,3.6,2.1C70.4,594.5,70.8,595.4,70.9,596.4z"/>
	<path d="M79.1,632c0,0.8-0.1,1.7-0.4,2.5c-0.5,2.2-1.7,4.2-3.4,6c-0.9,0.9-1.9,1.7-3.1,2.5c1.3,0.8,2.5,1.8,3.6,2.9
		c1.3,1.2,2.2,2.7,2.7,4.4c0.5,1.6,0.5,3.4,0.2,5.1c-0.3,1.7-1,3.4-2,4.7c-1.1,1.5-2.5,2.6-4.1,3.2c-1.5,0.7-3.2,0.9-4.9,0.6
		c-1.6-0.2-3.1-0.9-4.5-1.8c-1.4-1-2.5-2.2-3.2-3.6c-0.8-1.5-1.2-3.2-1.1-4.8c0-0.9,0.1-1.8,0.3-2.6l0,0c0.5-2.2,1.7-4.2,3.6-6
		c0.9-0.8,1.8-1.6,2.7-2.2c-1.9-1.3-3.7-2.8-5-4.9c-1-1.4-1.5-3.1-1.6-5c-0.1-1.7,0.2-3.4,0.9-5c1.4-3.3,4.3-5.6,7.5-6.1
		c1.7-0.3,3.4-0.1,5,0.6c1.5,0.6,2.9,1.6,4,2.9C78.2,627.3,79.1,629.7,79.1,632z M68.9,640.8c2-1,5.6-3.3,6.5-7.1l0-0.1l0-0.1
		c0.6-2,0-4.2-1.6-6c-1.6-1.8-3.8-2.7-5.9-2.4l0,0c-2.1,0.3-3.9,1.9-4.9,4.1c-1,2.3-0.9,4.9,0.4,6.7l0,0
		C64.8,638.1,66.8,639.5,68.9,640.8z M62.5,654.2c0,1.9,1.1,3.8,2.9,5c0.9,0.6,2,1.1,3,1.2c1.1,0.2,2.1,0,3-0.4l0.1,0
		c1-0.4,1.9-1.1,2.6-2.1c0.7-0.9,1.2-2.1,1.4-3.3c0.4-2.5-0.3-4.9-1.9-6.4l0,0l0,0c-1.3-1.3-2.9-2.4-4.6-3.4c-2.8,1.7-5.4,3.9-6.2,7
		c-0.1,0.6-0.2,1.2-0.2,1.8v0v0.1l0,0.1C62.5,654,62.5,654.1,62.5,654.2z"/>
	<rect x="67.9" y="650" width="1.5" height="7"/>
	<polygon points="71.6,631.6 71.6,633.5 69.6,633.5 69.6,635.4 67.7,635.4 67.7,633.5 65.7,633.5 65.7,631.6 67.7,631.6 67.7,629.5 
		69.6,629.5 69.6,631.6 	"/>
	<path d="M87.5,659l-1.4,0.4v2.4l1.3,0.4v1.3l-6.8-2v-1.8l6.8-2L87.5,659z M81.9,660.6l3.2,0.9v-1.8L81.9,660.6z"/>
	<path d="M87.5,653.4c-0.8,0.4-1.6,0.7-2.4,1.1c-0.3,0.2-0.5,0.7-0.4,1.1c0.2,0.1,0.5,0,0.7,0c0.7,0,1.4,0,2.1,0c0,0.4,0,0.9,0,1.3
		c-2.3,0-4.6,0-6.8,0c0-1-0.1-1.9,0.1-2.9c0.1-0.6,0.5-1.3,1.1-1.5c0.7-0.2,1.6-0.1,2,0.5c0.2,0.2,0.3,0.5,0.3,0.8
		c0.2-0.4,0.5-0.6,0.9-0.8c0.7-0.4,1.4-0.7,2.1-1c0.2-0.2,0.3-0.1,0.3,0.1C87.5,652.5,87.5,653,87.5,653.4z M82.7,653.7
		c-0.4,0-0.8,0.3-0.9,0.7c-0.1,0.4,0,0.7-0.1,1.1c0.6,0,1.3,0,1.9,0c0-0.5,0.1-1.2-0.3-1.6C83.1,653.8,82.9,653.7,82.7,653.7z"/>
	<path d="M84,645.9c1,0,2,0.2,2.7,0.9c0.7,0.7,0.8,1.7,0.8,2.6c0,0.5,0,1.1,0,1.6c-2.3,0-4.6,0-6.8,0c0-0.8,0-1.6,0-2.4
		c0-0.8,0.3-1.6,1-2.1C82.3,646,83.1,645.9,84,645.9z M84,647.3c-0.7,0-1.4,0.1-1.9,0.6c-0.4,0.4-0.4,1-0.4,1.6c0,0.1,0,0.2,0,0.3
		c1.6,0,3.1,0,4.7,0c0-0.6,0-1.2-0.3-1.7C85.6,647.4,84.8,647.3,84,647.3z"/>
	<path d="M84.9,640c0.8,0,1.7,0.3,2.2,1c0.5,0.8,0.5,1.9,0.2,2.8c-0.3,0.7-1,1.1-1.7,1.2c-0.8,0.1-1.6,0-2.5,0c-0.9,0-1.7,0-2.6,0
		c0-0.4,0-0.9,0-1.3c1.6,0,3.3,0,4.9,0c0.5,0,0.9-0.4,1-0.8c0.1-0.5,0-1.1-0.5-1.4c-0.6-0.3-1.3-0.1-1.9-0.2c-1.2,0-2.3,0-3.5,0
		c0-0.4,0-0.9,0-1.3C82.1,640,83.5,640,84.9,640L84.9,640z"/>
	<polygon points="81.7,638.8 80.6,638.8 80.6,634.5 81.7,634.5 81.7,636 86.4,636 86.4,634.5 87.4,634.5 87.4,638.8 86.4,638.8 
		86.4,637.3 81.7,637.3 	"/>
	<path d="M87.5,629.7c-1.7,0.7-3.3,1.5-5,2.2c1.7,0,3.3,0,5,0c0,0.4,0,0.8,0,1.2c-2.3,0-4.6,0-6.8,0c0-0.5,0-1.1,0-1.6
		c1.6-0.7,3.1-1.4,4.7-2.1c0.2,0,0.3-0.1,0-0.1c-1.6,0-3.1,0-4.7,0c0-0.4,0-0.8,0-1.2c2.3,0,4.6,0,6.8,0
		C87.5,628.7,87.5,629.2,87.5,629.7z"/>
	<path d="M84,621.9c1,0,2.1,0.2,2.9,1c0.7,0.8,0.9,2,0.5,2.9c-0.3,0.8-1.1,1.3-2,1.5c-0.9,0.2-1.9,0.2-2.8,0
		c-0.8-0.2-1.6-0.8-1.9-1.6c-0.3-0.8-0.3-1.7,0.2-2.5c0.5-0.8,1.4-1.1,2.3-1.2C83.4,621.9,83.7,621.9,84,621.9z M84.1,623.3
		c-0.7,0-1.4,0-2,0.4c-0.5,0.4-0.5,1.1-0.3,1.6c0.3,0.6,1.1,0.7,1.7,0.7c0.8,0,1.6,0,2.3-0.3c0.4-0.2,0.7-0.7,0.6-1.2
		c0-0.5-0.4-0.9-0.8-1.1C85.1,623.3,84.6,623.3,84.1,623.3z"/>
	<path class="st4" d="M47.3,404.4c16,0,32,0,48.1,0c0,17.3,0,34.6,0,51.9c-16,0-32,0-48.1,0C47.3,439.1,47.3,421.8,47.3,404.4z
		 M76.6,448.5h0.2c1.2,0,2.3,0,3.5,0c0.1,0,0.2,0,0.3,0c0.4-0.1,0.8-0.3,1-0.7c0.1-0.2,0.3-0.4,0.3-0.6c0.1-0.3,0.1-0.5,0.1-0.8
		c0-0.9,0-1.7,0-2.6c0-0.2,0-0.4,0.2-0.6c0.4-0.4,0.7-0.9,1.1-1.3c0.3-0.3,0.5-0.6,0.8-0.9c0.4-0.4,0.8-0.9,1.1-1.3
		c0.2-0.2,0.4-0.5,0.6-0.7c0.3-0.4,0.6-0.8,1-1.1c0.3-0.3,0.5-0.7,0.5-1.1c0-4.3,0-8.6,0-12.9c0-0.3,0-0.7,0-1
		c0-0.2-0.1-0.4-0.2-0.5c-0.2-0.3-0.4-0.5-0.6-0.8c-0.2-0.3-0.5-0.5-0.7-0.8c-0.5-0.6-1-1.1-1.5-1.7c-0.2-0.3-0.5-0.5-0.7-0.8
		c-0.4-0.4-0.8-0.9-1.2-1.3c-0.2-0.2-0.4-0.5-0.7-0.7c-0.4-0.4-0.8-0.9-1.2-1.3c-0.4-0.5-0.9-0.9-1.3-1.4c-0.3-0.3-0.6-0.4-0.9-0.4
		c-0.5,0-1,0-1.5,0h-0.2c0-0.7,0-1.3,0-2h0.2c1,0,2.1,0,3.1,0c0.4,0,0.8,0,1.1-0.3c0.1-0.1,0.2-0.2,0.3-0.3c0.3-0.4,0.5-0.8,0.5-1.2
		c0-0.8,0-1.6,0-2.4c0-0.6-0.3-1-0.7-1.3c-0.3-0.2-0.7-0.4-1.1-0.4c-4.2,0-8.4,0-12.6,0c-0.2,0-0.4,0-0.5,0.1
		c-0.6,0.2-1,0.6-1.3,1.1c-0.1,0.2-0.2,0.4-0.2,0.6c0,0.7,0,1.4,0,2.1c0,0.1,0,0.2,0.1,0.3c0.1,0.3,0.2,0.6,0.4,0.9
		c0.2,0.3,0.6,0.5,0.9,0.6c0.2,0.1,0.4,0.1,0.6,0.1c1.1,0,2.2,0,3.3,0h0.2c0,0.6,0,1.3,0,1.9h-0.2c-2.9,0-5.8,0-8.7,0
		c-0.2,0-0.4,0-0.5,0c-0.5,0.1-0.9,0.4-1.2,0.8c-0.2,0.3-0.3,0.6-0.3,1c0,7.3,0,14.6,0,21.9l0,0.2c0,0.2,0.2,0.4,0.3,0.6
		c0.2,0.3,0.4,0.6,0.7,0.9c0.4,0.4,0.8,0.8,1.1,1.2c0.4,0.4,0.7,0.8,1.1,1.2c0.4,0.4,0.7,0.8,1.1,1.2c0.3,0.4,0.7,0.7,1,1.1
		c0.1,0.1,0.1,0.2,0.1,0.3c0,1.1,0,2.1,0,3.2c0,0.3,0.1,0.6,0.3,0.9c0.1,0.2,0.2,0.3,0.3,0.5c0.2,0.4,0.6,0.6,1,0.6
		c1.2,0,2.4,0,3.6,0h0.2c0,0.7,0,1.3,0,2h-0.2c-1.1,0-2.2,0-3.3,0c-0.4,0-0.8,0.1-1.1,0.4c-0.2,0.2-0.4,0.4-0.5,0.7
		c-0.1,0.3-0.2,0.7-0.2,1.1c0,0.6,0,1.2,0,1.8c0,0.2,0,0.3,0,0.5c0.1,0.4,0.3,0.7,0.6,1c0.3,0.3,0.7,0.4,1.1,0.4c4.3,0,8.5,0,12.8,0
		c0.4,0,0.8-0.2,1.1-0.5c0.5-0.4,0.7-1,0.7-1.6c0-0.6,0-1.3,0-1.9c0-0.6-0.2-1-0.6-1.4c-0.3-0.3-0.7-0.5-1.1-0.5c-1.2,0-2.3,0-3.5,0
		h-0.2C76.6,449.8,76.6,449.2,76.6,448.5z M56.4,424.9v-0.2c0-1.2,0-2.5,0-3.7c0-0.1,0-0.3,0-0.4c-0.1-0.6-0.4-1-0.8-1.3
		c-0.3-0.2-0.6-0.3-0.9-0.3c-0.6,0-1.2,0-1.8,0c-0.4,0-0.8,0.1-1.2,0.4c-0.5,0.4-0.7,0.9-0.7,1.5c0,4.5,0,9.1,0,13.6
		c0,0.6,0.2,1.1,0.6,1.5c0.3,0.3,0.7,0.5,1.2,0.5c0.6,0,1.3,0,1.9,0c0.1,0,0.2,0,0.3,0c0.4-0.1,0.7-0.3,1-0.6
		c0.3-0.3,0.4-0.7,0.5-1.1c0-1.2,0-2.5,0-3.7v-0.2c0.6,0,1.2,0,1.8,0c0-2,0-3.9,0-5.9C57.6,424.9,57,424.9,56.4,424.9z"/>
	<path d="M76.6,448.5c0,0.7,0,1.3,0,2h0.2c1.2,0,2.3,0,3.5,0c0.4,0,0.8,0.1,1.1,0.5c0.4,0.4,0.6,0.9,0.6,1.4c0,0.6,0,1.3,0,1.9
		c0,0.6-0.2,1.2-0.7,1.6c-0.3,0.3-0.7,0.5-1.1,0.5c-4.3,0-8.5,0-12.8,0c-0.4,0-0.8-0.1-1.1-0.4c-0.3-0.3-0.5-0.6-0.6-1
		c0-0.2,0-0.3,0-0.5c0-0.6,0-1.2,0-1.8c0-0.4,0-0.7,0.2-1.1c0.1-0.3,0.3-0.5,0.5-0.7c0.3-0.3,0.7-0.4,1.1-0.4c1.1,0,2.2,0,3.3,0h0.2
		c0-0.6,0-1.3,0-2h-0.2c-1.2,0-2.4,0-3.6,0c-0.5,0-0.8-0.2-1-0.6c-0.1-0.2-0.2-0.3-0.3-0.5c-0.2-0.3-0.3-0.5-0.3-0.9
		c0-1.1,0-2.1,0-3.2c0-0.1,0-0.2-0.1-0.3c-0.3-0.4-0.7-0.7-1-1.1c-0.4-0.4-0.8-0.8-1.1-1.2c-0.4-0.4-0.7-0.8-1.1-1.2
		c-0.4-0.4-0.8-0.8-1.1-1.2c-0.3-0.3-0.5-0.6-0.7-0.9c-0.1-0.2-0.3-0.4-0.3-0.6l0-0.2c0-7.3,0-14.6,0-21.9c0-0.4,0.1-0.7,0.3-1
		c0.3-0.4,0.7-0.7,1.2-0.8c0.2,0,0.4,0,0.5,0c2.9,0,5.8,0,8.7,0h0.2c0-0.6,0-1.3,0-1.9h-0.2c-1.1,0-2.2,0-3.3,0
		c-0.2,0-0.4,0-0.6-0.1c-0.3-0.1-0.7-0.3-0.9-0.6c-0.2-0.3-0.4-0.5-0.4-0.9c0-0.1-0.1-0.2-0.1-0.3c0-0.7,0-1.4,0-2.1
		c0-0.2,0.1-0.4,0.2-0.6c0.3-0.5,0.7-0.9,1.3-1.1c0.2-0.1,0.4-0.1,0.5-0.1c4.2,0,8.4,0,12.6,0c0.4,0,0.8,0.1,1.1,0.4
		c0.4,0.3,0.7,0.8,0.7,1.3c0,0.8,0,1.6,0,2.4c0,0.5-0.2,0.9-0.5,1.2c-0.1,0.1-0.2,0.2-0.3,0.3c-0.3,0.3-0.7,0.3-1.1,0.3
		c-1,0-2.1,0-3.1,0h-0.2c0,0.7,0,1.3,0,2h0.2c0.5,0,1,0,1.5,0c0.4,0,0.7,0.1,0.9,0.4c0.4,0.4,0.9,0.9,1.3,1.4
		c0.4,0.4,0.8,0.9,1.2,1.3c0.2,0.2,0.4,0.5,0.7,0.7c0.4,0.4,0.8,0.9,1.2,1.3c0.2,0.3,0.5,0.5,0.7,0.8c0.5,0.6,1,1.1,1.5,1.7
		c0.2,0.3,0.5,0.5,0.7,0.8c0.2,0.2,0.4,0.5,0.6,0.8c0.1,0.2,0.2,0.4,0.2,0.5c0,0.3,0,0.7,0,1c0,4.3,0,8.6,0,12.9
		c0,0.4-0.2,0.8-0.5,1.1c-0.3,0.4-0.6,0.8-1,1.1c-0.2,0.2-0.4,0.5-0.6,0.7c-0.4,0.4-0.8,0.9-1.1,1.3c-0.3,0.3-0.5,0.6-0.8,0.9
		c-0.4,0.4-0.7,0.9-1.1,1.3c-0.2,0.2-0.2,0.4-0.2,0.6c0,0.9,0,1.7,0,2.6c0,0.3,0,0.6-0.1,0.8c-0.1,0.2-0.2,0.5-0.3,0.6
		c-0.2,0.4-0.6,0.5-1,0.7c-0.1,0-0.2,0-0.3,0c-1.2,0-2.3,0-3.5,0H76.6z M83.4,433.5L83.4,433.5c-0.2-0.2-0.3-0.3-0.5-0.5
		c-0.2-0.1-0.3-0.3-0.5-0.4c-0.3-0.3-0.6-0.5-0.9-0.8c-0.3-0.3-0.7-0.5-1-0.8c-0.3-0.2-0.6-0.5-0.8-0.7c-0.4-0.3-0.7-0.6-1.1-0.9
		c-0.3-0.3-0.6-0.5-0.9-0.8c-0.3-0.3-0.7-0.5-1-0.8c-0.3-0.3-0.7-0.6-1-0.8c-0.3-0.3-0.6-0.5-0.9-0.8c-0.4-0.3-0.8-0.6-1.2-1
		c-0.2-0.1-0.3-0.3-0.6-0.5c0,1.5,0,3,0,4.5l-0.1-0.1c-0.3-0.2-0.6-0.4-0.9-0.6c-0.4-0.3-0.8-0.5-1.2-0.8c-0.4-0.3-0.9-0.6-1.3-0.8
		c-0.4-0.2-0.8-0.5-1.1-0.7c-0.4-0.3-0.9-0.6-1.3-0.8c-0.3-0.2-0.6-0.4-0.9-0.6c-0.1-0.1-0.3-0.2-0.4-0.3l0,0.1c0,1.5,0,3,0,4.5
		l0.1,0.2c0.4,0.2,0.8,0.4,1.1,0.6c0.5,0.3,1,0.5,1.4,0.8c0.5,0.3,1,0.5,1.5,0.8c0.5,0.3,1,0.5,1.5,0.8c0.5,0.3,1,0.5,1.4,0.8
		c0.2,0.1,0.5,0.3,0.7,0.4c0.4,0.2,0.8,0.4,1.1,0.6c0.1,0.1,0.2,0.1,0.3,0.2c0-1.4,0-2.8,0-4.2c0.1,0.1,0.2,0.1,0.3,0.2
		c0.3,0.1,0.7,0.3,1,0.4c0.3,0.1,0.7,0.3,1,0.4c0.3,0.1,0.7,0.3,1,0.4c0.4,0.1,0.7,0.3,1.1,0.4c0.3,0.1,0.7,0.3,1,0.4
		c0.3,0.1,0.6,0.3,1,0.4c0.4,0.2,0.8,0.3,1.2,0.5c0.2,0.1,0.3,0.1,0.5,0.2C83.1,433.4,83.2,433.5,83.4,433.5z"/>
	<path d="M56.4,424.9c0.6,0,1.2,0,1.8,0c0,2,0,3.9,0,5.9c-0.6,0-1.2,0-1.8,0v0.2c0,1.2,0,2.5,0,3.7c0,0.4-0.2,0.8-0.5,1.1
		c-0.3,0.3-0.6,0.5-1,0.6c-0.1,0-0.2,0-0.3,0c-0.6,0-1.3,0-1.9,0c-0.5,0-0.9-0.2-1.2-0.5c-0.4-0.4-0.6-0.9-0.6-1.5
		c0-4.5,0-9.1,0-13.6c0-0.6,0.2-1.1,0.7-1.5c0.3-0.3,0.7-0.4,1.2-0.4c0.6,0,1.2,0,1.8,0c0.3,0,0.7,0.1,0.9,0.3
		c0.4,0.3,0.7,0.7,0.8,1.3c0,0.1,0,0.3,0,0.4c0,1.2,0,2.5,0,3.7V424.9z"/>
	<path class="st4" d="M83.4,433.5c-0.1-0.1-0.3-0.1-0.4-0.2c-0.2-0.1-0.3-0.1-0.5-0.2c-0.4-0.1-0.8-0.3-1.2-0.5
		c-0.3-0.1-0.6-0.3-1-0.4c-0.3-0.1-0.7-0.3-1-0.4c-0.4-0.1-0.7-0.3-1.1-0.4c-0.3-0.1-0.7-0.3-1-0.4c-0.3-0.1-0.7-0.3-1-0.4
		c-0.3-0.1-0.7-0.3-1-0.4c-0.1,0-0.2-0.1-0.3-0.2c0,1.4,0,2.8,0,4.2c-0.1-0.1-0.2-0.1-0.3-0.2c-0.4-0.2-0.8-0.4-1.1-0.6
		c-0.2-0.1-0.5-0.3-0.7-0.4c-0.5-0.3-1-0.5-1.4-0.8c-0.5-0.3-1-0.5-1.5-0.8c-0.5-0.3-1-0.5-1.5-0.8c-0.5-0.3-1-0.5-1.4-0.8
		c-0.4-0.2-0.8-0.4-1.1-0.6l-0.1-0.2c0-1.5,0-3,0-4.5l0-0.1c0.1,0.1,0.3,0.2,0.4,0.3c0.3,0.2,0.6,0.4,0.9,0.6
		c0.4,0.3,0.9,0.6,1.3,0.8c0.4,0.2,0.8,0.5,1.1,0.7c0.4,0.3,0.9,0.6,1.3,0.8c0.4,0.3,0.8,0.5,1.2,0.8c0.3,0.2,0.6,0.4,0.9,0.6
		l0.1,0.1c0-1.5,0-3,0-4.5c0.2,0.2,0.4,0.3,0.6,0.5c0.4,0.3,0.8,0.6,1.2,1c0.3,0.3,0.6,0.5,0.9,0.8c0.3,0.3,0.7,0.6,1,0.8
		c0.3,0.3,0.7,0.5,1,0.8c0.3,0.3,0.6,0.5,0.9,0.8c0.4,0.3,0.7,0.6,1.1,0.9c0.3,0.2,0.6,0.5,0.8,0.7c0.3,0.3,0.7,0.5,1,0.8
		c0.3,0.3,0.6,0.5,0.9,0.8c0.2,0.1,0.3,0.3,0.5,0.4C83,433.2,83.2,433.3,83.4,433.5L83.4,433.5z"/>
</g>
<polygon class="st5" points="427,541 427,469 395.9,469 395.9,460 339.2,460 339.2,469 277.1,469 277.1,460 220.4,460 220.4,469 
	189.4,469 189.4,541 198.4,541 198.4,597.7 189.4,597.7 189.4,654.4 198.4,654.4 198.4,711.2 189.4,711.2 189.4,785.8 220.4,785.8 
	220.4,794.8 277.1,794.8 277.1,785.8 339,785.8 339,794.8 395.8,794.8 395.8,785.8 427,785.8 427,711.2 418,711.2 418,654.4 
	427,654.4 427,597.7 418,597.7 418,541 "/>
<g>
	<path class="st4" d="M243,515.7c45.5,0,91.1,0,136.6,0c0,73.7,0,147.5,0,221.2c-45.5,0-91.1,0-136.6,0
		C243,663.1,243,589.4,243,515.7z M304.2,636.4c-1,0-1.8,0-2.5,0c-6.8,0-13.6-0.1-20.3,0c-1.4,0-3,0.5-4.3,1.2
		c-4.9,2.7-9.6,5.7-14.5,8.4c-1.1,0.6-1.5,1.2-1.6,2.4c-0.1,4.9-0.3,9.7-0.5,14.6c0,0.6,0.1,1.1,0.3,2.2c1.1-0.8,1.7-1.4,2.4-1.8
		c2.3-1.4,2.1-3.8,2.3-6c0.2-1.5,0.8-2,2.2-2.2c2.2-0.3,4.3-0.9,6.4-1.3c3-0.5,6.1-0.9,9.1-1.3c-1.5,3.7-3,7-4.1,10.5
		c-0.6,1.8-1.6,2.7-3.2,3.4c-3.8,1.5-7.5,3.1-11.2,4.6c-1.2,0.5-1.1,1-0.4,1.8c0.6,0.7,0.9,1.6,1.6,2.1c1.4,1,1.6,3.1,4,3.2
		c4,0.2,7.9,1,11.9,1.4c0.5,0.1,1.1-0.3,1.5-0.6c2-1.7,3.9-3.4,5.9-5.1c3.4-2.9,6.8-5.9,10.3-8.7c0.8-0.6,2.3-1,3.2-0.7
		c4.5,1.6,8.9,3.5,13.4,5.3c2.1,0.8,3.1,2,2.5,4.6c-1,4.5-1.5,9.1-2.2,13.6c-0.7,4.3-1.4,8.5-2,12.8c-0.1,0.9,0,1.9,0.2,2.8
		c0.2,0.9,0.8,1.7,0.7,2.5c-0.6,4.2-1.3,8.4-2.2,12.5c-0.4,1.7,0.2,3,1.3,4.1c1.6,1.7,3.4,3.2,5.1,4.8c0.9,0.9,1.8,0.8,2.5-0.1
		c2.7-3.9,5.3-7.9,7.8-11.9c0.7-1.1,1.4-1.3,2.4-0.6c1.5,1.1,2.9,0.8,4.4-0.2c3.6-2.4,7.2-4.7,10.9-6.9c0.9-0.5,2.1-0.6,3.2-0.5
		c2.3,0.3,4.5,0.8,7,1.3c0-2.3-0.3-4.1,0.1-5.9c0.7-3.5-1.5-5-4.1-6.2c-3-1.4-4.1-3.9-2.7-6.8c1.4-3,2.8-5.9,4.2-8.9
		c0.8-1.8,1.7-3.5,2.5-5.2c2.6-5.8,6.2-11,7.2-17.6c0.7-4.2-0.7-7.1-2.3-10.5c-1.9-3.9-4.2-7.7-3.5-12.6c1-7,1.2-14.1,1.6-21.1
		c0.4-7,0.7-14,1.1-21c0.1-1.8,0-3.3-1.5-4.7c-1.3-1.2-2.1-3.1-3.1-4.6c-2-3.1-4-6.3-6.1-9.3c-2.4-3.6-5-7.2-7.4-10.9
		c-2.1-3.2-4.2-6.3-6.4-9.5c-0.4-0.5-0.9-1-1.5-1.2c-2.5-1-5.2-1.6-7.5-2.9c-3.5-2.1-7.2-3.2-11.3-3.5c-3.3-0.2-6.6-0.2-9.7-1.1
		c-4.4-1.2-9.3-0.4-13.4-3.4c-3-2.3-6.5-3.9-9.8-5.8c-3.1-1.9-6.2-3.9-9.3-5.6c-0.6-0.3-1.7-0.2-2.3,0.2c-3.5,2.3-6.9,4.6-10.2,7.2
		c-0.8,0.6-1.4,2-1.4,3c-0.1,4.3,0,8.7,0,13c0,0.5,0.2,1,0.3,2.1c1.5-1.1,3.3-1.7,3.8-2.9c0.9-2,1-4.3,1.5-7c1.7,0.1,4-0.3,5.5,0.5
		c2,1.2,3.5,3.4,5.2,5.1c2.6,2.7,5.1,5.4,7.7,8c2.4,2.5,5,4.8,7.4,7.3c0.2,0.2,0,1.2-0.3,1.4c-2.7,1.9-5.6,3.7-8.3,5.6
		c-2.6,1.8-5,3.7-7.6,5.4c-3.9,2.7-7.8,5.3-11.7,7.9c-2.1,1.4-3.6,2.9-3.5,6c0.2,7.8-0.1,15.5-0.1,23.3c0,0.7,0.1,1.4,0.2,2.3
		c2.9-0.3,5.2-1.3,6.3-3.8c1.2-2.8,2.3-5.7,3.1-8.7c0.5-2,1.6-2.7,3.5-2.9c5.6-0.4,11.3-0.7,16.8-1.4c2.6-0.3,3.5,0.8,4.1,2.9
		c1.9,6.5,3.9,13,5.8,19.5c0.1,0.5,0.4,1,0.5,1.5C302,629.3,303.1,632.7,304.2,636.4z"/>
</g>
<path d="M304.2,636.4c-1.2-3.8-2.2-7.2-3.3-10.6c-0.2-0.5-0.4-1-0.5-1.5c-1.9-6.5-3.9-13-5.8-19.5c-0.6-2.1-1.5-3.2-4.1-2.9
	c-5.6,0.7-11.2,1-16.8,1.4c-1.9,0.1-2.9,0.9-3.5,2.9c-0.8,3-1.9,5.9-3.1,8.7c-1.1,2.5-3.4,3.5-6.3,3.8c-0.1-0.8-0.2-1.6-0.2-2.3
	c0.1-7.8,0.4-15.5,0.1-23.3c-0.1-3.1,1.4-4.6,3.5-6c3.9-2.6,7.8-5.3,11.7-7.9c2.6-1.8,5-3.7,7.6-5.4c2.8-1.9,5.6-3.7,8.3-5.6
	c0.3-0.2,0.5-1.2,0.3-1.4c-2.4-2.5-5-4.8-7.4-7.3c-2.6-2.6-5.1-5.3-7.7-8c-1.7-1.8-3.2-3.9-5.2-5.1c-1.5-0.9-3.7-0.4-5.5-0.5
	c-0.5,2.7-0.6,5-1.5,7c-0.5,1.2-2.3,1.8-3.8,2.9c-0.2-1.1-0.3-1.6-0.3-2.1c0-4.3-0.1-8.7,0-13c0-1,0.6-2.4,1.4-3
	c3.3-2.5,6.7-4.9,10.2-7.2c0.6-0.4,1.7-0.5,2.3-0.2c3.2,1.8,6.2,3.8,9.3,5.6c3.3,2,6.8,3.6,9.8,5.8c4.1,3,9,2.2,13.4,3.4
	c3.1,0.9,6.5,0.9,9.7,1.1c4.1,0.3,7.7,1.4,11.3,3.5c2.3,1.3,5,1.9,7.5,2.9c0.6,0.2,1.2,0.7,1.5,1.2c2.2,3.1,4.3,6.3,6.4,9.5
	c2.5,3.6,5,7.2,7.4,10.9c2.1,3.1,4.1,6.2,6.1,9.3c1,1.6,1.8,3.4,3.1,4.6c1.5,1.4,1.6,3,1.5,4.7c-0.4,7-0.6,14-1.1,21
	c-0.4,7-0.6,14.1-1.6,21.1c-0.7,4.9,1.7,8.7,3.5,12.6c1.6,3.4,3,6.2,2.3,10.5c-1,6.6-4.6,11.8-7.2,17.6c-0.8,1.8-1.7,3.5-2.5,5.2
	c-1.4,3-2.9,5.9-4.2,8.9c-1.3,2.9-0.3,5.4,2.7,6.8c2.6,1.2,4.8,2.6,4.1,6.2c-0.3,1.7-0.1,3.6-0.1,5.9c-2.5-0.5-4.8-1-7-1.3
	c-1-0.1-2.3,0-3.2,0.5c-3.7,2.2-7.3,4.5-10.9,6.9c-1.5,1-2.8,1.3-4.4,0.2c-1-0.7-1.7-0.5-2.4,0.6c-2.6,4-5.2,8-7.8,11.9
	c-0.6,1-1.6,1-2.5,0.1c-1.7-1.6-3.5-3.1-5.1-4.8c-1.1-1.1-1.6-2.3-1.3-4.1c0.9-4.1,1.6-8.3,2.2-12.5c0.1-0.8-0.6-1.7-0.7-2.5
	c-0.2-0.9-0.3-1.9-0.2-2.8c0.6-4.3,1.4-8.5,2-12.8c0.7-4.6,1.2-9.2,2.2-13.6c0.6-2.6-0.4-3.8-2.5-4.6c-4.4-1.8-8.9-3.7-13.4-5.3
	c-0.9-0.3-2.4,0.1-3.2,0.7c-3.5,2.8-6.9,5.8-10.3,8.7c-2,1.7-3.9,3.4-5.9,5.1c-0.4,0.3-1,0.7-1.5,0.6c-4-0.4-7.9-1.2-11.9-1.4
	c-2.3-0.1-2.6-2.3-4-3.2c-0.7-0.5-1.1-1.4-1.6-2.1c-0.7-0.8-0.8-1.4,0.4-1.8c3.7-1.5,7.4-3.1,11.2-4.6c1.7-0.6,2.6-1.6,3.2-3.4
	c1.1-3.5,2.7-6.9,4.1-10.5c-3,0.4-6,0.8-9.1,1.3c-2.2,0.4-4.3,1-6.4,1.3c-1.4,0.2-2,0.7-2.2,2.2c-0.2,2.2,0,4.6-2.3,6
	c-0.7,0.4-1.4,1-2.4,1.8c-0.2-1.1-0.3-1.6-0.3-2.2c0.1-4.9,0.3-9.7,0.5-14.6c0-1.2,0.4-1.8,1.6-2.4c4.9-2.7,9.6-5.7,14.5-8.4
	c1.3-0.7,2.8-1.2,4.3-1.2c6.8-0.1,13.6,0,20.3,0C302.5,636.5,303.2,636.4,304.2,636.4z M359.3,590.4c-0.4-0.9-0.7-1.5-1-2
	c-1.9-2.8-3.8-5.7-5.7-8.5c-1.9-2.9-3.7-5.8-5.5-8.7c-2.8-4.3-5.5-8.6-8.6-12.7c-1.2-1.6-1.5-4.1-4.4-4.2c-5.5-0.2-11-0.9-16.6-1.2
	c-0.7,0-1.5,0.2-2.1,0.6c-3.2,2.1-6.4,4.4-9.5,6.6c-2.7,1.9-5.3,3.8-7.9,5.6c-3.5,2.5-7.1,4.9-10.6,7.4c-3.5,2.5-7.1,4.9-10.6,7.4
	c-4,2.8-7.9,5.7-12,8.4c-1.5,0.9-1.5,1.5-0.7,2.8c1.7,2.6,3.2,5.2,4.8,7.8c1.3,2.1,2.9,3.3,5.7,2.6c2.2-0.6,4.5-0.8,6.7-1.1
	c6.1-0.8,12.2-1.4,18.3-2.2c7.2-0.9,14.4-2,21.6-3c9-1.3,18-2.8,26.9-4.1C351.5,591.2,355.2,590.9,359.3,590.4z M360.2,591.5
	c-2.4,0.6-4.1,1.1-5.9,1.3c-5.2,0.8-10.5,1.6-15.7,2.4c-4.9,0.7-9.9,1.5-14.8,2.2c-8.5,1.2-17,2.4-25.5,3.5
	c-3.3,0.4-3.4,0.7-2.4,3.8c1.9,5.8,3.8,11.5,5.7,17.3c1.2,4,2.3,8,3.4,12c1.2,4.3,1.5,4.5,5.9,4.5c14.8,0.3,29.5,0.6,44.3,0.9
	c0.7,0,1.3,0,2.2,0C358.3,623.4,359.2,607.7,360.2,591.5z M363.8,653.4c-1.7-3.5-3.4-6.7-4.8-9.9c-0.7-1.7-1.7-2.4-3.6-2.4
	c-8-0.2-15.9-0.7-23.9-0.9c-11.6-0.3-23.1-0.5-34.7-0.7c-0.9,0-2.2,0.6-2.8,1.3c-2.6,3.5-5.1,7.1-7.6,10.8c-0.7,1-1.3,2.2-2,3.3
	c3.6,1.5,6.9,3,10.3,4.4c4.8,2,9.6,3.9,14.4,5.8c2,0.8,4.3,1.3,6,2.5c2.9,2,5.8,2.2,9,0.9c0.7-0.3,1.3-0.8,2-1
	c6.1-2.3,12.2-4.6,18.3-6.9C350.7,658.2,357.1,655.9,363.8,653.4z M320.7,671.5c-1.1,7.5-2.1,14.5-3.2,21.5c-0.4,2.8-1,5.5-1.4,8.3
	c-0.1,0.6,0.2,1.6,0.6,1.9c5.5,3.6,11.2,7.1,16.8,10.6c0.4,0.2,1.2,0.2,1.6,0c3.5-2.1,6.9-4.3,10.4-6.6c1.6-1.1,2.5-2.4,2.6-4.5
	c0.1-3.2,0.9-6.4,1.2-9.6c0.1-1.1-0.1-2.7-0.8-3.3c-1.7-1.6-3.8-2.9-5.8-4.2c-6-3.9-11.9-7.8-17.9-11.6
	C323.5,673.2,322.3,672.5,320.7,671.5z M363.3,655.2c-3.5,1.4-6.7,2.7-10,4c-7.4,2.8-14.8,5.4-22.2,8.2c-2.2,0.8-4.5,1.6-6.7,2.5
	c-0.5,0.2-1,0.7-1.6,1.1c4,2.6,7.7,5,11.4,7.5c4.5,2.9,8.9,5.8,13.3,8.8c1.6,1,2.4,1.3,3.4-0.9c2-4.6,4.4-9.1,6.6-13.7
	c0.9-1.9,1.7-3.8,2.7-5.6C362.2,663.4,363.9,659.9,363.3,655.2z M274.2,532.1c-0.5,3.1-1,5.9-1.5,8.6c-0.4,2.3-0.7,4.3,1.8,6.2
	c2.9,2.3,5.2,5.4,7.8,8.1c3.4,3.4,6.9,6.7,10.4,10c0.6,0.5,1.3,0.9,2,1.3c0.4-0.8,1.1-1.7,1.1-2.5c0.1-5.9,0.1-11.7,0.1-17.6
	c0-0.7-0.5-1.7-1-2.1c-1.3-1-2.8-1.6-4.2-2.5c-3.4-2-6.7-4.1-10.1-6.1C278.6,534.3,276.5,533.3,274.2,532.1z M294.1,637.7
	c-5,0-9.3,0-13.7,0c-0.3,0-0.5,0.2-0.8,0.3c-5,2.8-9.9,5.8-15,8.5c-1.4,0.8-1.8,1.5-1,2.8c0.5,0.9,1.2,1.7,1.5,2.7
	c0.5,1.3,1.2,1.7,2.6,1.5c4.5-0.9,9.1-1.7,13.6-2.3c2.4-0.3,4.3-0.7,5.7-3.1C289,644.6,291.5,641.5,294.1,637.7z M283.6,656.4
	c-2.7,7.1-5.2,13.9-7.8,20.8c2.3,0.2,4,0.5,5.6,0.6c0.6,0,1.4-0.1,1.9-0.5c3.4-2.9,6.8-5.9,10.2-8.9c2-1.7,4-3.5,6.2-5.4
	C294.3,660.8,289.2,658.7,283.6,656.4z M297.7,564.1c2.2-1.5,4.1-2.8,6-4.1c2.7-1.9,5.6-3.6,8.1-5.7c3.2-2.7,6.5-3.5,10.6-2.5
	c2.1,0.5,4.3,0.4,6.5,0.5c0.1-0.4,0.1-0.8,0.2-1.2c-3.7-1-7.4-2.1-11.2-2.9c-2.2-0.5-4.5-0.5-6.8-0.8c-4.3-0.6-8.6-1.2-13.1-1.9
	c-0.1,0.8-0.2,1.2-0.2,1.5C297.7,552.6,297.7,558.1,297.7,564.1z M320.4,726c0.3-0.2,0.5-0.3,0.6-0.4c2.7-3.7,5.4-7.4,7.9-11.2
	c0.2-0.3-0.1-1.5-0.6-1.8c-3.1-2.1-6.3-4.1-9.5-6.1c-0.6-0.3-1.3-0.5-1.8-0.7c-0.9,4.6-1.8,8.9-2.6,13.2c-0.1,0.6,0,1.4,0.4,1.8
	C316.6,722.5,318.5,724.2,320.4,726z M261.9,616.5c2.3,0,3.5-0.8,3.9-2.7c0.2-0.9,0.9-1.8,1.1-2.7c0.4-3.3,4-6.2,1.2-10
	c-1.8-2.5-3.4-5.1-5.3-8.1C262.4,601.1,262.2,608.7,261.9,616.5z M272.5,533.1c-0.2-0.1-0.3-0.2-0.5-0.3c-1.8,1.3-3.4,2.7-5.3,3.8
	c-4.2,2.4-4.5,3.4-1.4,7c1,1.2,5.1,1,5.3-0.4C271.3,539.9,271.9,536.5,272.5,533.1z M277.5,667.6c-4.1,1.6-7.7,3.1-11.4,4.5
	c0.9,1.3,1.6,2.4,2.4,3.4c1,1.3,5.5,1.6,6,0.4C275.5,673.3,276.4,670.6,277.5,667.6z M350.2,697.2c-0.2,2.3-0.5,4.7-0.6,7
	c0,0.5,0.6,1.2,1.1,1.4c1.8,0.5,3.6,0.9,5.4,1.3C357.7,702,355.4,698.1,350.2,697.2z M263.2,652.1c-0.1,0-0.3,0.1-0.4,0.1
	c-0.1,3.1-0.3,6.2-0.4,9.4c0.2,0,0.5,0.1,0.7,0.1c0.5-2.3,1.2-4.6,1.5-7C264.7,653.9,263.7,653,263.2,652.1z M262.5,552.8
	c2.7-2.5,2.6-7.4,0-9.6C262.5,546.3,262.5,549.3,262.5,552.8z"/>
<path class="st4" d="M359.3,590.4c-4.2,0.5-7.8,0.9-11.4,1.4c-9,1.3-18,2.8-26.9,4.1c-7.2,1.1-14.4,2.1-21.6,3
	c-6.1,0.8-12.2,1.4-18.3,2.2c-2.3,0.3-4.6,0.4-6.7,1.1c-2.8,0.8-4.4-0.5-5.7-2.6c-1.6-2.6-3.2-5.2-4.8-7.8c-0.8-1.3-0.7-1.9,0.7-2.8
	c4.1-2.6,8-5.6,12-8.4c3.5-2.5,7.1-4.9,10.6-7.4c3.5-2.5,7.1-4.9,10.6-7.4c2.7-1.9,5.3-3.8,7.9-5.6c3.2-2.2,6.3-4.4,9.5-6.6
	c0.6-0.4,1.4-0.7,2.1-0.6c5.5,0.4,11,1,16.6,1.2c2.9,0.1,3.2,2.7,4.4,4.2c3.1,4.1,5.8,8.4,8.6,12.7c1.9,2.9,3.7,5.8,5.5,8.7
	c1.9,2.9,3.8,5.7,5.7,8.5C358.7,588.9,358.9,589.5,359.3,590.4z"/>
<path class="st4" d="M360.2,591.5c-1,16.3-1.9,31.9-2.9,47.9c-0.9,0-1.5,0-2.2,0c-14.8-0.3-29.5-0.6-44.3-0.9
	c-4.4-0.1-4.7-0.3-5.9-4.5c-1.1-4-2.2-8-3.4-12c-1.8-5.8-3.7-11.6-5.7-17.3c-1-3.1-0.9-3.3,2.4-3.8c8.5-1.1,17-2.3,25.5-3.5
	c4.9-0.7,9.9-1.5,14.8-2.2c5.2-0.8,10.5-1.5,15.7-2.4C356.1,592.5,357.8,592,360.2,591.5z"/>
<path class="st4" d="M363.8,653.4c-6.7,2.5-13,4.8-19.4,7.1c-6.1,2.3-12.2,4.6-18.3,6.9c-0.7,0.3-1.3,0.7-2,1c-3.1,1.4-6,1.1-9-0.9
	c-1.8-1.2-4-1.7-6-2.5c-4.8-1.9-9.6-3.8-14.4-5.8c-3.4-1.4-6.7-2.9-10.3-4.4c0.7-1.1,1.3-2.3,2-3.3c2.5-3.6,4.9-7.3,7.6-10.8
	c0.6-0.7,1.8-1.3,2.8-1.3c11.6,0.1,23.1,0.4,34.7,0.7c8,0.2,15.9,0.7,23.9,0.9c1.9,0.1,2.8,0.7,3.6,2.4
	C360.3,646.7,362,649.9,363.8,653.4z"/>
<path class="st4" d="M320.7,671.5c1.5,0.9,2.8,1.6,4,2.4c6,3.9,12,7.7,17.9,11.6c2,1.3,4.1,2.6,5.8,4.2c0.7,0.6,0.9,2.2,0.8,3.3
	c-0.3,3.2-1.1,6.4-1.2,9.6c-0.1,2.2-1,3.5-2.6,4.5c-3.4,2.2-6.9,4.4-10.4,6.6c-0.4,0.3-1.2,0.3-1.6,0c-5.6-3.5-11.2-7-16.8-10.6
	c-0.4-0.3-0.7-1.3-0.6-1.9c0.4-2.8,1-5.5,1.4-8.3C318.6,686,319.6,679,320.7,671.5z"/>
<path class="st4" d="M363.3,655.2c0.6,4.7-1.1,8.3-3,11.8c-1,1.8-1.8,3.7-2.7,5.6c-2.2,4.6-4.6,9.1-6.6,13.7
	c-0.9,2.1-1.8,1.9-3.4,0.9c-4.4-3-8.9-5.9-13.3-8.8c-3.7-2.4-7.5-4.9-11.4-7.5c0.6-0.4,1-0.9,1.6-1.1c2.2-0.9,4.5-1.7,6.7-2.5
	c7.4-2.7,14.8-5.4,22.2-8.2C356.6,657.9,359.8,656.5,363.3,655.2z"/>
<path class="st4" d="M274.2,532.1c2.3,1.2,4.4,2.3,6.3,3.4c3.4,2,6.7,4.1,10.1,6.1c1.4,0.8,2.9,1.5,4.2,2.5c0.6,0.4,1,1.4,1,2.1
	c0.1,5.9,0.1,11.7-0.1,17.6c0,0.8-0.7,1.7-1.1,2.5c-0.7-0.4-1.4-0.8-2-1.3c-3.5-3.3-7-6.6-10.4-10c-2.7-2.7-4.9-5.8-7.8-8.1
	c-2.4-1.9-2.2-3.9-1.8-6.2C273.2,538,273.7,535.2,274.2,532.1z"/>
<path class="st4" d="M294.1,637.7c-2.6,3.8-5.1,6.9-7,10.3c-1.4,2.5-3.3,2.8-5.7,3.1c-4.6,0.7-9.1,1.5-13.6,2.3
	c-1.4,0.3-2.1-0.1-2.6-1.5c-0.3-1-1-1.8-1.5-2.7c-0.8-1.3-0.4-2,1-2.8c5-2.7,10-5.7,15-8.5c0.2-0.1,0.5-0.3,0.8-0.3
	C284.7,637.7,289.1,637.7,294.1,637.7z"/>
<path class="st4" d="M283.6,656.4c5.6,2.3,10.7,4.3,16.1,6.6c-2.2,2-4.2,3.7-6.2,5.4c-3.4,3-6.7,6-10.2,8.9
	c-0.5,0.4-1.3,0.5-1.9,0.5c-1.7-0.1-3.3-0.3-5.6-0.6C278.4,670.3,280.9,663.6,283.6,656.4z"/>
<path class="st4" d="M297.7,564.1c0-5.9,0-11.5,0-17c0-0.4,0.1-0.7,0.2-1.5c4.4,0.6,8.8,1.3,13.1,1.9c2.3,0.3,4.6,0.4,6.8,0.8
	c3.8,0.8,7.5,1.9,11.2,2.9c-0.1,0.4-0.1,0.8-0.2,1.2c-2.2-0.2-4.4,0-6.5-0.5c-4.1-1-7.4-0.2-10.6,2.5c-2.5,2.1-5.4,3.8-8.1,5.7
	C301.8,561.2,299.9,562.5,297.7,564.1z"/>
<path class="st4" d="M320.4,726c-1.9-1.8-3.8-3.5-5.6-5.3c-0.4-0.4-0.5-1.2-0.4-1.8c0.8-4.3,1.7-8.6,2.6-13.2
	c0.6,0.2,1.3,0.3,1.8,0.7c3.2,2,6.4,4,9.5,6.1c0.4,0.3,0.8,1.4,0.6,1.8c-2.6,3.8-5.3,7.5-7.9,11.2
	C320.9,725.7,320.6,725.8,320.4,726z"/>
<path class="st4" d="M261.9,616.5c0.3-7.8,0.6-15.4,0.9-23.5c1.9,3,3.5,5.6,5.3,8.1c2.8,3.8-0.8,6.7-1.2,10
	c-0.1,0.9-0.9,1.8-1.1,2.7C265.3,615.7,264.2,616.5,261.9,616.5z"/>
<path class="st4" d="M272.5,533.1c-0.6,3.4-1.1,6.8-1.8,10.1c-0.3,1.3-4.3,1.6-5.3,0.4c-3.1-3.6-2.9-4.6,1.4-7
	c1.9-1.1,3.5-2.5,5.3-3.8C272.1,533,272.3,533.1,272.5,533.1z"/>
<path class="st4" d="M277.5,667.6c-1.1,3.1-2,5.7-3,8.3c-0.5,1.2-4.9,0.9-6-0.4c-0.8-1-1.5-2.1-2.4-3.4
	C269.8,670.6,273.4,669.2,277.5,667.6z"/>
<path class="st4" d="M350.2,697.2c5.2,0.9,7.4,4.8,5.9,9.7c-1.8-0.4-3.6-0.8-5.4-1.3c-0.5-0.1-1.1-0.9-1.1-1.4
	C349.8,701.8,350,699.5,350.2,697.2z"/>
<path class="st4" d="M263.2,652.1c0.5,0.9,1.5,1.8,1.4,2.6c-0.3,2.4-1,4.7-1.5,7c-0.2,0-0.5-0.1-0.7-0.1c0.1-3.1,0.3-6.2,0.4-9.4
	C263,652.2,263.1,652.2,263.2,652.1z"/>
<path class="st4" d="M262.5,552.8c0-3.4,0-6.5,0-9.6C265.1,545.4,265.2,550.3,262.5,552.8z"/>
</svg>
