<?xml version="1.0" encoding="utf-8"?>
<!-- Generator: Adobe Illustrator 23.0.6, SVG Export Plug-In . SVG Version: 6.00 Build 0)  -->
<svg version="1.1" id="Layer_1" xmlns="http://www.w3.org/2000/svg" xmlns:xlink="http://www.w3.org/1999/xlink" x="0px" y="0px"
	 viewBox="0 0 1101.2 742" style="enable-background:new 0 0 1101.2 742;" xml:space="preserve">
<style type="text/css">
	.st0{fill:none;stroke:#000000;stroke-miterlimit:10;}
	.st1{fill:#777777;stroke:#FF0000;stroke-width:0.5;stroke-linecap:round;}
	.st2{fill:#777777;stroke:#FF0000;stroke-width:0.5;stroke-linecap:round;stroke-miterlimit:3.9998;}
	.st3{fill:#FFFFFF;}
	.st4{fill:#777777;stroke:#E10000;stroke-width:0.5;stroke-linecap:round;}
	.st5{fill:none;stroke:#000000;}
	.st6{fill:none;stroke:#FF0000;stroke-width:0.5;stroke-linecap:round;}
	.st7{font-family:'ArialMT';}
	.st8{font-size:16.0236px;}
	.st9{fill:#FFFFFF;stroke:#FF0000;stroke-width:0.5;stroke-linecap:round;}
	.st10{fill:none;stroke:#FF0000;stroke-width:0.5;stroke-miterlimit:10;}
	.st11{fill:none;stroke:#FF0000;stroke-width:0.5;}
	.st12{stroke:#000000;stroke-miterlimit:10;}
</style>
<path id="top_outsideCutPath_9_" vector-effect="non-scaling-stroke" class="st0" d="M711.4,21"/>
<path id="top_outsideCutPath_11_" vector-effect="non-scaling-stroke" class="st0" d="M881.5,21"/>
<g>
	<circle class="st1" cx="966.3" cy="300.2" r="18.4"/>
	<circle class="st1" cx="966.3" cy="229.5" r="18.4"/>
	<circle class="st1" cx="966.3" cy="88" r="18.4"/>
	<circle class="st1" cx="966.3" cy="158.7" r="18.4"/>
</g>
<image style="overflow:visible;enable-background:new    ;" width="1600" height="1600" xlink:href="Images/engine.jpg"  transform="matrix(-6.269217e-18 -3.412803e-02 3.004271e-02 -5.518756e-18 884.2284 115.3234)">
</image>
<image style="overflow:visible;enable-background:new    ;" width="530" height="530" xlink:href="Images/brain.jpg"  transform="matrix(-1.629228e-17 -8.869101e-02 8.304498e-02 -1.525512e-17 884.5973 182.2505)">
</image>
<image style="overflow:visible;enable-background:new    ;" width="421" height="402" xlink:href="Images/analog-png-7.png"  transform="matrix(-2.823423e-17 -0.1537 0.111 -2.039037e-17 884.2933 261.8276)">
</image>
<ellipse class="st2" cx="521.3" cy="98.3" rx="11.3" ry="11.3"/>
<circle class="st1" cx="521.3" cy="153.3" r="11.3"/>
<g>
	<path class="st3" d="M592.4,153.4c-17.9,0-35.8,0-53.7,0c0-19.3,0-38.7,0-58c17.9,0,35.8,0,53.7,0
		C592.4,114.7,592.4,134.1,592.4,153.4z M573,99c-0.2,0-0.4,0-0.5,0c-4.2,0-8.4,0-12.6,0c-3.2,0-6.3,0-9.5,0c-0.2,0-0.4,0-0.7,0.1
		c-0.6,0.1-0.9,0.8-0.9,1.5c0,15.8,0,31.5,0,47.3c0,0.1,0,0.2,0,0.3c0.1,0.5,0.3,1,0.8,1.2c0.3,0.1,0.5,0.2,0.8,0.2
		c7.3,0,14.6,0,21.9,0c0.6,0,0.6,0,0.6-0.6c0-16.5,0-33,0-49.6C573,99.3,573,99.2,573,99z M579.1,105.5c0-0.2,0-0.3,0-0.4
		c0-2.6,0-5.2,0-7.8c0-0.8-0.5-1.4-1.4-1.4c-0.6,0-1.3,0-1.9,0c-0.9,0-1.4,0.6-1.4,1.4c0,17.8,0,35.7,0,53.5c0,0.1,0,0.3,0,0.4
		c0,0.8,0.7,1.4,1.4,1.4c0.6,0,1.3,0,1.9,0c0.1,0,0.3,0,0.4-0.1c0.7-0.3,1-0.8,1-1.5c0-2.4,0-4.8,0-7.1c0-0.1,0-0.2,0-0.3
		c0.8,0,1.5,0,2.3,0c0.7,0,1.4-0.6,1.4-1.3c0-0.2,0-0.3,0-0.5c0-1.8,0-3.7,0-5.5c0-0.7-0.6-1.4-1.4-1.4c-0.6,0-1.1,0-1.7,0
		c-0.2,0-0.4,0-0.6,0c0-6.9,0-13.8,0-20.7c0.1,0,0.2,0,0.3,0c0.7,0,1.3,0,2,0c0.8,0,1.3-0.7,1.3-1.3c0-2,0-4.1,0-6.1
		c0-0.5-0.2-0.8-0.6-1.1c-0.3-0.2-0.5-0.2-0.8-0.2C580.5,105.5,579.8,105.5,579.1,105.5z"/>
	<path d="M573,99c0,0.2,0,0.3,0,0.4c0,16.5,0,33,0,49.6c0,0.6,0,0.6-0.6,0.6c-7.3,0-14.6,0-21.9,0c-0.3,0-0.6-0.1-0.8-0.2
		c-0.5-0.2-0.8-0.6-0.8-1.2c0-0.1,0-0.2,0-0.3c0-15.8,0-31.5,0-47.3c0-0.7,0.4-1.4,0.9-1.5c0.2-0.1,0.4-0.1,0.7-0.1
		c3.2,0,6.3,0,9.5,0c4.2,0,8.4,0,12.6,0C572.6,99,572.8,99,573,99z M563.1,111.1c0,0.1,0,0.2,0,0.3c0,0.6,0,1.2,0,1.8
		c0,0.4,0.3,0.7,0.6,0.7c0.5,0,1.1,0,1.6,0c0.1,0,0.2-0.1,0.3-0.1c0.2-0.2,0.3-0.4,0.3-0.7c0-0.7,0-1.4,0-2.1c0.1,0,0.2,0,0.3,0
		c0.5,0,1.1,0,1.6,0c0.5,0,0.7-0.2,0.7-0.6c0-0.6,0-1.2,0-1.8c0-0.4-0.2-0.6-0.7-0.6c-0.6,0-1.2,0-1.7,0c-0.1,0-0.2,0-0.3,0
		c0-0.5,0-0.9,0-1.4c0-0.3,0-0.6,0-0.9c0-0.4-0.3-0.5-0.6-0.5c-0.5,0-1,0-1.5,0c-0.5,0-0.7,0.2-0.7,0.7c0,0.5,0,1.1,0,1.6
		c0,0.2,0,0.4,0,0.6c-0.7,0-1.3,0-1.9,0c-0.5,0-0.7,0.2-0.7,0.7c0,0.5,0,1,0,1.6c0,0.4,0.2,0.8,0.8,0.8
		C561.8,111.1,562.5,111.1,563.1,111.1z M563.1,139.3c0,1.1,0,2.2,0,3.3c0,0.5,0.3,0.7,0.7,0.7c0.4,0,0.9,0,1.3,0
		c0.5,0,0.8-0.2,0.8-0.8c0-0.4,0-0.9,0-1.3c0-1.7,0-3.4,0-5.1c0-0.7-0.2-0.9-0.9-0.9c-0.4,0-0.7,0-1.1,0c-0.6,0-0.8,0.2-0.8,0.8
		C563.1,137.1,563.1,138.2,563.1,139.3z"/>
	<path d="M579.1,105.5c0.7,0,1.4,0,2.2,0c0.3,0,0.6,0,0.8,0.2c0.4,0.3,0.6,0.6,0.6,1.1c0,2,0,4.1,0,6.1c0,0.6-0.6,1.4-1.3,1.3
		c-0.7,0-1.3,0-2,0c-0.1,0-0.2,0-0.3,0c0,6.9,0,13.8,0,20.7c0.2,0,0.4,0,0.6,0c0.6,0,1.1,0,1.7,0c0.8-0.1,1.4,0.7,1.4,1.4
		c0,1.8,0,3.7,0,5.5c0,0.2,0,0.3,0,0.5c0,0.7-0.7,1.4-1.4,1.3c-0.7,0-1.5,0-2.3,0c0,0.1,0,0.2,0,0.3c0,2.4,0,4.8,0,7.1
		c0,0.7-0.3,1.2-1,1.5c-0.1,0-0.3,0-0.4,0.1c-0.6,0-1.3,0-1.9,0c-0.8,0-1.4-0.6-1.4-1.4c0-0.1,0-0.3,0-0.4c0-17.8,0-35.7,0-53.5
		c0-0.9,0.5-1.5,1.4-1.4c0.6,0,1.3,0,1.9,0c0.8,0,1.4,0.6,1.4,1.4c0,2.6,0,5.2,0,7.8C579.1,105.2,579.1,105.3,579.1,105.5z"/>
	<path class="st3" d="M563.1,111.1c-0.7,0-1.3,0-1.9,0c-0.5,0-0.8-0.3-0.8-0.8c0-0.5,0-1,0-1.6c0-0.5,0.2-0.7,0.7-0.7
		c0.6,0,1.3,0,1.9,0c0-0.2,0-0.4,0-0.6c0-0.5,0-1.1,0-1.6c0-0.5,0.2-0.7,0.7-0.7c0.5,0,1,0,1.5,0c0.4,0,0.6,0.2,0.6,0.5
		c0,0.3,0,0.6,0,0.9c0,0.5,0,0.9,0,1.4c0.1,0,0.2,0,0.3,0c0.6,0,1.2,0,1.7,0c0.4,0,0.7,0.2,0.7,0.6c0,0.6,0,1.2,0,1.8
		c0,0.5-0.3,0.6-0.7,0.6c-0.5,0-1.1,0-1.6,0c-0.1,0-0.2,0-0.3,0c0,0.7,0,1.4,0,2.1c0,0.3-0.1,0.5-0.3,0.7c-0.1,0.1-0.2,0.1-0.3,0.1
		c-0.5,0-1.1,0-1.6,0c-0.3,0-0.6-0.3-0.6-0.7c0-0.6,0-1.2,0-1.8C563.1,111.4,563.1,111.3,563.1,111.1z"/>
	<path class="st3" d="M563.1,139.3c0-1.1,0-2.2,0-3.2c0-0.6,0.2-0.8,0.8-0.8c0.4,0,0.7,0,1.1,0c0.7,0,0.9,0.2,0.9,0.9
		c0,1.7,0,3.4,0,5.1c0,0.4,0,0.9,0,1.3c0,0.5-0.2,0.8-0.8,0.8c-0.4,0-0.9,0-1.3,0c-0.5,0-0.7-0.3-0.7-0.7
		C563.1,141.5,563.1,140.4,563.1,139.3z"/>
</g>
<g>
	<path class="st3" d="M594,298.2c-19,0-38,0-57,0c0-20.5,0-41.1,0-61.6c19,0,38,0,57,0C594,257.1,594,277.6,594,298.2z M559.2,245.9
		c-0.1,0-0.2,0-0.2,0c-1.4,0-2.7,0-4.1,0c-0.1,0-0.3,0-0.4,0.1c-0.5,0.2-0.9,0.4-1.2,0.8c-0.2,0.2-0.3,0.5-0.4,0.8
		c-0.1,0.3-0.1,0.7-0.1,1c0,1,0,2,0,3c0,0.3,0,0.5-0.2,0.7c-0.5,0.5-0.9,1-1.3,1.5c-0.3,0.4-0.6,0.7-0.9,1.1
		c-0.5,0.5-0.9,1.1-1.3,1.6c-0.3,0.3-0.5,0.6-0.8,0.9c-0.4,0.4-0.8,0.9-1.1,1.3c-0.3,0.4-0.6,0.8-0.6,1.4c0,5.1,0,10.2,0,15.4
		c0,0.4,0,0.8,0,1.2c0,0.2,0.1,0.5,0.2,0.6c0.2,0.3,0.5,0.6,0.7,0.9c0.3,0.3,0.6,0.6,0.9,0.9c0.6,0.7,1.2,1.3,1.8,2
		c0.3,0.3,0.6,0.6,0.9,0.9c0.5,0.5,0.9,1,1.4,1.5c0.3,0.3,0.5,0.6,0.8,0.9c0.5,0.5,1,1,1.4,1.5c0.5,0.5,1,1.1,1.5,1.6
		c0.3,0.3,0.7,0.4,1.1,0.4c0.6,0,1.2,0,1.8,0c0.1,0,0.1,0,0.2,0c0,0.8,0,1.5,0,2.3c-0.1,0-0.1,0-0.2,0c-1.2,0-2.5,0-3.7,0
		c-0.5,0-0.9,0.1-1.3,0.4c-0.1,0.1-0.3,0.2-0.4,0.3c-0.4,0.4-0.6,0.9-0.6,1.5c0,0.9,0,1.9,0,2.8c0,0.7,0.4,1.2,0.9,1.6
		c0.3,0.3,0.8,0.5,1.3,0.5c5,0,10,0,15,0c0.2,0,0.4,0,0.6-0.1c0.7-0.2,1.2-0.7,1.5-1.3c0.1-0.2,0.2-0.5,0.2-0.8c0-0.8,0-1.7,0-2.5
		c0-0.1,0-0.3-0.1-0.4c-0.1-0.4-0.3-0.7-0.5-1c-0.3-0.4-0.7-0.6-1.1-0.7c-0.2-0.1-0.5-0.1-0.7-0.1c-1.3,0-2.6,0-3.9,0
		c-0.1,0-0.1,0-0.2,0c0-0.8,0-1.5,0-2.3c0.1,0,0.2,0,0.2,0c3.4,0,6.9,0,10.3,0c0.2,0,0.4,0,0.6-0.1c0.6-0.1,1.1-0.5,1.4-1
		c0.2-0.4,0.4-0.8,0.4-1.2c0-8.7,0-17.3,0-26c0-0.1,0-0.1,0-0.2c-0.1-0.3-0.2-0.5-0.4-0.7c-0.2-0.4-0.5-0.8-0.8-1.1
		c-0.4-0.5-0.9-1-1.3-1.4c-0.4-0.5-0.9-1-1.3-1.4c-0.4-0.5-0.9-1-1.3-1.4c-0.4-0.4-0.8-0.8-1.2-1.3c-0.1-0.1-0.1-0.2-0.1-0.4
		c0-1.3,0-2.5,0-3.8c0-0.4-0.1-0.7-0.3-1c-0.1-0.2-0.3-0.4-0.4-0.6c-0.3-0.5-0.7-0.7-1.2-0.7c-1.4,0-2.9,0-4.3,0c-0.1,0-0.1,0-0.2,0
		c0-0.8,0-1.5,0-2.3c0.1,0,0.2,0,0.2,0c1.3,0,2.6,0,3.9,0c0.5,0,1-0.1,1.3-0.5c0.3-0.2,0.5-0.5,0.6-0.8c0.2-0.4,0.2-0.8,0.2-1.3
		c0-0.7,0-1.4,0-2.1c0-0.2,0-0.4,0-0.6c-0.1-0.5-0.4-0.9-0.8-1.2c-0.4-0.3-0.8-0.5-1.4-0.5c-5.1,0-10.1,0-15.2,0
		c-0.5,0-1,0.2-1.4,0.5c-0.6,0.5-0.8,1.2-0.8,1.9c0,0.8,0,1.5,0,2.3c0,0.7,0.3,1.2,0.7,1.7c0.4,0.4,0.8,0.5,1.4,0.5
		c1.4,0,2.8,0,4.1,0c0.1,0,0.1,0,0.2,0C559.2,244.3,559.2,245.1,559.2,245.9z M583.2,273.9c0,0.1,0,0.2,0,0.2c0,1.5,0,2.9,0,4.4
		c0,0.2,0,0.3,0,0.5c0.1,0.7,0.4,1.2,0.9,1.5c0.3,0.2,0.7,0.3,1.1,0.3c0.7,0,1.4,0,2.2,0c0.5,0,1-0.1,1.4-0.5
		c0.5-0.5,0.8-1.1,0.8-1.8c0-5.4,0-10.8,0-16.1c0-0.7-0.2-1.3-0.7-1.8c-0.4-0.4-0.9-0.6-1.4-0.6c-0.8,0-1.5,0-2.3,0
		c-0.1,0-0.3,0-0.4,0.1c-0.5,0.1-0.9,0.4-1.2,0.7c-0.3,0.4-0.5,0.8-0.5,1.3c0,1.5,0,2.9,0,4.4c0,0.1,0,0.1,0,0.2c-0.7,0-1.5,0-2.2,0
		c0,2.3,0,4.7,0,7C581.7,273.9,582.5,273.9,583.2,273.9z"/>
	<path d="M559.2,245.9c0-0.8,0-1.5,0-2.3c-0.1,0-0.1,0-0.2,0c-1.4,0-2.8,0-4.1,0c-0.5,0-1-0.2-1.4-0.5c-0.5-0.5-0.7-1-0.7-1.7
		c0-0.8,0-1.5,0-2.3c0-0.7,0.2-1.4,0.8-1.9c0.4-0.3,0.8-0.5,1.4-0.5c5.1,0,10.1,0,15.2,0c0.5,0,1,0.1,1.4,0.5
		c0.4,0.3,0.7,0.7,0.8,1.2c0,0.2,0,0.4,0,0.6c0,0.7,0,1.4,0,2.1c0,0.4,0,0.9-0.2,1.3c-0.1,0.3-0.4,0.6-0.6,0.8
		c-0.4,0.3-0.8,0.5-1.3,0.5c-1.3,0-2.6,0-3.9,0c-0.1,0-0.1,0-0.2,0c0,0.8,0,1.5,0,2.3c0.1,0,0.1,0,0.2,0c1.4,0,2.9,0,4.3,0
		c0.5,0,0.9,0.2,1.2,0.7c0.1,0.2,0.3,0.4,0.4,0.6c0.2,0.3,0.3,0.6,0.3,1c0,1.3,0,2.5,0,3.8c0,0.1,0,0.3,0.1,0.4
		c0.4,0.4,0.8,0.8,1.2,1.3c0.4,0.5,0.9,1,1.3,1.4c0.4,0.5,0.9,1,1.3,1.4c0.4,0.5,0.9,1,1.3,1.4c0.3,0.3,0.6,0.7,0.8,1.1
		c0.1,0.2,0.3,0.5,0.4,0.7c0,0.1,0,0.1,0,0.2c0,8.7,0,17.3,0,26c0,0.4-0.1,0.8-0.4,1.2c-0.3,0.5-0.8,0.9-1.4,1
		c-0.2,0-0.4,0.1-0.6,0.1c-3.4,0-6.9,0-10.3,0c-0.1,0-0.2,0-0.2,0c0,0.8,0,1.5,0,2.3c0.1,0,0.1,0,0.2,0c1.3,0,2.6,0,3.9,0
		c0.2,0,0.5,0,0.7,0.1c0.4,0.1,0.8,0.3,1.1,0.7c0.2,0.3,0.4,0.6,0.5,1c0,0.1,0.1,0.3,0.1,0.4c0,0.8,0,1.7,0,2.5
		c0,0.3-0.1,0.5-0.2,0.8c-0.3,0.6-0.8,1.1-1.5,1.3c-0.2,0.1-0.4,0.1-0.6,0.1c-5,0-10,0-15,0c-0.5,0-0.9-0.2-1.3-0.5
		c-0.5-0.4-0.8-0.9-0.9-1.6c0-0.9-0.1-1.9,0-2.8c0-0.6,0.2-1,0.6-1.5c0.1-0.1,0.3-0.2,0.4-0.3c0.4-0.3,0.8-0.4,1.3-0.4
		c1.2,0,2.5,0,3.7,0c0.1,0,0.1,0,0.2,0c0-0.8,0-1.5,0-2.3c-0.1,0-0.1,0-0.2,0c-0.6,0-1.2,0-1.8,0c-0.4,0-0.8-0.1-1.1-0.4
		c-0.5-0.5-1-1.1-1.5-1.6c-0.5-0.5-1-1-1.4-1.5c-0.3-0.3-0.5-0.6-0.8-0.9c-0.5-0.5-0.9-1-1.4-1.5c-0.3-0.3-0.6-0.6-0.9-0.9
		c-0.6-0.7-1.2-1.3-1.8-2c-0.3-0.3-0.6-0.6-0.9-0.9c-0.3-0.3-0.5-0.6-0.7-0.9c-0.1-0.2-0.2-0.4-0.2-0.6c0-0.4,0-0.8,0-1.2
		c0-5.1,0-10.2,0-15.4c0-0.5,0.2-1,0.6-1.4c0.4-0.4,0.8-0.9,1.1-1.3c0.3-0.3,0.5-0.6,0.8-0.9c0.5-0.5,0.9-1.1,1.3-1.6
		c0.3-0.4,0.6-0.7,0.9-1.1c0.4-0.5,0.8-1.1,1.3-1.5c0.2-0.2,0.2-0.5,0.2-0.7c0-1,0-2,0-3c0-0.3,0.1-0.7,0.1-1
		c0.1-0.3,0.2-0.5,0.4-0.8c0.3-0.4,0.7-0.6,1.2-0.8c0.1,0,0.3-0.1,0.4-0.1c1.4,0,2.7,0,4.1,0C559.1,245.9,559.1,245.9,559.2,245.9z
		 M551.2,263.7C551.2,263.7,551.2,263.7,551.2,263.7c0.2,0.2,0.4,0.4,0.6,0.6c0.2,0.2,0.4,0.3,0.6,0.5c0.4,0.3,0.7,0.6,1.1,0.9
		c0.4,0.3,0.8,0.6,1.2,1c0.3,0.3,0.7,0.5,1,0.8c0.4,0.4,0.9,0.7,1.3,1.1c0.4,0.3,0.7,0.6,1.1,0.9c0.4,0.3,0.8,0.6,1.2,1
		c0.4,0.3,0.8,0.7,1.2,1c0.4,0.3,0.7,0.6,1.1,0.9c0.5,0.4,0.9,0.8,1.4,1.1c0.2,0.2,0.4,0.3,0.7,0.5c0-1.8,0-3.5,0-5.3
		c0.1,0,0.1,0,0.1,0.1c0.3,0.2,0.7,0.5,1,0.7c0.5,0.3,1,0.6,1.5,1c0.5,0.3,1,0.7,1.6,1c0.5,0.3,0.9,0.6,1.4,0.9c0.5,0.3,1,0.7,1.5,1
		c0.3,0.2,0.7,0.4,1,0.7c0.2,0.1,0.3,0.2,0.5,0.3c0,0,0-0.1,0-0.1c0-1.8,0-3.5,0-5.3c0-0.1-0.1-0.2-0.1-0.2
		c-0.4-0.3-0.9-0.5-1.4-0.8c-0.6-0.3-1.1-0.6-1.7-0.9c-0.6-0.3-1.1-0.6-1.7-1c-0.6-0.3-1.2-0.6-1.7-1c-0.6-0.3-1.1-0.6-1.7-1
		c-0.3-0.2-0.6-0.3-0.9-0.5c-0.5-0.2-0.9-0.5-1.4-0.7c-0.1-0.1-0.3-0.1-0.4-0.2c0,1.7,0,3.3,0,5c-0.1-0.1-0.2-0.1-0.4-0.2
		c-0.4-0.2-0.8-0.3-1.2-0.5c-0.4-0.2-0.8-0.3-1.2-0.5c-0.4-0.2-0.8-0.3-1.2-0.5c-0.4-0.2-0.8-0.3-1.3-0.5c-0.4-0.2-0.8-0.3-1.2-0.5
		c-0.4-0.2-0.8-0.3-1.1-0.5c-0.5-0.2-0.9-0.4-1.4-0.5c-0.2-0.1-0.4-0.1-0.6-0.2C551.5,263.8,551.3,263.8,551.2,263.7z"/>
	<path d="M583.2,273.9c-0.7,0-1.4,0-2.2,0c0-2.3,0-4.7,0-7c0.7,0,1.4,0,2.2,0c0-0.1,0-0.2,0-0.2c0-1.5,0-2.9,0-4.4
		c0-0.5,0.2-0.9,0.5-1.3c0.3-0.4,0.7-0.6,1.2-0.7c0.1,0,0.3-0.1,0.4-0.1c0.8,0,1.5,0,2.3,0c0.5,0,1,0.2,1.4,0.6
		c0.5,0.5,0.7,1.1,0.7,1.8c0,5.4,0,10.8,0,16.1c0,0.7-0.3,1.3-0.8,1.8c-0.4,0.4-0.9,0.5-1.4,0.5c-0.7,0-1.4,0-2.2,0
		c-0.4,0-0.8-0.1-1.1-0.3c-0.5-0.4-0.9-0.9-0.9-1.5c0-0.2,0-0.3,0-0.5c0-1.5,0-2.9,0-4.4C583.2,274.1,583.2,274,583.2,273.9z"/>
	<path class="st3" d="M551.2,263.7c0.2,0.1,0.3,0.1,0.5,0.2c0.2,0.1,0.4,0.1,0.6,0.2c0.5,0.2,0.9,0.4,1.4,0.5
		c0.4,0.1,0.8,0.3,1.1,0.5c0.4,0.2,0.8,0.3,1.2,0.5c0.4,0.2,0.8,0.3,1.3,0.5c0.4,0.2,0.8,0.3,1.2,0.5c0.4,0.2,0.8,0.3,1.2,0.5
		c0.4,0.2,0.8,0.3,1.2,0.5c0.1,0,0.2,0.1,0.4,0.2c0-1.7,0-3.3,0-5c0.1,0.1,0.3,0.2,0.4,0.2c0.5,0.2,0.9,0.5,1.4,0.7
		c0.3,0.2,0.6,0.3,0.9,0.5c0.6,0.3,1.1,0.6,1.7,1c0.6,0.3,1.2,0.6,1.7,1c0.6,0.3,1.1,0.6,1.7,1c0.6,0.3,1.1,0.6,1.7,0.9
		c0.5,0.3,0.9,0.5,1.4,0.8c0.1,0,0.1,0.1,0.1,0.2c0,1.8,0,3.5,0,5.3c0,0,0,0.1,0,0.1c-0.2-0.1-0.3-0.2-0.5-0.3
		c-0.3-0.2-0.7-0.4-1-0.7c-0.5-0.3-1-0.7-1.5-1c-0.5-0.3-0.9-0.6-1.4-0.9c-0.5-0.3-1-0.7-1.6-1c-0.5-0.3-1-0.6-1.5-1
		c-0.3-0.2-0.7-0.5-1-0.7c0,0-0.1,0-0.1-0.1c0,1.8,0,3.5,0,5.3c-0.2-0.2-0.4-0.4-0.7-0.5c-0.5-0.4-0.9-0.8-1.4-1.1
		c-0.4-0.3-0.7-0.6-1.1-0.9c-0.4-0.3-0.8-0.7-1.2-1c-0.4-0.3-0.8-0.6-1.2-1c-0.4-0.3-0.7-0.6-1.1-0.9c-0.4-0.4-0.9-0.7-1.3-1.1
		c-0.3-0.3-0.7-0.6-1-0.8c-0.4-0.3-0.8-0.6-1.2-1c-0.4-0.3-0.7-0.6-1.1-0.9c-0.2-0.2-0.4-0.3-0.6-0.5
		C551.6,264.1,551.4,263.9,551.2,263.7C551.2,263.7,551.2,263.7,551.2,263.7z"/>
</g>
<rect x="516.8" y="258" class="st4" width="9.1" height="18.7"/>
<path id="back_outsideCutPath_9_" vector-effect="non-scaling-stroke" class="st5" d="M849.1,369.1"/>
<path id="back_outsideCutPath_6_" vector-effect="non-scaling-stroke" class="st5" d="M812,476.1"/>
<polygon class="st6" points="633.2,161.4 633.2,104.7 624.2,104.7 624.2,32.7 579.8,32.7 579.8,23.7 523.1,23.7 523.1,32.7 
	478.8,32.7 478.8,104.7 469.8,104.7 469.8,161.4 478.8,161.4 478.8,218.1 469.8,218.1 469.8,274.9 478.8,274.9 478.8,349.5 
	523.1,349.5 523.1,358.5 579.8,358.5 579.8,349.5 624.2,349.5 624.2,274.9 631.8,274.9 633.2,274.9 633.2,218.1 624.2,218.1 
	624.2,161.4 "/>
<polygon class="st6" points="1016.2,161.4 1016.2,104.7 1007.2,104.7 1007.2,32.7 962.8,32.7 962.8,23.7 906.1,23.7 906.1,32.7 
	861.8,32.7 861.8,104.7 852.8,104.7 852.8,161.4 861.8,161.4 861.8,218.1 852.8,218.1 852.8,274.9 861.8,274.9 861.8,349.5 
	906.1,349.5 906.1,358.5 962.8,358.5 962.8,349.5 1007.2,349.5 1007.2,274.9 1014.8,274.9 1016.2,274.9 1016.2,218.1 1007.2,218.1 
	1007.2,161.4 "/>
<circle class="st1" cx="772.1" cy="480.4" r="7.1"/>
<circle class="st1" cx="808.9" cy="480.4" r="7.1"/>
<image style="overflow:visible;enable-background:new    ;" width="1600" height="1600" xlink:href="Images/engine.jpg"  transform="matrix(1.644337e-02 0 0 1.460217e-02 758.9518 441.6818)">
</image>
<image style="overflow:visible;enable-background:new    ;" width="626" height="626" xlink:href="Images/t1TwA.jpg"  transform="matrix(4.543621e-09 -7.721105e-02 8.011945e-02 4.714771e-09 763.9016 430.2666)">
</image>
<circle class="st1" cx="789" cy="402.6" r="9.9"/>
<rect x="672.7" y="455.5" class="st1" width="60" height="26.6"/>
<text transform="matrix(0.7489 0 0 1 681.9446 472.231)" class="st7 st8">sensors</text>
<polygon class="st9" points="861.8,104.7 861.8,32.7 830.7,32.7 830.7,23.7 774,23.7 774,32.7 711.9,32.7 711.9,23.7 655.2,23.7 
	655.2,32.7 624.2,32.7 624.2,104.7 633.2,104.7 633.2,161.4 624.2,161.4 624.2,218.1 633.2,218.1 633.2,274.9 624.2,274.9 
	624.2,349.5 655.2,349.5 655.2,358.5 711.9,358.5 711.9,349.5 773.8,349.5 773.8,358.5 830.6,358.5 830.6,349.5 861.8,349.5 
	861.8,274.9 852.8,274.9 852.8,218.1 861.8,218.1 861.8,161.4 852.8,161.4 852.8,104.7 "/>
<path class="st10" d="M40.4,292.8v388.8H350V292.8H40.4z M107.4,319.8h56.7v9h-56.7V319.8z M58.4,670.2c-3.6,0-6.6-3-6.6-6.6
	s3-6.6,6.6-6.6c3.6,0,6.6,3,6.6,6.6S62,670.2,58.4,670.2z M59.2,318.2c-3.6,0-6.6-3-6.6-6.6s3-6.6,6.6-6.6s6.6,3,6.6,6.6
	S62.9,318.2,59.2,318.2z M85.4,571h-9v-56.7h9V571z M85.4,457.5h-9v-56.7h9V457.5z M164.2,654.6h-56.7v-9h56.7V654.6z M282.8,654.6
	h-56.6v-9h56.6V654.6z M283,328.8h-56.7v-9H283V328.8z M305,400.8h9v56.7h-9V400.8z M314.1,571h-9v-56.7h9V571z M332,670.2
	c-3.6,0-6.6-3-6.6-6.6s3-6.6,6.6-6.6s6.6,3,6.6,6.6S335.6,670.2,332,670.2z M332,318.2c-3.6,0-6.6-3-6.6-6.6s3-6.6,6.6-6.6
	s6.6,3,6.6,6.6S335.6,318.2,332,318.2z"/>
<polygon class="st11" points="861.8,402.2 861.8,349.6 830.7,349.6 830.7,358.6 774,358.6 774,349.6 711.9,349.6 711.9,358.6 
	655.2,358.6 655.2,349.6 624.2,349.6 624.2,402.2 633.2,402.2 633.2,458.9 624.2,458.9 624.2,502.4 655.2,502.4 655.2,511.4 
	711.9,511.4 711.9,502.4 774,502.4 774,511.4 830.7,511.4 830.7,502.4 861.8,502.4 861.8,458.9 852.8,458.9 852.8,402.2 "/>
<g>
	
		<image style="overflow:visible;enable-background:new    ;" width="215" height="49" xlink:href="149F47201194CA1A.jpg"  transform="matrix(0.7824 0 0 0.7824 118.3413 168.1938)">
	</image>
	<path class="st6" d="M83.6,78.3v27v9V158h9v56.7h-9v43.6h31v9h56.7v-9h62.1v9h56.7v-9h31v-42.3h-9v-56.7h9v-45v-9v-27H83.6z
		 M171.4,114.3h-56.7v-9h56.7V114.3z M290.2,114.3h-56.7v-9h56.7V114.3z"/>
</g>
<g>
	<path d="M912.7,289.6c0,0.8-0.1,1.7-0.4,2.5c-0.5,2.2-1.7,4.2-3.4,6c-0.9,0.9-1.9,1.7-3.1,2.5c1.3,0.8,2.5,1.8,3.6,2.9
		c1.3,1.2,2.2,2.7,2.7,4.4c0.5,1.6,0.5,3.4,0.2,5.1c-0.3,1.7-1,3.4-2,4.7c-1.1,1.5-2.5,2.6-4.1,3.2c-1.5,0.7-3.2,0.9-4.9,0.6
		c-1.6-0.2-3.1-0.9-4.5-1.8c-1.4-1-2.5-2.2-3.2-3.6c-0.8-1.5-1.2-3.2-1.1-4.8c0-0.9,0.1-1.8,0.3-2.6l0,0c0.5-2.2,1.7-4.2,3.6-6
		c0.9-0.8,1.8-1.6,2.7-2.2c-1.9-1.3-3.7-2.8-5-4.9c-1-1.4-1.5-3.1-1.6-5c-0.1-1.7,0.2-3.4,0.9-5c1.4-3.3,4.3-5.6,7.5-6.1
		c1.7-0.3,3.4-0.1,5,0.6c1.5,0.6,2.9,1.6,4,2.9C911.7,284.9,912.7,287.3,912.7,289.6z M902.5,298.4c2-1,5.6-3.3,6.5-7.1l0-0.1l0-0.1
		c0.6-2,0-4.2-1.6-6c-1.6-1.8-3.8-2.7-5.9-2.4l0,0c-2.1,0.3-3.9,1.9-4.9,4.1c-1,2.3-0.9,4.9,0.4,6.7l0,0
		C898.3,295.7,900.3,297.1,902.5,298.4z M896,311.8c0,1.9,1.1,3.8,2.9,5c0.9,0.6,2,1.1,3,1.2c1.1,0.2,2.1,0,3-0.4l0.1,0
		c1-0.4,1.9-1.1,2.6-2.1c0.7-0.9,1.2-2.1,1.4-3.3c0.4-2.5-0.3-4.9-1.9-6.4l0,0l0,0c-1.3-1.3-2.9-2.4-4.6-3.4c-2.8,1.7-5.4,3.9-6.2,7
		c-0.1,0.6-0.2,1.2-0.2,1.8c0,0,0,0,0,0l0,0.1l0,0.1C896,311.6,896,311.7,896,311.8z"/>
	<rect x="901.5" y="307.6" width="1.5" height="7"/>
	<polygon points="905.2,289.2 905.2,291.1 903.2,291.1 903.2,293 901.3,293 901.3,291.1 899.3,291.1 899.3,289.2 901.3,289.2 
		901.3,287.1 903.2,287.1 903.2,289.2 	"/>
	<path id="A" d="M921,316.6l-1.4,0.4v2.4l1.3,0.4v1.3l-6.8-2v-1.8l6.8-2L921,316.6z M915.4,318.2l3.2,0.9v-1.8L915.4,318.2z"/>
	<path id="R" d="M921,311c-0.8,0.4-1.6,0.7-2.4,1.1c-0.3,0.2-0.5,0.7-0.4,1.1c0.2,0.1,0.5,0,0.7,0c0.7,0,1.4,0,2.1,0
		c0,0.4,0,0.9,0,1.3c-2.3,0-4.6,0-6.8,0c0-1-0.1-1.9,0.1-2.9c0.1-0.6,0.5-1.3,1.1-1.5c0.7-0.2,1.6-0.1,2,0.5
		c0.2,0.2,0.3,0.5,0.3,0.8c0.2-0.4,0.5-0.6,0.9-0.8c0.7-0.4,1.4-0.7,2.1-1c0.2-0.2,0.3-0.1,0.3,0.1C921,310.1,921,310.6,921,311z
		 M916.2,311.3c-0.4,0-0.8,0.3-0.9,0.7c-0.1,0.4,0,0.7-0.1,1.1c0.6,0,1.3,0,1.9,0c0-0.5,0.1-1.2-0.4-1.6
		C916.7,311.4,916.4,311.3,916.2,311.3L916.2,311.3z"/>
	<path id="D" d="M917.5,303.5c1,0,2,0.2,2.7,0.9c0.7,0.7,0.8,1.7,0.8,2.6c0,0.5,0,1.1,0,1.6c-2.3,0-4.6,0-6.8,0c0-0.8,0-1.6,0-2.4
		c0-0.8,0.3-1.6,1-2.1C915.8,303.6,916.7,303.5,917.5,303.5z M917.6,304.9c-0.7,0-1.4,0.1-1.9,0.6c-0.4,0.4-0.4,1-0.4,1.6
		c0,0.1,0,0.2,0,0.3c1.6,0,3.1,0,4.7,0c0-0.6,0-1.2-0.3-1.7C919.2,305,918.3,304.9,917.6,304.9z"/>
	<path id="U" d="M918.5,297.6c0.8,0,1.7,0.3,2.2,1c0.5,0.8,0.5,1.9,0.2,2.8c-0.3,0.7-1,1.1-1.7,1.2c-0.8,0.1-1.6,0-2.5,0
		c-0.9,0-1.7,0-2.6,0c0-0.4,0-0.9,0-1.3c1.6,0,3.3,0,4.9,0c0.5,0,0.9-0.4,1-0.8c0.1-0.5,0-1.1-0.5-1.4c-0.6-0.3-1.3-0.1-1.9-0.2
		c-1.2,0-2.3,0-3.5,0c0-0.4,0-0.9,0-1.3C915.6,297.6,917.1,297.6,918.5,297.6L918.5,297.6z"/>
	<path id="I" d="M915.2,296.4h-1.1v-4.3h1.1v1.5h4.7v-1.5h1.1v4.3h-1.1v-1.5h-4.7V296.4z"/>
	<path id="N" d="M921,287.3c-1.7,0.7-3.3,1.5-5,2.2c1.7,0,3.3,0,5,0c0,0.4,0,0.8,0,1.2c-2.3,0-4.6,0-6.8,0c0-0.5,0-1.1,0-1.6
		c1.6-0.7,3.1-1.4,4.7-2.1c0.2,0,0.3-0.1,0-0.1c-1.6,0-3.1,0-4.7,0c0-0.4,0-0.8,0-1.2c2.3,0,4.6,0,6.8,0
		C921,286.3,921,286.8,921,287.3L921,287.3z"/>
	<path id="O" d="M917.6,279.5c1,0,2.1,0.2,2.9,1c0.7,0.8,0.9,2,0.5,2.9c-0.3,0.8-1.1,1.3-2,1.5c-0.9,0.2-1.9,0.2-2.8,0
		c-0.8-0.2-1.6-0.8-1.9-1.6c-0.3-0.8-0.3-1.7,0.2-2.5c0.5-0.8,1.4-1.1,2.3-1.2C917,279.5,917.3,279.5,917.6,279.5L917.6,279.5z
		 M917.6,280.9c-0.7,0-1.4,0-2,0.4c-0.5,0.4-0.5,1.1-0.3,1.6c0.3,0.6,1.1,0.7,1.7,0.7c0.8,0,1.6,0,2.3-0.3c0.4-0.2,0.7-0.7,0.6-1.2
		c0-0.5-0.4-0.9-0.8-1.1C918.7,280.9,918.1,280.9,917.6,280.9z"/>
</g>
<path id="TM" d="M892,281.9c0.2,0,0.3,0,0.5,0c0-0.4,0-0.7,0-1.1c1,0,1.9,0,2.9,0c0-0.2,0-0.4,0-0.6c-1,0-1.9,0-2.9,0
	c0-0.4,0-0.7,0-1.1c-0.2,0-0.3,0-0.5,0C892,280,892,280.9,892,281.9z M892,278.7c1.1,0,2.3,0,3.4,0c0-0.2,0-0.3,0-0.5
	c-1,0-1.9,0-2.9,0c1-0.3,1.9-0.6,2.9-0.9c0-0.2,0-0.3,0-0.5c-1-0.3-1.9-0.6-2.9-0.9c1,0,1.9,0,2.9,0c0-0.2,0-0.3,0-0.5
	c-1.1,0-2.3,0-3.4,0c0,0.3,0,0.5,0,0.8c0.9,0.3,1.8,0.6,2.7,0.8c-0.9,0.3-1.8,0.6-2.7,0.9C892,278.1,892,278.4,892,278.7z"/>
<g>
	<circle class="st12" cx="808.9" cy="453.4" r="8"/>
	<path id="back_outsideCutPath_8_" vector-effect="non-scaling-stroke" class="st5" d="M809.9,454"/>
	<g>
		<path class="st3" d="M811.2,457.6l-0.2,0.7c-0.5,0.2-0.9,0.3-1.1,0.4c-0.3,0.1-0.6,0.1-1,0.1c-0.6,0-1-0.1-1.4-0.4
			c-0.3-0.3-0.5-0.6-0.5-1.1c0-0.2,0-0.3,0-0.5c0-0.2,0.1-0.4,0.1-0.6l0.6-2.1c0.1-0.2,0.1-0.4,0.1-0.6c0-0.2,0.1-0.3,0.1-0.5
			c0-0.3-0.1-0.5-0.2-0.6c-0.1-0.1-0.3-0.2-0.6-0.2c-0.2,0-0.3,0-0.5,0.1c-0.2,0-0.3,0.1-0.4,0.1l0.2-0.7c0.4-0.2,0.8-0.3,1.1-0.4
			c0.4-0.1,0.7-0.2,1-0.2c0.6,0,1,0.1,1.3,0.4c0.3,0.3,0.5,0.6,0.5,1.1c0,0.1,0,0.3,0,0.5c0,0.2-0.1,0.4-0.1,0.6l-0.6,2.1
			c0,0.2-0.1,0.4-0.1,0.6c0,0.2-0.1,0.4-0.1,0.5c0,0.3,0.1,0.5,0.2,0.6c0.1,0.1,0.3,0.2,0.7,0.2c0.1,0,0.3,0,0.5-0.1
			C810.9,457.7,811.1,457.7,811.2,457.6z M811.3,448.8c0,0.4-0.1,0.7-0.4,0.9c-0.3,0.3-0.6,0.4-1,0.4c-0.4,0-0.7-0.1-1-0.4
			c-0.3-0.3-0.4-0.6-0.4-0.9c0-0.4,0.1-0.7,0.4-0.9c0.3-0.3,0.6-0.4,1-0.4c0.4,0,0.7,0.1,1,0.4C811.2,448.1,811.3,448.4,811.3,448.8
			z"/>
	</g>
</g>
</svg>
