<?xml version="1.0" encoding="utf-8"?>
<!-- Generator: Adobe Illustrator 23.0.6, SVG Export Plug-In . SVG Version: 6.00 Build 0)  -->
<svg version="1.1" id="Layer_1" xmlns="http://www.w3.org/2000/svg" xmlns:xlink="http://www.w3.org/1999/xlink" x="0px" y="0px"
	 viewBox="0 0 1101.2 742" style="enable-background:new 0 0 1101.2 742;" xml:space="preserve">
<style type="text/css">
	.st0{fill:none;stroke:#000000;}
	.st1{fill:none;stroke:#000000;stroke-miterlimit:10;}
	.st2{fill:#777777;}
	.st3{fill:#777777;stroke:#777777;stroke-width:0.7087;stroke-linecap:round;}
	.st4{fill:none;stroke:#000000;stroke-linecap:round;}
	.st5{font-family:'ArialMT';}
	.st6{font-size:16.0236px;}
</style>
<path id="front_outsideCutPath_2_" vector-effect="non-scaling-stroke" class="st0" d="M619.3,175.1"/>
<path id="front_outsideCutPath_5_" vector-effect="non-scaling-stroke" class="st0" d="M381.7,184.1"/>
<path id="front_outsideCutPath_4_" vector-effect="non-scaling-stroke" class="st0" d="M381.7,175.1"/>
<path id="top_outsideCutPath_4_" vector-effect="non-scaling-stroke" class="st1" d="M720.4,65.8h-33.8v316.8h33.8"/>
<path id="top_outsideCutPath_9_" vector-effect="non-scaling-stroke" class="st1" d="M720.4,65.8"/>
<path id="top_outsideCutPath_10_" vector-effect="non-scaling-stroke" class="st1" d="M833.8,65.8h-56.7"/>
<path id="top_outsideCutPath_12_" vector-effect="non-scaling-stroke" class="st1" d="M833.8,65.8"/>
<path id="top_outsideCutPath_11_" vector-effect="non-scaling-stroke" class="st1" d="M890.5,65.8"/>
<path id="top_outsideCutPath_5_" vector-effect="non-scaling-stroke" class="st1" d="M890.5,382.6h33.8V65.8h-33.8"/>
<path id="top_outsideCutPath_7_" vector-effect="non-scaling-stroke" class="st1" d="M890.5,382.6"/>
<path id="top_outsideCutPath_6_" vector-effect="non-scaling-stroke" class="st1" d="M833.8,382.6"/>
<path id="top_outsideCutPath_1_" vector-effect="non-scaling-stroke" class="st1" d="M777.1,382.6h56.7"/>
<path id="top_outsideCutPath_3_" vector-effect="non-scaling-stroke" class="st1" d="M777.1,382.6"/>
<path id="top_outsideCutPath_2_" vector-effect="non-scaling-stroke" class="st1" d="M720.4,382.6"/>
<path id="top_labelLayer" vector-effect="non-scaling-stroke" class="st2" d="M826.4,225.4h-0.2c0.1,0.8,0.2,1.5,0.2,2.3
	c0,0.4,0,0.9,0,1.3v8.9h-3.3v-31.2h2.7l0.5,2.9h0.2c0.4-0.5,0.8-1,1.3-1.4c0.5-0.5,1.1-0.8,1.7-1.1c0.7-0.3,1.5-0.6,2.3-0.7
	c0.5-0.1,1-0.1,1.5-0.1c2.9,0,5.1,1,6.6,2.9c1.6,2,2.3,4.7,2.3,8.2c0,1.1-0.1,2.2-0.3,3.2c-0.2,1.1-0.5,2.2-0.9,3.1
	c-0.3,0.7-0.7,1.3-1.2,1.9c-1.3,1.7-3.3,2.7-5.5,2.9c-0.4,0-0.7,0.1-1.1,0.1c-1.4,0-2.7-0.3-3.8-0.8
	C828.2,227.2,827.2,226.5,826.4,225.4z M794.5,225.5v2.5c-0.1,0.1-0.3,0.1-0.4,0.2c-0.3,0.1-0.7,0.2-1.2,0.3
	c-0.3,0.1-0.6,0.1-0.9,0.1s-0.6,0-0.8,0h-0.1c-4.2,0-6.3-2.2-6.3-6.6v-12.8h-3v-1.6l3.1-1.4l1.4-4.6h1.9v5h6.3v2.5h-6.3v12.7
	c0,0.4,0,0.8,0.1,1.2c0.1,0.4,0.2,0.8,0.4,1.1c0.1,0.3,0.3,0.5,0.5,0.7c0.5,0.5,1.1,0.9,1.9,1c0.2,0,0.4,0,0.7,0c0.5,0,1,0,1.6-0.1
	h0.1c0.2,0,0.3-0.1,0.5-0.1C794,225.6,794.3,225.5,794.5,225.5z M817.1,220.6c0.2-1.1,0.3-2.2,0.3-3.3c0-0.2,0-0.3,0-0.5
	c0-1.2-0.2-2.3-0.4-3.3c-0.4-1.6-1.1-3.1-2.2-4.3c-1.1-1.2-2.4-2.1-4-2.6c-1-0.3-2.1-0.5-3.2-0.4c-0.8,0-1.5,0.1-2.3,0.2
	c-1.9,0.3-3.7,1.3-5,2.7c-1.8,2-2.6,4.7-2.6,8.2c0,2.3,0.4,4.2,1.2,5.9c0.1,0.2,0.2,0.3,0.2,0.5c0.7,1.4,1.9,2.6,3.2,3.4
	c0.7,0.4,1.4,0.7,2.1,0.9c1,0.3,2,0.4,3,0.4c0.7,0,1.5-0.1,2.2-0.2c2-0.3,3.8-1.3,5.1-2.8C816,224.3,816.7,222.6,817.1,220.6z
	 M801,217.4c0,0.8,0,1.6,0.2,2.4c0.2,1.6,0.7,2.9,1.5,3.9c0.8,1.1,2.1,1.8,3.5,2c0.5,0.1,0.9,0.1,1.4,0.1c0.7,0,1.3-0.1,2-0.2
	c1.1-0.3,2.2-1,2.9-1.9c0.8-1.1,1.3-2.5,1.6-4.3c0.1-0.7,0.1-1.3,0.1-2c0-1.8-0.2-3.2-0.7-4.5c-0.2-0.6-0.6-1.2-1-1.8
	c-0.8-1.1-2-1.8-3.3-2c-0.5-0.1-1-0.1-1.6-0.1c-0.7,0-1.3,0.1-1.9,0.2c-1.2,0.3-2.2,0.9-2.9,1.9c-0.8,1-1.3,2.4-1.5,4.1
	C801.1,215.9,801,216.6,801,217.4z M826.4,216.6v0.7c0,0.7,0,1.5,0.1,2.2c0.2,1.9,0.7,3.3,1.4,4.3c0.6,0.8,1.5,1.3,2.4,1.6
	c0.5,0.2,1.1,0.3,1.8,0.3c0.2,0,0.4,0,0.7,0c0.7,0,1.5-0.1,2.1-0.4c0.8-0.3,1.5-0.9,2.1-1.7c0-0.1,0.1-0.1,0.1-0.2
	c0.5-0.7,0.8-1.5,1.1-2.3c0.2-0.7,0.4-1.5,0.4-2.3c0-0.5,0.1-1.1,0.1-1.6c0-0.8,0-1.6-0.2-2.3c-0.1-0.8-0.3-1.5-0.5-2.1
	s-0.5-1.2-0.9-1.7c-1.1-1.4-2.5-2.2-4.5-2.2c-0.6,0-1.2,0-1.8,0.2c-1.3,0.3-2.3,0.8-3,1.7c-0.4,0.5-0.7,1-0.9,1.6
	C826.6,213.5,826.4,214.9,826.4,216.6z"/>
<path id="right_outsideCutPath" vector-effect="non-scaling-stroke" class="st0" d="M313.2,558.3v144H630v-144H313.2z"/>
<g>
	<path id="bottom_outsideCutPath" vector-effect="non-scaling-stroke" class="st1" d="M332.7,70v316.8h316.8V70H332.7z"/>
	<path id="bottom_labelLayer" vector-effect="non-scaling-stroke" class="st2" d="M557.3,239.2H554v-14c0-0.5,0-0.9-0.1-1.4
		s-0.2-0.9-0.3-1.3c-0.2-0.4-0.4-0.8-0.7-1.1c-0.4-0.5-1-0.8-1.6-1c-0.5-0.2-1.1-0.3-1.8-0.3c-2,0-3.5,0.6-4.5,1.7
		c-0.4,0.5-0.7,1.1-0.9,1.7c-0.4,1-0.5,2.2-0.5,3.7l0,0v12h-3.3v-14c0-0.5,0-0.9-0.1-1.4s-0.2-0.9-0.3-1.3c-0.2-0.4-0.4-0.8-0.7-1.1
		c-0.7-0.9-1.9-1.3-3.4-1.3c-2,0-3.5,0.6-4.5,1.8c-0.9,1.1-1.3,2.9-1.4,5.3c0,0.3,0,0.5,0,0.8v11.3h-3.3v-21.5h2.7l0.5,2.9h0.2
		c0.6-1,1.5-1.9,2.6-2.5c1-0.5,2-0.8,3.1-0.9c0.2,0,0.5,0,0.7,0c0.8,0,1.6,0.1,2.4,0.2c1,0.2,1.8,0.6,2.5,1.2
		c0.7,0.6,1.3,1.4,1.7,2.3h0.2c0.6-1.1,1.5-1.9,2.6-2.5c0.1,0,0.1-0.1,0.2-0.1c0.9-0.5,2-0.8,3-0.9c0.4,0,0.8-0.1,1.1-0.1
		c0.7,0,1.4,0.1,2.1,0.2c0.8,0.1,1.4,0.4,2,0.7c0.5,0.3,1,0.6,1.4,1c0.5,0.6,0.9,1.2,1.2,2c0.2,0.6,0.4,1.2,0.5,2
		c0.1,0.7,0.1,1.4,0.1,2.1v13.8L557.3,239.2L557.3,239.2z M428.1,236.5h-0.2l-0.7,2.8h-2.3v-30.6h3.3v7.4c0,0.8,0,1.5,0,2.3
		c0,0.7-0.1,1.4-0.1,2.1v0.1h0.2c1.3-1.8,3.2-2.9,5.4-3.1c0.4-0.1,0.9-0.1,1.3-0.1c0.9,0,1.9,0.1,2.8,0.4c1.5,0.4,2.8,1.3,3.8,2.5
		c0.8,1,1.3,2.1,1.7,3.2c0.4,1.4,0.7,3.1,0.7,5c0,1.1-0.1,2.2-0.3,3.2c-0.2,1.1-0.5,2.2-0.9,3.1c-0.3,0.7-0.7,1.3-1.2,1.9
		c-1.3,1.7-3.3,2.7-5.5,2.9c-0.4,0-0.7,0.1-1.1,0.1c-1.4,0-2.7-0.3-3.8-0.8C429.9,238.3,428.9,237.6,428.1,236.5z M483.7,236.6v2.5
		c-0.1,0.1-0.3,0.1-0.4,0.2c-0.3,0.1-0.7,0.2-1.2,0.3c-0.3,0-0.6,0.1-0.9,0.1s-0.6,0-0.8,0h-0.1c-4.2,0-6.3-2.2-6.3-6.6v-12.8h-3.1
		v-1.6l3.1-1.4l1.4-4.6h1.9v5h6.3v2.5h-6.3v12.7c0,0.4,0,0.8,0.1,1.2s0.2,0.8,0.4,1.1c0.1,0.3,0.3,0.5,0.5,0.7
		c0.5,0.5,1.1,0.9,1.9,1c0.2,0,0.4,0.1,0.7,0.1c0.5,0,1,0,1.6-0.1h0.1c0.2,0,0.3-0.1,0.5-0.1C483.2,236.7,483.5,236.6,483.7,236.6z
		 M497.9,236.6v2.5c-0.1,0.1-0.3,0.1-0.4,0.2c-0.3,0.1-0.7,0.2-1.2,0.3c-0.3,0-0.6,0.1-0.9,0.1s-0.6,0-0.8,0h-0.1
		c-4.2,0-6.3-2.2-6.3-6.6v-12.8h-3.1v-1.6l3.1-1.4l1.4-4.6h1.9v5h6.3v2.5h-6.3v12.7c0,0.4,0,0.8,0.1,1.2s0.2,0.8,0.4,1.1
		c0.1,0.3,0.3,0.5,0.5,0.7c0.5,0.5,1.1,0.9,1.9,1c0.2,0,0.4,0.1,0.7,0.1c0.5,0,1,0,1.6-0.1h0.1c0.2,0,0.3-0.1,0.5-0.1
		C497.4,236.7,497.7,236.6,497.9,236.6z M467.8,231.7c0.2-1.1,0.3-2.2,0.3-3.3c0-0.2,0-0.3,0-0.5c0-1.2-0.2-2.3-0.4-3.3
		c-0.4-1.6-1.1-3.1-2.2-4.3s-2.4-2.1-4-2.6c-1-0.3-2.1-0.5-3.2-0.5c-0.8,0-1.5,0.1-2.3,0.2c-1.9,0.3-3.7,1.3-5,2.7
		c-1.8,2-2.6,4.7-2.6,8.2c0,2.3,0.4,4.2,1.2,5.9c0.1,0.2,0.2,0.3,0.2,0.5c0.7,1.4,1.9,2.6,3.2,3.4c0.7,0.4,1.4,0.7,2.1,0.9
		c1,0.3,2,0.4,3,0.4c0.7,0,1.5-0.1,2.2-0.2c2-0.3,3.8-1.3,5.1-2.8C466.6,235.4,467.4,233.7,467.8,231.7z M520.5,231.7
		c0.2-1.1,0.3-2.2,0.3-3.3c0-0.2,0-0.3,0-0.5c0-1.2-0.2-2.3-0.4-3.3c-0.4-1.6-1.1-3.1-2.2-4.3c-1.1-1.2-2.4-2.1-4-2.6
		c-1-0.3-2.1-0.5-3.2-0.5c-0.8,0-1.5,0.1-2.3,0.2c-1.9,0.3-3.7,1.3-5,2.7c-1.8,2-2.6,4.7-2.6,8.2c0,2.3,0.4,4.2,1.2,5.9
		c0.1,0.2,0.2,0.3,0.2,0.5c0.7,1.4,1.9,2.6,3.2,3.4c0.7,0.4,1.4,0.7,2.1,0.9c1,0.3,2,0.4,3,0.4c0.7,0,1.5-0.1,2.2-0.2
		c2-0.3,3.8-1.3,5.1-2.8C519.3,235.4,520.1,233.7,520.5,231.7z M451.7,228.5c0,0.8,0,1.6,0.2,2.4c0.2,1.6,0.7,2.9,1.5,3.9
		c0.8,1.1,2.1,1.9,3.5,2.1c0.5,0.1,0.9,0.1,1.4,0.1c0.7,0,1.3-0.1,2-0.2c1.1-0.3,2.2-1,2.9-1.9c0.8-1.1,1.3-2.5,1.6-4.3
		c0.1-0.7,0.1-1.3,0.1-2c0-1.8-0.2-3.2-0.7-4.5c-0.2-0.6-0.6-1.2-1-1.8c-0.8-1.1-2-1.8-3.3-2c-0.5-0.1-1-0.1-1.6-0.1
		c-0.7,0-1.3,0.1-1.9,0.2c-1.2,0.3-2.2,0.9-2.9,1.9c-0.8,1-1.3,2.4-1.5,4.1C451.7,227,451.7,227.7,451.7,228.5z M504.4,228.5
		c0,0.8,0,1.6,0.2,2.4c0.2,1.6,0.7,2.9,1.5,3.9c0.8,1.1,2.1,1.9,3.5,2.1c0.5,0.1,0.9,0.1,1.4,0.1c0.7,0,1.3-0.1,2-0.2
		c1.1-0.3,2.2-1,2.9-1.9c0.8-1.1,1.3-2.5,1.6-4.3c0.1-0.7,0.1-1.3,0.1-2c0-1.8-0.2-3.2-0.7-4.5c-0.2-0.6-0.6-1.2-1-1.8
		c-0.8-1.1-2-1.8-3.3-2c-0.5-0.1-1-0.1-1.6-0.1c-0.7,0-1.3,0.1-1.9,0.2c-1.2,0.3-2.2,0.9-2.9,1.9c-0.8,1-1.3,2.4-1.5,4.1
		C504.5,227,504.4,227.7,504.4,228.5z M434.4,220.1c-0.6,0-1.2,0-1.8,0.2c-0.7,0.1-1.3,0.4-1.8,0.6c-0.5,0.3-0.9,0.7-1.3,1.1
		c-0.3,0.5-0.6,1-0.8,1.5c-0.4,1-0.6,2.3-0.6,3.9c0,0.4,0,0.7,0,1.1c0,0.7,0,1.5,0.1,2.2c0.2,1.9,0.7,3.3,1.4,4.3
		c0.6,0.8,1.5,1.3,2.4,1.6c0.5,0.2,1.1,0.3,1.8,0.3c0.2,0,0.4,0,0.7,0c0.6,0,1.2-0.1,1.8-0.2c1.1-0.3,2-1,2.6-1.9
		c0.4-0.6,0.7-1.3,0.9-2c0.2-0.6,0.3-1.3,0.4-2.1c0.1-0.7,0.1-1.5,0.1-2.2c0-2.8-0.5-4.9-1.5-6.3C438,220.8,436.4,220.1,434.4,220.1
		z"/>
</g>
<ellipse transform="matrix(0.8 -0.5999 0.5999 0.8 -322.997 355.0334)" class="st3" cx="371.1" cy="662.1" rx="11.3" ry="11.3"/>
<circle class="st3" cx="429.1" cy="660.6" r="11.3"/>
<image style="overflow:visible;enable-background:new    ;" width="959" height="959" xlink:href="Images/battery.jpg"  transform="matrix(6.045340e-02 0 0 5.598316e-02 371.1168 590.1057)">
</image>
<image style="overflow:visible;enable-background:new    ;" width="1600" height="1600" xlink:href="Images/engine.jpg"  transform="matrix(3.849540e-02 0 0 3.562780e-02 512.3165 588.4474)">
</image>
<g>
	<path id="left_outsideCutPath" vector-effect="non-scaling-stroke" class="st0" d="M692.5,566.1v144h316.8v-144H692.5z"/>
	<g>
		<circle class="st3" cx="741.8" cy="662.1" r="18.4"/>
		<circle class="st3" cx="812.5" cy="662.1" r="18.4"/>
		<circle class="st3" cx="954" cy="662.1" r="18.4"/>
		<circle class="st3" cx="883.3" cy="662.1" r="18.4"/>
	</g>
	
		<image style="overflow:visible;enable-background:new    ;" width="150" height="151" xlink:href="Images/arduino.jpg"  transform="matrix(0.2834 0 0 0.2752 720.5644 583.2654)">
	</image>
	
		<image style="overflow:visible;enable-background:new    ;" width="1600" height="1600" xlink:href="Images/engine.jpg"  transform="matrix(3.412803e-02 0 0 3.004271e-02 926.6962 580.0088)">
	</image>
	
		<image style="overflow:visible;enable-background:new    ;" width="530" height="530" xlink:href="Images/brain.jpg"  transform="matrix(8.869101e-02 0 0 8.304498e-02 859.7691 580.3777)">
	</image>
	
		<image style="overflow:visible;enable-background:new    ;" width="421" height="402" xlink:href="Images/analog-png-7.png"  transform="matrix(0.1537 0 0 0.111 780.192 580.0737)">
	</image>
</g>
<rect x="533.8" y="656" class="st3" width="18.7" height="9.1"/>
<polyline class="st4" points="785.7,39.7 848.5,39.7 848.5,30.7 912,30.7 912,39.7 972.6,39.7 972.6,30.7 1027.9,30.7 1027.9,39.7 
	"/>
<polyline class="st4" points="197.7,317 197.7,254.2 188.7,254.2 188.7,190.7 197.7,190.7 197.7,130.1 188.7,130.1 188.7,74.8 
	197.7,74.8 "/>
<g>
	<line class="st4" x1="924.2" y1="480.3" x2="924.2" y2="516.5"/>
	<polyline class="st4" points="924.2,419.7 915.2,419.7 915.2,480.3 924.2,480.3 	"/>
	<line class="st4" x1="924.2" y1="364.4" x2="924.2" y2="419.7"/>
</g>
<g>
	<g>
		<polyline class="st4" points="50.6,407.9 84.3,407.9 84.3,416.9 		"/>
		<path class="st4" d="M50.6,407.9"/>
		<line class="st4" x1="84.3" y1="416.9" x2="84.3" y2="407.9"/>
		<path class="st4" d="M84.3,416.9"/>
		<line class="st4" x1="141" y1="407.9" x2="141" y2="416.9"/>
		<polyline class="st4" points="141,416.9 141,407.9 197.7,407.9 197.7,416.9 		"/>
		<line class="st4" x1="197.7" y1="416.9" x2="197.7" y2="407.9"/>
		<path class="st4" d="M197.7,416.9"/>
		<line class="st4" x1="254.4" y1="407.9" x2="254.4" y2="416.9"/>
		<polyline class="st4" points="254.4,416.9 254.4,407.9 288.2,407.9 		"/>
	</g>
	<g>
		<g>
			<path id="front_outsideCutPath_3_" vector-effect="non-scaling-stroke" class="st0" d="M50.6,416.9v135h237.6v-135"/>
			<path id="front_outsideCutPath" vector-effect="non-scaling-stroke" class="st0" d="M288.2,407.9v-36H50.6v36"/>
			
				<image style="overflow:visible;enable-background:new    ;" width="212" height="48" xlink:href="149F47201194CA1A.jpg"  transform="matrix(0.7937 0 0 0.7937 84.3489 458.0113)">
			</image>
		</g>
		<g>
			<polyline class="st4" points="288.2,416.9 254.4,416.9 254.4,407.9 			"/>
			<path class="st4" d="M288.2,416.9"/>
			<line class="st4" x1="254.4" y1="407.9" x2="254.4" y2="416.9"/>
			<path class="st4" d="M254.4,407.9"/>
			<path class="st4" d="M197.7,407.9"/>
			<line class="st4" x1="197.7" y1="416.9" x2="197.7" y2="407.9"/>
			<polyline class="st4" points="197.7,407.9 197.7,416.9 141,416.9 141,407.9 			"/>
			<line class="st4" x1="141" y1="407.9" x2="141" y2="416.9"/>
			<path class="st4" d="M141,407.9"/>
			<path class="st4" d="M84.3,407.9"/>
			<line class="st4" x1="84.3" y1="416.9" x2="84.3" y2="407.9"/>
			<polyline class="st4" points="84.3,407.9 84.3,416.9 50.6,416.9 			"/>
		</g>
	</g>
</g>
<path id="back_outsideCutPath_4_" vector-effect="non-scaling-stroke" class="st0" d="M738.5,258.8"/>
<path id="back_outsideCutPath_9_" vector-effect="non-scaling-stroke" class="st0" d="M890.5,517.6"/>
<path id="back_outsideCutPath_8_" vector-effect="non-scaling-stroke" class="st0" d="M833.8,517.6"/>
<path id="back_outsideCutPath_6_" vector-effect="non-scaling-stroke" class="st0" d="M777.1,517.6"/>
<path id="back_outsideCutPath_5_" vector-effect="non-scaling-stroke" class="st0" d="M720.4,517.6"/>
<path id="back_outsideCutPath_1_" vector-effect="non-scaling-stroke" class="st0" d="M686.6,381.5v135h33.8"/>
<g>
	<circle class="st3" cx="856.9" cy="499.4" r="7.1"/>
	<circle class="st3" cx="893.7" cy="499.4" r="7.1"/>
	
		<image style="overflow:visible;enable-background:new    ;" width="1667" height="1786" xlink:href="Images/info.jpg"  transform="matrix(1.211721e-02 0 0 1.169880e-02 883.6142 461.8701)">
	</image>
	
		<image style="overflow:visible;enable-background:new    ;" width="1600" height="1600" xlink:href="Images/engine.jpg"  transform="matrix(1.644337e-02 0 0 1.460217e-02 843.7592 460.6354)">
	</image>
</g>
<g>
	
		<image style="overflow:visible;enable-background:new    ;" width="626" height="626" xlink:href="Images/t1TwA.jpg"  transform="matrix(4.543621e-09 -7.721105e-02 8.011945e-02 4.714770e-09 848.709 449.2202)">
	</image>
	<circle class="st3" cx="873.8" cy="421.6" r="9.9"/>
</g>
<rect x="757.5" y="474.5" class="st3" width="60" height="26.6"/>
<text transform="matrix(0.7489 0 0 1 766.7518 491.1848)" class="st5 st6">sensors</text>
<g>
	<polyline class="st4" points="720.4,373.6 720.4,382.6 686.6,382.6 	"/>
	<polyline class="st4" points="720.4,382.6 720.4,373.6 777.1,373.6 777.1,382.6 	"/>
	<polyline class="st4" points="833.8,373.6 833.8,382.6 777.1,382.6 777.1,373.6 	"/>
	<polyline class="st4" points="833.8,373.6 890.5,373.6 890.5,382.6 	"/>
	<line class="st4" x1="833.8" y1="382.6" x2="833.8" y2="373.6"/>
	<polyline class="st4" points="924.2,382.6 890.5,382.6 890.5,373.6 	"/>
</g>
<g>
	<polyline class="st4" points="890.5,525.5 890.5,516.5 924.2,516.5 	"/>
	<polyline class="st4" points="890.5,516.5 890.5,525.5 833.8,525.5 833.8,516.5 	"/>
	<polyline class="st4" points="777.1,525.5 777.1,516.5 833.8,516.5 833.8,525.5 	"/>
	<polyline class="st4" points="777.1,525.5 720.4,525.5 720.4,516.5 	"/>
	<line class="st4" x1="777.1" y1="516.5" x2="777.1" y2="525.5"/>
	<polyline class="st4" points="686.6,516.5 720.4,516.5 720.4,525.5 	"/>
</g>
<g>
	<polyline class="st4" points="890.5,74.8 890.5,65.8 924.2,65.8 	"/>
	<polyline class="st4" points="890.5,65.8 890.5,74.8 833.8,74.8 833.8,65.8 	"/>
	<line class="st4" x1="833.8" y1="65.8" x2="833.8" y2="74.8"/>
	<polyline class="st4" points="777.1,74.8 777.1,65.8 833.8,65.8 	"/>
	<polyline class="st4" points="777.1,74.8 720.4,74.8 720.4,65.8 	"/>
	<line class="st4" x1="777.1" y1="65.8" x2="777.1" y2="74.8"/>
	<polyline class="st4" points="686.6,65.8 720.4,65.8 720.4,74.8 	"/>
</g>
</svg>
