<?xml version="1.0" encoding="utf-8"?>
<!-- Generator: Adobe Illustrator 24.0.2, SVG Export Plug-In . SVG Version: 6.00 Build 0)  -->
<svg version="1.1" id="Layer_1" xmlns="http://www.w3.org/2000/svg" xmlns:xlink="http://www.w3.org/1999/xlink" x="0px" y="0px"
	 viewBox="0 0 1129.1 829" style="enable-background:new 0 0 1129.1 829;" xml:space="preserve">
<style type="text/css">
	.st0{fill:none;stroke:#000000;stroke-width:0.5;stroke-miterlimit:10;}
	.st1{fill:#777777;stroke:#000000;stroke-width:0.5;stroke-miterlimit:10;}
	.st2{fill:#777777;stroke:#777777;stroke-width:0.7087;stroke-linecap:round;stroke-miterlimit:4.0001;}
	.st3{fill:#777777;stroke:#777777;stroke-width:0.7087;stroke-linecap:round;}
	.st4{fill:#777777;stroke:#777777;stroke-width:0.7087;stroke-linecap:round;stroke-miterlimit:4;}
	.st5{font-family:'ArialMT';}
	.st6{font-size:12px;}
</style>
<image style="overflow:visible;enable-background:new    ;" width="626" height="626" xlink:href="t1TwA.jpg"  transform="matrix(6.561415e-09 -0.1115 0.1157 6.808571e-09 286.2 291.1)">
</image>
<g id="svgGroup">
	<path id="front_outsideCutPath" vector-effect="non-scaling-stroke" class="st0" d="M13.3,376.9v126h309.6v-126H13.3z"/>
	<path id="left_outsideCutPath" vector-effect="non-scaling-stroke" class="st0" d="M432,402v125.3h184.2V402H432z"/>
	<path id="top_outsideCutPath" vector-effect="non-scaling-stroke" class="st0" d="M623.4,414.5v360H933v-360H623.4z"/>
	<path id="top_labelLayer" vector-effect="non-scaling-stroke" class="st1" d="M792.6,618.3h-0.2c0.1,0.8,0.2,1.5,0.2,2.3
		c0,0.4,0,0.9,0,1.3v8.9h-3.3v-31.2h2.7l0.5,2.9h0.2c0.4-0.5,0.8-1,1.3-1.4c0.5-0.5,1.1-0.8,1.7-1.1c0.7-0.3,1.5-0.6,2.3-0.7
		c0.5-0.1,1-0.1,1.5-0.1c2.9,0,5.1,1,6.6,2.9c1.6,2,2.3,4.7,2.3,8.2c0,1.1-0.1,2.2-0.3,3.2c-0.2,1.1-0.5,2.2-0.9,3.1
		c-0.3,0.7-0.7,1.3-1.2,1.9c-1.3,1.7-3.3,2.7-5.5,2.9c-0.4,0-0.7,0.1-1.1,0.1c-1.4,0-2.7-0.3-3.8-0.8
		C794.4,620.1,793.4,619.4,792.6,618.3z M760.7,618.4v2.5c-0.1,0.1-0.3,0.1-0.4,0.2c-0.3,0.1-0.7,0.2-1.2,0.3
		c-0.3,0.1-0.6,0.1-0.9,0.1s-0.6,0-0.8,0h-0.1c-4.2,0-6.3-2.2-6.3-6.6v-12.8h-3v-1.6l3.1-1.4l1.4-4.6h1.9v5h6.3v2.5h-6.3v12.7
		c0,0.4,0,0.8,0.1,1.2c0.1,0.4,0.2,0.8,0.4,1.1c0.1,0.3,0.3,0.5,0.5,0.7c0.5,0.5,1.1,0.9,1.9,1c0.2,0,0.4,0,0.7,0c0.5,0,1,0,1.6-0.1
		h0.1c0.2,0,0.3-0.1,0.5-0.1C760.2,618.5,760.5,618.4,760.7,618.4z M783.3,613.5c0.2-1.1,0.3-2.2,0.3-3.3c0-0.2,0-0.3,0-0.5
		c0-1.2-0.2-2.3-0.4-3.3c-0.4-1.6-1.1-3.1-2.2-4.3c-1.1-1.2-2.4-2.1-4-2.6c-1-0.3-2.1-0.5-3.2-0.4c-0.8,0-1.5,0.1-2.3,0.2
		c-1.9,0.3-3.7,1.3-5,2.7c-1.8,2-2.6,4.7-2.6,8.2c0,2.3,0.4,4.2,1.2,5.9c0.1,0.2,0.2,0.3,0.2,0.5c0.7,1.4,1.9,2.6,3.2,3.4
		c0.7,0.4,1.4,0.7,2.1,0.9c1,0.3,2,0.4,3,0.4c0.7,0,1.5-0.1,2.2-0.2c2-0.3,3.8-1.3,5.1-2.8C782.2,617.2,782.9,615.5,783.3,613.5z
		 M767.2,610.3c0,0.8,0,1.6,0.2,2.4c0.2,1.6,0.7,2.9,1.5,3.9c0.8,1.1,2.1,1.8,3.5,2c0.5,0.1,0.9,0.1,1.4,0.1c0.7,0,1.3-0.1,2-0.2
		c1.1-0.3,2.2-1,2.9-1.9c0.8-1.1,1.3-2.5,1.6-4.3c0.1-0.7,0.1-1.3,0.1-2c0-1.8-0.2-3.2-0.7-4.5c-0.2-0.6-0.6-1.2-1-1.8
		c-0.8-1.1-2-1.8-3.3-2c-0.5-0.1-1-0.1-1.6-0.1c-0.7,0-1.3,0.1-1.9,0.2c-1.2,0.3-2.2,0.9-2.9,1.9c-0.8,1-1.3,2.4-1.5,4.1
		C767.3,608.8,767.2,609.5,767.2,610.3z M792.6,609.5v0.7c0,0.7,0,1.5,0.1,2.2c0.2,1.9,0.7,3.3,1.4,4.3c0.6,0.8,1.5,1.3,2.4,1.6
		c0.5,0.2,1.1,0.3,1.8,0.3c0.2,0,0.4,0,0.7,0c0.7,0,1.5-0.1,2.1-0.4c0.8-0.3,1.5-0.9,2.1-1.7c0-0.1,0.1-0.1,0.1-0.2
		c0.5-0.7,0.8-1.5,1.1-2.3c0.2-0.7,0.4-1.5,0.4-2.3c0-0.5,0.1-1.1,0.1-1.6c0-0.8,0-1.6-0.2-2.3c-0.1-0.8-0.3-1.5-0.5-2.1
		c-0.2-0.6-0.5-1.2-0.9-1.7c-1.1-1.4-2.5-2.2-4.5-2.2c-0.6,0-1.2,0-1.8,0.2c-1.3,0.3-2.3,0.8-3,1.7c-0.4,0.5-0.7,1-0.9,1.6
		C792.8,606.4,792.6,607.8,792.6,609.5z"/>
	<path id="back_outsideCutPath" vector-effect="non-scaling-stroke" class="st0" d="M22.7,75.7v126h309.6v-126H22.7z"/>
	<path id="right_outsideCutPath" vector-effect="non-scaling-stroke" class="st0" d="M344.1,166.4v126h360v-126H344.1z"/>
	<path id="bottom_outsideCutPath" vector-effect="non-scaling-stroke" class="st0" d="M621.5,33.9v360h309.6v-360H621.5z"/>
	<path id="bottom_labelLayer" vector-effect="non-scaling-stroke" class="st1" d="M843,224.9h-3.3v-14c0-0.5,0-0.9-0.1-1.4
		s-0.2-0.9-0.3-1.3c-0.2-0.4-0.4-0.8-0.7-1.1c-0.4-0.5-1-0.8-1.6-1c-0.5-0.2-1.1-0.3-1.8-0.3c-2,0-3.5,0.6-4.5,1.7
		c-0.4,0.5-0.7,1.1-0.9,1.7c-0.4,1-0.5,2.2-0.5,3.7l0,0v12H826v-14c0-0.5,0-0.9-0.1-1.4s-0.2-0.9-0.3-1.3c-0.2-0.4-0.4-0.8-0.7-1.1
		c-0.7-0.9-1.9-1.3-3.4-1.3c-2,0-3.5,0.6-4.5,1.8c-0.9,1.1-1.3,2.9-1.4,5.3c0,0.3,0,0.5,0,0.8V225h-3.3v-21.5h2.7l0.5,2.9h0.2
		c0.6-1,1.5-1.9,2.6-2.5c1-0.5,2-0.8,3.1-0.9c0.2,0,0.5,0,0.7,0c0.8,0,1.6,0.1,2.4,0.2c1,0.2,1.8,0.6,2.5,1.2
		c0.7,0.6,1.3,1.4,1.7,2.3h0.2c0.6-1.1,1.5-1.9,2.6-2.5c0.1,0,0.1-0.1,0.2-0.1c0.9-0.5,2-0.8,3-0.9c0.4,0,0.8-0.1,1.1-0.1
		c0.7,0,1.4,0.1,2.1,0.2c0.8,0.1,1.4,0.4,2,0.7c0.5,0.3,1,0.6,1.4,1c0.5,0.6,0.9,1.2,1.2,2c0.2,0.6,0.4,1.2,0.5,2
		c0.1,0.7,0.1,1.4,0.1,2.1v13.8L843,224.9L843,224.9z M713.8,222.2h-0.2l-0.7,2.8h-2.3v-30.6h3.3v7.4c0,0.8,0,1.5,0,2.3
		c0,0.7-0.1,1.4-0.1,2.1v0.1h0.2c1.3-1.8,3.2-2.9,5.4-3.1c0.4-0.1,0.9-0.1,1.3-0.1c0.9,0,1.9,0.1,2.8,0.4c1.5,0.4,2.8,1.3,3.8,2.5
		c0.8,1,1.3,2.1,1.7,3.2c0.4,1.4,0.7,3.1,0.7,5c0,1.1-0.1,2.2-0.3,3.2c-0.2,1.1-0.5,2.2-0.9,3.1c-0.3,0.7-0.7,1.3-1.2,1.9
		c-1.3,1.7-3.3,2.7-5.5,2.9c-0.4,0-0.7,0.1-1.1,0.1c-1.4,0-2.7-0.3-3.8-0.8C715.5,224,714.5,223.3,713.8,222.2z M769.3,222.3v2.5
		c-0.1,0.1-0.3,0.1-0.4,0.2c-0.3,0.1-0.7,0.2-1.2,0.3c-0.3,0-0.6,0.1-0.9,0.1s-0.6,0-0.8,0H766c-4.2,0-6.3-2.2-6.3-6.6V206h-3.1
		v-1.6l3.1-1.4l1.4-4.6h1.9v5h6.3v2.5H763v12.7c0,0.4,0,0.8,0.1,1.2c0.1,0.4,0.2,0.8,0.4,1.1c0.1,0.3,0.3,0.5,0.5,0.7
		c0.5,0.5,1.1,0.9,1.9,1c0.2,0,0.4,0.1,0.7,0.1c0.5,0,1,0,1.6-0.1h0.1c0.2,0,0.3-0.1,0.5-0.1C768.8,222.4,769.2,222.3,769.3,222.3z
		 M783.5,222.3v2.5c-0.1,0.1-0.3,0.1-0.4,0.2c-0.3,0.1-0.7,0.2-1.2,0.3c-0.3,0-0.6,0.1-0.9,0.1s-0.6,0-0.8,0h-0.1
		c-4.2,0-6.3-2.2-6.3-6.6V206h-3.1v-1.6l3.1-1.4l1.4-4.6h1.9v5h6.3v2.5h-6.3v12.7c0,0.4,0,0.8,0.1,1.2c0.1,0.4,0.2,0.8,0.4,1.1
		c0.1,0.3,0.3,0.5,0.5,0.7c0.5,0.5,1.1,0.9,1.9,1c0.2,0,0.4,0.1,0.7,0.1c0.5,0,1,0,1.6-0.1h0.1c0.2,0,0.3-0.1,0.5-0.1
		C783,222.4,783.3,222.3,783.5,222.3z M753.5,217.4c0.2-1.1,0.3-2.2,0.3-3.3c0-0.2,0-0.3,0-0.5c0-1.2-0.2-2.3-0.4-3.3
		c-0.4-1.6-1.1-3.1-2.2-4.3c-1.1-1.2-2.4-2.1-4-2.6c-1-0.3-2.1-0.5-3.2-0.5c-0.8,0-1.5,0.1-2.3,0.2c-1.9,0.3-3.7,1.3-5,2.7
		c-1.8,2-2.6,4.7-2.6,8.2c0,2.3,0.4,4.2,1.2,5.9c0.1,0.2,0.2,0.3,0.2,0.5c0.7,1.4,1.9,2.6,3.2,3.4c0.7,0.4,1.4,0.7,2.1,0.9
		c1,0.3,2,0.4,3,0.4c0.7,0,1.5-0.1,2.2-0.2c2-0.3,3.8-1.3,5.1-2.8C752.3,221.1,753,219.4,753.5,217.4z M806.2,217.4
		c0.2-1.1,0.3-2.2,0.3-3.3c0-0.2,0-0.3,0-0.5c0-1.2-0.2-2.3-0.4-3.3c-0.4-1.6-1.1-3.1-2.2-4.3c-1.1-1.2-2.4-2.1-4-2.6
		c-1-0.3-2.1-0.5-3.2-0.5c-0.8,0-1.5,0.1-2.3,0.2c-1.9,0.3-3.7,1.3-5,2.7c-1.8,2-2.6,4.7-2.6,8.2c0,2.3,0.4,4.2,1.2,5.9
		c0.1,0.2,0.2,0.3,0.2,0.5c0.7,1.4,1.9,2.6,3.2,3.4c0.7,0.4,1.4,0.7,2.1,0.9c1,0.3,2,0.4,3,0.4c0.7,0,1.5-0.1,2.2-0.2
		c2-0.3,3.8-1.3,5.1-2.8C805,221.1,805.8,219.4,806.2,217.4z M737.3,214.2c0,0.8,0,1.6,0.2,2.4c0.2,1.6,0.7,2.9,1.5,3.9
		c0.8,1.1,2.1,1.9,3.5,2.1c0.5,0.1,0.9,0.1,1.4,0.1c0.7,0,1.3-0.1,2-0.2c1.1-0.3,2.2-1,2.9-1.9c0.8-1.1,1.3-2.5,1.6-4.3
		c0.1-0.7,0.1-1.3,0.1-2c0-1.8-0.2-3.2-0.7-4.5c-0.2-0.6-0.6-1.2-1-1.8c-0.8-1.1-2-1.8-3.3-2c-0.5-0.1-1-0.1-1.6-0.1
		c-0.7,0-1.3,0.1-1.9,0.2c-1.2,0.3-2.2,0.9-2.9,1.9c-0.8,1-1.3,2.4-1.5,4.1C737.3,212.7,737.3,213.4,737.3,214.2z M790,214.2
		c0,0.8,0,1.6,0.2,2.4c0.2,1.6,0.7,2.9,1.5,3.9c0.8,1.1,2.1,1.9,3.5,2.1c0.5,0.1,0.9,0.1,1.4,0.1c0.7,0,1.3-0.1,2-0.2
		c1.1-0.3,2.2-1,2.9-1.9c0.8-1.1,1.3-2.5,1.6-4.3c0.1-0.7,0.1-1.3,0.1-2c0-1.8-0.2-3.2-0.7-4.5c-0.2-0.6-0.6-1.2-1-1.8
		c-0.8-1.1-2-1.8-3.3-2c-0.5-0.1-1-0.1-1.6-0.1c-0.7,0-1.3,0.1-1.9,0.2c-1.2,0.3-2.2,0.9-2.9,1.9c-0.8,1-1.3,2.4-1.5,4.1
		C790.2,212.7,790,213.4,790,214.2z M720,205.8c-0.6,0-1.2,0-1.8,0.2c-0.7,0.1-1.3,0.4-1.8,0.6c-0.5,0.3-0.9,0.7-1.3,1.1
		c-0.3,0.5-0.6,1-0.8,1.5c-0.4,1-0.6,2.3-0.6,3.9c0,0.4,0,0.7,0,1.1c0,0.7,0,1.5,0.1,2.2c0.2,1.9,0.7,3.3,1.4,4.3
		c0.6,0.8,1.5,1.3,2.4,1.6c0.5,0.2,1.1,0.3,1.8,0.3c0.2,0,0.4,0,0.7,0c0.6,0,1.2-0.1,1.8-0.2c1.1-0.3,2-1,2.6-1.9
		c0.4-0.6,0.7-1.3,0.9-2c0.2-0.6,0.3-1.3,0.4-2.1c0.1-0.7,0.1-1.5,0.1-2.2c0-2.8-0.5-4.9-1.5-6.3C723.7,206.5,722,205.8,720,205.8z"
		/>
</g>
<ellipse transform="matrix(0.6408 -0.7677 0.7677 0.6408 48.2734 437.6156)" class="st2" cx="491.8" cy="167.2" rx="11.3" ry="11.3"/>
<circle class="st3" cx="559.2" cy="167" r="11.3"/>
<ellipse transform="matrix(0.4641 -0.8858 0.8858 0.4641 34.7255 571.7836)" class="st4" cx="489.9" cy="257.2" rx="11.3" ry="11.3"/>
<circle class="st3" cx="562.1" cy="257.2" r="11.3"/>
<circle class="st3" cx="489.9" cy="392.6" r="18.4"/>
<circle class="st3" cx="565.1" cy="392.6" r="18.4"/>
<circle class="st3" cx="489.9" cy="495.5" r="18.4"/>
<circle class="st3" cx="565.1" cy="495.5" r="18.4"/>
<image style="overflow:visible;enable-background:new    ;" width="959" height="959" xlink:href="battery.jpg"  transform="matrix(6.045340e-02 0 0 5.598316e-02 499.0024 187.0534)">
</image>
<image style="overflow:visible;enable-background:new    ;" width="1600" height="1600" xlink:href="engine.jpg"  transform="matrix(3.849540e-02 0 0 3.562780e-02 497.1934 276.2323)">
</image>
<image style="overflow:visible;enable-background:new    ;" width="150" height="151" xlink:href="arduino.jpg"  transform="matrix(0.2834 0 0 0.2752 468.6175 419.1404)">
</image>
<image style="overflow:visible;enable-background:new    ;" width="1600" height="1600" xlink:href="engine.jpg"  transform="matrix(3.412803e-02 0 0 3.004271e-02 535.4597 415.8866)">
</image>
<image style="overflow:visible;enable-background:new    ;" width="530" height="530" xlink:href="brain.jpg"  transform="matrix(8.869101e-02 0 0 8.304498e-02 541.5621 521.5045)">
</image>
<circle class="st3" cx="297.3" cy="160.2" r="7.1"/>
<circle class="st3" cx="346.4" cy="160.2" r="7.1"/>
<image style="overflow:visible;enable-background:new    ;" width="1667" height="1786" xlink:href="info.jpg"  transform="matrix(1.211721e-02 0 0 1.169880e-02 287.2179 179.5583)">
</image>
<image style="overflow:visible;enable-background:new    ;" width="1600" height="1600" xlink:href="engine.jpg"  transform="matrix(1.644337e-02 0 0 1.460217e-02 333.2675 178.3236)">
</image>
<circle class="st3" cx="322.4" cy="252.2" r="9.9"/>
<rect x="254.7" y="296.3" class="st3" width="29" height="23"/>
<rect x="275.3" y="303.7" class="st3" width="1.1" height="1.1"/>
<rect x="354.3" y="291.4" class="st3" width="60" height="26.6"/>
<text transform="matrix(1 0 0 1 366.2933 307.796)" class="st5 st6">sensors</text>
<image style="overflow:visible;enable-background:new    ;" width="257" height="257" xlink:href="icon.jpg"  transform="matrix(0.605 0 0 0.6725 244.7094 377.4954)">
</image>
<image style="overflow:visible;enable-background:new    ;" width="421" height="402" xlink:href="analog-png-7.png"  transform="matrix(0.1537 0 0 0.111 459.4463 521.5045)">
</image>
</svg>
